<svg width="100" height="100" viewBox="0 0 100 100" fill="none" xmlns="http://www.w3.org/2000/svg">
<rect x="5" y="5" width="90" height="90" rx="45" fill="#F3BA2F"/>
<circle cx="50" cy="50" r="42" fill="#F3BA2F"/>
<path d="M27.435 56.155L29.075 53.326C29.6217 53.6813 30.387 54.023 31.371 54.351C32.355 54.679 33.503 54.843 34.815 54.843C36.1817 54.843 37.2613 54.7063 38.054 54.433C38.874 54.1597 39.4617 53.7633 39.817 53.244C40.1997 52.6973 40.391 52.0687 40.391 51.358C40.391 50.8113 40.268 50.1417 40.022 49.349C39.8033 48.529 39.3113 47.4357 38.546 46.069C37.7807 44.675 36.6053 42.8573 35.02 40.616L37.849 38.771C39.2977 40.7663 40.4457 42.5703 41.293 44.183C42.1677 45.7957 42.7827 47.217 43.138 48.447C43.5207 49.6497 43.712 50.6883 43.712 51.563C43.712 52.6563 43.4387 53.7223 42.892 54.761C42.3453 55.7723 41.4297 56.606 40.145 57.262C38.8603 57.918 37.0837 58.246 34.815 58.246C33.831 58.246 32.8743 58.164 31.945 58C31.043 57.836 30.2093 57.6037 29.444 57.303C28.6787 56.975 28.009 56.5923 27.435 56.155ZM48.4219 56.0381C48.4219 55.4108 48.6154 54.8836 49.0024 54.4565C49.4028 54.0161 49.9767 53.7959 50.7241 53.7959C51.4715 53.7959 52.0387 54.0161 52.4258 54.4565C52.8262 54.8836 53.0264 55.4108 53.0264 56.0381C53.0264 56.652 52.8262 57.1725 52.4258 57.5996C52.0387 58.0267 51.4715 58.2402 50.7241 58.2402C49.9767 58.2402 49.4028 58.0267 49.0024 57.5996C48.6154 57.1725 48.4219 56.652 48.4219 56.0381ZM60.1216 58L59.3016 28.726H62.6226L63.4426 58H60.1216ZM59.0146 70.423L58.5226 68.209C59.2333 68.045 59.8073 67.9083 60.2446 67.799C60.6819 67.6897 61.1739 67.5667 61.7206 67.43L61.5156 68.291C60.8049 68.0723 60.1216 67.6077 59.4656 66.897C58.8369 66.1863 58.5226 65.38 58.5226 64.478C58.5226 63.658 58.7139 62.961 59.0966 62.387C59.5066 61.8403 60.0259 61.4303 60.6546 61.157C61.3106 60.8837 62.0076 60.747 62.7456 60.747C63.0463 60.747 63.3606 60.7743 63.6886 60.829C64.0439 60.8837 64.3719 60.9657 64.6726 61.075L64.3446 63.125C64.0713 63.0703 63.8116 63.0157 63.5656 62.961C63.3196 62.9063 63.0463 62.879 62.7456 62.879C62.1169 62.879 61.6249 63.002 61.2696 63.248C60.9143 63.5213 60.7366 63.8903 60.7366 64.355C60.7366 64.929 60.9143 65.421 61.2696 65.831C61.6523 66.241 62.0759 66.5553 62.5406 66.774C63.0326 67.02 63.4289 67.143 63.7296 67.143L62.0486 67.307C62.7866 67.1157 63.4699 66.9107 64.0986 66.692C64.7546 66.5007 65.3423 66.3093 65.8616 66.118L66.5176 68.209C65.8616 68.455 65.0826 68.7147 64.1806 68.988C63.3059 69.2613 62.4176 69.521 61.5156 69.767C60.6136 70.013 59.7799 70.2317 59.0146 70.423Z" fill="black"/>
</svg>
