<svg width="100" height="100" viewBox="0 0 100 100" fill="none" xmlns="http://www.w3.org/2000/svg">
<rect x="5" y="5" width="90" height="90" rx="45" fill="#F3BA2F"/>
<circle cx="50" cy="50" r="42" fill="#F3BA2F"/>
<path d="M40.0312 38.082L30.6172 64H26.7695L37.6094 35.5625H40.0898L40.0312 38.082ZM47.9219 64L38.4883 38.082L38.4297 35.5625H40.9102L51.7891 64H47.9219ZM47.4336 53.4727V56.5586H31.457V53.4727H47.4336ZM65.4609 30.9531V36.9102H62.5312V30.9531H65.4609ZM65.1094 62.8477V68.0625H62.1992V62.8477H65.1094ZM69.0156 56.6758C69.0156 55.8945 68.8398 55.1914 68.4883 54.5664C68.1367 53.9414 67.5573 53.3685 66.75 52.8477C65.9427 52.3268 64.862 51.8451 63.5078 51.4023C61.8672 50.8945 60.4479 50.276 59.25 49.5469C58.0651 48.8177 57.1471 47.9128 56.4961 46.832C55.8581 45.7513 55.5391 44.4427 55.5391 42.9062C55.5391 41.3047 55.8841 39.9245 56.5742 38.7656C57.2643 37.6068 58.2409 36.7148 59.5039 36.0898C60.7669 35.4648 62.2513 35.1523 63.957 35.1523C65.2852 35.1523 66.4701 35.3542 67.5117 35.7578C68.5534 36.1484 69.4323 36.7344 70.1484 37.5156C70.8776 38.2969 71.431 39.2539 71.8086 40.3867C72.1992 41.5195 72.3945 42.8281 72.3945 44.3125H68.8008C68.8008 43.4401 68.6966 42.6393 68.4883 41.9102C68.2799 41.181 67.9674 40.5495 67.5508 40.0156C67.1341 39.4688 66.6263 39.0521 66.0273 38.7656C65.4284 38.4661 64.7383 38.3164 63.957 38.3164C62.8633 38.3164 61.9583 38.5052 61.2422 38.8828C60.5391 39.2604 60.0182 39.7943 59.6797 40.4844C59.3411 41.1615 59.1719 41.9492 59.1719 42.8477C59.1719 43.681 59.3411 44.4102 59.6797 45.0352C60.0182 45.6602 60.5911 46.2266 61.3984 46.7344C62.2188 47.2292 63.3451 47.7174 64.7773 48.1992C66.457 48.7331 67.8828 49.3646 69.0547 50.0938C70.2266 50.8099 71.1185 51.6953 71.7305 52.75C72.3424 53.7917 72.6484 55.0872 72.6484 56.6367C72.6484 58.3164 72.2708 59.7357 71.5156 60.8945C70.7604 62.0404 69.6992 62.9128 68.332 63.5117C66.9648 64.1107 65.3633 64.4102 63.5273 64.4102C62.4206 64.4102 61.3268 64.2604 60.2461 63.9609C59.1654 63.6615 58.1888 63.1732 57.3164 62.4961C56.444 61.806 55.7474 60.901 55.2266 59.7812C54.7057 58.6484 54.4453 57.2617 54.4453 55.6211H58.0781C58.0781 56.7279 58.2344 57.6458 58.5469 58.375C58.8724 59.0911 59.3021 59.6641 59.8359 60.0938C60.3698 60.5104 60.9557 60.8099 61.5938 60.9922C62.2448 61.1615 62.8893 61.2461 63.5273 61.2461C64.6992 61.2461 65.6888 61.0638 66.4961 60.6992C67.3164 60.3216 67.9414 59.7878 68.3711 59.0977C68.8008 58.4076 69.0156 57.6003 69.0156 56.6758Z" fill="black"/>
</svg>
