<svg width="100" height="100" viewBox="0 0 100 100" fill="none" xmlns="http://www.w3.org/2000/svg">
<rect x="5" y="5" width="90" height="90" rx="45" fill="#F3BA2F"/>
<circle cx="50" cy="50" r="42" fill="#F3BA2F"/>
<path d="M55.0586 41.8672V44.6406H51.0938V64.7383C51.0938 66.1966 50.8398 67.4336 50.332 68.4492C49.8372 69.4648 49.1211 70.2331 48.1836 70.7539C47.2461 71.2747 46.1198 71.5352 44.8047 71.5352C44.401 71.5352 44.0299 71.5091 43.6914 71.457C43.3529 71.418 42.9948 71.3333 42.6172 71.2031L42.8906 68.3125C43.0859 68.3906 43.4049 68.4492 43.8477 68.4883C44.3034 68.5404 44.6224 68.5664 44.8047 68.5664C45.3646 68.5664 45.8398 68.4102 46.2305 68.0977C46.6341 67.7982 46.9401 67.362 47.1484 66.7891C47.3698 66.2161 47.4805 65.5326 47.4805 64.7383V44.6406H44.1406V41.8672H47.4805V39.6406C47.4805 38.1172 47.7409 36.8346 48.2617 35.793C48.7956 34.7383 49.5573 33.944 50.5469 33.4102C51.5365 32.8633 52.7148 32.5898 54.082 32.5898C54.5508 32.5898 55.013 32.6289 55.4688 32.707C55.9375 32.7852 56.4062 32.8828 56.875 33L56.4453 35.8516C56.1979 35.7865 55.9049 35.7409 55.5664 35.7148C55.2409 35.6758 54.8893 35.6562 54.5117 35.6562C53.7435 35.6562 53.1055 35.8125 52.5977 36.125C52.0898 36.4245 51.7122 36.8737 51.4648 37.4727C51.2174 38.0586 51.0938 38.7812 51.0938 39.6406V41.8672H55.0586Z" fill="black"/>
</svg>
