<svg width="100" height="100" viewBox="0 0 100 100" fill="none" xmlns="http://www.w3.org/2000/svg">
<g clip-path="url(#clip0_10_3)">
<rect x="5" y="5" width="90" height="90" rx="45" fill="#F3BA2F"/>
<circle cx="50" cy="50" r="42" fill="#F3BA2F"/>
<path d="M72.1797 68H64.9531V60.6562C64.9531 57.9219 64.7318 55.4479 64.2891 53.2344C63.8464 50.9948 63.1823 49.0417 62.2969 47.375C61.4375 45.6823 60.3698 44.263 59.0938 43.1172C57.8438 41.9714 56.3984 41.112 54.7578 40.5391C53.1432 39.9661 51.3464 39.6797 49.3672 39.6797C47.0234 39.6797 44.901 40.1354 43 41.0469C41.099 41.9323 39.4714 43.2604 38.1172 45.0312C36.763 46.8021 35.7214 48.9896 34.9922 51.5938C34.263 54.1979 33.8984 57.2188 33.8984 60.6562V68H26.6328V60.7344C26.6328 56.4635 27.1797 52.6354 28.2734 49.25C29.3932 45.8646 30.9557 42.987 32.9609 40.6172C34.9922 38.2474 37.388 36.4375 40.1484 35.1875C42.9349 33.9375 46.0078 33.3125 49.3672 33.3125C52.1276 33.3125 54.6797 33.7161 57.0234 34.5234C59.3932 35.3307 61.5026 36.5156 63.3516 38.0781C65.2266 39.6146 66.8151 41.5026 68.1172 43.7422C69.4453 45.9557 70.4479 48.4948 71.125 51.3594C71.8281 54.1979 72.1797 57.3229 72.1797 60.7344V68ZM53 25.7344V68H45.7344V25.7344H53Z" fill="black"/>
</g>
<defs>
<clipPath id="clip0_10_3">
<rect x="5" y="5" width="90" height="90" rx="45" fill="white"/>
</clipPath>
</defs>
</svg>
