<svg width="100" height="100" viewBox="0 0 100 100" fill="none" xmlns="http://www.w3.org/2000/svg">
<rect x="5" y="5" width="90" height="90" rx="45" fill="#F3BA2F"/>
<circle cx="50" cy="50" r="42" fill="#F3BA2F"/>
<path d="M27.5508 35.5625V64H23.7812V35.5625H27.5508ZM44.7188 35.5625L32.9023 48.8242L26.2617 55.7188L25.6367 51.6953L30.6367 46.1875L40.1875 35.5625H44.7188ZM41.0859 64L30.5586 50.1328L32.8047 47.1445L45.5781 64H41.0859ZM50.0898 35.5625H53.7422L63.0586 58.7461L72.3555 35.5625H76.0273L64.4648 64H61.6133L50.0898 35.5625ZM48.8984 35.5625H52.1211L52.6484 52.9062V64H48.8984V35.5625ZM73.9766 35.5625H77.1992V64H73.4492V52.9062L73.9766 35.5625Z" fill="black"/>
</svg>
