<svg width="100" height="100" viewBox="0 0 100 100" fill="none" xmlns="http://www.w3.org/2000/svg">
<rect x="5" y="5" width="90" height="90" rx="45" fill="#F3BA2F"/>
<circle cx="50" cy="50" r="42" fill="#F3BA2F"/>
<path d="M27.4062 50.6895H22.3613L22.334 48.5703H26.9141C27.6706 48.5703 28.3314 48.4427 28.8965 48.1875C29.4616 47.9323 29.8991 47.5677 30.209 47.0938C30.528 46.6107 30.6875 46.0365 30.6875 45.3711C30.6875 44.6419 30.5462 44.0495 30.2637 43.5938C29.9902 43.1289 29.5664 42.7917 28.9922 42.582C28.4271 42.3633 27.707 42.2539 26.832 42.2539H22.9492V60H20.3105V40.0938H26.832C27.8529 40.0938 28.7643 40.1986 29.5664 40.4082C30.3685 40.6087 31.0475 40.9277 31.6035 41.3652C32.1686 41.7936 32.597 42.3405 32.8887 43.0059C33.1803 43.6712 33.3262 44.4688 33.3262 45.3984C33.3262 46.2188 33.1165 46.9616 32.6973 47.627C32.278 48.2832 31.6947 48.821 30.9473 49.2402C30.209 49.6595 29.3431 49.9284 28.3496 50.0469L27.4062 50.6895ZM27.2832 60H21.3223L22.8125 57.8535H27.2832C28.1217 57.8535 28.8327 57.7077 29.416 57.416C30.0085 57.1243 30.4596 56.7142 30.7695 56.1855C31.0794 55.6478 31.2344 55.0143 31.2344 54.2852C31.2344 53.5469 31.1022 52.9089 30.8379 52.3711C30.5736 51.8333 30.1589 51.4186 29.5938 51.127C29.0286 50.8353 28.2995 50.6895 27.4062 50.6895H23.6465L23.6738 48.5703H28.8145L29.375 49.3359C30.332 49.418 31.1432 49.6914 31.8086 50.1562C32.474 50.612 32.9798 51.1953 33.3262 51.9062C33.6816 52.6172 33.8594 53.401 33.8594 54.2578C33.8594 55.4974 33.5859 56.5456 33.0391 57.4023C32.5013 58.25 31.7402 58.8971 30.7559 59.3438C29.7715 59.7812 28.6139 60 27.2832 60ZM46.6973 57.1289V39H49.2402V60H46.916L46.6973 57.1289ZM36.7441 52.7676V52.4805C36.7441 51.3503 36.8809 50.3249 37.1543 49.4043C37.4368 48.4746 37.8333 47.6771 38.3438 47.0117C38.8633 46.3464 39.4785 45.8359 40.1895 45.4805C40.9095 45.1159 41.7116 44.9336 42.5957 44.9336C43.5254 44.9336 44.3366 45.0977 45.0293 45.4258C45.7311 45.7448 46.3236 46.2142 46.8066 46.834C47.2988 47.4447 47.6862 48.1829 47.9688 49.0488C48.2513 49.9147 48.4473 50.8945 48.5566 51.9883V53.2461C48.4564 54.3307 48.2604 55.306 47.9688 56.1719C47.6862 57.0378 47.2988 57.776 46.8066 58.3867C46.3236 58.9974 45.7311 59.4668 45.0293 59.7949C44.3275 60.1139 43.5072 60.2734 42.5684 60.2734C41.7025 60.2734 40.9095 60.0866 40.1895 59.7129C39.4785 59.3392 38.8633 58.8151 38.3438 58.1406C37.8333 57.4661 37.4368 56.6732 37.1543 55.7617C36.8809 54.8411 36.7441 53.8431 36.7441 52.7676ZM39.2871 52.4805V52.7676C39.2871 53.5059 39.36 54.1986 39.5059 54.8457C39.6608 55.4928 39.8978 56.0625 40.2168 56.5547C40.5358 57.0469 40.9414 57.4342 41.4336 57.7168C41.9258 57.9902 42.5137 58.127 43.1973 58.127C44.0358 58.127 44.724 57.9492 45.2617 57.5938C45.8086 57.2383 46.2461 56.7689 46.5742 56.1855C46.9023 55.6022 47.1576 54.9688 47.3398 54.2852V50.9902C47.2305 50.4889 47.071 50.0059 46.8613 49.541C46.6608 49.0671 46.3965 48.6478 46.0684 48.2832C45.7493 47.9095 45.3529 47.6133 44.8789 47.3945C44.4141 47.1758 43.8626 47.0664 43.2246 47.0664C42.5319 47.0664 41.9349 47.2122 41.4336 47.5039C40.9414 47.7865 40.5358 48.1784 40.2168 48.6797C39.8978 49.1719 39.6608 49.7461 39.5059 50.4023C39.36 51.0495 39.2871 51.7422 39.2871 52.4805ZM61.791 56.0762C61.791 55.7116 61.709 55.3743 61.5449 55.0645C61.39 54.7454 61.0664 54.4583 60.5742 54.2031C60.0911 53.9388 59.362 53.7109 58.3867 53.5195C57.5664 53.3464 56.8236 53.1413 56.1582 52.9043C55.502 52.6673 54.9414 52.3802 54.4766 52.043C54.0208 51.7057 53.6699 51.3092 53.4238 50.8535C53.1777 50.3978 53.0547 49.8646 53.0547 49.2539C53.0547 48.6706 53.1823 48.1191 53.4375 47.5996C53.7018 47.0801 54.071 46.6198 54.5449 46.2188C55.028 45.8177 55.6068 45.5033 56.2812 45.2754C56.9557 45.0475 57.7077 44.9336 58.5371 44.9336C59.722 44.9336 60.7337 45.1432 61.5723 45.5625C62.4108 45.9818 63.0534 46.5423 63.5 47.2441C63.9466 47.9368 64.1699 48.707 64.1699 49.5547H61.6406C61.6406 49.1445 61.5176 48.748 61.2715 48.3652C61.0345 47.9733 60.6836 47.6497 60.2188 47.3945C59.763 47.1393 59.2025 47.0117 58.5371 47.0117C57.8353 47.0117 57.2656 47.1211 56.8281 47.3398C56.3997 47.5495 56.0853 47.8184 55.8848 48.1465C55.6934 48.4746 55.5977 48.821 55.5977 49.1855C55.5977 49.459 55.6432 49.7051 55.7344 49.9238C55.8346 50.1335 56.0078 50.3294 56.2539 50.5117C56.5 50.6849 56.8464 50.849 57.293 51.0039C57.7396 51.1589 58.3092 51.3138 59.002 51.4688C60.2142 51.7422 61.2122 52.0703 61.9961 52.4531C62.7799 52.8359 63.3633 53.3053 63.7461 53.8613C64.1289 54.4173 64.3203 55.0918 64.3203 55.8848C64.3203 56.5319 64.1836 57.1243 63.9102 57.6621C63.6458 58.1999 63.2585 58.6647 62.748 59.0566C62.2467 59.4395 61.6452 59.7402 60.9434 59.959C60.2507 60.1686 59.4714 60.2734 58.6055 60.2734C57.3021 60.2734 56.1992 60.041 55.2969 59.5762C54.3945 59.1113 53.7109 58.5098 53.2461 57.7715C52.7812 57.0332 52.5488 56.2539 52.5488 55.4336H55.0918C55.1283 56.1263 55.3288 56.6777 55.6934 57.0879C56.0579 57.4889 56.5046 57.776 57.0332 57.9492C57.5618 58.1133 58.0859 58.1953 58.6055 58.1953C59.2982 58.1953 59.877 58.1042 60.3418 57.9219C60.8158 57.7396 61.1758 57.4889 61.4219 57.1699C61.668 56.8509 61.791 56.4863 61.791 56.0762ZM74.9297 36.8672V41.0371H72.8789V36.8672H74.9297ZM74.6836 59.1934V62.8438H72.6465V59.1934H74.6836ZM77.418 54.873C77.418 54.3262 77.2949 53.834 77.0488 53.3965C76.8027 52.959 76.3971 52.5579 75.832 52.1934C75.2669 51.8288 74.5104 51.4915 73.5625 51.1816C72.4141 50.8262 71.4206 50.3932 70.582 49.8828C69.7526 49.3724 69.11 48.7389 68.6543 47.9824C68.2077 47.2259 67.9844 46.3099 67.9844 45.2344C67.9844 44.1133 68.2259 43.1471 68.709 42.3359C69.1921 41.5247 69.8757 40.9004 70.7598 40.4629C71.6439 40.0254 72.6829 39.8066 73.877 39.8066C74.8066 39.8066 75.6361 39.9479 76.3652 40.2305C77.0944 40.5039 77.7096 40.9141 78.2109 41.4609C78.7214 42.0078 79.1087 42.6777 79.373 43.4707C79.6465 44.2637 79.7832 45.1797 79.7832 46.2188H77.2676C77.2676 45.6081 77.1947 45.0475 77.0488 44.5371C76.903 44.0267 76.6842 43.5846 76.3926 43.2109C76.1009 42.8281 75.7454 42.5365 75.3262 42.3359C74.9069 42.1263 74.4238 42.0215 73.877 42.0215C73.1113 42.0215 72.4779 42.1536 71.9766 42.418C71.4844 42.6823 71.1198 43.056 70.8828 43.5391C70.6458 44.013 70.5273 44.5645 70.5273 45.1934C70.5273 45.7767 70.6458 46.2871 70.8828 46.7246C71.1198 47.1621 71.5208 47.5586 72.0859 47.9141C72.6602 48.2604 73.4486 48.6022 74.4512 48.9395C75.627 49.3132 76.625 49.7552 77.4453 50.2656C78.2656 50.7669 78.89 51.3867 79.3184 52.125C79.7467 52.8542 79.9609 53.7611 79.9609 54.8457C79.9609 56.0215 79.6966 57.015 79.168 57.8262C78.6393 58.6283 77.8965 59.2389 76.9395 59.6582C75.9824 60.0775 74.8613 60.2871 73.5762 60.2871C72.8014 60.2871 72.0358 60.1823 71.2793 59.9727C70.5228 59.763 69.8392 59.4212 69.2285 58.9473C68.6178 58.4642 68.1302 57.8307 67.7656 57.0469C67.401 56.2539 67.2188 55.2832 67.2188 54.1348H69.7617C69.7617 54.9095 69.8711 55.5521 70.0898 56.0625C70.3177 56.5638 70.6185 56.9648 70.9922 57.2656C71.3659 57.5573 71.776 57.7669 72.2227 57.8945C72.6784 58.013 73.1296 58.0723 73.5762 58.0723C74.3965 58.0723 75.0892 57.9447 75.6543 57.6895C76.2285 57.4251 76.666 57.0514 76.9668 56.5684C77.2676 56.0853 77.418 55.5202 77.418 54.873Z" fill="black"/>
</svg>
