<svg width="100" height="100" viewBox="0 0 100 100" fill="none" xmlns="http://www.w3.org/2000/svg">
<rect x="5" y="5" width="90" height="90" rx="45" fill="#F3BA2F"/>
<circle cx="50" cy="50" r="42" fill="#F3BA2F"/>
<path d="M67.1277 41.12V45.44H46.3677V62C46.3677 63.88 46.6077 65.16 47.0877 65.84C47.6077 66.52 48.6077 66.86 50.0877 66.86C51.2877 66.86 52.4877 66.6 53.6877 66.08C54.9277 65.56 56.0277 64.86 56.9877 63.98C57.9877 63.1 58.7877 62.1 59.3877 60.98C59.9877 59.82 60.2877 58.64 60.2877 57.44C60.2877 56.48 60.0077 55.74 59.4477 55.22C58.9277 54.7 58.0677 54.44 56.8677 54.44C55.7877 54.44 54.7877 54.56 53.8677 54.8L53.2677 50.72C53.9477 50.52 54.6677 50.38 55.4277 50.3C56.2277 50.18 57.0277 50.12 57.8277 50.12C59.9477 50.12 61.6677 50.66 62.9877 51.74C64.3477 52.78 65.0277 54.48 65.0277 56.84C65.0277 58.68 64.5877 60.46 63.7077 62.18C62.8677 63.86 61.7277 65.38 60.2877 66.74C58.8477 68.06 57.2277 69.1 55.4277 69.86C53.6277 70.62 51.7877 71 49.9077 71C48.4277 71 47.2077 70.84 46.2477 70.52C45.2877 70.16 44.4877 69.68 43.8477 69.08C43.4477 68.68 43.0877 68.24 42.7677 67.76C42.4477 67.24 42.1877 66.56 41.9877 65.72C41.8277 64.84 41.7477 63.68 41.7477 62.24V45.44H35.9277V41.12H67.1277ZM38.9277 26.06C40.0877 26.06 41.0877 26.22 41.9277 26.54C42.8077 26.86 43.5477 27.34 44.1477 27.98C44.8677 28.74 45.4077 29.78 45.7677 31.1C46.1677 32.38 46.3677 34.2 46.3677 36.56V41.6H41.7477V36.8C41.7477 35.4 41.6477 34.24 41.4477 33.32C41.2877 32.36 40.9077 31.64 40.3077 31.16C39.7077 30.64 38.8077 30.38 37.6077 30.38C36.8477 30.38 36.0877 30.5 35.3277 30.74C34.6077 30.94 33.9877 31.14 33.4677 31.34L31.8477 27.62C33.0477 27.1 34.2077 26.72 35.3277 26.48C36.4877 26.2 37.6877 26.06 38.9277 26.06Z" fill="black"/>
</svg>
