<svg width="100" height="100" viewBox="0 0 100 100" fill="none" xmlns="http://www.w3.org/2000/svg">
<rect x="5" y="5" width="90" height="90" rx="45" fill="#F3BA2F"/>
<circle cx="50" cy="50" r="42" fill="#F3BA2F"/>
<path d="M45.9766 35.5625V38.6484H32.9688V35.5625H45.9766ZM49.2188 35.5625V64H45.4492V35.5625H49.2188ZM31.6797 35.5625H35.4297L34.7852 49.4883C34.694 51.4935 34.5378 53.2839 34.3164 54.8594C34.1081 56.4219 33.8086 57.7826 33.418 58.9414C33.0273 60.0872 32.5195 61.0378 31.8945 61.793C31.2695 62.5352 30.5013 63.0885 29.5898 63.4531C28.6914 63.8177 27.6107 64 26.3477 64H25.332V60.9336L26.1133 60.875C26.8424 60.8229 27.4674 60.6602 27.9883 60.3867C28.5221 60.1003 28.9714 59.6706 29.3359 59.0977C29.7135 58.5247 30.0195 57.7826 30.2539 56.8711C30.4883 55.9596 30.6706 54.8464 30.8008 53.5312C30.944 52.2031 31.0547 50.6536 31.1328 48.8828L31.6797 35.5625ZM65.3906 54.7031H58.457L58.418 51.8125H64.082C65.2018 51.8125 66.1328 51.7018 66.875 51.4805C67.6302 51.2591 68.1966 50.9271 68.5742 50.4844C68.9518 50.0417 69.1406 49.4948 69.1406 48.8438C69.1406 48.3359 69.0299 47.8932 68.8086 47.5156C68.6003 47.125 68.2812 46.806 67.8516 46.5586C67.4219 46.2982 66.888 46.1094 66.25 45.9922C65.625 45.862 64.8893 45.7969 64.043 45.7969H59.4141V64H55.8008V42.8672H64.043C65.3841 42.8672 66.5885 42.9844 67.6562 43.2188C68.737 43.4531 69.6549 43.8112 70.4102 44.293C71.1784 44.7617 71.7643 45.3607 72.168 46.0898C72.5716 46.819 72.7734 47.6784 72.7734 48.668C72.7734 49.306 72.6432 49.9115 72.3828 50.4844C72.1224 51.0573 71.7383 51.5651 71.2305 52.0078C70.7227 52.4505 70.0977 52.8151 69.3555 53.1016C68.6133 53.375 67.7604 53.5508 66.7969 53.6289L65.3906 54.7031ZM65.3906 64H57.1484L58.9453 61.0703H65.3906C66.3932 61.0703 67.2266 60.9466 67.8906 60.6992C68.5547 60.4388 69.0495 60.0742 69.375 59.6055C69.7135 59.1237 69.8828 58.5508 69.8828 57.8867C69.8828 57.2227 69.7135 56.6562 69.375 56.1875C69.0495 55.7057 68.5547 55.3411 67.8906 55.0938C67.2266 54.8333 66.3932 54.7031 65.3906 54.7031H59.9023L59.9414 51.8125H66.7969L68.1055 52.9062C69.2643 52.9974 70.2474 53.2839 71.0547 53.7656C71.862 54.2474 72.474 54.8594 72.8906 55.6016C73.3073 56.3307 73.5156 57.125 73.5156 57.9844C73.5156 58.974 73.3268 59.8464 72.9492 60.6016C72.5846 61.3568 72.0508 61.9883 71.3477 62.4961C70.6445 62.9909 69.7917 63.3685 68.7891 63.6289C67.7865 63.8763 66.6536 64 65.3906 64Z" fill="black"/>
</svg>
