<svg width="100" height="100" viewBox="0 0 100 100" fill="none" xmlns="http://www.w3.org/2000/svg">
<rect x="5" y="5" width="90" height="90" rx="45" fill="#F3BA2F"/>
<circle cx="50" cy="50" r="42" fill="#F3BA2F"/>
<path d="M14.6016 54.2295C14.6016 53.6634 14.7762 53.1877 15.1255 52.8022C15.4868 52.4048 16.0047 52.2061 16.6792 52.2061C17.3537 52.2061 17.8656 52.4048 18.2148 52.8022C18.5762 53.1877 18.7568 53.6634 18.7568 54.2295C18.7568 54.7835 18.5762 55.2533 18.2148 55.6387C17.8656 56.0241 17.3537 56.2168 16.6792 56.2168C16.0047 56.2168 15.4868 56.0241 15.1255 55.6387C14.7762 55.2533 14.6016 54.7835 14.6016 54.2295ZM23.0509 54.335L24.5309 51.782C25.0242 52.1027 25.7149 52.411 26.6029 52.707C27.4909 53.003 28.5269 53.151 29.7109 53.151C30.9442 53.151 31.9185 53.0277 32.6339 52.781C33.3739 52.5343 33.9042 52.1767 34.2249 51.708C34.5702 51.2147 34.7429 50.6473 34.7429 50.006C34.7429 49.5127 34.6319 48.9083 34.4099 48.193C34.2125 47.453 33.7685 46.4663 33.0779 45.233C32.3872 43.975 31.3265 42.3347 29.8959 40.312L32.4489 38.647C33.7562 40.4477 34.7922 42.0757 35.5569 43.531C36.3462 44.9863 36.9012 46.269 37.2219 47.379C37.5672 48.4643 37.7399 49.4017 37.7399 50.191C37.7399 51.1777 37.4932 52.1397 36.9999 53.077C36.5065 53.9897 35.6802 54.742 34.5209 55.334C33.3615 55.926 31.7582 56.222 29.7109 56.222C28.8229 56.222 27.9595 56.148 27.1209 56C26.3069 55.852 25.5545 55.6423 24.8639 55.371C24.1732 55.075 23.5689 54.7297 23.0509 54.335ZM41.9902 54.2295C41.9902 53.6634 42.1649 53.1877 42.5142 52.8022C42.8755 52.4048 43.3934 52.2061 44.0679 52.2061C44.7424 52.2061 45.2542 52.4048 45.6035 52.8022C45.9648 53.1877 46.1455 53.6634 46.1455 54.2295C46.1455 54.7835 45.9648 55.2533 45.6035 55.6387C45.2542 56.0241 44.7424 56.2168 44.0679 56.2168C43.3934 56.2168 42.8755 56.0241 42.5142 55.6387C42.1649 55.2533 41.9902 54.7835 41.9902 54.2295ZM63.5745 56.777L64.5365 53.743C67.4225 53.743 69.9015 53.669 71.9735 53.521C74.0702 53.373 75.7845 53.1387 77.1165 52.818C78.4732 52.4727 79.4722 52.0163 80.1135 51.449C80.7795 50.857 81.1125 50.1417 81.1125 49.303C81.1125 48.3657 80.9399 47.2803 80.5945 46.047C80.2492 44.8137 79.8052 43.494 79.2625 42.088L82.1115 41.089C82.4322 41.8783 82.7282 42.7293 82.9995 43.642C83.2955 44.53 83.5422 45.418 83.7395 46.306C83.9369 47.1693 84.0355 47.971 84.0355 48.711C84.0355 50.1663 83.7025 51.412 83.0365 52.448C82.3705 53.4593 81.2605 54.2857 79.7065 54.927C78.1525 55.5683 76.0559 56.037 73.4165 56.333C70.8019 56.629 67.5212 56.777 63.5745 56.777ZM63.5745 56.777C61.3792 56.777 59.4429 56.629 57.7655 56.333C56.1129 56.0617 54.7315 55.63 53.6215 55.038C52.5115 54.446 51.6729 53.6813 51.1055 52.744C50.5382 51.782 50.2545 50.6227 50.2545 49.266C50.2545 48.6493 50.3039 48.0203 50.4025 47.379C50.5012 46.713 50.6245 46.047 50.7725 45.381C50.9452 44.715 51.1179 44.0737 51.2905 43.457L54.0655 44.16C53.9669 44.53 53.8559 44.974 53.7325 45.492C53.6092 45.9853 53.4982 46.491 53.3995 47.009C53.3255 47.527 53.2885 47.9957 53.2885 48.415C53.2885 49.6977 53.6092 50.7337 54.2505 51.523C54.9165 52.2877 56.0635 52.855 57.6915 53.225C59.3195 53.5703 61.6012 53.743 64.5365 53.743L65.2765 55.593L63.5745 56.777ZM67.1265 63.807C66.6085 63.807 66.1645 63.622 65.7945 63.252C65.4492 62.9067 65.2765 62.4873 65.2765 61.994C65.2765 61.5007 65.4492 61.069 65.7945 60.699C66.1645 60.329 66.6085 60.144 67.1265 60.144C67.6199 60.144 68.0392 60.329 68.3845 60.699C68.7545 61.069 68.9395 61.5007 68.9395 61.994C68.9395 62.4873 68.7545 62.9067 68.3845 63.252C68.0392 63.622 67.6199 63.807 67.1265 63.807Z" fill="black"/>
</svg>
