<svg width="100" height="100" viewBox="0 0 100 100" fill="none" xmlns="http://www.w3.org/2000/svg">
<rect x="5" y="5" width="90" height="90" rx="45" fill="#F3BA2F"/>
<circle cx="50" cy="50" r="42" fill="#F3BA2F"/>
<path d="M24.1865 37.1172V62H20.8882V37.1172H24.1865ZM34.6113 48.311V51.0112H23.4688V48.311H34.6113ZM36.3032 37.1172V39.8174H23.4688V37.1172H36.3032ZM49.1035 50.3618H42.7974L42.7632 47.7129H48.4883C49.4339 47.7129 50.2599 47.5534 50.9663 47.2344C51.6727 46.9154 52.2196 46.4596 52.6069 45.8672C53.0057 45.2633 53.2051 44.5456 53.2051 43.7139C53.2051 42.8024 53.0285 42.0618 52.6753 41.4922C52.3335 40.9111 51.8037 40.4896 51.0859 40.2275C50.3796 39.9541 49.4795 39.8174 48.3857 39.8174H43.5322V62H40.2339V37.1172H48.3857C49.6618 37.1172 50.8011 37.2482 51.8037 37.5103C52.8063 37.7609 53.6551 38.1597 54.3501 38.7065C55.0565 39.242 55.592 39.9256 55.9565 40.7573C56.3211 41.589 56.5034 42.5859 56.5034 43.748C56.5034 44.7734 56.2414 45.702 55.7173 46.5337C55.1932 47.354 54.464 48.0262 53.5298 48.5503C52.6069 49.0744 51.5246 49.4105 50.2827 49.5586L49.1035 50.3618ZM48.9497 62H41.4985L43.3613 59.3169H48.9497C49.9979 59.3169 50.8866 59.1346 51.6157 58.77C52.3563 58.4054 52.9202 57.8927 53.3076 57.2319C53.695 56.5597 53.8887 55.7679 53.8887 54.8564C53.8887 53.9336 53.7235 53.1361 53.3931 52.4639C53.0627 51.7917 52.5443 51.2733 51.8379 50.9087C51.1315 50.5441 50.2201 50.3618 49.1035 50.3618H44.4038L44.438 47.7129H50.8638L51.5645 48.6699C52.7607 48.7725 53.7747 49.1143 54.6064 49.6953C55.4382 50.265 56.0705 50.9941 56.5034 51.8828C56.9478 52.7715 57.1699 53.7513 57.1699 54.8223C57.1699 56.3717 56.8281 57.682 56.1445 58.7529C55.4723 59.8125 54.521 60.6214 53.2905 61.1797C52.0601 61.7266 50.6131 62 48.9497 62ZM72.8755 57.7275V43.5088H76.0542V62H73.0293L72.8755 57.7275ZM73.4736 53.8311L74.7896 53.7969C74.7896 55.0273 74.6585 56.1667 74.3965 57.2148C74.1458 58.2516 73.7357 59.1517 73.166 59.915C72.5964 60.6784 71.8501 61.2765 70.9272 61.7095C70.0044 62.131 68.8822 62.3418 67.5605 62.3418C66.6605 62.3418 65.8345 62.2108 65.0825 61.9487C64.342 61.6867 63.7039 61.2822 63.1685 60.7354C62.633 60.1885 62.2171 59.4764 61.9209 58.5991C61.6361 57.7218 61.4937 56.668 61.4937 55.4375V43.5088H64.6553V55.4717C64.6553 56.3034 64.7464 56.9927 64.9287 57.5396C65.1224 58.075 65.3787 58.5023 65.6978 58.8213C66.0282 59.1289 66.3927 59.3454 66.7915 59.4707C67.2017 59.596 67.6232 59.6587 68.0562 59.6587C69.4006 59.6587 70.4658 59.4023 71.252 58.8896C72.0381 58.3656 72.6021 57.6649 72.9438 56.7876C73.297 55.8989 73.4736 54.9134 73.4736 53.8311Z" fill="black"/>
</svg>
