<svg width="100" height="100" viewBox="0 0 100 100" fill="none" xmlns="http://www.w3.org/2000/svg">
<rect x="5" y="5" width="90" height="90" rx="45" fill="#F3BA2F"/>
<circle cx="50" cy="50" r="42" fill="#F3BA2F"/>
<path d="M39.4805 28.6484V35.2012H36.2578V28.6484H39.4805ZM39.0938 63.7324V69.4688H35.8926V63.7324H39.0938ZM43.3906 56.9434C43.3906 56.084 43.1973 55.3105 42.8105 54.623C42.4238 53.9355 41.7865 53.3053 40.8984 52.7324C40.0104 52.1595 38.8216 51.6296 37.332 51.1426C35.5273 50.584 33.9661 49.9036 32.6484 49.1016C31.3451 48.2995 30.3353 47.304 29.6191 46.1152C28.9173 44.9264 28.5664 43.487 28.5664 41.7969C28.5664 40.0352 28.946 38.5169 29.7051 37.2422C30.4642 35.9674 31.5384 34.9863 32.9277 34.2988C34.3171 33.6113 35.9499 33.2676 37.8262 33.2676C39.2871 33.2676 40.5905 33.4896 41.7363 33.9336C42.8822 34.3633 43.849 35.0078 44.6367 35.8672C45.4388 36.7266 46.0475 37.7793 46.4629 39.0254C46.8926 40.2715 47.1074 41.7109 47.1074 43.3438H43.1543C43.1543 42.3841 43.0397 41.5033 42.8105 40.7012C42.5814 39.8991 42.2376 39.2044 41.7793 38.6172C41.321 38.0156 40.7624 37.5573 40.1035 37.2422C39.4447 36.9128 38.6855 36.748 37.8262 36.748C36.623 36.748 35.6276 36.9557 34.8398 37.3711C34.0664 37.7865 33.4935 38.3737 33.1211 39.1328C32.7487 39.8776 32.5625 40.7441 32.5625 41.7324C32.5625 42.6491 32.7487 43.4512 33.1211 44.1387C33.4935 44.8262 34.1237 45.4492 35.0117 46.0078C35.9141 46.5521 37.153 47.0892 38.7285 47.6191C40.5762 48.2064 42.1445 48.901 43.4336 49.7031C44.7227 50.4909 45.7038 51.4648 46.377 52.625C47.0501 53.7708 47.3867 55.196 47.3867 56.9004C47.3867 58.748 46.9714 60.3092 46.1406 61.584C45.3099 62.8444 44.1426 63.804 42.6387 64.4629C41.1348 65.1217 39.373 65.4512 37.3535 65.4512C36.1361 65.4512 34.9329 65.2865 33.7441 64.957C32.5553 64.6276 31.4811 64.0905 30.5215 63.3457C29.5618 62.5866 28.7956 61.5911 28.2227 60.3594C27.6497 59.1133 27.3633 57.5879 27.3633 55.7832H31.3594C31.3594 57.0007 31.5312 58.0104 31.875 58.8125C32.2331 59.6003 32.7057 60.2305 33.293 60.7031C33.8802 61.1615 34.5247 61.4909 35.2266 61.6914C35.9427 61.8776 36.6517 61.9707 37.3535 61.9707C38.6426 61.9707 39.7311 61.7702 40.6191 61.3691C41.5215 60.9538 42.209 60.3665 42.6816 59.6074C43.1543 58.8483 43.3906 57.9603 43.3906 56.9434ZM52.7578 32H56.7539V60.4883L56.4102 65H52.7578V32ZM72.459 53.1836V53.6348C72.459 55.3249 72.2585 56.8932 71.8574 58.3398C71.4564 59.7721 70.8691 61.0182 70.0957 62.0781C69.3223 63.138 68.377 63.9616 67.2598 64.5488C66.1426 65.1361 64.8607 65.4297 63.4141 65.4297C61.9388 65.4297 60.6426 65.179 59.5254 64.6777C58.4225 64.1621 57.4915 63.4245 56.7324 62.4648C55.9733 61.5052 55.3646 60.3451 54.9062 58.9844C54.4622 57.6237 54.1543 56.0911 53.9824 54.3867V52.4102C54.1543 50.6914 54.4622 49.1517 54.9062 47.791C55.3646 46.4303 55.9733 45.2702 56.7324 44.3105C57.4915 43.3366 58.4225 42.599 59.5254 42.0977C60.6283 41.582 61.9102 41.3242 63.3711 41.3242C64.832 41.3242 66.1283 41.6107 67.2598 42.1836C68.3913 42.7422 69.3366 43.5443 70.0957 44.5898C70.8691 45.6354 71.4564 46.8887 71.8574 48.3496C72.2585 49.7962 72.459 51.4076 72.459 53.1836ZM68.4629 53.6348V53.1836C68.4629 52.0234 68.3555 50.9349 68.1406 49.918C67.9258 48.8867 67.582 47.9844 67.1094 47.2109C66.6367 46.4232 66.0137 45.8073 65.2402 45.3633C64.4668 44.9049 63.5143 44.6758 62.3828 44.6758C61.3802 44.6758 60.5065 44.8477 59.7617 45.1914C59.0312 45.5352 58.4082 46.0007 57.8926 46.5879C57.377 47.1608 56.9544 47.8197 56.625 48.5645C56.3099 49.2949 56.0736 50.054 55.916 50.8418V56.0195C56.1452 57.0221 56.5176 57.9889 57.0332 58.9199C57.5632 59.8366 58.265 60.5885 59.1387 61.1758C60.0267 61.763 61.1224 62.0566 62.4258 62.0566C63.5 62.0566 64.4167 61.8418 65.1758 61.4121C65.9492 60.9681 66.5723 60.3594 67.0449 59.5859C67.5319 58.8125 67.89 57.9173 68.1191 56.9004C68.3483 55.8835 68.4629 54.7949 68.4629 53.6348Z" fill="black"/>
</svg>
