<svg width="90" height="90" viewBox="0 0 90 90" fill="none" xmlns="http://www.w3.org/2000/svg">
<circle cx="45" cy="45" r="42" fill="#F3BA2F"/>
<path d="M22.6309 28.7188H32.9863C35.3353 28.7188 37.319 29.0768 38.9375 29.793C40.5703 30.5091 41.8092 31.569 42.6543 32.9727C43.5137 34.362 43.9434 36.0736 43.9434 38.1074C43.9434 39.5397 43.6497 40.8503 43.0625 42.0391C42.4896 43.2135 41.6589 44.2161 40.5703 45.0469C39.4961 45.8633 38.207 46.472 36.7031 46.873L35.543 47.3242H25.8105L25.7676 43.9512H33.1152C34.6048 43.9512 35.8438 43.6934 36.832 43.1777C37.8203 42.6478 38.5651 41.9388 39.0664 41.0508C39.5677 40.1628 39.8184 39.1816 39.8184 38.1074C39.8184 36.9043 39.582 35.8516 39.1094 34.9492C38.6367 34.0469 37.8919 33.3522 36.875 32.8652C35.8724 32.3639 34.5762 32.1133 32.9863 32.1133H26.7773V60H22.6309V28.7188ZM40.9141 60L33.3086 45.8203L37.627 45.7988L45.3398 59.7422V60H40.9141ZM60.5938 23.6484V30.2012H57.3711V23.6484H60.5938ZM60.207 58.7324V64.4688H57.0059V58.7324H60.207ZM64.5039 51.9434C64.5039 51.084 64.3105 50.3105 63.9238 49.623C63.5371 48.9355 62.8997 48.3053 62.0117 47.7324C61.1237 47.1595 59.9349 46.6296 58.4453 46.1426C56.6406 45.584 55.0794 44.9036 53.7617 44.1016C52.4583 43.2995 51.4486 42.304 50.7324 41.1152C50.0306 39.9264 49.6797 38.487 49.6797 36.7969C49.6797 35.0352 50.0592 33.5169 50.8184 32.2422C51.5775 30.9674 52.6517 29.9863 54.041 29.2988C55.4303 28.6113 57.0632 28.2676 58.9395 28.2676C60.4004 28.2676 61.7038 28.4896 62.8496 28.9336C63.9954 29.3633 64.9622 30.0078 65.75 30.8672C66.5521 31.7266 67.1608 32.7793 67.5762 34.0254C68.0059 35.2715 68.2207 36.7109 68.2207 38.3438H64.2676C64.2676 37.3841 64.153 36.5033 63.9238 35.7012C63.6947 34.8991 63.3509 34.2044 62.8926 33.6172C62.4342 33.0156 61.8757 32.5573 61.2168 32.2422C60.5579 31.9128 59.7988 31.748 58.9395 31.748C57.7363 31.748 56.7409 31.9557 55.9531 32.3711C55.1797 32.7865 54.6068 33.3737 54.2344 34.1328C53.862 34.8776 53.6758 35.7441 53.6758 36.7324C53.6758 37.6491 53.862 38.4512 54.2344 39.1387C54.6068 39.8262 55.237 40.4492 56.125 41.0078C57.0273 41.5521 58.2663 42.0892 59.8418 42.6191C61.6895 43.2064 63.2578 43.901 64.5469 44.7031C65.8359 45.4909 66.8171 46.4648 67.4902 47.625C68.1634 48.7708 68.5 50.196 68.5 51.9004C68.5 53.748 68.0846 55.3092 67.2539 56.584C66.4232 57.8444 65.2559 58.804 63.752 59.4629C62.248 60.1217 60.4863 60.4512 58.4668 60.4512C57.2493 60.4512 56.0462 60.2865 54.8574 59.957C53.6686 59.6276 52.5944 59.0905 51.6348 58.3457C50.6751 57.5866 49.9089 56.5911 49.3359 55.3594C48.763 54.1133 48.4766 52.5879 48.4766 50.7832H52.4727C52.4727 52.0007 52.6445 53.0104 52.9883 53.8125C53.3464 54.6003 53.819 55.2305 54.4062 55.7031C54.9935 56.1615 55.638 56.4909 56.3398 56.6914C57.056 56.8776 57.765 56.9707 58.4668 56.9707C59.7559 56.9707 60.8444 56.7702 61.7324 56.3691C62.6348 55.9538 63.3223 55.3665 63.7949 54.6074C64.2676 53.8483 64.5039 52.9603 64.5039 51.9434Z" fill="black"/>
</svg>
