<svg width="90" height="90" viewBox="0 0 90 90" fill="none" xmlns="http://www.w3.org/2000/svg">
<circle cx="45" cy="45" r="42" fill="#F3BA2F"/>
<path d="M32.7812 45.3691H24.8535L24.8105 42.0391H32.0078C33.1966 42.0391 34.235 41.8385 35.123 41.4375C36.0111 41.0365 36.6986 40.4635 37.1855 39.7188C37.6868 38.9596 37.9375 38.0573 37.9375 37.0117C37.9375 35.8659 37.7155 34.9349 37.2715 34.2188C36.8418 33.4883 36.1758 32.9583 35.2734 32.6289C34.3854 32.2852 33.2539 32.1133 31.8789 32.1133H25.7773V60H21.6309V28.7188H31.8789C33.4831 28.7188 34.9154 28.8835 36.1758 29.2129C37.4362 29.528 38.5033 30.0293 39.377 30.7168C40.265 31.39 40.9382 32.2493 41.3965 33.2949C41.8548 34.3405 42.084 35.5938 42.084 37.0547C42.084 38.3438 41.7546 39.5111 41.0957 40.5566C40.4368 41.5879 39.5202 42.4329 38.3457 43.0918C37.1855 43.7507 35.8249 44.1732 34.2637 44.3594L32.7812 45.3691ZM32.5879 60H23.2207L25.5625 56.627H32.5879C33.9056 56.627 35.0228 56.3978 35.9395 55.9395C36.8704 55.4811 37.5794 54.8366 38.0664 54.0059C38.5534 53.1608 38.7969 52.1654 38.7969 51.0195C38.7969 49.8594 38.5892 48.8568 38.1738 48.0117C37.7585 47.1667 37.1068 46.515 36.2188 46.0566C35.3307 45.5983 34.1849 45.3691 32.7812 45.3691H26.873L26.916 42.0391H34.9941L35.875 43.2422C37.3789 43.3711 38.6536 43.8008 39.6992 44.5312C40.7448 45.2474 41.5397 46.1641 42.084 47.2812C42.6426 48.3984 42.9219 49.6302 42.9219 50.9766C42.9219 52.9245 42.4922 54.5716 41.6328 55.918C40.7878 57.25 39.5918 58.2669 38.0449 58.9688C36.498 59.6562 34.679 60 32.5879 60ZM59.8945 23.6484V30.2012H56.6719V23.6484H59.8945ZM59.5078 58.7324V64.4688H56.3066V58.7324H59.5078ZM63.8047 51.9434C63.8047 51.084 63.6113 50.3105 63.2246 49.623C62.8379 48.9355 62.2005 48.3053 61.3125 47.7324C60.4245 47.1595 59.2357 46.6296 57.7461 46.1426C55.9414 45.584 54.3802 44.9036 53.0625 44.1016C51.7591 43.2995 50.7493 42.304 50.0332 41.1152C49.3314 39.9264 48.9805 38.487 48.9805 36.7969C48.9805 35.0352 49.36 33.5169 50.1191 32.2422C50.8783 30.9674 51.9525 29.9863 53.3418 29.2988C54.7311 28.6113 56.3639 28.2676 58.2402 28.2676C59.7012 28.2676 61.0046 28.4896 62.1504 28.9336C63.2962 29.3633 64.263 30.0078 65.0508 30.8672C65.8529 31.7266 66.4616 32.7793 66.877 34.0254C67.3066 35.2715 67.5215 36.7109 67.5215 38.3438H63.5684C63.5684 37.3841 63.4538 36.5033 63.2246 35.7012C62.9954 34.8991 62.6517 34.2044 62.1934 33.6172C61.735 33.0156 61.1764 32.5573 60.5176 32.2422C59.8587 31.9128 59.0996 31.748 58.2402 31.748C57.0371 31.748 56.0417 31.9557 55.2539 32.3711C54.4805 32.7865 53.9076 33.3737 53.5352 34.1328C53.1628 34.8776 52.9766 35.7441 52.9766 36.7324C52.9766 37.6491 53.1628 38.4512 53.5352 39.1387C53.9076 39.8262 54.5378 40.4492 55.4258 41.0078C56.3281 41.5521 57.5671 42.0892 59.1426 42.6191C60.9902 43.2064 62.5586 43.901 63.8477 44.7031C65.1367 45.4909 66.1178 46.4648 66.791 47.625C67.4642 48.7708 67.8008 50.196 67.8008 51.9004C67.8008 53.748 67.3854 55.3092 66.5547 56.584C65.724 57.8444 64.5566 58.804 63.0527 59.4629C61.5488 60.1217 59.7871 60.4512 57.7676 60.4512C56.5501 60.4512 55.347 60.2865 54.1582 59.957C52.9694 59.6276 51.8952 59.0905 50.9355 58.3457C49.9759 57.5866 49.2096 56.5911 48.6367 55.3594C48.0638 54.1133 47.7773 52.5879 47.7773 50.7832H51.7734C51.7734 52.0007 51.9453 53.0104 52.2891 53.8125C52.6471 54.6003 53.1198 55.2305 53.707 55.7031C54.2943 56.1615 54.9388 56.4909 55.6406 56.6914C56.3568 56.8776 57.0658 56.9707 57.7676 56.9707C59.0566 56.9707 60.1452 56.7702 61.0332 56.3691C61.9355 55.9538 62.623 55.3665 63.0957 54.6074C63.5684 53.8483 63.8047 52.9603 63.8047 51.9434Z" fill="black"/>
</svg>
