<svg width="90" height="90" viewBox="0 0 90 90" fill="none" xmlns="http://www.w3.org/2000/svg">
<circle cx="45" cy="45" r="42" fill="#F3BA2F"/>
<path d="M44.4346 29.1406V59H40.4561L25.4238 35.9697V59H21.4658V29.1406H25.4238L40.5176 52.2324V29.1406H44.4346ZM64.4502 53.873V36.8105H68.2646V59H64.6348L64.4502 53.873ZM65.168 49.1973L66.7471 49.1562C66.7471 50.6328 66.5898 52 66.2754 53.2578C65.9746 54.502 65.4824 55.582 64.7988 56.498C64.1152 57.4141 63.2197 58.1318 62.1123 58.6514C61.0049 59.1572 59.6582 59.4102 58.0723 59.4102C56.9922 59.4102 56.001 59.2529 55.0986 58.9385C54.21 58.624 53.4443 58.1387 52.8018 57.4824C52.1592 56.8262 51.6602 55.9717 51.3047 54.9189C50.9629 53.8662 50.792 52.6016 50.792 51.125V36.8105H54.5859V51.166C54.5859 52.1641 54.6953 52.9912 54.9141 53.6475C55.1465 54.29 55.4541 54.8027 55.8369 55.1855C56.2334 55.5547 56.6709 55.8145 57.1494 55.9648C57.6416 56.1152 58.1475 56.1904 58.667 56.1904C60.2803 56.1904 61.5586 55.8828 62.502 55.2676C63.4453 54.6387 64.1221 53.7979 64.5322 52.7451C64.9561 51.6787 65.168 50.4961 65.168 49.1973Z" fill="black"/>
</svg>
