<svg width="90" height="90" viewBox="0 0 90 90" fill="none" xmlns="http://www.w3.org/2000/svg">
<circle cx="45" cy="45" r="42" fill="#F3BA2F"/>
<path d="M46.3047 48.3867H35.668V44.0938H46.3047C48.3646 44.0938 50.0326 43.7656 51.3086 43.1094C52.5846 42.4531 53.5143 41.5417 54.0977 40.375C54.6992 39.2083 55 37.8776 55 36.3828C55 35.0156 54.6992 33.7305 54.0977 32.5273C53.5143 31.3242 52.5846 30.3581 51.3086 29.6289C50.0326 28.8815 48.3646 28.5078 46.3047 28.5078H36.8984V64H31.6211V24.1875H46.3047C49.3125 24.1875 51.8555 24.707 53.9336 25.7461C56.0117 26.7852 57.5885 28.2253 58.6641 30.0664C59.7396 31.8893 60.2773 33.9766 60.2773 36.3281C60.2773 38.8802 59.7396 41.0586 58.6641 42.8633C57.5885 44.668 56.0117 46.0443 53.9336 46.9922C51.8555 47.9219 49.3125 48.3867 46.3047 48.3867Z" fill="black"/>
</svg>
