<svg width="100" height="100" viewBox="0 0 100 100" fill="none" xmlns="http://www.w3.org/2000/svg">
<rect x="5" y="5" width="90" height="90" rx="45" fill="#F3BA2F"/>
<circle cx="50" cy="50" r="42" fill="#F3BA2F"/>
<path d="M27.7578 49.3618H21.4517L21.4175 46.7129H27.1426C28.0882 46.7129 28.9142 46.5534 29.6206 46.2344C30.327 45.9154 30.8739 45.4596 31.2612 44.8672C31.66 44.2633 31.8594 43.5456 31.8594 42.7139C31.8594 41.8024 31.6828 41.0618 31.3296 40.4922C30.9878 39.9111 30.458 39.4896 29.7402 39.2275C29.0339 38.9541 28.1338 38.8174 27.04 38.8174H22.1865V61H18.8882V36.1172H27.04C28.3161 36.1172 29.4554 36.2482 30.458 36.5103C31.4606 36.7609 32.3094 37.1597 33.0044 37.7065C33.7108 38.242 34.2463 38.9256 34.6108 39.7573C34.9754 40.589 35.1577 41.5859 35.1577 42.748C35.1577 43.7734 34.8957 44.702 34.3716 45.5337C33.8475 46.354 33.1183 47.0262 32.1841 47.5503C31.2612 48.0744 30.1789 48.4105 28.937 48.5586L27.7578 49.3618ZM27.604 61H20.1528L22.0156 58.3169H27.604C28.6522 58.3169 29.5409 58.1346 30.27 57.77C31.0106 57.4054 31.5745 56.8927 31.9619 56.2319C32.3493 55.5597 32.543 54.7679 32.543 53.8564C32.543 52.9336 32.3778 52.1361 32.0474 51.4639C31.717 50.7917 31.1986 50.2733 30.4922 49.9087C29.7858 49.5441 28.8743 49.3618 27.7578 49.3618H23.0581L23.0923 46.7129H29.5181L30.2188 47.6699C31.415 47.7725 32.429 48.1143 33.2607 48.6953C34.0924 49.265 34.7248 49.9941 35.1577 50.8828C35.6021 51.7715 35.8242 52.7513 35.8242 53.8223C35.8242 55.3717 35.4824 56.682 34.7988 57.7529C34.1266 58.8125 33.1753 59.6214 31.9448 60.1797C30.7144 60.7266 29.2674 61 27.604 61ZM40.8828 36.1172L47.3428 48.6099L53.8198 36.1172H57.5625L48.9834 51.7031V61H45.6851V51.7031L37.106 36.1172H40.8828ZM79.8989 36.1172V61H76.5835L64.0566 41.8081V61H60.7583V36.1172H64.0566L76.6348 55.3604V36.1172H79.8989Z" fill="black"/>
</svg>
