<svg width="100" height="100" viewBox="0 0 100 100" fill="none" xmlns="http://www.w3.org/2000/svg">
<rect x="5" y="5" width="90" height="90" rx="45" fill="#F3BA2F"/>
<circle cx="50" cy="50" r="42" fill="#F3BA2F"/>
<path d="M30.4219 50.6943H24.2959L24.2627 48.1211H29.8242C30.7428 48.1211 31.5452 47.9661 32.2314 47.6562C32.9176 47.3464 33.4489 46.9036 33.8252 46.3281C34.2126 45.7415 34.4062 45.0443 34.4062 44.2363C34.4062 43.3509 34.2347 42.6315 33.8916 42.0781C33.5596 41.5137 33.0449 41.1042 32.3477 40.8496C31.6615 40.584 30.7871 40.4512 29.7246 40.4512H25.0098V62H21.8057V37.8281H29.7246C30.9642 37.8281 32.071 37.9554 33.0449 38.21C34.0189 38.4535 34.8434 38.8408 35.5186 39.3721C36.2048 39.8923 36.7249 40.5563 37.0791 41.3643C37.4333 42.1722 37.6104 43.1406 37.6104 44.2695C37.6104 45.2656 37.3558 46.1676 36.8467 46.9756C36.3376 47.7725 35.6292 48.4255 34.7217 48.9346C33.8252 49.4437 32.7738 49.7702 31.5674 49.9141L30.4219 50.6943ZM30.2725 62H23.0342L24.8438 59.3936H30.2725C31.2907 59.3936 32.154 59.2165 32.8623 58.8623C33.5817 58.5081 34.1296 58.0101 34.5059 57.3682C34.8822 56.7152 35.0703 55.946 35.0703 55.0605C35.0703 54.1641 34.9098 53.3893 34.5889 52.7363C34.2679 52.0833 33.7643 51.5798 33.0781 51.2256C32.3919 50.8714 31.5065 50.6943 30.4219 50.6943H25.8564L25.8896 48.1211H32.1318L32.8125 49.0508C33.9746 49.1504 34.9596 49.4824 35.7676 50.0469C36.5755 50.6003 37.1898 51.3086 37.6104 52.1719C38.042 53.0352 38.2578 53.987 38.2578 55.0273C38.2578 56.5326 37.9258 57.8053 37.2617 58.8457C36.6087 59.875 35.6846 60.6608 34.4893 61.2031C33.2939 61.7344 31.8883 62 30.2725 62ZM59.209 59.3936V62H42.8398V59.3936H59.209ZM58.6777 40.1523L43.6035 62H41.6279V59.6094L56.6855 37.8281H58.6777V40.1523ZM57.3164 37.8281V40.4512H41.8438V37.8281H57.3164ZM71.7598 33.9102V38.9736H69.2695V33.9102H71.7598ZM71.4609 61.0205V65.4531H68.9873V61.0205H71.4609ZM74.7812 55.7744C74.7812 55.1104 74.6318 54.5127 74.333 53.9814C74.0342 53.4502 73.5417 52.9632 72.8555 52.5205C72.1693 52.0778 71.2507 51.6683 70.0996 51.292C68.7051 50.8604 67.4987 50.3346 66.4805 49.7148C65.4733 49.0951 64.693 48.3258 64.1396 47.4072C63.5973 46.4886 63.3262 45.3763 63.3262 44.0703C63.3262 42.709 63.6195 41.5358 64.2061 40.5508C64.7926 39.5658 65.6227 38.8076 66.6963 38.2764C67.7699 37.7451 69.0316 37.4795 70.4814 37.4795C71.6104 37.4795 72.6175 37.651 73.5029 37.9941C74.3883 38.3262 75.1354 38.8242 75.7441 39.4883C76.3639 40.1523 76.8343 40.9658 77.1553 41.9287C77.4873 42.8916 77.6533 44.0039 77.6533 45.2656H74.5986C74.5986 44.5241 74.5101 43.8434 74.333 43.2236C74.1559 42.6038 73.8903 42.0671 73.5361 41.6133C73.182 41.1484 72.7503 40.7943 72.2412 40.5508C71.7321 40.2962 71.1455 40.1689 70.4814 40.1689C69.5518 40.1689 68.7826 40.3294 68.1738 40.6504C67.5762 40.9714 67.1335 41.4251 66.8457 42.0117C66.5579 42.5872 66.4141 43.2568 66.4141 44.0205C66.4141 44.7288 66.5579 45.3486 66.8457 45.8799C67.1335 46.4111 67.6204 46.8926 68.3066 47.3242C69.0039 47.7448 69.9613 48.1598 71.1787 48.5693C72.6064 49.0231 73.8184 49.5599 74.8145 50.1797C75.8105 50.7884 76.5687 51.541 77.0889 52.4375C77.609 53.3229 77.8691 54.4242 77.8691 55.7412C77.8691 57.1689 77.5482 58.3753 76.9062 59.3604C76.2643 60.3343 75.3623 61.0758 74.2002 61.585C73.0381 62.0941 71.6768 62.3486 70.1162 62.3486C69.1755 62.3486 68.2458 62.2214 67.3271 61.9668C66.4085 61.7122 65.5785 61.2972 64.8369 60.7217C64.0954 60.1351 63.5033 59.3659 63.0605 58.4141C62.6178 57.4512 62.3965 56.2725 62.3965 54.8779H65.4844C65.4844 55.8187 65.6172 56.599 65.8828 57.2188C66.1595 57.8275 66.5247 58.3145 66.9785 58.6797C67.4323 59.0339 67.9303 59.2884 68.4727 59.4434C69.026 59.5872 69.5739 59.6592 70.1162 59.6592C71.1123 59.6592 71.9535 59.5042 72.6396 59.1943C73.3369 58.8734 73.8682 58.4196 74.2334 57.833C74.5986 57.2464 74.7812 56.5602 74.7812 55.7744Z" fill="black"/>
</svg>
