<svg width="100" height="100" viewBox="0 0 100 100" fill="none" xmlns="http://www.w3.org/2000/svg">
<rect x="5" y="5" width="90" height="90" rx="45" fill="#F3BA2F"/>
<circle cx="50" cy="50" r="42" fill="#F3BA2F"/>
<path d="M33.0703 35.5625V64H29.3008V35.5625H33.0703ZM44.9844 48.3555V51.4414H32.25V48.3555H44.9844ZM46.918 35.5625V38.6484H32.25V35.5625H46.918ZM68.5781 54.957H72.3281C72.1328 56.7539 71.6185 58.362 70.7852 59.7812C69.9518 61.2005 68.7734 62.3268 67.25 63.1602C65.7266 63.9805 63.8255 64.3906 61.5469 64.3906C59.8802 64.3906 58.3633 64.0781 56.9961 63.4531C55.6419 62.8281 54.4766 61.9427 53.5 60.7969C52.5234 59.638 51.7682 58.2513 51.2344 56.6367C50.7135 55.0091 50.4531 53.1992 50.4531 51.207V48.375C50.4531 46.3828 50.7135 44.5794 51.2344 42.9648C51.7682 41.3372 52.5299 39.944 53.5195 38.7852C54.5221 37.6263 55.7266 36.7344 57.1328 36.1094C58.5391 35.4844 60.1211 35.1719 61.8789 35.1719C64.0273 35.1719 65.8438 35.5755 67.3281 36.3828C68.8125 37.1901 69.9648 38.3099 70.7852 39.7422C71.6185 41.1615 72.1328 42.8086 72.3281 44.6836H68.5781C68.3958 43.3555 68.0573 42.2161 67.5625 41.2656C67.0677 40.3021 66.3646 39.5599 65.4531 39.0391C64.5417 38.5182 63.3503 38.2578 61.8789 38.2578C60.6159 38.2578 59.5026 38.4987 58.5391 38.9805C57.5885 39.4622 56.7878 40.1458 56.1367 41.0312C55.4987 41.9167 55.0169 42.9779 54.6914 44.2148C54.3659 45.4518 54.2031 46.8255 54.2031 48.3359V51.207C54.2031 52.6003 54.3464 53.9089 54.6328 55.1328C54.9323 56.3568 55.3815 57.431 55.9805 58.3555C56.5794 59.2799 57.3411 60.0091 58.2656 60.543C59.1901 61.0638 60.2839 61.3242 61.5469 61.3242C63.1484 61.3242 64.4245 61.0703 65.375 60.5625C66.3255 60.0547 67.0417 59.3255 67.5234 58.375C68.0182 57.4245 68.3698 56.2852 68.5781 54.957Z" fill="black"/>
</svg>
