<svg width="100" height="100" viewBox="0 0 100 100" fill="none" xmlns="http://www.w3.org/2000/svg">
<rect x="5" y="5" width="90" height="90" rx="45" fill="#F3BA2F"/>
<circle cx="50" cy="50" r="42" fill="#F3BA2F"/>
<path d="M38.0742 28C47.3261 28 56.578 28 65.8299 28C66.1577 28.1887 66.3613 28.437 66.3613 28.8542C66.3514 31.0591 66.3563 33.2641 66.3563 35.4691C66.3563 35.9905 66.103 36.2587 65.5866 36.3133C65.4425 36.3282 65.2985 36.3183 65.1595 36.3183C59.0164 36.3183 52.8733 36.3183 46.7252 36.3183C46.5464 36.3183 46.3676 36.3183 46.1839 36.3183C46.1839 39.0596 46.1839 41.7463 46.1839 44.4628C46.3825 44.4628 46.5514 44.4628 46.7202 44.4628C51.3188 44.4628 55.9175 44.4628 60.5112 44.4628C61.2859 44.4628 61.5193 44.6912 61.5193 45.451C61.5193 47.5418 61.5193 49.6325 61.5193 51.7233C61.5193 52.5377 61.2958 52.7562 60.4714 52.7562C55.8728 52.7562 51.2742 52.7562 46.6805 52.7562C46.5166 52.7562 46.3477 52.7562 46.1739 52.7562C46.1739 54.9413 46.1739 57.0718 46.1739 59.247C46.3477 59.247 46.5017 59.247 46.6606 59.247C47.8922 59.247 49.1238 59.247 50.3554 59.247C51.0854 59.247 51.3089 59.4704 51.3089 60.1856C51.3089 61.7896 51.3089 63.3937 51.3089 64.9977C51.3089 65.6831 51.0656 65.9314 50.3852 65.9314C49.1387 65.9363 47.8922 65.9314 46.6457 65.9314C46.4918 65.9314 46.3378 65.9314 46.1541 65.9314C46.1541 66.14 46.1541 66.2989 46.1541 66.4528C46.1541 67.9725 46.1392 69.4871 46.164 71.0068C46.169 71.4637 46.0249 71.7765 45.6376 72C43.2886 72 40.9396 72 38.5906 72C38.1983 71.7616 38.0742 71.414 38.0841 70.9571C38.1089 69.7255 38.094 68.4939 38.094 67.2623C38.094 66.8352 38.094 66.4081 38.094 65.9314C37.8954 65.9314 37.7414 65.9314 37.5875 65.9314C36.3708 65.9314 35.1541 65.9314 33.9374 65.9314C33.252 65.9314 33.0037 65.688 33.0037 65.0077C32.9988 63.3887 32.9988 61.7698 33.0037 60.1508C33.0037 59.4903 33.2471 59.247 33.9125 59.247C35.1441 59.242 36.3757 59.247 37.6073 59.247C37.7613 59.247 37.9103 59.247 38.099 59.247C38.099 59.0135 38.099 58.8447 38.099 58.6758C38.099 48.6095 38.099 38.5381 38.099 28.4718C38.0891 28.3129 38.0791 28.1589 38.0742 28Z" fill="black"/>
</svg>
