<svg width="100" height="100" viewBox="0 0 100 100" fill="none" xmlns="http://www.w3.org/2000/svg">
<rect x="5" y="5" width="90" height="90" rx="45" fill="#F3BA2F"/>
<circle cx="50" cy="50" r="42" fill="#F3BA2F"/>
<path d="M52.7461 21.4297V30.3652H48.3516V21.4297H52.7461ZM52.2188 69.2715V77.0938H47.8535V69.2715H52.2188ZM58.0781 60.0137C58.0781 58.8418 57.8145 57.7871 57.2871 56.8496C56.7598 55.9121 55.8906 55.0527 54.6797 54.2715C53.4688 53.4902 51.8477 52.7676 49.8164 52.1035C47.3555 51.3418 45.2266 50.4141 43.4297 49.3203C41.6523 48.2266 40.2754 46.8691 39.2988 45.248C38.3418 43.627 37.8633 41.6641 37.8633 39.3594C37.8633 36.957 38.3809 34.8867 39.416 33.1484C40.4512 31.4102 41.916 30.0723 43.8105 29.1348C45.7051 28.1973 47.9316 27.7285 50.4902 27.7285C52.4824 27.7285 54.2598 28.0312 55.8223 28.6367C57.3848 29.2227 58.7031 30.1016 59.7773 31.2734C60.8711 32.4453 61.7012 33.8809 62.2676 35.5801C62.8535 37.2793 63.1465 39.2422 63.1465 41.4688H57.7559C57.7559 40.1602 57.5996 38.959 57.2871 37.8652C56.9746 36.7715 56.5059 35.8242 55.8809 35.0234C55.2559 34.2031 54.4941 33.5781 53.5957 33.1484C52.6973 32.6992 51.6621 32.4746 50.4902 32.4746C48.8496 32.4746 47.4922 32.7578 46.418 33.3242C45.3633 33.8906 44.582 34.6914 44.0742 35.7266C43.5664 36.7422 43.3125 37.9238 43.3125 39.2715C43.3125 40.5215 43.5664 41.6152 44.0742 42.5527C44.582 43.4902 45.4414 44.3398 46.6523 45.1016C47.8828 45.8438 49.5723 46.5762 51.7207 47.2988C54.2402 48.0996 56.3789 49.0469 58.1367 50.1406C59.8945 51.2148 61.2324 52.543 62.1504 54.125C63.0684 55.6875 63.5273 57.6309 63.5273 59.9551C63.5273 62.4746 62.9609 64.6035 61.8281 66.3418C60.6953 68.0605 59.1035 69.3691 57.0527 70.2676C55.002 71.166 52.5996 71.6152 49.8457 71.6152C48.1855 71.6152 46.5449 71.3906 44.9238 70.9414C43.3027 70.4922 41.8379 69.7598 40.5293 68.7441C39.2207 67.709 38.1758 66.3516 37.3945 64.6719C36.6133 62.9727 36.2227 60.8926 36.2227 58.4316H41.6719C41.6719 60.0918 41.9062 61.4688 42.375 62.5625C42.8633 63.6367 43.5078 64.4961 44.3086 65.1406C45.1094 65.7656 45.9883 66.2148 46.9453 66.4883C47.9219 66.7422 48.8887 66.8691 49.8457 66.8691C51.6035 66.8691 53.0879 66.5957 54.2988 66.0488C55.5293 65.4824 56.4668 64.6816 57.1113 63.6465C57.7559 62.6113 58.0781 61.4004 58.0781 60.0137Z" fill="black"/>
</svg>
