<svg width="100" height="100" viewBox="0 0 100 100" fill="none" xmlns="http://www.w3.org/2000/svg">
<rect x="5" y="5" width="90" height="90" rx="45" fill="#F3BA2F"/>
<circle cx="50" cy="50" r="42" fill="#F3BA2F"/>
<path d="M31.793 52.3481H34.1367C34.0146 53.4712 33.6932 54.4762 33.1724 55.3633C32.6515 56.2503 31.915 56.9543 30.9629 57.4751C30.0107 57.9878 28.8226 58.2441 27.3984 58.2441C26.3568 58.2441 25.4087 58.0488 24.5542 57.6582C23.7078 57.2676 22.9795 56.7142 22.3691 55.998C21.7588 55.2738 21.2868 54.4071 20.9531 53.3979C20.6276 52.3807 20.4648 51.2495 20.4648 50.0044V48.2344C20.4648 46.9893 20.6276 45.8621 20.9531 44.853C21.2868 43.8358 21.7629 42.965 22.3813 42.2407C23.008 41.5164 23.7607 40.959 24.6396 40.5684C25.5186 40.1777 26.5073 39.9824 27.606 39.9824C28.9487 39.9824 30.084 40.2347 31.0117 40.7393C31.9395 41.2438 32.6597 41.9437 33.1724 42.8389C33.6932 43.7259 34.0146 44.7554 34.1367 45.9272H31.793C31.679 45.0972 31.4674 44.3851 31.1582 43.791C30.849 43.1888 30.4095 42.7249 29.8398 42.3994C29.2702 42.0739 28.5256 41.9111 27.606 41.9111C26.8166 41.9111 26.1208 42.0617 25.5186 42.3628C24.9245 42.6639 24.424 43.0911 24.0171 43.6445C23.6183 44.1979 23.3172 44.8612 23.1138 45.6343C22.9103 46.4074 22.8086 47.266 22.8086 48.21V50.0044C22.8086 50.8752 22.8981 51.693 23.0771 52.458C23.2643 53.223 23.5451 53.8944 23.9194 54.4722C24.2938 55.05 24.7699 55.5057 25.3477 55.8394C25.9255 56.1649 26.609 56.3276 27.3984 56.3276C28.3994 56.3276 29.1969 56.1689 29.791 55.8516C30.3851 55.5342 30.8327 55.0785 31.1338 54.4844C31.443 53.8903 31.6628 53.1782 31.793 52.3481ZM51.0312 48.5518V49.6748C51.0312 51.0094 50.8644 52.2057 50.5308 53.2637C50.1971 54.3216 49.717 55.2209 49.0903 55.9614C48.4637 56.702 47.7109 57.2676 46.832 57.6582C45.9613 58.0488 44.9847 58.2441 43.9023 58.2441C42.8525 58.2441 41.8882 58.0488 41.0093 57.6582C40.1385 57.2676 39.3817 56.702 38.7388 55.9614C38.104 55.2209 37.6117 54.3216 37.2617 53.2637C36.9118 52.2057 36.7368 51.0094 36.7368 49.6748V48.5518C36.7368 47.2171 36.9077 46.0249 37.2495 44.9751C37.5994 43.9172 38.0918 43.0179 38.7266 42.2773C39.3613 41.5286 40.1141 40.959 40.9849 40.5684C41.8638 40.1777 42.8281 39.9824 43.8779 39.9824C44.9603 39.9824 45.9368 40.1777 46.8076 40.5684C47.6865 40.959 48.4393 41.5286 49.0659 42.2773C49.7007 43.0179 50.1849 43.9172 50.5186 44.9751C50.8604 46.0249 51.0312 47.2171 51.0312 48.5518ZM48.6997 49.6748V48.5273C48.6997 47.4694 48.5898 46.5335 48.3701 45.7197C48.1585 44.9059 47.8452 44.2223 47.4302 43.6689C47.0151 43.1156 46.5065 42.6965 45.9043 42.4116C45.3102 42.1268 44.6348 41.9844 43.8779 41.9844C43.1455 41.9844 42.4823 42.1268 41.8882 42.4116C41.3022 42.6965 40.7977 43.1156 40.3745 43.6689C39.9595 44.2223 39.638 44.9059 39.4102 45.7197C39.1823 46.5335 39.0684 47.4694 39.0684 48.5273V49.6748C39.0684 50.7409 39.1823 51.6849 39.4102 52.5068C39.638 53.3206 39.9635 54.0083 40.3867 54.5698C40.818 55.1232 41.3267 55.5423 41.9126 55.8271C42.5067 56.112 43.1699 56.2544 43.9023 56.2544C44.6673 56.2544 45.3468 56.112 45.9409 55.8271C46.535 55.5423 47.0355 55.1232 47.4424 54.5698C47.8574 54.0083 48.1707 53.3206 48.3823 52.5068C48.5939 51.6849 48.6997 50.7409 48.6997 49.6748ZM65.3379 56.0835V58H56.4512V56.0835H65.3379ZM56.915 40.2266V58H54.5591V40.2266H56.915ZM74.2002 37.3457V41.0688H72.3691V37.3457H74.2002ZM73.9805 57.2798V60.5391H72.1616V57.2798H73.9805ZM76.4219 53.4224C76.4219 52.9341 76.312 52.4946 76.0923 52.104C75.8726 51.7134 75.5104 51.3553 75.0059 51.0298C74.5013 50.7043 73.8258 50.4032 72.9795 50.1265C71.9541 49.8091 71.0671 49.4225 70.3184 48.9668C69.5778 48.5111 69.0041 47.9455 68.5972 47.27C68.1984 46.5946 67.999 45.7767 67.999 44.8164C67.999 43.8154 68.2147 42.9528 68.646 42.2285C69.0773 41.5042 69.6877 40.9468 70.4771 40.5562C71.2664 40.1655 72.1942 39.9702 73.2603 39.9702C74.0903 39.9702 74.8309 40.0964 75.4819 40.3486C76.133 40.5928 76.6823 40.959 77.1299 41.4473C77.5856 41.9355 77.9315 42.5337 78.1675 43.2417C78.4116 43.9497 78.5337 44.7676 78.5337 45.6953H76.2876C76.2876 45.1501 76.2225 44.6496 76.0923 44.1938C75.9621 43.7381 75.7668 43.3434 75.5063 43.0098C75.2459 42.668 74.9285 42.4076 74.5542 42.2285C74.1799 42.0413 73.7485 41.9478 73.2603 41.9478C72.5767 41.9478 72.0111 42.0658 71.5635 42.3018C71.124 42.5378 70.7985 42.8714 70.5869 43.3027C70.3753 43.7259 70.2695 44.2183 70.2695 44.7798C70.2695 45.3006 70.3753 45.7563 70.5869 46.147C70.7985 46.5376 71.1566 46.8916 71.6611 47.209C72.1738 47.5182 72.8778 47.8234 73.7729 48.1245C74.8228 48.4582 75.7139 48.8529 76.4463 49.3086C77.1787 49.7562 77.7362 50.3096 78.1187 50.9688C78.5011 51.6198 78.6924 52.4295 78.6924 53.3979C78.6924 54.4478 78.4564 55.3348 77.9844 56.0591C77.5124 56.7752 76.8491 57.3205 75.9946 57.6948C75.1401 58.0692 74.1392 58.2563 72.9917 58.2563C72.3 58.2563 71.6164 58.1628 70.9409 57.9756C70.2655 57.7884 69.6551 57.4832 69.1099 57.0601C68.5646 56.6287 68.1292 56.0632 67.8037 55.3633C67.4782 54.6553 67.3154 53.7886 67.3154 52.7632H69.5859C69.5859 53.4549 69.6836 54.0286 69.8789 54.4844C70.0824 54.932 70.3509 55.29 70.6846 55.5586C71.0182 55.819 71.3844 56.0062 71.7832 56.1201C72.1901 56.2259 72.5929 56.2788 72.9917 56.2788C73.7241 56.2788 74.3426 56.1649 74.8472 55.937C75.3599 55.701 75.7505 55.3674 76.019 54.936C76.2876 54.5047 76.4219 54.0002 76.4219 53.4224Z" fill="black"/>
</svg>
