<svg width="100" height="100" viewBox="0 0 100 100" fill="none" xmlns="http://www.w3.org/2000/svg">
<rect x="5" y="5" width="90" height="90" rx="45" fill="#F3BA2F"/>
<circle cx="50" cy="50" r="42" fill="#F3BA2F"/>
<path d="M49.152 69.02C48.272 68.9 47.432 68.74 46.632 68.54C45.872 68.3 45.152 68.04 44.472 67.76L43.092 74.48H39.312L41.052 65.9C38.852 64.26 37.192 62.06 36.072 59.3C34.952 56.54 34.392 53.36 34.392 49.76C34.392 46.52 34.912 43.62 35.952 41.06C37.032 38.46 38.592 36.28 40.632 34.52C42.672 32.76 45.172 31.56 48.132 30.92L49.272 25.46H53.052L52.032 30.44C52.912 30.44 53.772 30.46 54.612 30.5C55.452 30.54 56.212 30.6 56.892 30.68L57.972 25.46H61.752L60.552 31.34C61.232 31.54 61.892 31.78 62.532 32.06C63.212 32.3 63.872 32.58 64.512 32.9L62.412 37.22C61.972 37.02 61.512 36.82 61.032 36.62C60.592 36.38 60.112 36.18 59.592 36.02L53.772 64.7C55.412 64.7 56.972 64.54 58.452 64.22C59.932 63.9 61.392 63.5 62.832 63.02V67.46C61.392 68.06 59.892 68.5 58.332 68.78C56.812 69.06 54.992 69.2 52.872 69.2L51.792 74.48H48.012L49.152 69.02ZM47.052 36.26C45.492 36.98 44.152 38 43.032 39.32C41.952 40.6 41.112 42.12 40.512 43.88C39.952 45.64 39.672 47.62 39.672 49.82C39.672 51.78 39.892 53.58 40.332 55.22C40.772 56.86 41.432 58.32 42.312 59.6L47.052 36.26ZM55.992 35.06C55.592 34.98 55.192 34.94 54.792 34.94C54.392 34.9 53.972 34.88 53.532 34.88C53.132 34.88 52.712 34.9 52.272 34.94C51.872 34.98 51.472 35.04 51.072 35.12L45.492 62.66C46.172 63.06 46.872 63.42 47.592 63.74C48.352 64.02 49.172 64.24 50.052 64.4L55.992 35.06Z" fill="black"/>
</svg>
