<svg width="100" height="100" viewBox="0 0 100 100" fill="none" xmlns="http://www.w3.org/2000/svg">
<rect x="5" y="5" width="90" height="90" rx="45" fill="#F3BA2F"/>
<circle cx="50" cy="50" r="42" fill="#F3BA2F"/>
<path d="M42.3994 58.7002V61H31.1055V58.7002H42.3994ZM31.6768 39.6719V61H28.8496V39.6719H31.6768ZM40.9053 48.8418V51.1416H31.1055V48.8418H40.9053ZM42.2529 39.6719V41.9863H31.1055V39.6719H42.2529ZM54.7188 56.7959C54.7188 56.4053 54.6309 56.0439 54.4551 55.7119C54.2891 55.3701 53.9424 55.0625 53.415 54.7891C52.8975 54.5059 52.1162 54.2617 51.0713 54.0566C50.1924 53.8711 49.3965 53.6514 48.6836 53.3975C47.9805 53.1436 47.3799 52.8359 46.8818 52.4746C46.3936 52.1133 46.0176 51.6885 45.7539 51.2002C45.4902 50.7119 45.3584 50.1406 45.3584 49.4863C45.3584 48.8613 45.4951 48.2705 45.7686 47.7139C46.0518 47.1572 46.4473 46.6641 46.9551 46.2344C47.4727 45.8047 48.0928 45.4678 48.8154 45.2236C49.5381 44.9795 50.3438 44.8574 51.2324 44.8574C52.502 44.8574 53.5859 45.082 54.4844 45.5312C55.3828 45.9805 56.0713 46.5811 56.5498 47.333C57.0283 48.0752 57.2676 48.9004 57.2676 49.8086H54.5576C54.5576 49.3691 54.4258 48.9443 54.1621 48.5342C53.9082 48.1143 53.5322 47.7676 53.0342 47.4941C52.5459 47.2207 51.9453 47.084 51.2324 47.084C50.4805 47.084 49.8701 47.2012 49.4014 47.4355C48.9424 47.6602 48.6055 47.9482 48.3906 48.2998C48.1855 48.6514 48.083 49.0225 48.083 49.4131C48.083 49.7061 48.1318 49.9697 48.2295 50.2041C48.3369 50.4287 48.5225 50.6387 48.7861 50.834C49.0498 51.0195 49.4209 51.1953 49.8994 51.3613C50.3779 51.5273 50.9883 51.6934 51.7305 51.8594C53.0293 52.1523 54.0986 52.5039 54.9385 52.9141C55.7783 53.3242 56.4033 53.8271 56.8135 54.4229C57.2236 55.0186 57.4287 55.7412 57.4287 56.5908C57.4287 57.2842 57.2822 57.9189 56.9893 58.4951C56.7061 59.0713 56.291 59.5693 55.7441 59.9893C55.207 60.3994 54.5625 60.7217 53.8105 60.9561C53.0684 61.1807 52.2334 61.293 51.3057 61.293C49.9092 61.293 48.7275 61.0439 47.7607 60.5459C46.7939 60.0479 46.0615 59.4033 45.5635 58.6123C45.0654 57.8213 44.8164 56.9863 44.8164 56.1074H47.541C47.5801 56.8496 47.7949 57.4404 48.1855 57.8799C48.5762 58.3096 49.0547 58.6172 49.6211 58.8027C50.1875 58.9785 50.749 59.0664 51.3057 59.0664C52.0479 59.0664 52.668 58.9688 53.166 58.7734C53.6738 58.5781 54.0596 58.3096 54.3232 57.9678C54.5869 57.626 54.7188 57.2354 54.7188 56.7959ZM67.3311 59.0664C67.9756 59.0664 68.5713 58.9346 69.1182 58.6709C69.665 58.4072 70.1143 58.0459 70.4658 57.5869C70.8174 57.1182 71.0176 56.5859 71.0664 55.9902H73.6445C73.5957 56.9277 73.2783 57.8018 72.6924 58.6123C72.1162 59.4131 71.3594 60.0625 70.4219 60.5605C69.4844 61.0488 68.4541 61.293 67.3311 61.293C66.1396 61.293 65.0996 61.083 64.2109 60.6631C63.332 60.2432 62.5996 59.667 62.0137 58.9346C61.4375 58.2021 61.0029 57.3623 60.71 56.415C60.4268 55.458 60.2852 54.4473 60.2852 53.3828V52.7676C60.2852 51.7031 60.4268 50.6973 60.71 49.75C61.0029 48.793 61.4375 47.9482 62.0137 47.2158C62.5996 46.4834 63.332 45.9072 64.2109 45.4873C65.0996 45.0674 66.1396 44.8574 67.3311 44.8574C68.5713 44.8574 69.6553 45.1113 70.583 45.6191C71.5107 46.1172 72.2383 46.8008 72.7656 47.6699C73.3027 48.5293 73.5957 49.5059 73.6445 50.5996H71.0664C71.0176 49.9453 70.832 49.3545 70.5098 48.8271C70.1973 48.2998 69.7676 47.8799 69.2207 47.5674C68.6836 47.2451 68.0537 47.084 67.3311 47.084C66.501 47.084 65.8027 47.25 65.2363 47.582C64.6797 47.9043 64.2354 48.3438 63.9033 48.9004C63.5811 49.4473 63.3467 50.0576 63.2002 50.7314C63.0635 51.3955 62.9951 52.0742 62.9951 52.7676V53.3828C62.9951 54.0762 63.0635 54.7598 63.2002 55.4336C63.3369 56.1074 63.5664 56.7178 63.8887 57.2646C64.2207 57.8115 64.665 58.251 65.2217 58.583C65.7881 58.9053 66.4912 59.0664 67.3311 59.0664Z" fill="black"/>
</svg>
