<svg width="100" height="100" viewBox="0 0 100 100" fill="none" xmlns="http://www.w3.org/2000/svg">
<rect x="5" y="5" width="90" height="90" rx="45" fill="#F3BA2F"/>
<circle cx="50" cy="50" r="42" fill="#F3BA2F"/>
<path d="M30.1562 34.5625V63H26.3867V34.5625H30.1562ZM42.0703 47.3555V50.4414H29.3359V47.3555H42.0703ZM44.0039 34.5625V37.6484H29.3359V34.5625H44.0039ZM60.8398 58.8984V33H64.4727V63H61.1523L60.8398 58.8984ZM46.6211 52.668V52.2578C46.6211 50.6432 46.8164 49.1784 47.207 47.8633C47.6107 46.5352 48.1771 45.3958 48.9062 44.4453C49.6484 43.4948 50.5273 42.7656 51.543 42.2578C52.5716 41.737 53.7174 41.4766 54.9805 41.4766C56.3086 41.4766 57.4674 41.7109 58.457 42.1797C59.4596 42.6354 60.306 43.306 60.9961 44.1914C61.6992 45.0638 62.2526 46.1185 62.6562 47.3555C63.0599 48.5924 63.3398 49.9922 63.4961 51.5547V53.3516C63.3529 54.901 63.0729 56.2943 62.6562 57.5312C62.2526 58.7682 61.6992 59.8229 60.9961 60.6953C60.306 61.5677 59.4596 62.2383 58.457 62.707C57.4544 63.1628 56.2826 63.3906 54.9414 63.3906C53.7044 63.3906 52.5716 63.1237 51.543 62.5898C50.5273 62.056 49.6484 61.3073 48.9062 60.3438C48.1771 59.3802 47.6107 58.2474 47.207 56.9453C46.8164 55.6302 46.6211 54.2044 46.6211 52.668ZM50.2539 52.2578V52.668C50.2539 53.7227 50.3581 54.7122 50.5664 55.6367C50.7878 56.5612 51.1263 57.375 51.582 58.0781C52.0378 58.7812 52.6172 59.3346 53.3203 59.7383C54.0234 60.1289 54.8633 60.3242 55.8398 60.3242C57.0378 60.3242 58.0208 60.0703 58.7891 59.5625C59.5703 59.0547 60.1953 58.3841 60.6641 57.5508C61.1328 56.7174 61.4974 55.8125 61.7578 54.8359V50.1289C61.6016 49.4128 61.3737 48.7227 61.0742 48.0586C60.7878 47.3815 60.4102 46.7826 59.9414 46.2617C59.4857 45.7279 58.9193 45.3047 58.2422 44.9922C57.5781 44.6797 56.7904 44.5234 55.8789 44.5234C54.8893 44.5234 54.0365 44.7318 53.3203 45.1484C52.6172 45.5521 52.0378 46.112 51.582 46.8281C51.1263 47.5312 50.7878 48.3516 50.5664 49.2891C50.3581 50.2135 50.2539 51.2031 50.2539 52.2578ZM70.1953 41.8672H73.8281V65.5195C73.8281 66.8086 73.6198 67.9023 73.2031 68.8008C72.7995 69.6992 72.1875 70.3763 71.3672 70.832C70.5599 71.3008 69.5378 71.5352 68.3008 71.5352C67.9753 71.5352 67.5977 71.5026 67.168 71.4375C66.7253 71.3724 66.3542 71.2943 66.0547 71.2031L66.0742 68.293C66.3216 68.3451 66.6016 68.3841 66.9141 68.4102C67.2266 68.4492 67.5 68.4688 67.7344 68.4688C68.2682 68.4688 68.7174 68.3711 69.082 68.1758C69.4466 67.9805 69.7201 67.668 69.9023 67.2383C70.0977 66.8086 70.1953 66.2357 70.1953 65.5195V41.8672ZM69.8242 36.2617C69.8242 35.6758 70.0065 35.181 70.3711 34.7773C70.7357 34.3737 71.263 34.1719 71.9531 34.1719C72.6562 34.1719 73.1901 34.3737 73.5547 34.7773C73.9193 35.181 74.1016 35.6758 74.1016 36.2617C74.1016 36.8216 73.9193 37.3034 73.5547 37.707C73.1901 38.0977 72.6562 38.293 71.9531 38.293C71.263 38.293 70.7357 38.0977 70.3711 37.707C70.0065 37.3034 69.8242 36.8216 69.8242 36.2617Z" fill="black"/>
</svg>
