<svg width="100" height="100" viewBox="0 0 100 100" fill="none" xmlns="http://www.w3.org/2000/svg">
<rect x="5" y="5" width="90" height="90" rx="45" fill="#F3BA2F"/>
<circle cx="50" cy="50" r="42" fill="#F3BA2F"/>
<path d="M34.1719 34.5625V63H30.4023V34.5625H34.1719ZM51.3398 34.5625L39.5234 47.8242L32.8828 54.7188L32.2578 50.6953L37.2578 45.1875L46.8086 34.5625H51.3398ZM47.707 63L37.1797 49.1328L39.4258 46.1445L52.1992 63H47.707ZM58.5859 45.1875V63H54.9727V41.8672H58.4883L58.5859 45.1875ZM65.1875 41.75L65.168 45.1094C64.8685 45.0443 64.582 45.0052 64.3086 44.9922C64.0482 44.9661 63.7487 44.9531 63.4102 44.9531C62.5768 44.9531 61.8411 45.0833 61.2031 45.3438C60.5651 45.6042 60.0247 45.9688 59.582 46.4375C59.1393 46.9062 58.7878 47.4661 58.5273 48.1172C58.2799 48.7552 58.1172 49.4583 58.0391 50.2266L57.0234 50.8125C57.0234 49.5365 57.1471 48.3385 57.3945 47.2188C57.6549 46.099 58.0521 45.1094 58.5859 44.25C59.1198 43.3776 59.7969 42.7005 60.6172 42.2188C61.4505 41.724 62.4401 41.4766 63.5859 41.4766C63.8464 41.4766 64.1458 41.5091 64.4844 41.5742C64.8229 41.6263 65.0573 41.6849 65.1875 41.75ZM66.1641 61.0859C66.1641 60.474 66.3529 59.9596 66.7305 59.543C67.1211 59.1133 67.681 58.8984 68.4102 58.8984C69.1393 58.8984 69.6927 59.1133 70.0703 59.543C70.4609 59.9596 70.6562 60.474 70.6562 61.0859C70.6562 61.6849 70.4609 62.1927 70.0703 62.6094C69.6927 63.026 69.1393 63.2344 68.4102 63.2344C67.681 63.2344 67.1211 63.026 66.7305 62.6094C66.3529 62.1927 66.1641 61.6849 66.1641 61.0859Z" fill="black"/>
</svg>
