<svg width="100" height="100" viewBox="0 0 100 100" fill="none" xmlns="http://www.w3.org/2000/svg">
<rect x="5" y="5" width="90" height="90" rx="45" fill="#F3BA2F"/>
<circle cx="50" cy="50" r="42" fill="#F3BA2F"/>
<path d="M24.9512 39.6719H32.0117C33.6133 39.6719 34.9658 39.916 36.0693 40.4043C37.1826 40.8926 38.0273 41.6152 38.6035 42.5723C39.1895 43.5195 39.4824 44.6865 39.4824 46.0732C39.4824 47.0498 39.2822 47.9434 38.8818 48.7539C38.4912 49.5547 37.9248 50.2383 37.1826 50.8047C36.4502 51.3613 35.5713 51.7764 34.5459 52.0498L33.7549 52.3574H27.1191L27.0898 50.0576H32.0996C33.1152 50.0576 33.96 49.8818 34.6338 49.5303C35.3076 49.1689 35.8154 48.6855 36.1572 48.0801C36.499 47.4746 36.6699 46.8057 36.6699 46.0732C36.6699 45.2529 36.5088 44.5352 36.1865 43.9199C35.8643 43.3047 35.3564 42.8311 34.6631 42.499C33.9795 42.1572 33.0957 41.9863 32.0117 41.9863H27.7783V61H24.9512V39.6719ZM37.417 61L32.2314 51.332L35.1758 51.3174L40.4346 60.8242V61H37.417ZM49.209 61H44.7559L44.7852 58.7002H49.209C50.7324 58.7002 52.002 58.3828 53.0176 57.748C54.0332 57.1035 54.7949 56.2051 55.3027 55.0527C55.8203 53.8906 56.0791 52.5332 56.0791 50.9805V49.6768C56.0791 48.4561 55.9326 47.3721 55.6396 46.4248C55.3467 45.4678 54.917 44.6621 54.3506 44.0078C53.7842 43.3438 53.0908 42.8408 52.2705 42.499C51.46 42.1572 50.5273 41.9863 49.4727 41.9863H44.668V39.6719H49.4727C50.8691 39.6719 52.1436 39.9062 53.2959 40.375C54.4482 40.834 55.4395 41.5029 56.2695 42.3818C57.1094 43.251 57.7539 44.3057 58.2031 45.5459C58.6523 46.7764 58.877 48.1631 58.877 49.7061V50.9805C58.877 52.5234 58.6523 53.915 58.2031 55.1553C57.7539 56.3857 57.1045 57.4355 56.2549 58.3047C55.415 59.1738 54.3994 59.8428 53.208 60.3115C52.0264 60.7705 50.6934 61 49.209 61ZM46.2646 39.6719V61H43.4375V39.6719H46.2646ZM70.5225 36.2148V40.6826H68.3252V36.2148H70.5225ZM70.2588 60.1357V64.0469H68.0762V60.1357H70.2588ZM73.1885 55.5068C73.1885 54.9209 73.0566 54.3936 72.793 53.9248C72.5293 53.4561 72.0947 53.0264 71.4893 52.6357C70.8838 52.2451 70.0732 51.8838 69.0576 51.5518C67.8271 51.1709 66.7627 50.707 65.8643 50.1602C64.9756 49.6133 64.2871 48.9346 63.7988 48.124C63.3203 47.3135 63.0811 46.332 63.0811 45.1797C63.0811 43.9785 63.3398 42.9434 63.8574 42.0742C64.375 41.2051 65.1074 40.5361 66.0547 40.0674C67.002 39.5986 68.1152 39.3643 69.3945 39.3643C70.3906 39.3643 71.2793 39.5156 72.0605 39.8184C72.8418 40.1113 73.501 40.5508 74.0381 41.1367C74.585 41.7227 75 42.4404 75.2832 43.29C75.5762 44.1396 75.7227 45.1211 75.7227 46.2344H73.0273C73.0273 45.5801 72.9492 44.9795 72.793 44.4326C72.6367 43.8857 72.4023 43.4121 72.0898 43.0117C71.7773 42.6016 71.3965 42.2891 70.9473 42.0742C70.498 41.8496 69.9805 41.7373 69.3945 41.7373C68.5742 41.7373 67.8955 41.8789 67.3584 42.1621C66.8311 42.4453 66.4404 42.8457 66.1865 43.3633C65.9326 43.8711 65.8057 44.4619 65.8057 45.1357C65.8057 45.7607 65.9326 46.3076 66.1865 46.7764C66.4404 47.2451 66.8701 47.6699 67.4756 48.0508C68.0908 48.4219 68.9355 48.7881 70.0098 49.1494C71.2695 49.5498 72.3389 50.0234 73.2178 50.5703C74.0967 51.1074 74.7656 51.7715 75.2246 52.5625C75.6836 53.3438 75.9131 54.3154 75.9131 55.4775C75.9131 56.7373 75.6299 57.8018 75.0635 58.6709C74.4971 59.5303 73.7012 60.1846 72.6758 60.6338C71.6504 61.083 70.4492 61.3076 69.0723 61.3076C68.2422 61.3076 67.4219 61.1953 66.6113 60.9707C65.8008 60.7461 65.0684 60.3799 64.4141 59.8721C63.7598 59.3545 63.2373 58.6758 62.8467 57.8359C62.4561 56.9863 62.2607 55.9463 62.2607 54.7158H64.9854C64.9854 55.5459 65.1025 56.2344 65.3369 56.7812C65.5811 57.3184 65.9033 57.748 66.3037 58.0703C66.7041 58.3828 67.1436 58.6074 67.6221 58.7441C68.1104 58.8711 68.5938 58.9346 69.0723 58.9346C69.9512 58.9346 70.6934 58.7979 71.2988 58.5244C71.9141 58.2412 72.3828 57.8408 72.7051 57.3232C73.0273 56.8057 73.1885 56.2002 73.1885 55.5068Z" fill="black"/>
</svg>
