<svg width="100" height="100" viewBox="0 0 100 100" fill="none" xmlns="http://www.w3.org/2000/svg">
<rect x="5" y="5" width="90" height="90" rx="45" fill="#F3BA2F"/>
<circle cx="50" cy="50" r="42" fill="#F3BA2F"/>
<path d="M34.105 54.381C35.6717 54.381 36.9093 54.2243 37.818 53.911C38.758 53.5977 39.4317 53.1433 39.839 52.548C40.2777 51.9213 40.497 51.2007 40.497 50.386C40.497 49.7593 40.3247 49.0073 39.98 48.13C39.6667 47.2527 39.228 46.2813 38.664 45.216C38.1 44.1193 37.442 42.9757 36.69 41.785C35.9693 40.563 35.186 39.3253 34.34 38.072L37.583 35.957C38.805 37.8057 39.8703 39.5603 40.779 41.221C41.6877 42.8503 42.4553 44.3857 43.082 45.827C43.7087 47.237 44.21 48.5687 44.586 49.822C45.0247 51.2007 45.5103 52.219 46.043 52.877C46.607 53.535 47.1867 53.958 47.782 54.146C48.3773 54.3027 48.9257 54.381 49.427 54.381C50.085 54.381 50.5707 54.569 50.884 54.945C51.1973 55.2897 51.354 55.7127 51.354 56.214C51.354 56.7153 51.1347 57.1853 50.696 57.624C50.2573 58.0313 49.6933 58.235 49.004 58.235C47.97 58.235 46.9517 58.047 45.949 57.671C44.9777 57.2637 44.1317 56.6213 43.411 55.744C42.6903 54.8353 42.189 53.629 41.907 52.125L43.787 50.621C43.787 51.8743 43.5207 53.0963 42.988 54.287C42.4553 55.4463 41.484 56.402 40.074 57.154C38.6953 57.906 36.7057 58.282 34.105 58.282C32.977 58.282 31.8803 58.188 30.815 58C29.781 57.812 28.8253 57.5457 27.948 57.201C27.0707 56.825 26.303 56.3863 25.645 55.885L27.525 52.642C28.1517 53.0493 29.029 53.441 30.157 53.817C31.285 54.193 32.601 54.381 34.105 54.381ZM49.0146 58.235L49.4376 54.381C51.067 54.381 52.665 54.2557 54.2316 54.005C55.7983 53.7543 57.3336 53.394 58.8376 52.924C60.3416 52.454 61.783 51.89 63.1616 51.232C64.5716 50.5427 65.9033 49.7593 67.1566 48.882C66.342 48.1613 65.402 47.5347 64.3366 47.002C63.2713 46.4693 62.0963 46.062 60.8116 45.78C59.5583 45.4667 58.2266 45.31 56.8166 45.31C56.3153 45.31 55.8453 45.3257 55.4066 45.357C54.968 45.3883 54.5293 45.451 54.0906 45.545C53.652 45.6077 53.1506 45.7017 52.5866 45.827L51.8346 42.255C52.6806 42.0043 53.5266 41.8163 54.3726 41.691C55.2186 41.5343 56.0333 41.456 56.8166 41.456C58.446 41.456 59.9186 41.6597 61.2346 42.067C62.5506 42.443 63.7413 42.913 64.8066 43.477C65.9033 44.041 66.9216 44.605 67.8616 45.169C68.833 45.733 69.773 46.2187 70.6816 46.626C71.5903 47.002 72.5303 47.19 73.5016 47.19H74.4887L74.8176 50.574C73.4703 50.574 72.2327 50.762 71.1046 51.138C69.9766 51.514 68.8643 51.9997 67.7676 52.595C66.7023 53.159 65.5743 53.77 64.3836 54.428C63.193 55.0547 61.877 55.6657 60.4356 56.261C58.9943 56.825 57.3336 57.295 55.4536 57.671C53.605 58.047 51.4586 58.235 49.0146 58.235ZM62.1276 66.742C61.4696 66.742 60.9056 66.507 60.4356 66.037C59.997 65.5983 59.7776 65.0657 59.7776 64.439C59.7776 63.8123 59.997 63.264 60.4356 62.794C60.9056 62.324 61.4696 62.089 62.1276 62.089C62.7543 62.089 63.287 62.324 63.7256 62.794C64.1956 63.264 64.4306 63.8123 64.4306 64.439C64.4306 65.0657 64.1956 65.5983 63.7256 66.037C63.287 66.507 62.7543 66.742 62.1276 66.742Z" fill="black"/>
</svg>
