<svg width="100" height="100" viewBox="0 0 100 100" fill="none" xmlns="http://www.w3.org/2000/svg">
<rect x="5" y="5" width="90" height="90" rx="45" fill="#F3BA2F"/>
<circle cx="50" cy="50" r="42" fill="#F3BA2F"/>
<path d="M48.8594 59.9336V63H33.8008V59.9336H48.8594ZM34.5625 34.5625V63H30.793V34.5625H34.5625ZM46.8672 46.7891V49.8555H33.8008V46.7891H46.8672ZM48.6641 34.5625V37.6484H33.8008V34.5625H48.6641ZM72.2578 63H52.082V59.9336H72.2578V63ZM65.1289 50.832H52.0039V47.7656H65.1289V50.832ZM58.7227 42.707L59.1523 55.1484C59.1654 56.3724 58.9896 57.5182 58.625 58.5859C58.2604 59.6406 57.7135 60.4349 56.9844 60.9688L53.5859 59.9336C54.0417 59.8164 54.3997 59.4909 54.6602 58.957C54.9336 58.4102 55.1224 57.7852 55.2266 57.082C55.3438 56.3789 55.4023 55.7409 55.4023 55.168L54.9727 42.707C54.9727 40.9102 55.3503 39.3802 56.1055 38.1172C56.8607 36.8411 57.8893 35.8646 59.1914 35.1875C60.5065 34.5104 61.9909 34.1719 63.6445 34.1719C65.3503 34.1719 66.8021 34.4909 68 35.1289C69.1979 35.7669 70.1159 36.6589 70.7539 37.8047C71.3919 38.9375 71.7109 40.2591 71.7109 41.7695H67.9609C67.9609 40.6758 67.7396 39.7969 67.2969 39.1328C66.8672 38.4688 66.3008 37.987 65.5977 37.6875C64.8945 37.388 64.1393 37.2383 63.332 37.2383C62.4727 37.2383 61.6914 37.4531 60.9883 37.8828C60.2982 38.2995 59.7448 38.918 59.3281 39.7383C58.9245 40.5456 58.7227 41.5352 58.7227 42.707Z" fill="black"/>
</svg>
