<svg width="100" height="100" viewBox="0 0 100 100" fill="none" xmlns="http://www.w3.org/2000/svg">
<rect x="5" y="5" width="90" height="90" rx="45" fill="#F3BA2F"/>
<circle cx="50" cy="50" r="42" fill="#F3BA2F"/>
<path d="M15.93 58.031C15.93 57.535 15.9713 57.008 16.054 56.45C16.1573 55.8713 16.302 55.2617 16.488 54.621C16.6947 53.9597 16.9427 53.2673 17.232 52.544L19.464 53.412C19.2573 53.9907 19.0713 54.5383 18.906 55.055C18.7613 55.5717 18.6477 56.0573 18.565 56.512C18.503 56.9667 18.472 57.4007 18.472 57.814C18.472 58.8887 18.751 59.7773 19.309 60.48C19.867 61.1827 20.6317 61.7097 21.603 62.061C22.5743 62.4123 23.6697 62.588 24.889 62.588C26.2737 62.588 27.431 62.402 28.361 62.03C29.3117 61.658 30.066 61.162 30.624 60.542C31.182 59.9427 31.5747 59.271 31.802 58.527C32.05 57.783 32.174 57.0493 32.174 56.326C32.174 55.5407 32.019 54.59 31.709 53.474C31.4197 52.358 30.872 50.9733 30.066 49.32L32.391 48.142C32.8043 48.9273 33.1763 49.754 33.507 50.622C33.8583 51.4693 34.1373 52.3477 34.344 53.257C34.5713 54.1457 34.685 55.055 34.685 55.985C34.685 56.791 34.5817 57.6177 34.375 58.465C34.189 59.3123 33.8687 60.1287 33.414 60.914C32.9593 61.72 32.3497 62.433 31.585 63.053C30.841 63.6937 29.911 64.2 28.795 64.572C27.6997 64.944 26.3873 65.13 24.858 65.13C23.6593 65.13 22.5123 64.9853 21.417 64.696C20.3423 64.4273 19.3917 64.0037 18.565 63.425C17.759 62.8463 17.1183 62.1127 16.643 61.224C16.1677 60.3353 15.93 59.271 15.93 58.031ZM25.292 45.662C24.858 45.662 24.486 45.5173 24.176 45.228C23.8867 44.918 23.742 44.5563 23.742 44.143C23.742 43.7297 23.8867 43.368 24.176 43.058C24.486 42.748 24.858 42.593 25.292 42.593C25.7053 42.593 26.0567 42.748 26.346 43.058C26.656 43.368 26.811 43.7297 26.811 44.143C26.811 44.5563 26.656 44.918 26.346 45.228C26.0567 45.5173 25.7053 45.662 25.292 45.662ZM45.2427 58.155C43.5893 58.155 42.3183 57.969 41.4297 57.597C40.5617 57.225 39.9623 56.6463 39.6317 55.861C39.301 55.0757 39.115 54.063 39.0737 52.823L38.4537 35.866H40.9957L41.6157 51.831C41.657 52.8437 41.75 53.629 41.8947 54.187C42.06 54.7243 42.4113 55.0963 42.9487 55.303C43.5067 55.5097 44.3747 55.613 45.5527 55.613C45.9867 55.613 46.2967 55.737 46.4827 55.985C46.6893 56.2123 46.7927 56.4913 46.7927 56.822C46.7927 57.1527 46.648 57.4627 46.3587 57.752C46.0693 58.0207 45.6973 58.155 45.2427 58.155ZM45.2432 58.155L45.5532 55.613C46.0698 55.613 46.5968 55.613 47.1342 55.613C47.6922 55.5923 48.2398 55.5613 48.7772 55.52C49.3145 55.4787 49.8312 55.427 50.3272 55.365C50.8232 55.303 51.2675 55.21 51.6602 55.086C52.3835 54.8587 53.0448 54.559 53.6442 54.187C54.2642 53.815 54.7602 53.3603 55.1322 52.823C55.5248 52.2857 55.7212 51.6657 55.7212 50.963C55.7212 50.4877 55.6075 50.002 55.3802 49.506C55.1528 48.9893 54.8428 48.5553 54.4502 48.204C54.0575 47.8527 53.6028 47.677 53.0862 47.677C52.5902 47.677 52.1252 47.8423 51.6912 48.173C51.2778 48.5037 50.9368 48.9377 50.6682 49.475C50.4202 49.9917 50.2962 50.529 50.2962 51.087C50.2962 51.7483 50.4615 52.3477 50.7922 52.885C51.1435 53.4017 51.5672 53.846 52.0632 54.218C52.5592 54.59 53.0552 54.8897 53.5512 55.117L50.6062 55.985C50.2755 55.737 49.8828 55.396 49.4282 54.962C48.9942 54.5073 48.6015 53.9493 48.2502 53.288C47.9195 52.6267 47.7542 51.8723 47.7542 51.025C47.7542 50.1983 47.8988 49.4337 48.1882 48.731C48.4982 48.0077 48.9012 47.3773 49.3972 46.84C49.9138 46.3027 50.4925 45.8893 51.1332 45.6C51.7945 45.29 52.4765 45.135 53.1792 45.135C54.1918 45.135 55.0805 45.414 55.8452 45.972C56.6098 46.53 57.1988 47.243 57.6122 48.111C58.0462 48.9583 58.2632 49.847 58.2632 50.777C58.2632 51.6657 58.0978 52.4717 57.7672 53.195C57.4365 53.8977 56.9818 54.528 56.4032 55.086C55.8452 55.644 55.1838 56.1193 54.4192 56.512C53.6752 56.9047 52.8795 57.225 52.0322 57.473C51.5568 57.6177 51.0402 57.7313 50.4822 57.814C49.9448 57.8967 49.3765 57.9587 48.7772 58C48.1778 58.062 47.5785 58.1033 46.9792 58.124C46.3798 58.1447 45.8012 58.155 45.2432 58.155ZM60.5882 58.155C59.5548 58.155 58.4802 58.093 57.3642 57.969C56.2688 57.8243 55.2252 57.6487 54.2332 57.442C53.2618 57.2147 52.4558 56.9667 51.8152 56.698L53.9542 55.148C54.5742 55.2307 55.3078 55.3133 56.1552 55.396C57.0025 55.458 57.8498 55.5097 58.6972 55.551C59.5445 55.5923 60.2782 55.613 60.8982 55.613C61.3322 55.613 61.6422 55.737 61.8282 55.985C62.0348 56.2123 62.1382 56.4913 62.1382 56.822C62.1382 57.1527 61.9935 57.4627 61.7042 57.752C61.4148 58.0207 61.0428 58.155 60.5882 58.155ZM52.9002 41.942C52.4662 41.942 52.0942 41.7973 51.7842 41.508C51.4948 41.198 51.3502 40.8363 51.3502 40.423C51.3502 40.0097 51.4948 39.648 51.7842 39.338C52.0942 39.028 52.4662 38.873 52.9002 38.873C53.3135 38.873 53.6648 39.028 53.9542 39.338C54.2642 39.648 54.4192 40.0097 54.4192 40.423C54.4192 40.8363 54.2642 41.198 53.9542 41.508C53.6648 41.7973 53.3135 41.942 52.9002 41.942ZM60.5918 58.155L60.9018 55.613H63.8158C65.0351 55.613 65.9961 55.551 66.6988 55.427C67.4221 55.2823 67.9491 55.1067 68.2798 54.9C68.6311 54.6727 68.8585 54.435 68.9618 54.187C69.0858 53.9183 69.1478 53.6497 69.1478 53.381C69.1478 52.9057 68.9618 52.3167 68.5898 51.614C68.2385 50.9113 67.5048 50.002 66.3888 48.886C65.8101 48.3073 65.2315 47.7803 64.6528 47.305C64.0741 46.809 63.5368 46.375 63.0408 46.003C62.5655 45.6103 62.1831 45.2797 61.8938 45.011C61.6045 44.7423 61.4598 44.5357 61.4598 44.391C61.4598 44.081 61.4805 43.7813 61.5218 43.492C61.5838 43.2027 61.6561 42.934 61.7388 42.686C61.8421 42.438 61.9661 42.2417 62.1108 42.097C62.5241 41.663 63.0511 41.229 63.6918 40.795C64.3531 40.361 65.1178 39.9063 65.9858 39.431C66.8745 38.9557 67.8665 38.4493 68.9618 37.912C70.0778 37.354 71.2971 36.7443 72.6198 36.083L73.6738 38.377C72.0205 39.1623 70.6358 39.834 69.5198 40.392C68.4245 40.9293 67.4945 41.415 66.7298 41.849C65.9651 42.2623 65.2935 42.655 64.7148 43.027C64.1361 43.399 63.5471 43.8123 62.9478 44.267L63.4128 43.089C64.7148 44.1223 65.8618 45.0937 66.8538 46.003C67.8665 46.9123 68.7138 47.7907 69.3958 48.638C70.0778 49.4647 70.5945 50.281 70.9458 51.087C71.2971 51.893 71.4728 52.7093 71.4728 53.536C71.4728 53.9907 71.3901 54.4867 71.2248 55.024C71.0595 55.5613 70.7081 56.0677 70.1708 56.543C69.6335 57.0183 68.8275 57.411 67.7528 57.721C66.6781 58.0103 65.2315 58.155 63.4128 58.155H60.5918ZM76.2192 58L75.5992 35.866H78.1102L78.7302 58H76.2192ZM85.4312 54.6699V56.9253C85.4312 57.8436 85.1991 58.8123 84.7349 59.8315C84.2707 60.8608 83.6198 61.7186 82.7822 62.4048L81.1929 61.2998C81.5158 60.8558 81.7882 60.4017 82.0103 59.9375C82.2323 59.4834 82.3988 59.0091 82.5098 58.5146C82.6309 58.0303 82.6914 57.5156 82.6914 56.9707V54.6699H85.4312Z" fill="black"/>
</svg>
