<svg width="100" height="100" viewBox="0 0 100 100" fill="none" xmlns="http://www.w3.org/2000/svg">
<rect x="5" y="5" width="90" height="90" rx="45" fill="#F3BA2F"/>
<circle cx="50" cy="50" r="42" fill="#F3BA2F"/>
<path d="M44.6992 50.6992H37.4922L37.4531 47.6719H43.9961C45.0768 47.6719 46.0208 47.4896 46.8281 47.125C47.6354 46.7604 48.2604 46.2396 48.7031 45.5625C49.1589 44.8724 49.3867 44.0521 49.3867 43.1016C49.3867 42.0599 49.1849 41.2135 48.7812 40.5625C48.3906 39.8984 47.7852 39.4167 46.9648 39.1172C46.1576 38.8047 45.1289 38.6484 43.8789 38.6484H38.332V64H34.5625V35.5625H43.8789C45.3372 35.5625 46.6393 35.7122 47.7852 36.0117C48.931 36.2982 49.901 36.7539 50.6953 37.3789C51.5026 37.9909 52.1146 38.7721 52.5312 39.7227C52.9479 40.6732 53.1562 41.8125 53.1562 43.1406C53.1562 44.3125 52.8568 45.3737 52.2578 46.3242C51.6589 47.2617 50.8255 48.0299 49.7578 48.6289C48.7031 49.2279 47.4661 49.612 46.0469 49.7812L44.6992 50.6992ZM44.5234 64H36.0078L38.1367 60.9336H44.5234C45.7214 60.9336 46.737 60.7253 47.5703 60.3086C48.4167 59.8919 49.0612 59.306 49.5039 58.5508C49.9466 57.7826 50.168 56.8776 50.168 55.8359C50.168 54.7812 49.9792 53.8698 49.6016 53.1016C49.224 52.3333 48.6315 51.7409 47.8242 51.3242C47.0169 50.9076 45.9753 50.6992 44.6992 50.6992H39.3281L39.3672 47.6719H46.7109L47.5117 48.7656C48.8789 48.8828 50.0378 49.2734 50.9883 49.9375C51.9388 50.5885 52.6615 51.4219 53.1562 52.4375C53.6641 53.4531 53.918 54.5729 53.918 55.7969C53.918 57.5677 53.5273 59.0651 52.7461 60.2891C51.9779 61.5 50.8906 62.4245 49.4844 63.0625C48.0781 63.6875 46.4245 64 44.5234 64ZM62.5508 46.1875V64H58.9375V42.8672H62.4531L62.5508 46.1875ZM69.1523 42.75L69.1328 46.1094C68.8333 46.0443 68.5469 46.0052 68.2734 45.9922C68.013 45.9661 67.7135 45.9531 67.375 45.9531C66.5417 45.9531 65.806 46.0833 65.168 46.3438C64.5299 46.6042 63.9896 46.9688 63.5469 47.4375C63.1042 47.9062 62.7526 48.4661 62.4922 49.1172C62.2448 49.7552 62.082 50.4583 62.0039 51.2266L60.9883 51.8125C60.9883 50.5365 61.112 49.3385 61.3594 48.2188C61.6198 47.099 62.0169 46.1094 62.5508 45.25C63.0846 44.3776 63.7617 43.7005 64.582 43.2188C65.4154 42.724 66.4049 42.4766 67.5508 42.4766C67.8112 42.4766 68.1107 42.5091 68.4492 42.5742C68.7878 42.6263 69.0221 42.6849 69.1523 42.75Z" fill="black"/>
</svg>
