<svg width="100" height="100" viewBox="0 0 100 100" fill="none" xmlns="http://www.w3.org/2000/svg">
<rect x="5" y="5" width="90" height="90" rx="45" fill="#F3BA2F"/>
<circle cx="50" cy="50" r="42" fill="#F3BA2F"/>
<path d="M56.002 67.0156C57.1348 67.0156 58.2383 66.9277 59.3125 66.752C60.3867 66.5762 61.4121 66.332 62.3887 66.0195L62.9746 70.707C61.8809 70.9805 60.7383 71.1953 59.5469 71.3516C58.3555 71.5078 57.1543 71.5859 55.9434 71.5859C53.6191 71.5859 51.4902 71.2344 49.5566 70.5312C47.623 69.8086 45.9531 68.7441 44.5469 67.3379C43.1406 65.9121 42.0469 64.1445 41.2656 62.0352C40.5039 59.9062 40.123 57.4258 40.123 54.5938V44.8379C40.123 41.9863 40.5039 39.4961 41.2656 37.3672C42.0273 35.2383 43.1113 33.4609 44.5176 32.0352C45.9238 30.6094 47.584 29.5449 49.498 28.8418C51.4316 28.1191 53.5703 27.7578 55.9141 27.7578C57.1445 27.7578 58.3262 27.8457 59.459 28.0215C60.6113 28.1777 61.7832 28.3926 62.9746 28.666L62.3887 33.3828C61.4316 33.0703 60.4062 32.8262 59.3125 32.6504C58.2188 32.4551 57.1055 32.3574 55.9727 32.3574C54.4102 32.3574 52.9941 32.6113 51.7246 33.1191C50.4746 33.627 49.4004 34.3887 48.502 35.4043C47.623 36.4199 46.9492 37.709 46.4805 39.2715C46.0117 40.834 45.7773 42.6699 45.7773 44.7793V54.5938C45.7773 56.7031 46.0117 58.5391 46.4805 60.1016C46.9688 61.6641 47.6621 62.9531 48.5605 63.9688C49.459 64.9844 50.5332 65.7461 51.7832 66.2539C53.0527 66.7617 54.459 67.0156 56.002 67.0156ZM57.0273 43.8418V47.5039H34.9082V43.8418H57.0273ZM57.0273 51.4883V55.1211H34.9082V51.4883H57.0273Z" fill="black"/>
</svg>
