<svg width="100" height="100" viewBox="0 0 100 100" fill="none" xmlns="http://www.w3.org/2000/svg">
<rect x="5" y="5" width="90" height="90" rx="45" fill="#F3BA2F"/>
<circle cx="50" cy="50" r="42" fill="#F3BA2F"/>
<path d="M30.0098 37.8281V62H26.8057V37.8281H30.0098ZM40.1367 48.7021V51.3252H29.3125V48.7021H40.1367ZM41.7803 37.8281V40.4512H29.3125V37.8281H41.7803ZM51.3594 54.9443V37.8281H54.5469V54.9443C54.5469 56.5381 54.2204 57.8828 53.5674 58.9785C52.9144 60.0742 52.0124 60.9098 50.8613 61.4854C49.7214 62.0498 48.4098 62.332 46.9268 62.332C45.4437 62.332 44.1266 62.0775 42.9756 61.5684C41.8245 61.0592 40.9225 60.2845 40.2695 59.2441C39.6165 58.2038 39.29 56.8923 39.29 55.3096H42.4941C42.4941 56.3278 42.6823 57.1634 43.0586 57.8164C43.4349 58.4694 43.9551 58.9508 44.6191 59.2607C45.2943 59.5706 46.0635 59.7256 46.9268 59.7256C47.7679 59.7256 48.5205 59.5485 49.1846 59.1943C49.8597 58.8291 50.391 58.2923 50.7783 57.584C51.1657 56.8646 51.3594 55.9847 51.3594 54.9443ZM68.3594 33.9102V38.9736H65.8691V33.9102H68.3594ZM68.0605 61.0205V65.4531H65.5869V61.0205H68.0605ZM71.3809 55.7744C71.3809 55.1104 71.2314 54.5127 70.9326 53.9814C70.6338 53.4502 70.1413 52.9632 69.4551 52.5205C68.7689 52.0778 67.8503 51.6683 66.6992 51.292C65.3047 50.8604 64.0983 50.3346 63.0801 49.7148C62.0729 49.0951 61.2926 48.3258 60.7393 47.4072C60.1969 46.4886 59.9258 45.3763 59.9258 44.0703C59.9258 42.709 60.2191 41.5358 60.8057 40.5508C61.3923 39.5658 62.2223 38.8076 63.2959 38.2764C64.3695 37.7451 65.6312 37.4795 67.0811 37.4795C68.21 37.4795 69.2171 37.651 70.1025 37.9941C70.988 38.3262 71.735 38.8242 72.3438 39.4883C72.9635 40.1523 73.4339 40.9658 73.7549 41.9287C74.0869 42.8916 74.2529 44.0039 74.2529 45.2656H71.1982C71.1982 44.5241 71.1097 43.8434 70.9326 43.2236C70.7555 42.6038 70.4899 42.0671 70.1357 41.6133C69.7816 41.1484 69.3499 40.7943 68.8408 40.5508C68.3317 40.2962 67.7451 40.1689 67.0811 40.1689C66.1514 40.1689 65.3822 40.3294 64.7734 40.6504C64.1758 40.9714 63.7331 41.4251 63.4453 42.0117C63.1576 42.5872 63.0137 43.2568 63.0137 44.0205C63.0137 44.7288 63.1576 45.3486 63.4453 45.8799C63.7331 46.4111 64.2201 46.8926 64.9062 47.3242C65.6035 47.7448 66.5609 48.1598 67.7783 48.5693C69.2061 49.0231 70.418 49.5599 71.4141 50.1797C72.4102 50.7884 73.1683 51.541 73.6885 52.4375C74.2087 53.3229 74.4688 54.4242 74.4688 55.7412C74.4688 57.1689 74.1478 58.3753 73.5059 59.3604C72.8639 60.3343 71.9619 61.0758 70.7998 61.585C69.6377 62.0941 68.2764 62.3486 66.7158 62.3486C65.7751 62.3486 64.8454 62.2214 63.9268 61.9668C63.0081 61.7122 62.1781 61.2972 61.4365 60.7217C60.695 60.1351 60.1029 59.3659 59.6602 58.4141C59.2174 57.4512 58.9961 56.2725 58.9961 54.8779H62.084C62.084 55.8187 62.2168 56.599 62.4824 57.2188C62.7591 57.8275 63.1243 58.3145 63.5781 58.6797C64.0319 59.0339 64.5299 59.2884 65.0723 59.4434C65.6257 59.5872 66.1735 59.6592 66.7158 59.6592C67.7119 59.6592 68.5531 59.5042 69.2393 59.1943C69.9365 58.8734 70.4678 58.4196 70.833 57.833C71.1982 57.2464 71.3809 56.5602 71.3809 55.7744Z" fill="black"/>
</svg>
