<svg width="100" height="100" viewBox="0 0 100 100" fill="none" xmlns="http://www.w3.org/2000/svg">
<rect x="5" y="5" width="90" height="90" rx="45" fill="#F3BA2F"/>
<circle cx="50" cy="50" r="42" fill="#F3BA2F"/>
<path d="M67.5547 74H32.2471V68.6338H67.5547V74ZM55.0791 52.7061H32.1104V47.3398H55.0791V52.7061ZM43.8682 38.4873L44.6201 60.2598C44.6429 62.4017 44.3353 64.4069 43.6973 66.2754C43.0592 68.1211 42.1022 69.5111 40.8262 70.4453L34.8789 68.6338C35.6764 68.4287 36.3031 67.859 36.7588 66.9248C37.2373 65.9678 37.5677 64.874 37.75 63.6436C37.9551 62.4131 38.0576 61.2965 38.0576 60.2939L37.3057 38.4873C37.3057 35.3428 37.9665 32.6654 39.2881 30.4551C40.6097 28.222 42.4098 26.513 44.6885 25.3281C46.9899 24.1432 49.5876 23.5508 52.4814 23.5508C55.4665 23.5508 58.0072 24.109 60.1035 25.2256C62.1999 26.3421 63.8063 27.903 64.9229 29.9082C66.0394 31.8906 66.5977 34.2035 66.5977 36.8467H60.0352C60.0352 34.9326 59.6478 33.3945 58.873 32.2324C58.1211 31.0703 57.1299 30.2272 55.8994 29.7031C54.6689 29.179 53.3473 28.917 51.9346 28.917C50.4307 28.917 49.0635 29.293 47.833 30.0449C46.6253 30.7741 45.6569 31.8564 44.9277 33.292C44.2214 34.7048 43.8682 36.4365 43.8682 38.4873Z" fill="black"/>
</svg>
