<svg width="100" height="100" viewBox="0 0 100 100" fill="none" xmlns="http://www.w3.org/2000/svg">
<rect x="5" y="5" width="90" height="90" rx="45" fill="#F3BA2F"/>
<circle cx="50" cy="50" r="42" fill="#F3BA2F"/>
<path d="M47.4965 24L44.3452 27.0809L43.9528 27.4314L43.9651 31.7682L43.5414 31.8977L43.1938 32.0152L42.826 32.1252L42.5476 32.2427L42.2257 32.3657L41.8713 32.4952L41.5549 32.6432L41.2319 32.7781L40.9412 32.9142L40.6942 33.0252L40.3901 33.1851L40.1498 33.3212L39.9027 33.4561L39.5998 33.6161L39.3583 33.7456L39.0106 33.9491L38.6306 34.1896L38.2203 34.4606L37.9039 34.663L37.5429 34.9286L37.3148 35.1005L37.0242 35.3225L36.7581 35.5261L36.4731 35.7481L36.2137 35.9516L36.0114 36.1486L35.7643 36.3695L35.3149 36.783L35.1193 36.9669L34.9606 37.128L34.7459 37.3304L34.4866 37.6025L34.2395 37.8604L34.0819 38.0639L33.8852 38.2729L33.7085 38.5014L33.5308 38.7234L33.3597 38.9444L33.1831 39.1544L33.0244 39.3634L32.8601 39.5614L32.7337 39.7453L32.5884 39.9739L32.4364 40.2144L32.3033 40.3863L32.177 40.5714L31.9803 40.8793L31.892 41.0578L31.7846 41.2428L31.6326 41.4833L31.513 41.6673L31.4426 41.8523L31.2973 42.0928L31.1586 42.3387L31.0066 42.6413L30.8926 42.9242L30.7663 43.2257L30.6388 43.4793L30.5382 43.7002L30.4432 43.9592L30.2979 44.2791L30.1838 44.6122L30.0195 45.0867L29.9301 45.3761L29.8295 45.7026L29.7412 46.0041L29.6651 46.3066L29.4684 47.1435L29.4181 47.4025L29.3354 47.7051L29.2784 48.074L29.2403 48.321L29.1833 48.7085L29.1274 49.134L29.0704 49.8109L29.0257 50.2854L29.0067 50.6489L29 51.0864L29.0067 52.1518L29.019 52.5033L29.057 53.0083L29.0894 53.4208L29.1207 53.7168L29.152 54.0313L29.1833 54.2838L29.2403 54.5983L29.2851 54.8997L29.3298 55.1707L29.3868 55.4417L29.4371 55.6757L29.5131 56.0022L29.5824 56.2862L29.6461 56.5757L29.7467 56.8891L29.8295 57.2102L29.9111 57.4812L29.9871 57.7151L30.0698 57.9861L30.1648 58.2386L30.2599 58.5096L30.3672 58.774L30.4622 59.008L30.5505 59.2115L30.6712 59.501L30.7908 59.7851L30.9239 60.0495L31.0379 60.314L31.1519 60.5305L31.2659 60.7275L31.399 61.0105L31.5186 61.226L31.6393 61.448L31.7724 61.67L31.854 61.8115L31.9367 61.9464L32.0563 62.1379L32.1647 62.3164L32.2653 62.471L32.3861 62.6309L32.4867 62.8029L32.6454 63.0369L32.784 63.2338L32.9361 63.4319L33.0434 63.5919L33.1641 63.7453L33.3161 63.9369L33.4425 64.0969L33.6191 64.3058L33.8416 64.5648L34.0249 64.7988L34.2395 65.0273L34.3983 65.2178L34.5682 65.3843L34.7716 65.5933L34.955 65.7913L35.1383 65.9698L35.2769 66.0993L35.448 66.2528L35.6257 66.4258L35.7777 66.5607L35.9421 66.7087L36.0751 66.8317L36.2517 66.9797L36.416 67.1277L36.5625 67.2257L36.6944 67.3497L36.8341 67.4542L36.9482 67.5337L37.0745 67.6327L37.2265 67.7502L37.3718 67.8602L37.5306 67.9712L37.7005 68.0941L37.8525 68.2051L37.9598 68.2737L38.0493 68.3412L38.1499 68.4087L38.2583 68.4827L38.3522 68.5447L38.4349 68.5871H32.5124L29.0067 72H64.239L67.7324 68.5871L49.369 68.5817L48.971 68.5752L48.4892 68.5262L47.7939 68.4707L47.1544 68.3477L46.6614 68.2606L46.1483 68.1442L45.7057 68.0517L45.2183 67.9342L44.8952 67.8417L44.3832 67.6632L43.9461 67.5097L43.5727 67.3802L43.2251 67.2387L42.864 67.0603L42.5353 66.9057L42.1117 66.7153L41.6936 66.4933L41.3202 66.2778L40.9602 66.0677L40.6875 65.8958L40.3331 65.6923L40.01 65.4583L39.7317 65.2853L39.46 65.0883L39.1504 64.8358L38.834 64.5899L38.511 64.3123L38.2013 64.0533L37.8715 63.7399L37.5686 63.4504L37.3595 63.2523L37.1125 62.9629L36.9169 62.7604L36.7201 62.5569L36.4731 62.2609L36.2014 61.9344C36.2014 61.9344 35.9611 61.6206 35.9611 61.596C35.9611 61.5713 35.7263 61.3065 35.7263 61.3065L35.4614 60.918L35.2456 60.61L35.031 60.2835L34.8286 59.945L34.6576 59.661L34.5123 59.378L34.2965 58.9895L34.1322 58.6206L33.9735 58.2626L33.7968 57.8936L33.6761 57.6161L33.5755 57.3636L33.4682 57.0437L33.3217 56.5996L33.1708 56.1317L33.0188 55.6082L32.9238 55.1588L32.822 54.6658L32.727 54.2468L32.6644 53.7472L32.613 53.2793L32.5627 52.7493L32.5381 52.4413L32.5124 52.0843V51.7579L32.5191 51.4499L32.5381 51.1299L32.5504 50.6184L32.575 50.2364L32.594 49.8359L32.6264 49.5584L32.6767 49.1764L32.7337 48.826L32.7784 48.468L32.841 48.1665L32.9238 47.791L32.9864 47.4831L33.0434 47.2491L33.1261 46.9411L33.2144 46.6756L33.3161 46.3066L33.4168 46.0411L33.5498 45.6722L33.6761 45.3272L33.8035 45.0246L33.9422 44.6426L34.1199 44.2737L34.2462 44.0517L34.3916 43.7502L34.5559 43.4292L34.6889 43.1887L34.8722 42.8753L35.0813 42.5607L35.221 42.3148L35.3854 42.0808L35.6257 41.7413L35.828 41.4583L36.0114 41.1939L36.2014 40.9468L36.3657 40.7248L36.5178 40.5583L36.7011 40.3613L36.8464 40.1828L36.9862 40.0348L37.1572 39.8694L37.3025 39.6964L37.5172 39.5059L37.7072 39.3144L38.0873 38.9574L38.2203 38.8214L38.3969 38.6679L38.5747 38.5134L38.7323 38.3719L38.9223 38.2119L39.1437 38.0454L39.3527 37.892L39.5618 37.7309L39.7764 37.6025L40.0357 37.411L40.2828 37.239L40.5489 37.0725L40.7378 36.9365L40.9915 36.795L41.2196 36.659L41.3895 36.549L41.6053 36.4565L41.7696 36.3575L41.9909 36.2465L42.238 36.1235L42.485 36.0125L42.6304 35.9265L42.864 35.8406L43.0663 35.7535L43.3011 35.649L43.4911 35.5696L43.68 35.4956L43.8645 35.4335L43.9651 35.39V51.4499L47.4898 48.0316L47.4965 34.5031L47.5401 34.4846L47.6921 34.4606L47.8699 34.4421L48.1102 34.4051L48.3439 34.3866L48.4925 34.3812L48.4959 34.3833L48.5563 34.3899L48.8503 34.3583L49.1666 34.3398L49.5489 34.3278L50.7294 34.3213L51.1598 34.3431L51.5265 34.3681L51.8026 34.3921L52.0653 34.4204L52.3492 34.4541L52.5616 34.4846L52.7517 34.5096L52.7573 51.4564L56.292 48.037V35.4031L56.3457 35.4183L56.4653 35.4673L56.633 35.5326L56.8577 35.612L57.013 35.686L57.2411 35.7818L57.4937 35.8928L57.7285 36.0038L57.9588 36.117L58.2125 36.2378L58.4931 36.3825L58.6932 36.4837L58.8698 36.5762L59.0185 36.6753L59.1929 36.7732L59.3349 36.8472L59.5182 36.9669L59.677 37.0692L59.8704 37.1835L60.038 37.2934L60.2057 37.411L60.3756 37.5307L60.5433 37.6449L60.7401 37.7897L60.92 37.9257L61.0598 38.0335L61.2085 38.1499L61.3694 38.2729L61.5438 38.4122L61.7529 38.6026L61.9328 38.7539L62.1039 38.9139L62.2906 39.0739L62.4739 39.2589L62.6125 39.3699L62.7422 39.5059L62.9512 39.7214L63.1323 39.9086L63.2553 40.0479L63.385 40.1894L63.5784 40.4016L63.7807 40.6421L63.9517 40.8423L64.049 40.9903L64.1731 41.1656L64.3274 41.3571L64.4514 41.5203L64.5711 41.6836L64.6884 41.849L64.8282 42.0492L64.9478 42.2375L65.0584 42.3975L65.1568 42.539L65.2574 42.6935L65.3558 42.847L65.4475 43.02L65.5302 43.1767L65.6342 43.365L65.7258 43.5097L65.7963 43.6479L65.8779 43.8177L65.9505 43.9407L66.0209 44.0822L66.1316 44.3107L66.2423 44.5599L66.3049 44.6894L66.3653 44.8276L66.4256 44.9637L66.4793 45.1019L66.543 45.2749L66.5967 45.4131L66.6727 45.5666L66.723 45.6928L66.7643 45.8191L66.8214 45.9888L66.8594 46.1096L66.913 46.2751L66.9633 46.4546L67.0203 46.6353L67.0863 46.8236L67.15 47.0706L67.207 47.273L67.283 47.606L67.3244 47.778L67.368 47.9695L67.4183 48.2285L67.4317 48.2775L67.4664 48.481L67.5133 48.7215L67.5457 48.9827L67.5804 49.2417L67.6218 49.5715L67.6564 49.8729L67.681 50.2299L67.7034 50.5477L67.7291 50.9634L67.7447 51.4314L70.9944 48.2677L71 48.21L70.981 48.074L70.953 47.9053L70.9217 47.729L70.896 47.5908L70.858 47.3786L70.81 47.1936L70.7787 47.0205L70.7026 46.7256L70.6646 46.5678L70.6143 46.3774L70.554 46.1619L70.5037 45.9823L70.4534 45.7984L70.4053 45.6504L70.355 45.4774L70.2913 45.2836L70.2253 45.0801L70.137 44.8244L70.0666 44.622L70.0006 44.4239L69.9212 44.2334L69.8553 44.0702L69.7726 43.8329L69.691 43.6512L69.6172 43.4912L69.5322 43.2942L69.4495 43.1125L69.3489 42.8807L69.2662 42.699L69.1745 42.5335L69.0739 42.3268L68.9912 42.17L68.8872 41.96L68.7978 41.8033L68.7061 41.6368L68.6021 41.4583L68.4814 41.2613L68.3707 41.0611L68.2735 40.9033L68.1718 40.7313L68.0734 40.5833L67.9728 40.4081L67.8811 40.2688L67.7671 40.1121L67.6877 39.9891L67.605 39.8846L67.482 39.6996L67.3557 39.5266L67.245 39.3764L67.1433 39.2371L67.0237 39.0804L66.8996 38.9237L66.7733 38.7659L66.7006 38.6614L66.5866 38.5352L66.5139 38.4492L66.391 38.3012L66.2769 38.1684L66.1506 38.0237L65.9572 37.8017L65.7963 37.6232L65.6476 37.4784L65.5045 37.325L65.3469 37.1705L65.1155 36.9397L64.9165 36.758L64.7521 36.6013L64.552 36.4097L64.3721 36.2411L64.2133 36.1115L64.0054 35.92L63.831 35.7818L63.6857 35.6523L63.4923 35.5076L63.328 35.378L63.1379 35.2268L62.9546 35.0951L62.7523 34.9536L62.5723 34.8295L62.3666 34.6728L62.1698 34.5368L62.0122 34.4236L61.8468 34.3191L61.6735 34.2103L61.4768 34.0906L61.2688 33.9611L61.0788 33.8381L60.9145 33.7423L60.7177 33.6379L60.5433 33.5388L60.3477 33.4376L60.142 33.3212L59.9654 33.2309L59.7597 33.1264L59.5596 33.0306L59.383 32.9446L59.1359 32.8315L58.9146 32.7292L58.6865 32.6247L58.4048 32.505L58.1935 32.4146L57.9498 32.3232L57.7408 32.2427L57.5474 32.1752L57.3383 32.1012L57.0578 31.9967L56.8487 31.9314L56.6117 31.852L56.4183 31.7965L56.2976 31.7747L56.292 24.0098L52.7517 27.4379L52.7539 31.0445L52.47 31.001L52.0932 30.9585L51.7925 30.9269L51.2861 30.8899L50.8155 30.8747L50.5371 30.866L49.8597 30.8725L49.417 30.878L48.9006 30.8965L48.5428 30.915L48.4489 30.9367L48.4478 30.9378L48.1415 30.9618L47.8252 30.9857L47.6038 31.0292L47.5021 31.0717L47.4965 24Z" fill="black"/>
</svg>
