<svg width="100" height="100" viewBox="0 0 100 100" fill="none" xmlns="http://www.w3.org/2000/svg">
<rect x="5" y="5" width="90" height="90" rx="45" fill="#F3BA2F"/>
<circle cx="50" cy="50" r="42" fill="#F3BA2F"/>
<path d="M67.1484 71H35.876V66.2471H67.1484V71ZM56.0986 52.1396H35.7549V47.3867H56.0986V52.1396ZM46.1689 39.5459L46.835 58.8301C46.8551 60.7272 46.5827 62.5033 46.0176 64.1582C45.4525 65.793 44.6048 67.0241 43.4746 67.8516L38.207 66.2471C38.9134 66.0654 39.4684 65.5609 39.8721 64.7334C40.2959 63.8857 40.5885 62.917 40.75 61.8271C40.9316 60.7373 41.0225 59.7484 41.0225 58.8604L40.3564 39.5459C40.3564 36.7607 40.9417 34.3893 42.1123 32.4316C43.2829 30.4538 44.8773 28.9401 46.8955 27.8906C48.9339 26.8411 51.2347 26.3164 53.7979 26.3164C56.4417 26.3164 58.6921 26.8109 60.5488 27.7998C62.4056 28.7887 63.8285 30.1712 64.8174 31.9473C65.8063 33.7031 66.3008 35.7516 66.3008 38.0928H60.4883C60.4883 36.3975 60.1452 35.0352 59.459 34.0059C58.793 32.9766 57.915 32.2298 56.8252 31.7656C55.7354 31.3014 54.5648 31.0693 53.3135 31.0693C51.9814 31.0693 50.7705 31.4023 49.6807 32.0684C48.611 32.7142 47.7533 33.6729 47.1074 34.9443C46.4818 36.1956 46.1689 37.7295 46.1689 39.5459Z" fill="black"/>
</svg>
