<svg width="100" height="100" viewBox="0 0 100 100" fill="none" xmlns="http://www.w3.org/2000/svg">
<rect x="5" y="5" width="90" height="90" rx="45" fill="#F3BA2F"/>
<circle cx="50" cy="50" r="42" fill="#F3BA2F"/>
<path d="M53.5918 23.5254V32.8066H47.5977V23.5254H53.5918ZM53.5918 64.6465V73.8955H47.5977V64.6465H53.5918ZM50.917 61.7461C52.335 61.7461 53.6455 61.4561 54.8486 60.876C56.0518 60.2959 57.04 59.501 57.8135 58.4912C58.5869 57.46 59.0273 56.2891 59.1348 54.9785H64.8066C64.6992 57.041 64.001 58.9639 62.7119 60.7471C61.4229 62.5088 59.7471 63.9375 57.6846 65.0332C55.6436 66.1074 53.3877 66.6445 50.917 66.6445C48.2959 66.6445 46.0078 66.1826 44.0527 65.2588C42.0977 64.335 40.4756 63.0674 39.1865 61.4561C37.9189 59.8447 36.9629 57.9971 36.3184 55.9131C35.6953 53.8076 35.3838 51.584 35.3838 49.2422V47.8887C35.3838 45.5469 35.6953 43.334 36.3184 41.25C36.9629 39.1445 37.9297 37.2861 39.2188 35.6748C40.5078 34.0635 42.1191 32.7959 44.0527 31.8721C46.0078 30.9482 48.2959 30.4863 50.917 30.4863C53.6455 30.4863 56.0303 31.0449 58.0713 32.1621C60.1123 33.2578 61.7129 34.7617 62.873 36.6738C64.0547 38.5645 64.6992 40.7129 64.8066 43.1191H59.1348C59.0273 41.6797 58.6191 40.3799 57.9102 39.2197C57.2227 38.0596 56.2773 37.1357 55.0742 36.4482C53.8926 35.7393 52.5068 35.3848 50.917 35.3848C49.0908 35.3848 47.5547 35.75 46.3086 36.4805C45.084 37.1895 44.1064 38.1562 43.376 39.3809C42.667 40.584 42.1514 41.9268 41.8291 43.4092C41.5283 44.8701 41.3779 46.3633 41.3779 47.8887V49.2422C41.3779 50.7676 41.5283 52.2715 41.8291 53.7539C42.1299 55.2363 42.6348 56.5791 43.3438 57.7822C44.0742 58.9854 45.0518 59.9521 46.2764 60.6826C47.5225 61.3916 49.0693 61.7461 50.917 61.7461Z" fill="black"/>
</svg>
