<svg width="100" height="100" viewBox="0 0 100 100" fill="none" xmlns="http://www.w3.org/2000/svg">
<rect x="5" y="5" width="90" height="90" rx="45" fill="#F3BA2F"/>
<circle cx="50" cy="50" r="42" fill="#F3BA2F"/>
<path d="M47.3945 69H39.082L39.1367 64.707H47.3945C50.2383 64.707 52.6081 64.1146 54.5039 62.9297C56.3997 61.7266 57.8216 60.0495 58.7695 57.8984C59.7357 55.7292 60.2188 53.1953 60.2188 50.2969V47.8633C60.2188 45.5846 59.9453 43.5612 59.3984 41.793C58.8516 40.0065 58.0495 38.5026 56.9922 37.2812C55.9349 36.0417 54.6406 35.1029 53.1094 34.4648C51.5964 33.8268 49.8555 33.5078 47.8867 33.5078H38.918V29.1875H47.8867C50.4935 29.1875 52.8724 29.625 55.0234 30.5C57.1745 31.3568 59.0247 32.6055 60.5742 34.2461C62.1419 35.8685 63.3451 37.8372 64.1836 40.1523C65.0221 42.4492 65.4414 45.0378 65.4414 47.918V50.2969C65.4414 53.1771 65.0221 55.7747 64.1836 58.0898C63.3451 60.3867 62.1328 62.3464 60.5469 63.9688C58.9792 65.5911 57.0833 66.8398 54.8594 67.7148C52.6536 68.5716 50.1654 69 47.3945 69ZM41.8984 29.1875V69H36.6211V29.1875H41.8984Z" fill="black"/>
</svg>
