<svg width="100" height="100" viewBox="0 0 100 100" fill="none" xmlns="http://www.w3.org/2000/svg">
<rect x="5" y="5" width="90" height="90" rx="45" fill="#F3BA2F"/>
<circle cx="50" cy="50" r="42" fill="#F3BA2F"/>
<path d="M43.8848 49.2559V58.625C43.5684 59.0938 43.0645 59.6211 42.373 60.207C41.6816 60.7812 40.7266 61.2852 39.5078 61.7188C38.3008 62.1406 36.7422 62.3516 34.832 62.3516C33.2734 62.3516 31.8379 62.082 30.5254 61.543C29.2246 60.9922 28.0938 60.1953 27.1328 59.1523C26.1836 58.0977 25.4453 56.8203 24.918 55.3203C24.4023 53.8086 24.1445 52.0977 24.1445 50.1875V48.2012C24.1445 46.291 24.3672 44.5859 24.8125 43.0859C25.2695 41.5859 25.9375 40.3145 26.8164 39.2715C27.6953 38.2168 28.7734 37.4199 30.0508 36.8809C31.3281 36.3301 32.793 36.0547 34.4453 36.0547C36.4023 36.0547 38.0371 36.3945 39.3496 37.0742C40.6738 37.7422 41.7051 38.668 42.4434 39.8516C43.1934 41.0352 43.6738 42.3828 43.8848 43.8945H40.4922C40.3398 42.9688 40.0352 42.125 39.5781 41.3633C39.1328 40.6016 38.4941 39.9922 37.6621 39.5352C36.8301 39.0664 35.7578 38.832 34.4453 38.832C33.2617 38.832 32.2363 39.0488 31.3691 39.4824C30.502 39.916 29.7871 40.5371 29.2246 41.3457C28.6621 42.1543 28.2402 43.1328 27.959 44.2812C27.6895 45.4297 27.5547 46.7246 27.5547 48.166V50.1875C27.5547 51.6641 27.7246 52.9824 28.0645 54.1426C28.416 55.3027 28.9141 56.293 29.5586 57.1133C30.2031 57.9219 30.9707 58.5371 31.8613 58.959C32.7637 59.3809 33.7598 59.5918 34.8496 59.5918C36.0566 59.5918 37.0352 59.4922 37.7852 59.293C38.5352 59.082 39.1211 58.8359 39.543 58.5547C39.9648 58.2617 40.2871 57.9863 40.5098 57.7285V51.998H34.5859V49.2559H43.8848ZM52.9023 36.4062V62H49.5098V36.4062H52.9023ZM63.625 47.9199V50.6973H52.1641V47.9199H63.625ZM65.3652 36.4062V39.1836H52.1641V36.4062H65.3652ZM71.7109 45.9688V62H68.459V42.9805H71.623L71.7109 45.9688ZM77.6523 42.875L77.6348 45.8984C77.3652 45.8398 77.1074 45.8047 76.8613 45.793C76.627 45.7695 76.3574 45.7578 76.0527 45.7578C75.3027 45.7578 74.6406 45.875 74.0664 46.1094C73.4922 46.3438 73.0059 46.6719 72.6074 47.0938C72.209 47.5156 71.8926 48.0195 71.6582 48.6055C71.4355 49.1797 71.2891 49.8125 71.2188 50.5039L70.3047 51.0312C70.3047 49.8828 70.416 48.8047 70.6387 47.7969C70.873 46.7891 71.2305 45.8984 71.7109 45.125C72.1914 44.3398 72.8008 43.7305 73.5391 43.2969C74.2891 42.8516 75.1797 42.6289 76.2109 42.6289C76.4453 42.6289 76.7148 42.6582 77.0195 42.7168C77.3242 42.7637 77.5352 42.8164 77.6523 42.875Z" fill="black"/>
</svg>
