<svg width="100" height="100" viewBox="0 0 100 100" fill="none" xmlns="http://www.w3.org/2000/svg">
<rect x="5" y="5" width="90" height="90" rx="45" fill="#F3BA2F"/>
<circle cx="50" cy="50" r="42" fill="#F3BA2F"/>
<path d="M55.0469 64.4336L65.1641 72.4453L61.6094 75.7266L51.6562 67.8242L55.0469 64.4336ZM65.0273 47.8359V50.3516C65.0273 53.3411 64.6536 56.0208 63.9062 58.3906C63.1589 60.7604 62.0833 62.7747 60.6797 64.4336C59.276 66.0924 57.5898 67.3594 55.6211 68.2344C53.6706 69.1094 51.4831 69.5469 49.0586 69.5469C46.707 69.5469 44.5469 69.1094 42.5781 68.2344C40.6276 67.3594 38.9323 66.0924 37.4922 64.4336C36.0703 62.7747 34.9674 60.7604 34.1836 58.3906C33.3997 56.0208 33.0078 53.3411 33.0078 50.3516V47.8359C33.0078 44.8464 33.3906 42.1758 34.1562 39.8242C34.9401 37.4544 36.043 35.4401 37.4648 33.7812C38.8867 32.1042 40.5729 30.8281 42.5234 29.9531C44.4922 29.0781 46.6523 28.6406 49.0039 28.6406C51.4284 28.6406 53.625 29.0781 55.5938 29.9531C57.5625 30.8281 59.2487 32.1042 60.6523 33.7812C62.056 35.4401 63.1315 37.4544 63.8789 39.8242C64.6445 42.1758 65.0273 44.8464 65.0273 47.8359ZM59.8047 50.3516V47.7812C59.8047 45.4115 59.5586 43.3151 59.0664 41.4922C58.5924 39.6693 57.8906 38.138 56.9609 36.8984C56.0312 35.6589 54.901 34.7201 53.5703 34.082C52.2396 33.444 50.7174 33.125 49.0039 33.125C47.3815 33.125 45.9049 33.444 44.5742 34.082C43.2617 34.7201 42.1315 35.6589 41.1836 36.8984C40.2357 38.138 39.5065 39.6693 38.9961 41.4922C38.4857 43.3151 38.2305 45.4115 38.2305 47.7812V50.3516C38.2305 52.7396 38.4857 54.8542 38.9961 56.6953C39.5065 58.5182 40.2357 60.0586 41.1836 61.3164C42.1497 62.556 43.2982 63.4948 44.6289 64.1328C45.9596 64.7708 47.4362 65.0898 49.0586 65.0898C50.7721 65.0898 52.2943 64.7708 53.625 64.1328C54.9557 63.4948 56.0768 62.556 56.9883 61.3164C57.918 60.0586 58.6198 58.5182 59.0938 56.6953C59.5677 54.8542 59.8047 52.7396 59.8047 50.3516Z" fill="black"/>
</svg>
