<svg width="100" height="100" viewBox="0 0 100 100" fill="none" xmlns="http://www.w3.org/2000/svg">
<rect x="5" y="5" width="90" height="90" rx="45" fill="#F3BA2F"/>
<circle cx="50" cy="50" r="42" fill="#F3BA2F"/>
<path d="M39.6689 49.9639V58.8125C39.3701 59.2552 38.8942 59.7533 38.2412 60.3066C37.5882 60.849 36.6862 61.3249 35.5352 61.7344C34.3952 62.1328 32.9232 62.332 31.1191 62.332C29.6471 62.332 28.2913 62.0775 27.0518 61.5684C25.8232 61.0482 24.7552 60.2956 23.8477 59.3105C22.9512 58.3145 22.2539 57.1081 21.7559 55.6914C21.2689 54.2637 21.0254 52.6478 21.0254 50.8438V48.9678C21.0254 47.1637 21.2357 45.5534 21.6562 44.1367C22.0879 42.7201 22.7188 41.5192 23.5488 40.5342C24.3789 39.5381 25.3971 38.7855 26.6035 38.2764C27.8099 37.7562 29.1934 37.4961 30.7539 37.4961C32.6022 37.4961 34.1462 37.8171 35.3857 38.459C36.6364 39.0898 37.6104 39.9642 38.3076 41.082C39.016 42.1999 39.4697 43.4727 39.6689 44.9004H36.4648C36.321 44.026 36.0332 43.2292 35.6016 42.5098C35.181 41.7904 34.5778 41.2148 33.792 40.7832C33.0062 40.3405 31.9935 40.1191 30.7539 40.1191C29.6361 40.1191 28.6676 40.3239 27.8486 40.7334C27.0296 41.1429 26.3545 41.7295 25.8232 42.4932C25.292 43.2568 24.8936 44.181 24.6279 45.2656C24.3734 46.3503 24.2461 47.5732 24.2461 48.9346V50.8438C24.2461 52.2383 24.4066 53.4834 24.7275 54.5791C25.0596 55.6748 25.5299 56.61 26.1387 57.3848C26.7474 58.1484 27.4723 58.7295 28.3135 59.1279C29.1657 59.5264 30.1064 59.7256 31.1357 59.7256C32.2757 59.7256 33.1999 59.6315 33.9082 59.4434C34.6165 59.2441 35.1699 59.0117 35.5684 58.7461C35.9668 58.4694 36.2712 58.2093 36.4814 57.9658V52.5537H30.8867V49.9639H39.6689ZM46.0938 37.8281L52.3691 49.9639L58.6611 37.8281H62.2969L53.9629 52.9688V62H50.7588V52.9688L42.4248 37.8281H46.0938ZM73.7852 33.9102V38.9736H71.2949V33.9102H73.7852ZM73.4863 61.0205V65.4531H71.0127V61.0205H73.4863ZM76.8066 55.7744C76.8066 55.1104 76.6572 54.5127 76.3584 53.9814C76.0596 53.4502 75.5671 52.9632 74.8809 52.5205C74.1947 52.0778 73.276 51.6683 72.125 51.292C70.7305 50.8604 69.5241 50.3346 68.5059 49.7148C67.4987 49.0951 66.7184 48.3258 66.165 47.4072C65.6227 46.4886 65.3516 45.3763 65.3516 44.0703C65.3516 42.709 65.6449 41.5358 66.2314 40.5508C66.818 39.5658 67.6481 38.8076 68.7217 38.2764C69.7952 37.7451 71.057 37.4795 72.5068 37.4795C73.6357 37.4795 74.6429 37.651 75.5283 37.9941C76.4137 38.3262 77.1608 38.8242 77.7695 39.4883C78.3893 40.1523 78.8597 40.9658 79.1807 41.9287C79.5127 42.8916 79.6787 44.0039 79.6787 45.2656H76.624C76.624 44.5241 76.5355 43.8434 76.3584 43.2236C76.1813 42.6038 75.9157 42.0671 75.5615 41.6133C75.2074 41.1484 74.7757 40.7943 74.2666 40.5508C73.7575 40.2962 73.1709 40.1689 72.5068 40.1689C71.5771 40.1689 70.8079 40.3294 70.1992 40.6504C69.6016 40.9714 69.1589 41.4251 68.8711 42.0117C68.5833 42.5872 68.4395 43.2568 68.4395 44.0205C68.4395 44.7288 68.5833 45.3486 68.8711 45.8799C69.1589 46.4111 69.6458 46.8926 70.332 47.3242C71.0293 47.7448 71.9867 48.1598 73.2041 48.5693C74.6318 49.0231 75.8438 49.5599 76.8398 50.1797C77.8359 50.7884 78.5941 51.541 79.1143 52.4375C79.6344 53.3229 79.8945 54.4242 79.8945 55.7412C79.8945 57.1689 79.5736 58.3753 78.9316 59.3604C78.2897 60.3343 77.3877 61.0758 76.2256 61.585C75.0635 62.0941 73.7021 62.3486 72.1416 62.3486C71.2008 62.3486 70.2712 62.2214 69.3525 61.9668C68.4339 61.7122 67.6038 61.2972 66.8623 60.7217C66.1208 60.1351 65.5286 59.3659 65.0859 58.4141C64.6432 57.4512 64.4219 56.2725 64.4219 54.8779H67.5098C67.5098 55.8187 67.6426 56.599 67.9082 57.2188C68.1849 57.8275 68.5501 58.3145 69.0039 58.6797C69.4577 59.0339 69.9557 59.2884 70.498 59.4434C71.0514 59.5872 71.5993 59.6592 72.1416 59.6592C73.1377 59.6592 73.9788 59.5042 74.665 59.1943C75.3623 58.8734 75.8936 58.4196 76.2588 57.833C76.624 57.2464 76.8066 56.5602 76.8066 55.7744Z" fill="black"/>
</svg>
