<svg width="100" height="100" viewBox="0 0 100 100" fill="none" xmlns="http://www.w3.org/2000/svg">
<rect x="5" y="5" width="90" height="90" rx="45" fill="#F3BA2F"/>
<circle cx="50" cy="50" r="42" fill="#F3BA2F"/>
<path d="M37.8418 48.8418V51.1416H26.2988V48.8418H37.8418ZM26.7383 39.6719V61H23.9111V39.6719H26.7383ZM40.3027 39.6719V61H37.4902V39.6719H40.3027ZM48.1543 39.6719V61H45.3271V39.6719H48.1543ZM61.0303 39.6719L52.168 49.6182L47.1875 54.7891L46.7188 51.7715L50.4688 47.6406L57.6318 39.6719H61.0303ZM58.3057 61L50.4102 50.5996L52.0947 48.3584L61.6748 61H58.3057ZM71.5625 36.2148V40.6826H69.3652V36.2148H71.5625ZM71.2988 60.1357V64.0469H69.1162V60.1357H71.2988ZM74.2285 55.5068C74.2285 54.9209 74.0967 54.3936 73.833 53.9248C73.5693 53.4561 73.1348 53.0264 72.5293 52.6357C71.9238 52.2451 71.1133 51.8838 70.0977 51.5518C68.8672 51.1709 67.8027 50.707 66.9043 50.1602C66.0156 49.6133 65.3271 48.9346 64.8389 48.124C64.3604 47.3135 64.1211 46.332 64.1211 45.1797C64.1211 43.9785 64.3799 42.9434 64.8975 42.0742C65.415 41.2051 66.1475 40.5361 67.0947 40.0674C68.042 39.5986 69.1553 39.3643 70.4346 39.3643C71.4307 39.3643 72.3193 39.5156 73.1006 39.8184C73.8818 40.1113 74.541 40.5508 75.0781 41.1367C75.625 41.7227 76.04 42.4404 76.3232 43.29C76.6162 44.1396 76.7627 45.1211 76.7627 46.2344H74.0674C74.0674 45.5801 73.9893 44.9795 73.833 44.4326C73.6768 43.8857 73.4424 43.4121 73.1299 43.0117C72.8174 42.6016 72.4365 42.2891 71.9873 42.0742C71.5381 41.8496 71.0205 41.7373 70.4346 41.7373C69.6143 41.7373 68.9355 41.8789 68.3984 42.1621C67.8711 42.4453 67.4805 42.8457 67.2266 43.3633C66.9727 43.8711 66.8457 44.4619 66.8457 45.1357C66.8457 45.7607 66.9727 46.3076 67.2266 46.7764C67.4805 47.2451 67.9102 47.6699 68.5156 48.0508C69.1309 48.4219 69.9756 48.7881 71.0498 49.1494C72.3096 49.5498 73.3789 50.0234 74.2578 50.5703C75.1367 51.1074 75.8057 51.7715 76.2646 52.5625C76.7236 53.3438 76.9531 54.3154 76.9531 55.4775C76.9531 56.7373 76.6699 57.8018 76.1035 58.6709C75.5371 59.5303 74.7412 60.1846 73.7158 60.6338C72.6904 61.083 71.4893 61.3076 70.1123 61.3076C69.2822 61.3076 68.4619 61.1953 67.6514 60.9707C66.8408 60.7461 66.1084 60.3799 65.4541 59.8721C64.7998 59.3545 64.2773 58.6758 63.8867 57.8359C63.4961 56.9863 63.3008 55.9463 63.3008 54.7158H66.0254C66.0254 55.5459 66.1426 56.2344 66.377 56.7812C66.6211 57.3184 66.9434 57.748 67.3438 58.0703C67.7441 58.3828 68.1836 58.6074 68.6621 58.7441C69.1504 58.8711 69.6338 58.9346 70.1123 58.9346C70.9912 58.9346 71.7334 58.7979 72.3389 58.5244C72.9541 58.2412 73.4229 57.8408 73.7451 57.3232C74.0674 56.8057 74.2285 56.2002 74.2285 55.5068Z" fill="black"/>
</svg>
