<svg width="100" height="100" viewBox="0 0 100 100" fill="none" xmlns="http://www.w3.org/2000/svg">
<rect x="5" y="5" width="90" height="90" rx="45" fill="#F3BA2F"/>
<circle cx="50" cy="50" r="42" fill="#F3BA2F"/>
<path d="M34.0703 35.5625V64H30.3008V35.5625H34.0703ZM51.2383 35.5625L39.4219 48.8242L32.7812 55.7188L32.1562 51.6953L37.1562 46.1875L46.707 35.5625H51.2383ZM47.6055 64L37.0781 50.1328L39.3242 47.1445L52.0977 64H47.6055ZM58.0156 47.3789V64H54.4023V42.8672H57.8203L58.0156 47.3789ZM57.1562 52.6328L55.6523 52.5742C55.6654 51.1289 55.8802 49.7943 56.2969 48.5703C56.7135 47.3333 57.2995 46.2591 58.0547 45.3477C58.8099 44.4362 59.7083 43.7331 60.75 43.2383C61.8047 42.7305 62.9701 42.4766 64.2461 42.4766C65.2878 42.4766 66.2253 42.6198 67.0586 42.9062C67.8919 43.1797 68.6016 43.6224 69.1875 44.2344C69.7865 44.8464 70.2422 45.6406 70.5547 46.6172C70.8672 47.5807 71.0234 48.7591 71.0234 50.1523V64H67.3906V50.1133C67.3906 49.0065 67.2279 48.1211 66.9023 47.457C66.5768 46.7799 66.1016 46.2917 65.4766 45.9922C64.8516 45.6797 64.0833 45.5234 63.1719 45.5234C62.2734 45.5234 61.4531 45.7122 60.7109 46.0898C59.9818 46.4674 59.3503 46.9883 58.8164 47.6523C58.2956 48.3164 57.8854 49.0781 57.5859 49.9375C57.2995 50.7839 57.1562 51.6823 57.1562 52.6328Z" fill="black"/>
</svg>
