<svg width="100" height="100" viewBox="0 0 100 100" fill="none" xmlns="http://www.w3.org/2000/svg">
<rect x="5" y="5" width="90" height="90" rx="45" fill="#F3BA2F"/>
<circle cx="50" cy="50" r="42" fill="#F3BA2F"/>
<path d="M65.457 49.1758V63.75C64.9648 64.4792 64.181 65.2995 63.1055 66.2109C62.0299 67.1042 60.5443 67.888 58.6484 68.5625C56.7708 69.2188 54.3464 69.5469 51.375 69.5469C48.9505 69.5469 46.7174 69.1276 44.6758 68.2891C42.6523 67.4323 40.8932 66.1927 39.3984 64.5703C37.9219 62.9297 36.7734 60.9427 35.9531 58.6094C35.151 56.2578 34.75 53.5964 34.75 50.625V47.5352C34.75 44.5638 35.0964 41.9115 35.7891 39.5781C36.5 37.2448 37.5391 35.2669 38.9062 33.6445C40.2734 32.0039 41.9505 30.7643 43.9375 29.9258C45.9245 29.069 48.2031 28.6406 50.7734 28.6406C53.8177 28.6406 56.3607 29.1693 58.4023 30.2266C60.4622 31.2656 62.0664 32.7057 63.2148 34.5469C64.3815 36.388 65.1289 38.4844 65.457 40.8359H60.1797C59.9427 39.3958 59.4688 38.0833 58.7578 36.8984C58.0651 35.7135 57.0716 34.7656 55.7773 34.0547C54.4831 33.3255 52.8151 32.9609 50.7734 32.9609C48.9323 32.9609 47.3372 33.2982 45.9883 33.9727C44.6393 34.6471 43.5273 35.6133 42.6523 36.8711C41.7773 38.1289 41.1211 39.651 40.6836 41.4375C40.2643 43.224 40.0547 45.2383 40.0547 47.4805V50.625C40.0547 52.9219 40.319 54.9727 40.8477 56.7773C41.3945 58.582 42.1693 60.1224 43.1719 61.3984C44.1745 62.6562 45.3685 63.6133 46.7539 64.2695C48.1576 64.9258 49.707 65.2539 51.4023 65.2539C53.2799 65.2539 54.8021 65.099 55.9688 64.7891C57.1354 64.4609 58.0469 64.0781 58.7031 63.6406C59.3594 63.1849 59.8607 62.7565 60.207 62.3555V53.4414H50.9922V49.1758H65.457Z" fill="black"/>
<path d="M65.457 49.1758V63.75C64.9648 64.4792 64.181 65.2995 63.1055 66.2109C62.0299 67.1042 60.5443 67.888 58.6484 68.5625C56.7708 69.2188 54.3464 69.5469 51.375 69.5469C48.9505 69.5469 46.7174 69.1276 44.6758 68.2891C42.6523 67.4323 40.8932 66.1927 39.3984 64.5703C37.9219 62.9297 36.7734 60.9427 35.9531 58.6094C35.151 56.2578 34.75 53.5964 34.75 50.625V47.5352C34.75 44.5638 35.0964 41.9115 35.7891 39.5781C36.5 37.2448 37.5391 35.2669 38.9062 33.6445C40.2734 32.0039 41.9505 30.7643 43.9375 29.9258C45.9245 29.069 48.2031 28.6406 50.7734 28.6406C53.8177 28.6406 56.3607 29.1693 58.4023 30.2266C60.4622 31.2656 62.0664 32.7057 63.2148 34.5469C64.3815 36.388 65.1289 38.4844 65.457 40.8359H60.1797C59.9427 39.3958 59.4688 38.0833 58.7578 36.8984C58.0651 35.7135 57.0716 34.7656 55.7773 34.0547C54.4831 33.3255 52.8151 32.9609 50.7734 32.9609C48.9323 32.9609 47.3372 33.2982 45.9883 33.9727C44.6393 34.6471 43.5273 35.6133 42.6523 36.8711C41.7773 38.1289 41.1211 39.651 40.6836 41.4375C40.2643 43.224 40.0547 45.2383 40.0547 47.4805V50.625C40.0547 52.9219 40.319 54.9727 40.8477 56.7773C41.3945 58.582 42.1693 60.1224 43.1719 61.3984C44.1745 62.6562 45.3685 63.6133 46.7539 64.2695C48.1576 64.9258 49.707 65.2539 51.4023 65.2539C53.2799 65.2539 54.8021 65.099 55.9688 64.7891C57.1354 64.4609 58.0469 64.0781 58.7031 63.6406C59.3594 63.1849 59.8607 62.7565 60.207 62.3555V53.4414H50.9922V49.1758H65.457Z" fill="black"/>
</svg>
