<svg width="100" height="100" viewBox="0 0 100 100" fill="none" xmlns="http://www.w3.org/2000/svg">
<rect x="5" y="5" width="90" height="90" rx="45" fill="#F3BA2F"/>
<circle cx="50" cy="50" r="42" fill="#F3BA2F"/>
<path d="M39.4727 35.5625V64H35.7031V35.5625H39.4727ZM51.3867 48.3555V51.4414H38.6523V48.3555H51.3867ZM53.3203 35.5625V38.6484H38.6523V35.5625H53.3203ZM66.1133 42.8672V45.6406H54.6875V42.8672H66.1133ZM58.5547 37.7305H62.168V58.7656C62.168 59.4818 62.2786 60.0221 62.5 60.3867C62.7214 60.7513 63.0078 60.9922 63.3594 61.1094C63.7109 61.2266 64.0885 61.2852 64.4922 61.2852C64.7917 61.2852 65.1042 61.2591 65.4297 61.207C65.7682 61.1419 66.0221 61.0898 66.1914 61.0508L66.2109 64C65.9245 64.0911 65.5469 64.1758 65.0781 64.2539C64.6224 64.3451 64.069 64.3906 63.418 64.3906C62.5326 64.3906 61.7188 64.2148 60.9766 63.8633C60.2344 63.5117 59.6419 62.9258 59.1992 62.1055C58.7695 61.2721 58.5547 60.1523 58.5547 58.7461V37.7305Z" fill="black"/>
</svg>
