<svg width="100" height="100" viewBox="0 0 100 100" fill="none" xmlns="http://www.w3.org/2000/svg">
<rect x="5" y="5" width="90" height="90" rx="45" fill="#F3BA2F"/>
<circle cx="50" cy="50" r="42" fill="#F3BA2F"/>
<path d="M29.7461 35.5625H39.1602C41.2956 35.5625 43.099 35.888 44.5703 36.5391C46.0547 37.1901 47.181 38.1536 47.9492 39.4297C48.7305 40.6927 49.1211 42.2487 49.1211 44.0977C49.1211 45.3997 48.8542 46.5911 48.3203 47.6719C47.7995 48.7396 47.0443 49.651 46.0547 50.4062C45.0781 51.1484 43.9062 51.7018 42.5391 52.0664L41.4844 52.4766H32.6367L32.5977 49.4102H39.2773C40.6315 49.4102 41.7578 49.1758 42.6562 48.707C43.5547 48.2253 44.2318 47.5807 44.6875 46.7734C45.1432 45.9661 45.3711 45.0742 45.3711 44.0977C45.3711 43.0039 45.1562 42.0469 44.7266 41.2266C44.2969 40.4062 43.6198 39.7747 42.6953 39.332C41.7839 38.8763 40.6055 38.6484 39.1602 38.6484H33.5156V64H29.7461V35.5625ZM46.3672 64L39.4531 51.1094L43.3789 51.0898L50.3906 63.7656V64H46.3672ZM57.4609 46.9297V72.125H53.8281V42.8672H57.1484L57.4609 46.9297ZM71.6992 53.2578V53.668C71.6992 55.2044 71.5169 56.6302 71.1523 57.9453C70.7878 59.2474 70.2539 60.3802 69.5508 61.3438C68.8607 62.3073 68.0078 63.056 66.9922 63.5898C65.9766 64.1237 64.8112 64.3906 63.4961 64.3906C62.1549 64.3906 60.9701 64.1693 59.9414 63.7266C58.9128 63.2839 58.0404 62.6393 57.3242 61.793C56.6081 60.9466 56.0352 59.931 55.6055 58.7461C55.1888 57.5612 54.9023 56.2266 54.7461 54.7422V52.5547C54.9023 50.9922 55.1953 49.5924 55.625 48.3555C56.0547 47.1185 56.6211 46.0638 57.3242 45.1914C58.0404 44.306 58.9062 43.6354 59.9219 43.1797C60.9375 42.7109 62.1094 42.4766 63.4375 42.4766C64.7656 42.4766 65.944 42.737 66.9727 43.2578C68.0013 43.7656 68.8672 44.4948 69.5703 45.4453C70.2734 46.3958 70.8008 47.5352 71.1523 48.8633C71.5169 50.1784 71.6992 51.6432 71.6992 53.2578ZM68.0664 53.668V53.2578C68.0664 52.2031 67.9557 51.2135 67.7344 50.2891C67.513 49.3516 67.168 48.5312 66.6992 47.8281C66.2435 47.112 65.6576 46.5521 64.9414 46.1484C64.2253 45.7318 63.3724 45.5234 62.3828 45.5234C61.4714 45.5234 60.6771 45.6797 60 45.9922C59.3359 46.3047 58.7695 46.7279 58.3008 47.2617C57.832 47.7826 57.4479 48.3815 57.1484 49.0586C56.862 49.7227 56.6471 50.4128 56.5039 51.1289V56.1875C56.7643 57.099 57.1289 57.9583 57.5977 58.7656C58.0664 59.5599 58.6914 60.2044 59.4727 60.6992C60.2539 61.181 61.237 61.4219 62.4219 61.4219C63.3984 61.4219 64.2383 61.2201 64.9414 60.8164C65.6576 60.3997 66.2435 59.8333 66.6992 59.1172C67.168 58.401 67.513 57.5807 67.7344 56.6562C67.9557 55.7188 68.0664 54.7227 68.0664 53.668Z" fill="black"/>
</svg>
