<svg width="100" height="100" viewBox="0 0 100 100" fill="none" xmlns="http://www.w3.org/2000/svg">
<rect x="5" y="5" width="90" height="90" rx="45" fill="#F3BA2F"/>
<circle cx="50" cy="50" r="42" fill="#F3BA2F"/>
<path d="M31.457 34.3008H47.834C49.3965 34.3008 50.8027 34.5156 52.0527 34.9453C53.3027 35.3555 54.3672 36.0195 55.2461 36.9375C56.1445 37.8555 56.8281 39.0762 57.2969 40.5996C57.7656 42.1035 58 43.9492 58 46.1367V55.7754H52.5508V46.0781C52.5508 44.7305 52.4141 43.5879 52.1406 42.6504C51.8672 41.7129 51.457 40.9609 50.9102 40.3945C50.3828 39.8086 49.7285 39.3887 48.9473 39.1348C48.166 38.8809 47.2578 38.7539 46.2227 38.7539H36.9062V66H31.457V34.3008ZM59.3477 66H43V44.4961H48.4199V61.5469H57.7363C59.123 61.5469 60.2852 61.3125 61.2227 60.8438C62.1602 60.375 62.873 59.6035 63.3613 58.5293C63.8496 57.4551 64.0938 56.0195 64.0938 54.2227V34.3008H69.5137V54.1641C69.5137 56.3516 69.2793 58.207 68.8105 59.7305C68.3418 61.2344 67.6582 62.4453 66.7598 63.3633C65.8809 64.2812 64.8164 64.9551 63.5664 65.3848C62.3164 65.7949 60.9102 66 59.3477 66Z" fill="black"/>
</svg>
