<svg width="100" height="100" viewBox="0 0 100 100" fill="none" xmlns="http://www.w3.org/2000/svg">
<rect x="5" y="5" width="90" height="90" rx="45" fill="#F3BA2F"/>
<circle cx="50" cy="50" r="42" fill="#F3BA2F"/>
<path d="M64.2676 38.7734L62.9199 43.4023H35.7324L37.0801 38.7734H64.2676ZM52.0801 71L36.582 52.8945L36.5527 49.2617H43.7012C45.7715 49.2617 47.4805 48.9199 48.8281 48.2363C50.1953 47.5332 51.2207 46.5859 51.9043 45.3945C52.5879 44.2031 52.9297 42.8652 52.9297 41.3809C52.9297 39.7207 52.6074 38.2656 51.9629 37.0156C51.3184 35.7461 50.3027 34.7598 48.916 34.0566C47.5488 33.334 45.752 32.9727 43.5254 32.9727H35.791L37.168 28.3438H43.5254C46.9238 28.3438 49.7266 28.8613 51.9336 29.8965C54.1602 30.9121 55.8203 32.3965 56.9141 34.3496C58.0078 36.3027 58.5547 38.666 58.5547 41.4395C58.5547 43.8223 58.0957 45.9609 57.1777 47.8555C56.2793 49.7305 54.7852 51.2051 52.6953 52.2793C50.625 53.3535 47.832 53.8906 44.3164 53.8906L58.7305 70.6484V71H52.0801ZM64.2676 28.3438L62.9199 32.9727H41.0059L42.3535 28.3438H64.2676Z" fill="black"/>
</svg>
