<svg width="100" height="100" viewBox="0 0 100 100" fill="none" xmlns="http://www.w3.org/2000/svg">
<rect x="5" y="5" width="90" height="90" rx="45" fill="#F3BA2F"/>
<circle cx="50" cy="50" r="42" fill="#F3BA2F"/>
<path d="M40.063 69.154C38.587 69.154 37.0563 68.9763 35.471 68.621C33.8857 68.293 32.4097 67.7053 31.043 66.858C29.6763 66.038 28.5557 64.9173 27.681 63.496C26.8337 62.102 26.41 60.339 26.41 58.207C26.41 56.239 26.8063 54.394 27.599 52.672C28.3917 50.95 29.5123 49.392 30.961 47.998C32.437 46.604 34.1727 45.4287 36.168 44.472C38.1633 43.5153 40.3637 42.832 42.769 42.422L43.63 45.62C41.6347 45.9753 39.7897 46.5083 38.095 47.219C36.4003 47.9297 34.9243 48.8043 33.667 49.843C32.437 50.8543 31.4803 52.016 30.797 53.328C30.1137 54.6673 29.772 56.1297 29.772 57.715C29.772 58.9997 29.9907 60.1067 30.428 61.036C30.8653 61.9653 31.4393 62.7307 32.15 63.332C32.888 63.9607 33.708 64.4527 34.61 64.808C35.512 65.1633 36.4277 65.4093 37.357 65.546C38.3137 65.71 39.2157 65.792 40.063 65.792C41.5117 65.792 42.9877 65.6553 44.491 65.382C45.9943 65.136 47.361 64.7533 48.591 64.234L49.657 67.104C49.001 67.432 48.1263 67.7463 47.033 68.047C45.967 68.375 44.819 68.6347 43.589 68.826C42.359 69.0447 41.1837 69.154 40.063 69.154ZM33.298 47.424C32.2047 47.1507 31.2207 46.6587 30.346 45.948C29.4713 45.2373 28.7743 44.39 28.255 43.406C27.763 42.422 27.517 41.3833 27.517 40.29C27.517 38.568 27.9133 37.133 28.706 35.985C29.526 34.837 30.5647 33.976 31.822 33.402C33.1067 32.828 34.4597 32.541 35.881 32.541C36.5097 32.541 37.1793 32.5957 37.89 32.705C38.6007 32.8143 39.284 32.9783 39.94 33.197L39.243 36.354C38.6963 36.2173 38.1223 36.108 37.521 36.026C36.9197 35.944 36.373 35.903 35.881 35.903C34.897 35.903 34.0223 36.0807 33.257 36.436C32.4917 36.7913 31.8903 37.2833 31.453 37.912C31.0157 38.5133 30.797 39.224 30.797 40.044C30.797 40.782 31.002 41.4517 31.412 42.053C31.8493 42.627 32.396 43.1327 33.052 43.57C33.708 43.98 34.3777 44.2943 35.061 44.513C35.7443 44.7043 36.3457 44.7863 36.865 44.759L33.298 47.424ZM49.6631 51.0381C49.6631 50.4108 49.8566 49.8836 50.2437 49.4565C50.644 49.0161 51.2179 48.7959 51.9653 48.7959C52.7127 48.7959 53.2799 49.0161 53.667 49.4565C54.0674 49.8836 54.2676 50.4108 54.2676 51.0381C54.2676 51.652 54.0674 52.1725 53.667 52.5996C53.2799 53.0267 52.7127 53.2402 51.9653 53.2402C51.2179 53.2402 50.644 53.0267 50.2437 52.5996C49.8566 52.1725 49.6631 51.652 49.6631 51.0381ZM59.0258 51.155L60.6658 48.326C61.2125 48.6813 61.9778 49.023 62.9618 49.351C63.9458 49.679 65.0938 49.843 66.4058 49.843C67.7725 49.843 68.8522 49.7063 69.6448 49.433C70.4648 49.1597 71.0525 48.7633 71.4078 48.244C71.7905 47.6973 71.9818 47.0687 71.9818 46.358C71.9818 45.8113 71.8588 45.1417 71.6128 44.349C71.3942 43.529 70.9022 42.4357 70.1368 41.069C69.3715 39.675 68.1962 37.8573 66.6108 35.616L69.4398 33.771C70.8885 35.7663 72.0365 37.5703 72.8838 39.183C73.7585 40.7957 74.3735 42.217 74.7288 43.447C75.1115 44.6497 75.3028 45.6883 75.3028 46.563C75.3028 47.6563 75.0295 48.7223 74.4828 49.761C73.9362 50.7723 73.0205 51.606 71.7358 52.262C70.4512 52.918 68.6745 53.246 66.4058 53.246C65.4218 53.246 64.4652 53.164 63.5358 53C62.6338 52.836 61.8002 52.6037 61.0348 52.303C60.2695 51.975 59.5998 51.5923 59.0258 51.155Z" fill="black"/>
</svg>
