<svg width="100" height="100" viewBox="0 0 100 100" fill="none" xmlns="http://www.w3.org/2000/svg">
<rect x="5" y="5" width="90" height="90" rx="45" fill="#F3BA2F"/>
<circle cx="50" cy="50" r="42" fill="#F3BA2F"/>
<path d="M36.772 69.272C34.572 69.272 32.5187 68.92 30.612 68.216C28.7347 67.512 27.2093 66.456 26.036 65.048C24.892 63.64 24.32 61.8653 24.32 59.724C24.32 59.284 24.364 58.668 24.452 57.876C24.5693 57.0547 24.804 56.072 25.156 54.928C25.508 53.784 26.0653 52.5227 26.828 51.144L29.864 52.64C29.424 53.5493 29.0573 54.3853 28.764 55.148C28.4707 55.8813 28.2507 56.5707 28.104 57.216C27.9867 57.832 27.928 58.448 27.928 59.064C27.928 60.56 28.324 61.792 29.116 62.76C29.9373 63.7573 31.0227 64.4907 32.372 64.96C33.7507 65.4293 35.2613 65.664 36.904 65.664C39.5733 65.664 41.6707 65.136 43.196 64.08C44.7213 63.0533 45.792 61.5573 46.408 59.592C47.024 57.5973 47.2733 55.2067 47.156 52.42L46.32 29.584H49.972L50.676 51.892C50.7347 54.18 50.5587 56.3653 50.148 58.448C49.7373 60.5307 49.004 62.3787 47.948 63.992C46.892 65.6347 45.44 66.9253 43.592 67.864C41.7733 68.8027 39.5 69.272 36.772 69.272ZM63.656 69.228C63.0107 69.228 62.468 69.008 62.028 68.568C61.588 68.128 61.368 67.6 61.368 66.984C61.368 66.3387 61.588 65.7813 62.028 65.312C62.468 64.872 63.0107 64.652 63.656 64.652C64.272 64.652 64.8 64.872 65.24 65.312C65.68 65.7813 65.9 66.3387 65.9 66.984C65.9 67.6 65.68 68.128 65.24 68.568C64.8 69.008 64.272 69.228 63.656 69.228ZM69.332 69.228C68.6867 69.228 68.144 69.008 67.704 68.568C67.264 68.128 67.044 67.6 67.044 66.984C67.044 66.3387 67.264 65.7813 67.704 65.312C68.144 64.872 68.6867 64.652 69.332 64.652C69.948 64.652 70.476 64.872 70.916 65.312C71.356 65.7813 71.576 66.3387 71.576 66.984C71.576 67.6 71.356 68.128 70.916 68.568C70.476 69.008 69.948 69.228 69.332 69.228ZM38.268 55.764C36.772 55.764 35.5693 55.4853 34.66 54.928C33.78 54.3413 33.1347 53.5787 32.724 52.64C32.3133 51.7013 32.108 50.704 32.108 49.648C32.108 48.2987 32.4747 46.7587 33.208 45.028C33.9413 43.2973 35.1587 41.5813 36.86 39.88L39.456 41.86C38.4587 42.916 37.5787 44.104 36.816 45.424C36.0827 46.7147 35.716 47.9467 35.716 49.12C35.716 50 35.9653 50.6893 36.464 51.188C36.9627 51.6867 37.6813 51.936 38.62 51.936C39.3533 51.936 40.0867 51.7747 40.82 51.452C41.5827 51.1 42.4333 50.5573 43.372 49.824C44.3107 49.0907 45.4253 48.1227 46.716 46.92C48.0067 45.7173 49.576 44.2653 51.424 42.564C53.6533 40.5107 55.4867 38.8827 56.924 37.68C58.3613 36.448 59.608 35.568 60.664 35.04C61.7493 34.4827 62.8347 34.204 63.92 34.204C65.416 34.204 66.7507 34.6733 67.924 35.612C69.1267 36.5213 69.9333 38.0027 70.344 40.056L67.352 41.244C67.1173 40.5693 66.8387 39.9827 66.516 39.484C66.2227 38.9853 65.856 38.604 65.416 38.34C65.0053 38.076 64.492 37.944 63.876 37.944C63.26 37.944 62.6293 38.0907 61.984 38.384C61.3387 38.6773 60.6053 39.132 59.784 39.748C58.992 40.364 58.0533 41.1707 56.968 42.168C55.912 43.1653 54.636 44.3533 53.14 45.732C50.8813 47.844 48.9893 49.56 47.464 50.88C45.968 52.1707 44.692 53.1827 43.636 53.916C42.58 54.62 41.6413 55.104 40.82 55.368C39.9987 55.632 39.148 55.764 38.268 55.764ZM63.964 61.22C61.7347 61.22 59.9893 60.9853 58.728 60.516C57.4667 60.0467 56.572 59.2547 56.044 58.14C55.516 57.0253 55.2227 55.5293 55.164 53.652L54.284 29.584H57.892L58.772 52.244C58.8307 53.3293 58.9187 54.224 59.036 54.928C59.1533 55.6027 59.388 56.1453 59.74 56.556C60.092 56.9373 60.6347 57.216 61.368 57.392C62.1013 57.5387 63.0987 57.612 64.36 57.612C66.0027 57.612 67.2347 57.524 68.056 57.348C68.9067 57.1427 69.4787 56.776 69.772 56.248C70.0947 55.6907 70.256 54.884 70.256 53.828C70.256 52.7133 69.992 51.32 69.464 49.648C68.9653 47.9467 68.3933 46.26 67.748 44.588L71.312 43.268C71.6933 44.2067 72.0453 45.2773 72.368 46.48C72.72 47.6827 73.0133 48.8707 73.248 50.044C73.4827 51.2173 73.6 52.244 73.6 53.124C73.6 54.5907 73.3947 55.8373 72.984 56.864C72.6027 57.8907 72.016 58.7267 71.224 59.372C70.432 60.0173 69.4347 60.4867 68.232 60.78C67.0293 61.0733 65.6067 61.22 63.964 61.22Z" fill="black"/>
</svg>
