<svg width="100" height="100" viewBox="0 0 100 100" fill="none" xmlns="http://www.w3.org/2000/svg">
<rect x="5" y="5" width="90" height="90" rx="45" fill="#F3BA2F"/>
<circle cx="50" cy="50" r="42" fill="#F3BA2F"/>
<path d="M33.0781 33.7188V65H28.9316V33.7188H33.0781ZM28.8027 31.3984L32.9707 25.082H37.7617L32.0039 31.3984H28.8027ZM44.0137 32V65H40.0176V32H44.0137ZM58.2148 41.7539L48.0742 52.6035L42.4023 58.4902L42.0801 54.2578L46.1406 49.4023L53.3594 41.7539H58.2148ZM54.584 65L46.291 53.9141L48.3535 50.3691L59.2676 65H54.584ZM66.293 45.4062V65H62.3184V41.7539H66.1855L66.293 45.4062ZM73.5547 41.625L73.5332 45.3203C73.2038 45.2487 72.8887 45.2057 72.5879 45.1914C72.3014 45.1628 71.972 45.1484 71.5996 45.1484C70.6829 45.1484 69.8737 45.2917 69.1719 45.5781C68.4701 45.8646 67.8757 46.2656 67.3887 46.7812C66.9017 47.2969 66.515 47.9128 66.2285 48.6289C65.9564 49.3307 65.7773 50.1042 65.6914 50.9492L64.5742 51.5938C64.5742 50.1901 64.7103 48.8724 64.9824 47.6406C65.2689 46.4089 65.7057 45.3203 66.293 44.375C66.8802 43.4154 67.625 42.6706 68.5273 42.1406C69.444 41.5964 70.5326 41.3242 71.793 41.3242C72.0794 41.3242 72.4089 41.36 72.7812 41.4316C73.1536 41.4889 73.4115 41.5534 73.5547 41.625Z" fill="black"/>
</svg>
