<svg width="90" height="90" viewBox="0 0 90 90" fill="none" xmlns="http://www.w3.org/2000/svg">
<circle cx="45" cy="45" r="42" fill="#F3BA2F"/>
<path d="M36.7578 50.8691V28.7188H40.8828V50.8691C40.8828 52.9316 40.4603 54.6719 39.6152 56.0898C38.7702 57.5078 37.6029 58.5892 36.1133 59.334C34.638 60.0645 32.9408 60.4297 31.0215 60.4297C29.1022 60.4297 27.3978 60.1003 25.9082 59.4414C24.4186 58.7826 23.2513 57.7799 22.4062 56.4336C21.5612 55.0872 21.1387 53.39 21.1387 51.3418H25.2852C25.2852 52.6595 25.5286 53.7409 26.0156 54.5859C26.5026 55.431 27.1758 56.054 28.0352 56.4551C28.9089 56.8561 29.9043 57.0566 31.0215 57.0566C32.11 57.0566 33.084 56.8275 33.9434 56.3691C34.8171 55.8965 35.5046 55.2018 36.0059 54.2852C36.5072 53.3542 36.7578 52.2155 36.7578 50.8691ZM58.7578 23.6484V30.2012H55.5352V23.6484H58.7578ZM58.3711 58.7324V64.4688H55.1699V58.7324H58.3711ZM62.668 51.9434C62.668 51.084 62.4746 50.3105 62.0879 49.623C61.7012 48.9355 61.0638 48.3053 60.1758 47.7324C59.2878 47.1595 58.099 46.6296 56.6094 46.1426C54.8047 45.584 53.2435 44.9036 51.9258 44.1016C50.6224 43.2995 49.6126 42.304 48.8965 41.1152C48.1947 39.9264 47.8438 38.487 47.8438 36.7969C47.8438 35.0352 48.2233 33.5169 48.9824 32.2422C49.7415 30.9674 50.8158 29.9863 52.2051 29.2988C53.5944 28.6113 55.2272 28.2676 57.1035 28.2676C58.5645 28.2676 59.8678 28.4896 61.0137 28.9336C62.1595 29.3633 63.1263 30.0078 63.9141 30.8672C64.7161 31.7266 65.3249 32.7793 65.7402 34.0254C66.1699 35.2715 66.3848 36.7109 66.3848 38.3438H62.4316C62.4316 37.3841 62.3171 36.5033 62.0879 35.7012C61.8587 34.8991 61.515 34.2044 61.0566 33.6172C60.5983 33.0156 60.0397 32.5573 59.3809 32.2422C58.722 31.9128 57.9629 31.748 57.1035 31.748C55.9004 31.748 54.9049 31.9557 54.1172 32.3711C53.3438 32.7865 52.7708 33.3737 52.3984 34.1328C52.026 34.8776 51.8398 35.7441 51.8398 36.7324C51.8398 37.6491 52.026 38.4512 52.3984 39.1387C52.7708 39.8262 53.401 40.4492 54.2891 41.0078C55.1914 41.5521 56.4303 42.0892 58.0059 42.6191C59.8535 43.2064 61.4219 43.901 62.7109 44.7031C64 45.4909 64.9811 46.4648 65.6543 47.625C66.3275 48.7708 66.6641 50.196 66.6641 51.9004C66.6641 53.748 66.2487 55.3092 65.418 56.584C64.5872 57.8444 63.4199 58.804 61.916 59.4629C60.4121 60.1217 58.6504 60.4512 56.6309 60.4512C55.4134 60.4512 54.2103 60.2865 53.0215 59.957C51.8327 59.6276 50.7585 59.0905 49.7988 58.3457C48.8392 57.5866 48.0729 56.5911 47.5 55.3594C46.9271 54.1133 46.6406 52.5879 46.6406 50.7832H50.6367C50.6367 52.0007 50.8086 53.0104 51.1523 53.8125C51.5104 54.6003 51.9831 55.2305 52.5703 55.7031C53.1576 56.1615 53.8021 56.4909 54.5039 56.6914C55.2201 56.8776 55.929 56.9707 56.6309 56.9707C57.9199 56.9707 59.0085 56.7702 59.8965 56.3691C60.7988 55.9538 61.4863 55.3665 61.959 54.6074C62.4316 53.8483 62.668 52.9603 62.668 51.9434Z" fill="black"/>
</svg>
