<svg width="100" height="100" viewBox="0 0 100 100" fill="none" xmlns="http://www.w3.org/2000/svg">
<rect x="5" y="5" width="90" height="90" rx="45" fill="#F3BA2F"/>
<circle cx="50" cy="50" r="42" fill="#F3BA2F"/>
<path d="M24.645 60.885L26.525 57.642C27.1517 58.0493 28.029 58.441 29.157 58.817C30.285 59.193 31.601 59.381 33.105 59.381C34.6717 59.381 35.9093 59.2243 36.818 58.911C37.758 58.5977 38.4317 58.1433 38.839 57.548C39.2777 56.9213 39.497 56.2007 39.497 55.386C39.497 54.7593 39.356 53.9917 39.074 53.083C38.8233 52.143 38.2593 50.8897 37.382 49.323C36.5047 47.725 35.1573 45.6413 33.34 43.072L36.583 40.957C38.2437 43.2443 39.5597 45.3123 40.531 47.161C41.5337 49.0097 42.2387 50.639 42.646 52.049C43.0847 53.4277 43.304 54.6183 43.304 55.621C43.304 56.8743 42.9907 58.0963 42.364 59.287C41.7373 60.4463 40.6877 61.402 39.215 62.154C37.7423 62.906 35.7057 63.282 33.105 63.282C31.977 63.282 30.8803 63.188 29.815 63C28.781 62.812 27.8253 62.5457 26.948 62.201C26.0707 61.825 25.303 61.3863 24.645 60.885ZM48.7031 60.751C48.7031 60.0319 48.925 59.4276 49.3687 58.938C49.8276 58.4331 50.4855 58.1807 51.3423 58.1807C52.1991 58.1807 52.8493 58.4331 53.293 58.938C53.752 59.4276 53.9814 60.0319 53.9814 60.751C53.9814 61.4548 53.752 62.0514 53.293 62.541C52.8493 63.0306 52.1991 63.2754 51.3423 63.2754C50.4855 63.2754 49.8276 63.0306 49.3687 62.541C48.925 62.0514 48.7031 61.4548 48.7031 60.751ZM62.115 63L61.175 29.442H64.982L65.922 63H62.115Z" fill="black"/>
</svg>
