<svg width="100" height="100" viewBox="0 0 100 100" fill="none" xmlns="http://www.w3.org/2000/svg">
<rect x="5" y="5" width="90" height="90" rx="45" fill="#F3BA2F"/>
<circle cx="50" cy="50" r="42" fill="#F3BA2F"/>
<path d="M44.1364 53.6825C43.1561 54.633 42.188 55.565 41.232 56.5094C41.1529 56.5891 41.1407 56.7669 41.1407 56.9018C41.1346 61.0839 41.1346 65.2599 41.1346 69.442C41.1346 69.6137 41.1346 69.7854 41.1346 69.9693C38.4068 69.9693 35.7156 69.9693 33 69.9693C33 56.6565 33 43.356 33 30.031C35.6973 30.031 38.3946 30.031 41.1163 30.031C41.1163 35.231 41.1163 40.4371 41.1163 45.7291C41.2503 45.6004 41.3294 45.5329 41.4025 45.4593C46.4318 40.4065 51.4672 35.3598 56.4905 30.3008C56.7097 30.08 56.9228 29.9942 57.2333 30.0003C60.4116 30.0126 63.5839 30.0064 66.7622 30.0064C66.8718 30.0064 66.9814 30.0064 67.1763 30.0064C62.7619 34.5074 58.4084 38.9532 54.0367 43.4173C59.6871 52.2598 65.3314 61.0901 71 69.9632C70.8539 69.9693 70.7625 69.9816 70.6651 69.9816C68.7959 69.9816 66.9327 69.9755 65.0635 69.9877C64.8321 69.9877 64.7042 69.9142 64.5763 69.7179C59.8697 62.3471 55.1631 54.9825 50.4504 47.6117C50.3834 47.5075 50.3165 47.4093 50.286 47.3542C49.4762 48.1329 48.6725 48.9117 47.8627 49.6966C52.1796 56.4726 56.4783 63.2056 60.8013 69.9755C60.6491 69.9816 60.5456 69.9939 60.436 69.9939C58.5911 69.9939 56.7401 69.9877 54.8952 70C54.6395 70 54.4994 69.9264 54.3594 69.7118C51.0167 64.4504 47.6557 59.1952 44.3008 53.9339C44.2338 53.8358 44.1668 53.7315 44.1364 53.6825Z" fill="black"/>
</svg>
