<svg width="100" height="100" viewBox="0 0 100 100" fill="none" xmlns="http://www.w3.org/2000/svg">
<rect x="5" y="5" width="90" height="90" rx="45" fill="#F3BA2F"/>
<circle cx="50" cy="50" r="42" fill="#F3BA2F"/>
<path d="M43.7539 37.7539V41.041H32.5176V37.7539H43.7539ZM47.2559 37.7539V61H43.2812V37.7539H47.2559ZM31.5508 37.7539H35.5469L34.9453 48.9688C34.8451 50.7018 34.6803 52.2344 34.4512 53.5664C34.2363 54.8841 33.9355 56.0156 33.5488 56.9609C33.1764 57.9062 32.7038 58.6797 32.1309 59.2812C31.5723 59.8685 30.8991 60.3053 30.1113 60.5918C29.3236 60.8639 28.4141 61 27.3828 61H26.1367V57.498L26.9961 57.4336C27.612 57.3906 28.1348 57.2474 28.5645 57.0039C29.0085 56.7604 29.3809 56.4023 29.6816 55.9297C29.9824 55.4427 30.2259 54.8197 30.4121 54.0605C30.6126 53.3014 30.763 52.3991 30.8633 51.3535C30.9779 50.3079 31.0638 49.0905 31.1211 47.7012L31.5508 37.7539ZM64.5723 50.7734H56.9453L56.9023 47.5938H63.1328C64.3646 47.5938 65.3887 47.472 66.2051 47.2285C67.0358 46.985 67.6589 46.6198 68.0742 46.1328C68.4896 45.6458 68.6973 45.0443 68.6973 44.3281C68.6973 43.7695 68.5755 43.2826 68.332 42.8672C68.1029 42.4375 67.752 42.0866 67.2793 41.8145C66.8066 41.528 66.2194 41.3203 65.5176 41.1914C64.8301 41.0482 64.0208 40.9766 63.0898 40.9766H57.998V61H54.0234V37.7539H63.0898C64.5651 37.7539 65.89 37.8828 67.0645 38.1406C68.2533 38.3984 69.263 38.7923 70.0938 39.3223C70.9388 39.8379 71.5833 40.4967 72.0273 41.2988C72.4714 42.1009 72.6934 43.0462 72.6934 44.1348C72.6934 44.8366 72.5501 45.5026 72.2637 46.1328C71.9772 46.763 71.5547 47.3216 70.9961 47.8086C70.4375 48.2956 69.75 48.6966 68.9336 49.0117C68.1172 49.3125 67.179 49.5059 66.1191 49.5918L64.5723 50.7734ZM64.5723 61H55.5059L57.4824 57.7773H64.5723C65.6751 57.7773 66.5918 57.6413 67.3223 57.3691C68.0527 57.0827 68.597 56.6816 68.9551 56.166C69.3275 55.6361 69.5137 55.0059 69.5137 54.2754C69.5137 53.5449 69.3275 52.9219 68.9551 52.4062C68.597 51.8763 68.0527 51.4753 67.3223 51.2031C66.5918 50.9167 65.6751 50.7734 64.5723 50.7734H58.5352L58.5781 47.5938H66.1191L67.5586 48.7969C68.8333 48.8971 69.9147 49.2122 70.8027 49.7422C71.6908 50.2721 72.3639 50.9453 72.8223 51.7617C73.2806 52.5638 73.5098 53.4375 73.5098 54.3828C73.5098 55.4714 73.3021 56.431 72.8867 57.2617C72.4857 58.0924 71.8984 58.7871 71.125 59.3457C70.3516 59.89 69.4134 60.3053 68.3105 60.5918C67.2077 60.8639 65.9616 61 64.5723 61Z" fill="black"/>
</svg>
