<svg width="100" height="100" viewBox="0 0 100 100" fill="none" xmlns="http://www.w3.org/2000/svg">
<rect x="5" y="5" width="90" height="90" rx="45" fill="#F3BA2F"/>
<circle cx="50" cy="50" r="42" fill="#F3BA2F"/>
<path d="M52.1188 24C52.1258 24 52.1328 24 52.1468 24C52.8317 24.6849 53.5167 25.3769 54.2016 26.0618C54.8376 26.6978 55.4737 27.3339 56.1097 27.9699C56.4871 28.3473 56.8645 28.7177 57.2559 29.0812C57.5145 29.3188 57.8081 29.4935 58.1715 29.5075C58.2344 29.5075 58.3113 29.4935 58.3672 29.4656C58.5629 29.3538 58.7586 29.2419 58.9473 29.1231C59.1081 29.0183 59.2828 28.9274 59.4226 28.8016C59.6812 28.564 59.821 28.2495 59.9468 27.928C59.9817 27.8371 60.0306 27.8022 60.1215 27.8371C60.2823 27.9 60.45 27.9419 60.5898 28.0328C60.8694 28.2215 61.0511 28.5081 61.2188 28.8016C61.6312 29.5215 61.5473 30.3952 61.0091 31.0242C60.9392 31.1081 60.8624 31.1989 60.7715 31.2478C59.122 32.0796 57.4726 32.9043 55.8231 33.722C55.7812 33.743 55.7253 33.757 55.6694 33.757C55.3968 33.757 55.1172 33.764 54.8446 33.757C54.4462 33.75 54.0828 33.6452 53.7403 33.4425C53.3419 33.2048 52.9925 32.9043 52.664 32.5758C51.5806 31.4925 50.4973 30.4091 49.414 29.3258C49.1973 29.1091 48.9806 28.8925 48.771 28.6688C48.743 28.6828 48.729 28.6898 48.7151 28.6968C47.7575 29.3118 46.786 29.9199 45.8425 30.5559C45.528 30.7656 45.3392 31.1011 45.3812 31.5134C45.4091 31.821 45.5839 32.0516 45.7866 32.2613C46.3387 32.8204 46.8978 33.3726 47.45 33.9317C48.5473 35.029 49.6516 36.1333 50.7489 37.2306C51.8183 38.3 52.8806 39.3694 53.957 40.4317C54.0339 40.5086 54.0618 40.5855 54.0618 40.6903C54.0618 42.4935 54.0618 44.2968 54.0618 46.093C54.0618 46.1419 54.0618 46.1978 54.0618 46.2608C56.543 46.2608 59.0032 46.2608 61.4704 46.2608C61.4704 47.3231 61.4704 48.3785 61.4704 49.4409C58.9962 49.4409 56.536 49.4409 54.0618 49.4409C54.0618 49.5108 54.0618 49.5737 54.0618 49.6366C54.0618 58.3661 54.0618 67.0887 54.0618 75.8183C54.0618 75.8812 54.0548 75.9371 54.0478 76C52.1468 76 50.2457 76 48.3446 76C47.9882 75.7344 47.6387 75.4758 47.2823 75.2102C46.136 74.3645 44.9898 73.5328 43.8505 72.6731C42.872 71.9392 42.0333 71.0656 41.3065 70.0801C40.6355 69.1715 40.1043 68.193 39.7269 67.1306C39.3774 66.1661 39.1608 65.1737 39.0699 64.1462C39.0419 63.8527 39.021 63.5591 39 63.2656C39 62.9371 39 62.6086 39 62.2801C39.007 62.2102 39.021 62.1333 39.021 62.0634C39.0629 61.3855 39.1538 60.7215 39.3844 60.0785C39.5871 59.5124 39.8737 59.0021 40.314 58.5828C40.7962 58.1285 41.3903 57.9328 42.0194 57.807C42.7742 57.6532 43.543 57.6742 44.3048 57.7581C44.8989 57.821 45.4511 58.0167 45.9473 58.3452C46.5694 58.7575 47.1355 59.2258 47.6667 59.743C47.9462 60.0086 48.2328 60.2672 48.5194 60.5398C48.5194 56.8285 48.5194 53.1312 48.5194 49.4199C46.0452 49.4199 43.5849 49.4199 41.1247 49.4199C41.1247 48.3575 41.1247 47.3091 41.1247 46.2468C43.5989 46.2468 46.0591 46.2468 48.5333 46.2468C48.5333 46.1839 48.5333 46.1349 48.5333 46.086C48.5333 44.0452 48.5333 42.0043 48.5403 39.9704C48.5403 39.7817 48.5194 39.621 48.3516 39.5021C48.2677 39.4392 48.2048 39.3624 48.1349 39.2855C47.3871 38.5376 46.6392 37.7898 45.8844 37.0349C45.0317 36.1823 44.179 35.3296 43.3263 34.4769C42.6134 33.764 41.8935 33.0511 41.1876 32.3312C41.1527 32.2962 41.1177 32.2263 41.1247 32.1704C41.1387 31.8978 41.1527 31.6253 41.1946 31.3527C41.3344 30.4091 41.7538 29.6333 42.5016 29.0253C42.9909 28.6269 43.522 28.3054 44.0882 28.0258C45.2414 27.4527 46.3876 26.8726 47.5409 26.2995C48.7151 25.7124 49.8823 25.1253 51.0565 24.5382C51.3989 24.3634 51.7624 24.1817 52.1188 24ZM48.5333 72.0021C48.5333 71.9323 48.5333 71.8903 48.5333 71.8414C48.5333 71.1145 48.5333 70.3806 48.5333 69.6538C48.5333 67.8785 48.5333 66.0962 48.5333 64.321C48.5333 64.272 48.5333 64.2091 48.5054 64.1812C48.2677 63.9366 48.0231 63.6919 47.7785 63.4473C47.3172 62.986 46.8559 62.5247 46.3876 62.0634C46.1919 61.8677 45.9892 61.672 45.7726 61.5043C45.4022 61.2177 44.9968 60.9871 44.5285 60.8962C44.1161 60.8124 43.7946 60.9382 43.5989 61.3156C43.4801 61.5462 43.3753 61.7979 43.3054 62.0495C43.1237 62.7694 43.0677 63.5032 43.0957 64.2511C43.1306 65.1387 43.2565 66.0124 43.4312 66.879C43.6548 67.9973 44.0672 69.0317 44.829 69.9054C44.9968 70.1011 45.1505 70.3038 45.3952 70.4226C45.9823 70.7161 46.5694 71.0097 47.1495 71.3032C47.5968 71.5409 48.0581 71.7645 48.5333 72.0021Z" fill="black"/>
</svg>
