<svg width="100" height="100" viewBox="0 0 100 100" fill="none" xmlns="http://www.w3.org/2000/svg">
<rect x="5" y="5" width="90" height="90" rx="45" fill="#F3BA2F"/>
<circle cx="50" cy="50" r="42" fill="#F3BA2F"/>
<path d="M46.4688 54.957H50.2188C50.0234 56.7539 49.5091 58.362 48.6758 59.7812C47.8424 61.2005 46.6641 62.3268 45.1406 63.1602C43.6172 63.9805 41.7161 64.3906 39.4375 64.3906C37.7708 64.3906 36.2539 64.0781 34.8867 63.4531C33.5326 62.8281 32.3672 61.9427 31.3906 60.7969C30.4141 59.638 29.6589 58.2513 29.125 56.6367C28.6042 55.0091 28.3438 53.1992 28.3438 51.207V48.375C28.3438 46.3828 28.6042 44.5794 29.125 42.9648C29.6589 41.3372 30.4206 39.944 31.4102 38.7852C32.4128 37.6263 33.6172 36.7344 35.0234 36.1094C36.4297 35.4844 38.0117 35.1719 39.7695 35.1719C41.918 35.1719 43.7344 35.5755 45.2188 36.3828C46.7031 37.1901 47.8555 38.3099 48.6758 39.7422C49.5091 41.1615 50.0234 42.8086 50.2188 44.6836H46.4688C46.2865 43.3555 45.9479 42.2161 45.4531 41.2656C44.9583 40.3021 44.2552 39.5599 43.3438 39.0391C42.4323 38.5182 41.2409 38.2578 39.7695 38.2578C38.5065 38.2578 37.3932 38.4987 36.4297 38.9805C35.4792 39.4622 34.6784 40.1458 34.0273 41.0312C33.3893 41.9167 32.9076 42.9779 32.582 44.2148C32.2565 45.4518 32.0938 46.8255 32.0938 48.3359V51.207C32.0938 52.6003 32.237 53.9089 32.5234 55.1328C32.8229 56.3568 33.2721 57.431 33.8711 58.3555C34.4701 59.2799 35.2318 60.0091 36.1562 60.543C37.0807 61.0638 38.1745 61.3242 39.4375 61.3242C41.0391 61.3242 42.3151 61.0703 43.2656 60.5625C44.2161 60.0547 44.9323 59.3255 45.4141 58.375C45.9089 57.4245 46.2604 56.2852 46.4688 54.957ZM59.125 35.5625V64H55.3555V35.5625H59.125ZM71.0391 48.3555V51.4414H58.3047V48.3555H71.0391ZM72.9727 35.5625V38.6484H58.3047V35.5625H72.9727Z" fill="black"/>
</svg>
