<svg width="100" height="100" viewBox="0 0 100 100" fill="none" xmlns="http://www.w3.org/2000/svg">
<rect x="5" y="5" width="90" height="90" rx="45" fill="#F3BA2F"/>
<circle cx="50" cy="50" r="42" fill="#F3BA2F"/>
<path d="M71.7695 42.2891V46.7129H29.2012V42.2891H71.7695ZM71.7695 52.4258V56.8496H29.2012V52.4258H71.7695ZM40.7734 71L42.7363 57.1719L47.9219 28.3438H51.7598L49.7969 42.2012L44.5234 71H40.7734ZM35.7051 28.3438L41.1836 57.0547L42.7363 71H39.1328L30.0801 28.3438H35.7051ZM58.293 71L59.8164 57.0254L65.1484 28.3438H70.8027L61.7207 71H58.293ZM53.1953 28.3438L58.3809 57.084L60.2559 71H56.3301L51.2324 42.084L49.3867 28.3438H53.1953Z" fill="black"/>
</svg>
