<svg width="100" height="100" viewBox="0 0 100 100" fill="none" xmlns="http://www.w3.org/2000/svg">
<rect x="5" y="5" width="90" height="90" rx="45" fill="#F3BA2F"/>
<circle cx="50" cy="50" r="42" fill="#F3BA2F"/>
<path d="M17.435 59.155L19.075 56.326C19.6217 56.6813 20.387 57.023 21.371 57.351C22.355 57.679 23.503 57.843 24.815 57.843C26.1817 57.843 27.2613 57.7063 28.054 57.433C28.874 57.1597 29.4617 56.7633 29.817 56.244C30.1997 55.6973 30.391 55.0687 30.391 54.358C30.391 53.8113 30.268 53.1417 30.022 52.349C29.8033 51.529 29.3113 50.4357 28.546 49.069C27.7807 47.675 26.6053 45.8573 25.02 43.616L27.849 41.771C29.2977 43.7663 30.4457 45.5703 31.293 47.183C32.1677 48.7957 32.7827 50.217 33.138 51.447C33.5207 52.6497 33.712 53.6883 33.712 54.563C33.712 55.6563 33.4387 56.7223 32.892 57.761C32.3453 58.7723 31.4297 59.606 30.145 60.262C28.8603 60.918 27.0837 61.246 24.815 61.246C23.831 61.246 22.8743 61.164 21.945 61C21.043 60.836 20.2093 60.6037 19.444 60.303C18.6787 59.975 18.009 59.5923 17.435 59.155ZM38.4219 59.0381C38.4219 58.4108 38.6154 57.8836 39.0024 57.4565C39.4028 57.0161 39.9767 56.7959 40.7241 56.7959C41.4715 56.7959 42.0387 57.0161 42.4258 57.4565C42.8262 57.8836 43.0264 58.4108 43.0264 59.0381C43.0264 59.652 42.8262 60.1725 42.4258 60.5996C42.0387 61.0267 41.4715 61.2402 40.7241 61.2402C39.9767 61.2402 39.4028 61.0267 39.0024 60.5996C38.6154 60.1725 38.4219 59.652 38.4219 59.0381ZM62.3396 61.861L63.4056 58.499C66.1116 58.499 68.3393 58.4033 70.0886 58.212C71.8379 57.9933 73.1909 57.6653 74.1476 57.228C75.1316 56.7633 75.8013 56.1757 76.1566 55.465C76.5393 54.727 76.7033 53.8387 76.6486 52.8L75.8696 31.726H79.1906L80.0106 52.431C80.0653 53.8797 79.8876 55.1917 79.4776 56.367C79.0676 57.515 78.2476 58.499 77.0176 59.319C75.7876 60.139 73.9973 60.7677 71.6466 61.205C69.2959 61.6423 66.1936 61.861 62.3396 61.861ZM61.2736 52.636L60.4946 50.053C61.6426 49.7523 62.5719 49.4927 63.2826 49.274C63.9933 49.0553 64.4989 48.8503 64.7996 48.659C65.1276 48.4403 65.2916 48.2217 65.2916 48.003C65.2916 47.7023 65.1276 47.429 64.7996 47.183C64.4989 46.9097 64.1436 46.6363 63.7336 46.363C63.3509 46.0623 62.9956 45.7207 62.6676 45.338C62.3669 44.9553 62.2166 44.4907 62.2166 43.944C62.2166 43.452 62.3533 42.9463 62.6266 42.427C62.9273 41.8803 63.4466 41.32 64.1846 40.746C64.9226 40.1447 65.9613 39.516 67.3006 38.86L68.5716 41.197C67.3143 41.7983 66.3849 42.3177 65.7836 42.755C65.2096 43.165 64.9226 43.534 64.9226 43.862C64.9226 44.108 65.0729 44.3677 65.3736 44.641C65.7016 44.9143 66.0569 45.215 66.4396 45.543C66.8496 45.871 67.2049 46.2537 67.5056 46.691C67.8336 47.101 67.9976 47.593 67.9976 48.167C67.9976 48.5497 67.9156 48.9323 67.7516 49.315C67.5876 49.6703 67.2596 50.0393 66.7676 50.422C66.3029 50.7773 65.6333 51.1463 64.7586 51.529C63.8839 51.8843 62.7223 52.2533 61.2736 52.636ZM62.3396 61.861C59.9069 61.861 57.7613 61.697 55.9026 61.369C54.0713 61.0683 52.5406 60.59 51.3106 59.934C50.0806 59.278 49.1513 58.4307 48.5226 57.392C47.8939 56.326 47.5796 55.0413 47.5796 53.538C47.5796 52.8547 47.6343 52.1577 47.7436 51.447C47.8529 50.709 47.9896 49.971 48.1536 49.233C48.3449 48.495 48.5363 47.7843 48.7276 47.101L51.8026 47.88C51.6933 48.29 51.5703 48.782 51.4336 49.356C51.2969 49.9027 51.1739 50.463 51.0646 51.037C50.9826 51.611 50.9416 52.1303 50.9416 52.595C50.9416 54.0163 51.2969 55.1643 52.0076 56.039C52.7456 56.8863 54.0166 57.515 55.8206 57.925C57.6246 58.3077 60.1529 58.499 63.4056 58.499L64.2256 60.549L62.3396 61.861Z" fill="black"/>
</svg>
