<svg width="100" height="100" viewBox="0 0 100 100" fill="none" xmlns="http://www.w3.org/2000/svg">
<rect x="5" y="5" width="90" height="90" rx="45" fill="#F3BA2F"/>
<circle cx="50" cy="50" r="42" fill="#F3BA2F"/>
<path d="M42.3984 54.3135H45.5859C45.4199 55.8408 44.9827 57.2077 44.2744 58.4141C43.5661 59.6204 42.5645 60.5778 41.2695 61.2861C39.9746 61.9834 38.3587 62.332 36.4219 62.332C35.0052 62.332 33.7158 62.0664 32.5537 61.5352C31.4027 61.0039 30.4121 60.2513 29.582 59.2773C28.752 58.2923 28.11 57.1136 27.6562 55.7412C27.2135 54.3577 26.9922 52.8193 26.9922 51.126V48.7188C26.9922 47.0254 27.2135 45.4925 27.6562 44.1201C28.11 42.7367 28.7575 41.5524 29.5986 40.5674C30.4508 39.5824 31.4746 38.8242 32.6699 38.293C33.8652 37.7617 35.21 37.4961 36.7041 37.4961C38.5303 37.4961 40.0742 37.8392 41.3359 38.5254C42.5977 39.2116 43.5771 40.1634 44.2744 41.3809C44.9827 42.5872 45.4199 43.9873 45.5859 45.5811H42.3984C42.2435 44.4521 41.9557 43.4837 41.5352 42.6758C41.1146 41.8568 40.5169 41.2259 39.7422 40.7832C38.9674 40.3405 37.9548 40.1191 36.7041 40.1191C35.6305 40.1191 34.6842 40.3239 33.8652 40.7334C33.0573 41.1429 32.3766 41.724 31.8232 42.4766C31.2809 43.2292 30.8714 44.1312 30.5947 45.1826C30.318 46.234 30.1797 47.4017 30.1797 48.6855V51.126C30.1797 52.3102 30.3014 53.4225 30.5449 54.4629C30.7995 55.5033 31.1813 56.4163 31.6904 57.2021C32.1995 57.988 32.847 58.6077 33.6328 59.0615C34.4186 59.5042 35.3483 59.7256 36.4219 59.7256C37.7832 59.7256 38.8678 59.5098 39.6758 59.0781C40.4837 58.6465 41.0924 58.0267 41.502 57.2188C41.9225 56.4108 42.2214 55.4424 42.3984 54.3135ZM53.3887 37.8281V62H50.1846V37.8281H53.3887ZM67.5996 33.9102V38.9736H65.1094V33.9102H67.5996ZM67.3008 61.0205V65.4531H64.8271V61.0205H67.3008ZM70.6211 55.7744C70.6211 55.1104 70.4717 54.5127 70.1729 53.9814C69.874 53.4502 69.3815 52.9632 68.6953 52.5205C68.0091 52.0778 67.0905 51.6683 65.9395 51.292C64.5449 50.8604 63.3385 50.3346 62.3203 49.7148C61.3132 49.0951 60.5329 48.3258 59.9795 47.4072C59.4372 46.4886 59.166 45.3763 59.166 44.0703C59.166 42.709 59.4593 41.5358 60.0459 40.5508C60.6325 39.5658 61.4626 38.8076 62.5361 38.2764C63.6097 37.7451 64.8714 37.4795 66.3213 37.4795C67.4502 37.4795 68.4574 37.651 69.3428 37.9941C70.2282 38.3262 70.9753 38.8242 71.584 39.4883C72.2038 40.1523 72.6742 40.9658 72.9951 41.9287C73.3271 42.8916 73.4932 44.0039 73.4932 45.2656H70.4385C70.4385 44.5241 70.3499 43.8434 70.1729 43.2236C69.9958 42.6038 69.7301 42.0671 69.376 41.6133C69.0218 41.1484 68.5902 40.7943 68.0811 40.5508C67.5719 40.2962 66.9854 40.1689 66.3213 40.1689C65.3916 40.1689 64.6224 40.3294 64.0137 40.6504C63.416 40.9714 62.9733 41.4251 62.6855 42.0117C62.3978 42.5872 62.2539 43.2568 62.2539 44.0205C62.2539 44.7288 62.3978 45.3486 62.6855 45.8799C62.9733 46.4111 63.4603 46.8926 64.1465 47.3242C64.8438 47.7448 65.8011 48.1598 67.0186 48.5693C68.4463 49.0231 69.6582 49.5599 70.6543 50.1797C71.6504 50.7884 72.4085 51.541 72.9287 52.4375C73.4489 53.3229 73.709 54.4242 73.709 55.7412C73.709 57.1689 73.388 58.3753 72.7461 59.3604C72.1042 60.3343 71.2021 61.0758 70.04 61.585C68.8779 62.0941 67.5166 62.3486 65.9561 62.3486C65.0153 62.3486 64.0856 62.2214 63.167 61.9668C62.2484 61.7122 61.4183 61.2972 60.6768 60.7217C59.9352 60.1351 59.3431 59.3659 58.9004 58.4141C58.4577 57.4512 58.2363 56.2725 58.2363 54.8779H61.3242C61.3242 55.8187 61.457 56.599 61.7227 57.2188C61.9993 57.8275 62.3646 58.3145 62.8184 58.6797C63.2721 59.0339 63.7702 59.2884 64.3125 59.4434C64.8659 59.5872 65.4137 59.6592 65.9561 59.6592C66.9521 59.6592 67.7933 59.5042 68.4795 59.1943C69.1768 58.8734 69.708 58.4196 70.0732 57.833C70.4385 57.2464 70.6211 56.5602 70.6211 55.7744Z" fill="black"/>
</svg>
