<svg width="100" height="100" viewBox="0 0 100 100" fill="none" xmlns="http://www.w3.org/2000/svg">
<rect x="5" y="5" width="90" height="90" rx="45" fill="#F3BA2F"/>
<circle cx="50" cy="50" r="42" fill="#F3BA2F"/>
<path d="M20.99 57.033C20.99 56.505 21.034 55.944 21.122 55.35C21.232 54.734 21.386 54.085 21.584 53.403C21.804 52.699 22.068 51.962 22.376 51.192L24.752 52.116C24.532 52.732 24.334 53.315 24.158 53.865C24.004 54.415 23.883 54.932 23.795 55.416C23.729 55.9 23.696 56.362 23.696 56.802C23.696 57.858 23.971 58.771 24.521 59.541C25.093 60.311 25.874 60.905 26.864 61.323C27.854 61.741 29.009 61.95 30.329 61.95C31.935 61.95 33.255 61.719 34.289 61.257C35.345 60.795 36.159 60.091 36.731 59.145C37.325 58.199 37.721 57 37.919 55.548C38.117 54.074 38.183 52.347 38.117 50.367L37.49 33.438H40.229L40.79 51.06C40.834 52.534 40.768 53.953 40.592 55.317C40.438 56.659 40.13 57.891 39.668 59.013C39.206 60.157 38.568 61.147 37.754 61.983C36.94 62.841 35.917 63.501 34.685 63.963C33.453 64.425 31.968 64.656 30.23 64.656C29.064 64.656 27.931 64.502 26.831 64.194C25.731 63.886 24.741 63.424 23.861 62.808C22.981 62.192 22.277 61.4 21.749 60.432C21.243 59.486 20.99 58.353 20.99 57.033ZM45.2656 55.4209C45.2656 54.916 45.4214 54.4917 45.7329 54.1479C46.0552 53.7935 46.5171 53.6162 47.1187 53.6162C47.7202 53.6162 48.1768 53.7935 48.4883 54.1479C48.8105 54.4917 48.9717 54.916 48.9717 55.4209C48.9717 55.915 48.8105 56.334 48.4883 56.6777C48.1768 57.0215 47.7202 57.1934 47.1187 57.1934C46.5171 57.1934 46.0552 57.0215 45.7329 56.6777C45.4214 56.334 45.2656 55.915 45.2656 55.4209ZM52.6365 57.033C52.6365 56.505 52.6805 55.944 52.7685 55.35C52.8785 54.734 53.0325 54.085 53.2305 53.403C53.4505 52.699 53.7145 51.962 54.0225 51.192L56.3985 52.116C56.1785 52.732 55.9805 53.315 55.8045 53.865C55.6505 54.415 55.5295 54.932 55.4415 55.416C55.3755 55.9 55.3425 56.362 55.3425 56.802C55.3425 57.858 55.6175 58.771 56.1675 59.541C56.7395 60.311 57.5205 60.905 58.5105 61.323C59.5005 61.741 60.6555 61.95 61.9755 61.95C63.5815 61.95 64.9015 61.719 65.9355 61.257C66.9915 60.795 67.8055 60.091 68.3775 59.145C68.9715 58.199 69.3675 57 69.5655 55.548C69.7635 54.074 69.8295 52.347 69.7635 50.367L69.1365 33.438H71.8755L72.4365 51.06C72.4805 52.534 72.4145 53.953 72.2385 55.317C72.0845 56.659 71.7765 57.891 71.3145 59.013C70.8525 60.157 70.2145 61.147 69.4005 61.983C68.5865 62.841 67.5635 63.501 66.3315 63.963C65.0995 64.425 63.6145 64.656 61.8765 64.656C60.7105 64.656 59.5775 64.502 58.4775 64.194C57.3775 63.886 56.3875 63.424 55.5075 62.808C54.6275 62.192 53.9235 61.4 53.3955 60.432C52.8895 59.486 52.6365 58.353 52.6365 57.033ZM76.9121 55.4209C76.9121 54.916 77.0679 54.4917 77.3794 54.1479C77.7017 53.7935 78.1636 53.6162 78.7651 53.6162C79.3667 53.6162 79.8232 53.7935 80.1348 54.1479C80.457 54.4917 80.6182 54.916 80.6182 55.4209C80.6182 55.915 80.457 56.334 80.1348 56.6777C79.8232 57.0215 79.3667 57.1934 78.7651 57.1934C78.1636 57.1934 77.7017 57.0215 77.3794 56.6777C77.0679 56.334 76.9121 55.915 76.9121 55.4209Z" fill="black"/>
</svg>
