<svg width="100" height="100" viewBox="0 0 100 100" fill="none" xmlns="http://www.w3.org/2000/svg">
<rect x="5" y="5" width="90" height="90" rx="45" fill="#F3BA2F"/>
<circle cx="50" cy="50" r="42" fill="#F3BA2F"/>
<path d="M64.7846 43.283C66.3613 43.283 67.7373 43.6987 68.9126 44.53C70.0879 45.3327 71.0053 46.5223 71.6646 48.099C72.3239 49.6757 72.6536 51.582 72.6536 53.818C72.6536 56.3407 72.2809 58.548 71.5356 60.44C70.7903 62.3607 69.7583 63.9803 68.4396 65.299C67.1209 66.6177 65.5873 67.6783 63.8386 68.481C62.0899 69.2837 60.1836 69.8713 58.1196 70.244C56.0843 70.6167 53.9773 70.803 51.7986 70.803H50.6806C46.6386 70.803 43.1843 70.1723 40.3176 68.911C37.4796 67.6783 35.1576 65.9727 33.3516 63.794C31.5456 61.6153 30.2269 59.0927 29.3956 56.226C28.5643 53.3593 28.1486 50.292 28.1486 47.024C28.1486 45.2753 28.2919 43.5553 28.5786 41.864C28.8653 40.1727 29.3239 38.639 29.9546 37.263C30.6139 35.8583 31.5026 34.7403 32.6206 33.909C33.7386 33.0777 35.1289 32.662 36.7916 32.662C38.0816 32.662 39.1853 32.9343 40.1026 33.479C41.0199 34.0237 41.7223 34.769 42.2096 35.715C42.7256 36.6323 42.9836 37.693 42.9836 38.897C42.9836 40.2157 42.7113 41.3623 42.1666 42.337C41.6219 43.283 40.8479 44.014 39.8446 44.53C38.8699 45.0173 37.7233 45.261 36.4046 45.261C35.0286 45.261 33.7386 44.917 32.5346 44.229C31.3593 43.5123 30.2556 42.4947 29.2236 41.176L30.3846 38.166C31.2733 39.5133 32.1476 40.531 33.0076 41.219C33.8676 41.8783 34.8709 42.208 36.0176 42.208C37.0209 42.208 37.8379 41.9213 38.4686 41.348C39.1279 40.7747 39.4576 39.9147 39.4576 38.768C39.4576 37.736 39.1853 36.9477 38.6406 36.403C38.1246 35.8583 37.4223 35.586 36.5336 35.586C35.6449 35.586 34.8996 35.9013 34.2976 36.532C33.7243 37.134 33.2656 37.9223 32.9216 38.897C32.5776 39.843 32.3196 40.8463 32.1476 41.907C31.9756 42.9103 31.8609 43.885 31.8036 44.831C31.7749 45.777 31.7606 46.5797 31.7606 47.239C31.7606 50.3063 32.1619 53.087 32.9646 55.581C33.7673 58.0463 34.9713 60.1677 36.5766 61.945C38.2106 63.7223 40.2173 65.084 42.5966 66.03C45.0046 67.0047 47.7996 67.492 50.9816 67.492H51.6266C54.0919 67.492 56.3709 67.2483 58.4636 66.761C60.5849 66.2737 62.4196 65.4853 63.9676 64.396C65.5156 63.3067 66.7196 61.8733 67.5796 60.096C68.4396 58.3473 68.8696 56.2117 68.8696 53.689C68.8696 52.055 68.6833 50.7077 68.3106 49.647C67.9379 48.5577 67.3933 47.7407 66.6766 47.196C65.9886 46.6513 65.1429 46.379 64.1396 46.379C63.3369 46.379 62.5916 46.5367 61.9036 46.852C61.2156 47.1673 60.5849 47.5257 60.0116 47.927V44.788C60.5563 44.3867 61.2299 44.0427 62.0326 43.756C62.8353 43.4407 63.7526 43.283 64.7846 43.283ZM45.0906 57V33.178H67.5366V36.274H60.0116V57H56.3136V36.274H48.7886V57H45.0906Z" fill="black"/>
</svg>
