<svg width="100" height="100" viewBox="0 0 100 100" fill="none" xmlns="http://www.w3.org/2000/svg">
<rect x="5" y="5" width="90" height="90" rx="45" fill="#F3BA2F"/>
<circle cx="50" cy="50" r="42" fill="#F3BA2F"/>
<path d="M48.8672 61.627V65H33.2266V61.627H48.8672ZM34.043 33.7188V65H29.8965V33.7188H34.043ZM64.4648 28.6484V35.2012H61.2422V28.6484H64.4648ZM64.0781 63.7324V69.4688H60.877V63.7324H64.0781ZM68.375 56.9434C68.375 56.084 68.1816 55.3105 67.7949 54.623C67.4082 53.9355 66.7708 53.3053 65.8828 52.7324C64.9948 52.1595 63.806 51.6296 62.3164 51.1426C60.5117 50.584 58.9505 49.9036 57.6328 49.1016C56.3294 48.2995 55.3197 47.304 54.6035 46.1152C53.9017 44.9264 53.5508 43.487 53.5508 41.7969C53.5508 40.0352 53.9303 38.5169 54.6895 37.2422C55.4486 35.9674 56.5228 34.9863 57.9121 34.2988C59.3014 33.6113 60.9342 33.2676 62.8105 33.2676C64.2715 33.2676 65.5749 33.4896 66.7207 33.9336C67.8665 34.3633 68.8333 35.0078 69.6211 35.8672C70.4232 36.7266 71.0319 37.7793 71.4473 39.0254C71.877 40.2715 72.0918 41.7109 72.0918 43.3438H68.1387C68.1387 42.3841 68.0241 41.5033 67.7949 40.7012C67.5658 39.8991 67.222 39.2044 66.7637 38.6172C66.3053 38.0156 65.7467 37.5573 65.0879 37.2422C64.429 36.9128 63.6699 36.748 62.8105 36.748C61.6074 36.748 60.612 36.9557 59.8242 37.3711C59.0508 37.7865 58.4779 38.3737 58.1055 39.1328C57.7331 39.8776 57.5469 40.7441 57.5469 41.7324C57.5469 42.6491 57.7331 43.4512 58.1055 44.1387C58.4779 44.8262 59.1081 45.4492 59.9961 46.0078C60.8984 46.5521 62.1374 47.0892 63.7129 47.6191C65.5605 48.2064 67.1289 48.901 68.418 49.7031C69.707 50.4909 70.6882 51.4648 71.3613 52.625C72.0345 53.7708 72.3711 55.196 72.3711 56.9004C72.3711 58.748 71.9557 60.3092 71.125 61.584C70.2943 62.8444 69.127 63.804 67.623 64.4629C66.1191 65.1217 64.3574 65.4512 62.3379 65.4512C61.1204 65.4512 59.9173 65.2865 58.7285 64.957C57.5397 64.6276 56.4655 64.0905 55.5059 63.3457C54.5462 62.5866 53.7799 61.5911 53.207 60.3594C52.6341 59.1133 52.3477 57.5879 52.3477 55.7832H56.3438C56.3438 57.0007 56.5156 58.0104 56.8594 58.8125C57.2174 59.6003 57.6901 60.2305 58.2773 60.7031C58.8646 61.1615 59.5091 61.4909 60.2109 61.6914C60.9271 61.8776 61.6361 61.9707 62.3379 61.9707C63.627 61.9707 64.7155 61.7702 65.6035 61.3691C66.5059 60.9538 67.1934 60.3665 67.666 59.6074C68.1387 58.8483 68.375 57.9603 68.375 56.9434Z" fill="black"/>
</svg>
