<svg width="100" height="100" viewBox="0 0 100 100" fill="none" xmlns="http://www.w3.org/2000/svg">
<rect x="5" y="5" width="90" height="90" rx="45" fill="#F3BA2F"/>
<circle cx="50" cy="50" r="42" fill="#F3BA2F"/>
<path d="M53.7227 60.9336V64H39.5039V60.9336H53.7227ZM40.2461 35.5625V64H36.4766V35.5625H40.2461ZM66.3398 42.8672V45.6406H54.9141V42.8672H66.3398ZM58.7812 37.7305H62.3945V58.7656C62.3945 59.4818 62.5052 60.0221 62.7266 60.3867C62.9479 60.7513 63.2344 60.9922 63.5859 61.1094C63.9375 61.2266 64.3151 61.2852 64.7188 61.2852C65.0182 61.2852 65.3307 61.2591 65.6562 61.207C65.9948 61.1419 66.2487 61.0898 66.418 61.0508L66.4375 64C66.151 64.0911 65.7734 64.1758 65.3047 64.2539C64.849 64.3451 64.2956 64.3906 63.6445 64.3906C62.7591 64.3906 61.9453 64.2148 61.2031 63.8633C60.4609 63.5117 59.8685 62.9258 59.4258 62.1055C58.9961 61.2721 58.7812 60.1523 58.7812 58.7461V37.7305Z" fill="black"/>
</svg>
