<svg width="100" height="100" viewBox="0 0 100 100" fill="none" xmlns="http://www.w3.org/2000/svg">
<rect x="5" y="5" width="90" height="90" rx="45" fill="#F3BA2F"/>
<circle cx="50" cy="50" r="42" fill="#F3BA2F"/>
<path d="M22.23 58.041C22.23 57.385 22.2847 56.688 22.394 55.95C22.5307 55.1847 22.722 54.3783 22.968 53.531C23.2413 52.6563 23.5693 51.7407 23.952 50.784L26.904 51.932C26.6307 52.6973 26.3847 53.4217 26.166 54.105C25.9747 54.7883 25.8243 55.4307 25.715 56.032C25.633 56.6333 25.592 57.2073 25.592 57.754C25.592 59.066 25.9337 60.2003 26.617 61.157C27.3277 62.1137 28.298 62.8517 29.528 63.371C30.758 63.8903 32.193 64.15 33.833 64.15C35.8283 64.15 37.4683 63.863 38.753 63.289C40.065 62.715 41.0763 61.8403 41.787 60.665C42.525 59.4897 43.017 58 43.263 56.196C43.509 54.3647 43.591 52.219 43.509 49.759L42.73 28.726H46.133L46.83 50.62C46.8847 52.4513 46.8027 54.2143 46.584 55.909C46.3927 57.5763 46.01 59.107 45.436 60.501C44.862 61.9223 44.0693 63.1523 43.058 64.191C42.0467 65.257 40.7757 66.077 39.245 66.651C37.7143 67.225 35.8693 67.512 33.71 67.512C32.2613 67.512 30.8537 67.3207 29.487 66.938C28.1203 66.5553 26.8903 65.9813 25.797 65.216C24.7037 64.4507 23.829 63.4667 23.173 62.264C22.5443 61.0887 22.23 59.681 22.23 58.041ZM52.3906 56.0381C52.3906 55.4108 52.5841 54.8836 52.9712 54.4565C53.3716 54.0161 53.9455 53.7959 54.6929 53.7959C55.4403 53.7959 56.0075 54.0161 56.3945 54.4565C56.7949 54.8836 56.9951 55.4108 56.9951 56.0381C56.9951 56.652 56.7949 57.1725 56.3945 57.5996C56.0075 58.0267 55.4403 58.2402 54.6929 58.2402C53.9455 58.2402 53.3716 58.0267 52.9712 57.5996C52.5841 57.1725 52.3906 56.652 52.3906 56.0381ZM61.7534 56.155L63.3934 53.326C63.94 53.6813 64.7054 54.023 65.6894 54.351C66.6734 54.679 67.8214 54.843 69.1334 54.843C70.5 54.843 71.5797 54.7063 72.3724 54.433C73.1924 54.1597 73.78 53.7633 74.1354 53.244C74.518 52.6973 74.7094 52.0687 74.7094 51.358C74.7094 50.8113 74.5864 50.1417 74.3404 49.349C74.1217 48.529 73.6297 47.4357 72.8644 46.069C72.099 44.675 70.9237 42.8573 69.3384 40.616L72.1674 38.771C73.616 40.7663 74.764 42.5703 75.6114 44.183C76.486 45.7957 77.101 47.217 77.4564 48.447C77.839 49.6497 78.0304 50.6883 78.0304 51.563C78.0304 52.6563 77.757 53.7223 77.2104 54.761C76.6637 55.7723 75.748 56.606 74.4634 57.262C73.1787 57.918 71.402 58.246 69.1334 58.246C68.1494 58.246 67.1927 58.164 66.2634 58C65.3614 57.836 64.5277 57.6037 63.7624 57.303C62.997 56.975 62.3274 56.5923 61.7534 56.155Z" fill="black"/>
</svg>
