<svg width="100" height="100" viewBox="0 0 100 100" fill="none" xmlns="http://www.w3.org/2000/svg">
<rect x="5" y="5" width="90" height="90" rx="45" fill="#F3BA2F"/>
<circle cx="50" cy="50" r="42" fill="#F3BA2F"/>
<path d="M16.8184 37.8281H19.9229L27.8418 57.5342L35.7441 37.8281H38.8652L29.0371 62H26.6133L16.8184 37.8281ZM15.8057 37.8281H18.5449L18.9932 52.5703V62H15.8057V37.8281ZM37.1221 37.8281H39.8613V62H36.6738V52.5703L37.1221 37.8281ZM54.7363 39.9697L46.7344 62H43.4639L52.6777 37.8281H54.7861L54.7363 39.9697ZM61.4434 62L53.4248 39.9697L53.375 37.8281H55.4834L64.7305 62H61.4434ZM61.0283 53.0518V55.6748H47.4482V53.0518H61.0283ZM74.5088 62H69.4619L69.4951 59.3936H74.5088C76.2354 59.3936 77.6742 59.0339 78.8252 58.3145C79.9762 57.584 80.8395 56.5658 81.415 55.2598C82.0016 53.9427 82.2949 52.4043 82.2949 50.6445V49.167C82.2949 47.7835 82.1289 46.555 81.7969 45.4814C81.4648 44.3968 80.9779 43.4837 80.3359 42.7422C79.694 41.9896 78.9082 41.4196 77.9785 41.0322C77.0599 40.6449 76.0029 40.4512 74.8076 40.4512H69.3623V37.8281H74.8076C76.3903 37.8281 77.8346 38.0938 79.1406 38.625C80.4466 39.1452 81.57 39.9033 82.5107 40.8994C83.4626 41.8844 84.193 43.0798 84.7021 44.4854C85.2113 45.8799 85.4658 47.4515 85.4658 49.2002V50.6445C85.4658 52.3932 85.2113 53.9704 84.7021 55.376C84.193 56.7705 83.457 57.9603 82.4941 58.9453C81.5423 59.9303 80.3913 60.6885 79.041 61.2197C77.7018 61.7399 76.1911 62 74.5088 62ZM71.1719 37.8281V62H67.9678V37.8281H71.1719Z" fill="black"/>
</svg>
