<svg width="100" height="100" viewBox="0 0 100 100" fill="none" xmlns="http://www.w3.org/2000/svg">
<rect x="5" y="5" width="90" height="90" rx="45" fill="#F3BA2F"/>
<circle cx="50" cy="50" r="42" fill="#F3BA2F"/>
<path d="M43.8281 37.082L34.4141 63H30.5664L41.4062 34.5625H43.8867L43.8281 37.082ZM51.7188 63L42.2852 37.082L42.2266 34.5625H44.707L55.5859 63H51.7188ZM51.2305 52.4727V55.5586H35.2539V52.4727H51.2305ZM62.4609 45.1875V63H58.8477V41.8672H62.3633L62.4609 45.1875ZM69.0625 41.75L69.043 45.1094C68.7435 45.0443 68.457 45.0052 68.1836 44.9922C67.9232 44.9661 67.6237 44.9531 67.2852 44.9531C66.4518 44.9531 65.7161 45.0833 65.0781 45.3438C64.4401 45.6042 63.8997 45.9688 63.457 46.4375C63.0143 46.9062 62.6628 47.4661 62.4023 48.1172C62.1549 48.7552 61.9922 49.4583 61.9141 50.2266L60.8984 50.8125C60.8984 49.5365 61.0221 48.3385 61.2695 47.2188C61.5299 46.099 61.9271 45.1094 62.4609 44.25C62.9948 43.3776 63.6719 42.7005 64.4922 42.2188C65.3255 41.724 66.3151 41.4766 67.4609 41.4766C67.7214 41.4766 68.0208 41.5091 68.3594 41.5742C68.6979 41.6263 68.9323 41.6849 69.0625 41.75Z" fill="black"/>
</svg>
