<svg width="100" height="100" viewBox="0 0 100 100" fill="none" xmlns="http://www.w3.org/2000/svg">
<rect x="5" y="5" width="90" height="90" rx="45" fill="#F3BA2F"/>
<circle cx="50" cy="50" r="42" fill="#F3BA2F"/>
<path d="M41.3574 58.7002V61H25.2148V58.7002H41.3574ZM25.6689 58.7002V66.2441H22.8711L22.8564 58.7002H25.6689ZM43.8184 58.7002L43.7891 66.2295H40.9912V58.7002H43.8184ZM38.5889 39.6719V41.9863H29.2432V39.6719H38.5889ZM41.0205 39.6719V61H38.208V39.6719H41.0205ZM28.2764 39.6719H31.1035L30.6641 48.2559C30.6055 49.5449 30.4834 50.7363 30.2979 51.8301C30.1123 52.9141 29.8828 53.9053 29.6094 54.8037C29.3359 55.7021 29.0234 56.5078 28.6719 57.2207C28.3203 57.9238 27.9443 58.5342 27.5439 59.0518C27.1436 59.5596 26.7236 59.9795 26.2842 60.3115C25.8545 60.6338 25.4199 60.8633 24.9805 61H23.6914V58.7002H24.5996C24.8535 58.4268 25.1416 58.0312 25.4639 57.5137C25.7959 56.9961 26.123 56.3271 26.4453 55.5068C26.7773 54.6768 27.0654 53.666 27.3096 52.4746C27.5635 51.2832 27.7344 49.877 27.8223 48.2559L28.2764 39.6719ZM53.3105 61.293C52.207 61.293 51.2061 61.1074 50.3076 60.7363C49.4189 60.3555 48.6523 59.8232 48.0078 59.1396C47.373 58.4561 46.8848 57.6455 46.543 56.708C46.2012 55.7705 46.0303 54.7451 46.0303 53.6318V53.0166C46.0303 51.7275 46.2207 50.5801 46.6016 49.5742C46.9824 48.5586 47.5 47.6992 48.1543 46.9961C48.8086 46.293 49.5508 45.7607 50.3809 45.3994C51.2109 45.0381 52.0703 44.8574 52.959 44.8574C54.0918 44.8574 55.0684 45.0527 55.8887 45.4434C56.7188 45.834 57.3975 46.3809 57.9248 47.084C58.4521 47.7773 58.8428 48.5977 59.0967 49.5449C59.3506 50.4824 59.4775 51.5078 59.4775 52.6211V53.8369H47.6416V51.625H56.7676V51.4199C56.7285 50.7168 56.582 50.0332 56.3281 49.3691C56.084 48.7051 55.6934 48.1582 55.1562 47.7285C54.6191 47.2988 53.8867 47.084 52.959 47.084C52.3438 47.084 51.7773 47.2158 51.2598 47.4795C50.7422 47.7334 50.2979 48.1143 49.9268 48.6221C49.5557 49.1299 49.2676 49.75 49.0625 50.4824C48.8574 51.2148 48.7549 52.0596 48.7549 53.0166V53.6318C48.7549 54.3838 48.8574 55.0918 49.0625 55.7559C49.2773 56.4102 49.585 56.9863 49.9854 57.4844C50.3955 57.9824 50.8887 58.373 51.4648 58.6562C52.0508 58.9395 52.7148 59.0811 53.457 59.0811C54.4141 59.0811 55.2246 58.8857 55.8887 58.4951C56.5527 58.1045 57.1338 57.582 57.6318 56.9277L59.2725 58.2314C58.9307 58.749 58.4961 59.2422 57.9688 59.7109C57.4414 60.1797 56.792 60.5605 56.0205 60.8535C55.2588 61.1465 54.3555 61.293 53.3105 61.293ZM73.3936 52.0205V54.2178H65.0146V52.0205H73.3936ZM65.5859 45.1504V61H62.876V45.1504H65.5859ZM75.5908 45.1504V61H72.8662V45.1504H75.5908Z" fill="black"/>
</svg>
