<svg width="100" height="100" viewBox="0 0 100 100" fill="none" xmlns="http://www.w3.org/2000/svg">
<rect x="5" y="5" width="90" height="90" rx="45" fill="#F3BA2F"/>
<circle cx="50" cy="50" r="42" fill="#F3BA2F"/>
<path d="M18.8076 41.2266H21.0903L26.9131 55.7163L32.7236 41.2266H35.0186L27.792 59H26.0098L18.8076 41.2266ZM18.063 41.2266H20.0771L20.4067 52.0664V59H18.063V41.2266ZM33.7368 41.2266H35.751V59H33.4072V52.0664L33.7368 41.2266ZM53.5732 49.5518V50.6748C53.5732 52.0094 53.4064 53.2057 53.0728 54.2637C52.7391 55.3216 52.259 56.2209 51.6323 56.9614C51.0057 57.702 50.2529 58.2676 49.374 58.6582C48.5033 59.0488 47.5267 59.2441 46.4443 59.2441C45.3945 59.2441 44.4302 59.0488 43.5513 58.6582C42.6805 58.2676 41.9237 57.702 41.2808 56.9614C40.646 56.2209 40.1536 55.3216 39.8037 54.2637C39.4538 53.2057 39.2788 52.0094 39.2788 50.6748V49.5518C39.2788 48.2171 39.4497 47.0249 39.7915 45.9751C40.1414 44.9172 40.6338 44.0179 41.2686 43.2773C41.9033 42.5286 42.6561 41.959 43.5269 41.5684C44.4058 41.1777 45.3701 40.9824 46.4199 40.9824C47.5023 40.9824 48.4788 41.1777 49.3496 41.5684C50.2285 41.959 50.9813 42.5286 51.6079 43.2773C52.2427 44.0179 52.7269 44.9172 53.0605 45.9751C53.4023 47.0249 53.5732 48.2171 53.5732 49.5518ZM51.2417 50.6748V49.5273C51.2417 48.4694 51.1318 47.5335 50.9121 46.7197C50.7005 45.9059 50.3872 45.2223 49.9722 44.6689C49.5571 44.1156 49.0485 43.6965 48.4463 43.4116C47.8522 43.1268 47.1768 42.9844 46.4199 42.9844C45.6875 42.9844 45.0243 43.1268 44.4302 43.4116C43.8442 43.6965 43.3397 44.1156 42.9165 44.6689C42.5015 45.2223 42.18 45.9059 41.9521 46.7197C41.7243 47.5335 41.6104 48.4694 41.6104 49.5273V50.6748C41.6104 51.7409 41.7243 52.6849 41.9521 53.5068C42.18 54.3206 42.5055 55.0083 42.9287 55.5698C43.36 56.1232 43.8687 56.5423 44.4546 56.8271C45.0487 57.112 45.7119 57.2544 46.4443 57.2544C47.2093 57.2544 47.8888 57.112 48.4829 56.8271C49.077 56.5423 49.5775 56.1232 49.9844 55.5698C50.3994 55.0083 50.7127 54.3206 50.9243 53.5068C51.1359 52.6849 51.2417 51.7409 51.2417 50.6748ZM63.6562 52.0298H58.9077V50.1133H63.6562C64.5758 50.1133 65.3205 49.9668 65.8901 49.6738C66.4598 49.3809 66.8748 48.974 67.1353 48.4531C67.4038 47.9323 67.5381 47.3382 67.5381 46.6709C67.5381 46.0605 67.4038 45.4868 67.1353 44.9497C66.8748 44.4126 66.4598 43.9813 65.8901 43.6558C65.3205 43.3221 64.5758 43.1553 63.6562 43.1553H59.457V59H57.1011V41.2266H63.6562C64.999 41.2266 66.1343 41.4585 67.062 41.9224C67.9897 42.3862 68.6937 43.0291 69.1738 43.8511C69.654 44.6649 69.894 45.5967 69.894 46.6465C69.894 47.7858 69.654 48.7583 69.1738 49.564C68.6937 50.3696 67.9897 50.984 67.062 51.4072C66.1343 51.8223 64.999 52.0298 63.6562 52.0298ZM79.0371 38.3457V42.0688H77.2061V38.3457H79.0371ZM78.8174 58.2798V61.5391H76.9985V58.2798H78.8174ZM81.2588 54.4224C81.2588 53.9341 81.1489 53.4946 80.9292 53.104C80.7095 52.7134 80.3473 52.3553 79.8428 52.0298C79.3382 51.7043 78.6628 51.4032 77.8164 51.1265C76.791 50.8091 75.904 50.4225 75.1553 49.9668C74.4147 49.5111 73.841 48.9455 73.4341 48.27C73.0353 47.5946 72.8359 46.7767 72.8359 45.8164C72.8359 44.8154 73.0516 43.9528 73.4829 43.2285C73.9142 42.5042 74.5246 41.9468 75.314 41.5562C76.1034 41.1655 77.0311 40.9702 78.0972 40.9702C78.9272 40.9702 79.6678 41.0964 80.3188 41.3486C80.9699 41.5928 81.5192 41.959 81.9668 42.4473C82.4225 42.9355 82.7684 43.5337 83.0044 44.2417C83.2485 44.9497 83.3706 45.7676 83.3706 46.6953H81.1245C81.1245 46.1501 81.0594 45.6496 80.9292 45.1938C80.799 44.7381 80.6037 44.3434 80.3433 44.0098C80.0828 43.668 79.7655 43.4076 79.3911 43.2285C79.0168 43.0413 78.5854 42.9478 78.0972 42.9478C77.4136 42.9478 76.848 43.0658 76.4004 43.3018C75.9609 43.5378 75.6354 43.8714 75.4238 44.3027C75.2122 44.7259 75.1064 45.2183 75.1064 45.7798C75.1064 46.3006 75.2122 46.7563 75.4238 47.147C75.6354 47.5376 75.9935 47.8916 76.498 48.209C77.0107 48.5182 77.7147 48.8234 78.6099 49.1245C79.6597 49.4582 80.5508 49.8529 81.2832 50.3086C82.0156 50.7562 82.5731 51.3096 82.9556 51.9688C83.3381 52.6198 83.5293 53.4295 83.5293 54.3979C83.5293 55.4478 83.2933 56.3348 82.8213 57.0591C82.3493 57.7752 81.686 58.3205 80.8315 58.6948C79.9771 59.0692 78.9761 59.2563 77.8286 59.2563C77.1369 59.2563 76.4533 59.1628 75.7778 58.9756C75.1024 58.7884 74.492 58.4832 73.9468 58.0601C73.4015 57.6287 72.9661 57.0632 72.6406 56.3633C72.3151 55.6553 72.1523 54.7886 72.1523 53.7632H74.4229C74.4229 54.4549 74.5205 55.0286 74.7158 55.4844C74.9193 55.932 75.1878 56.29 75.5215 56.5586C75.8551 56.819 76.2214 57.0062 76.6201 57.1201C77.027 57.2259 77.4299 57.2788 77.8286 57.2788C78.561 57.2788 79.1795 57.1649 79.6841 56.937C80.1968 56.701 80.5874 56.3674 80.856 55.936C81.1245 55.5047 81.2588 55.0002 81.2588 54.4224Z" fill="black"/>
</svg>
