<svg width="100" height="100" viewBox="0 0 100 100" fill="none" xmlns="http://www.w3.org/2000/svg">
<rect x="5" y="5" width="90" height="90" rx="45" fill="#F3BA2F"/>
<circle cx="50" cy="50" r="42" fill="#F3BA2F"/>
<path d="M24.5625 34.5625H28.2148L37.5312 57.7461L46.8281 34.5625H50.5L38.9375 63H36.0859L24.5625 34.5625ZM23.3711 34.5625H26.5938L27.1211 51.9062V63H23.3711V34.5625ZM48.4492 34.5625H51.6719V63H47.9219V51.9062L48.4492 34.5625ZM74.5625 34.5625H78.3125V53.8008C78.3125 55.9362 77.8372 57.7135 76.8867 59.1328C75.9362 60.5521 74.6732 61.6198 73.0977 62.3359C71.5352 63.0391 69.8359 63.3906 68 63.3906C66.0729 63.3906 64.3281 63.0391 62.7656 62.3359C61.2161 61.6198 59.9857 60.5521 59.0742 59.1328C58.1758 57.7135 57.7266 55.9362 57.7266 53.8008V34.5625H61.457V53.8008C61.457 55.2852 61.7305 56.5091 62.2773 57.4727C62.8242 58.4362 63.5859 59.1523 64.5625 59.6211C65.5521 60.0898 66.6979 60.3242 68 60.3242C69.3151 60.3242 70.4609 60.0898 71.4375 59.6211C72.4271 59.1523 73.1953 58.4362 73.7422 57.4727C74.2891 56.5091 74.5625 55.2852 74.5625 53.8008V34.5625Z" fill="black"/>
</svg>
