<svg width="100" height="100" viewBox="0 0 100 100" fill="none" xmlns="http://www.w3.org/2000/svg">
<rect x="5" y="5" width="90" height="90" rx="45" fill="#F3BA2F"/>
<circle cx="50" cy="50" r="42" fill="#F3BA2F"/>
<path d="M32.6484 35.5625H42.0625C44.1979 35.5625 46.0013 35.888 47.4727 36.5391C48.957 37.1901 50.0833 38.1536 50.8516 39.4297C51.6328 40.6927 52.0234 42.2487 52.0234 44.0977C52.0234 45.3997 51.7565 46.5911 51.2227 47.6719C50.7018 48.7396 49.9466 49.651 48.957 50.4062C47.9805 51.1484 46.8086 51.7018 45.4414 52.0664L44.3867 52.4766H35.5391L35.5 49.4102H42.1797C43.5339 49.4102 44.6602 49.1758 45.5586 48.707C46.457 48.2253 47.1341 47.5807 47.5898 46.7734C48.0456 45.9661 48.2734 45.0742 48.2734 44.0977C48.2734 43.0039 48.0586 42.0469 47.6289 41.2266C47.1992 40.4062 46.5221 39.7747 45.5977 39.332C44.6862 38.8763 43.5078 38.6484 42.0625 38.6484H36.418V64H32.6484V35.5625ZM49.2695 64L42.3555 51.1094L46.2812 51.0898L53.293 63.7656V64H49.2695ZM66.0664 58.3945C66.0664 57.8737 65.9492 57.3919 65.7148 56.9492C65.4935 56.4935 65.0312 56.0833 64.3281 55.7188C63.638 55.3411 62.5964 55.0156 61.2031 54.7422C60.0312 54.4948 58.9701 54.2018 58.0195 53.8633C57.082 53.5247 56.2812 53.1146 55.6172 52.6328C54.9661 52.151 54.4648 51.5846 54.1133 50.9336C53.7617 50.2826 53.5859 49.5208 53.5859 48.6484C53.5859 47.8151 53.7682 47.0273 54.1328 46.2852C54.5104 45.543 55.0378 44.8854 55.7148 44.3125C56.4049 43.7396 57.2318 43.2904 58.1953 42.9648C59.1589 42.6393 60.2331 42.4766 61.418 42.4766C63.1107 42.4766 64.556 42.776 65.7539 43.375C66.9518 43.974 67.8698 44.7747 68.5078 45.7773C69.1458 46.7669 69.4648 47.8672 69.4648 49.0781H65.8516C65.8516 48.4922 65.6758 47.9258 65.3242 47.3789C64.9857 46.819 64.4844 46.3568 63.8203 45.9922C63.1693 45.6276 62.3685 45.4453 61.418 45.4453C60.4154 45.4453 59.6016 45.6016 58.9766 45.9141C58.3646 46.2135 57.9154 46.5977 57.6289 47.0664C57.3555 47.5352 57.2188 48.0299 57.2188 48.5508C57.2188 48.9414 57.2839 49.293 57.4141 49.6055C57.5573 49.9049 57.8047 50.1849 58.1562 50.4453C58.5078 50.6927 59.0026 50.9271 59.6406 51.1484C60.2786 51.3698 61.0924 51.5911 62.082 51.8125C63.8138 52.2031 65.2396 52.6719 66.3594 53.2188C67.4792 53.7656 68.3125 54.4362 68.8594 55.2305C69.4062 56.0247 69.6797 56.9883 69.6797 58.1211C69.6797 59.0456 69.4844 59.8919 69.0938 60.6602C68.7161 61.4284 68.1628 62.0924 67.4336 62.6523C66.7174 63.1992 65.8581 63.6289 64.8555 63.9414C63.8659 64.2409 62.7526 64.3906 61.5156 64.3906C59.6536 64.3906 58.0781 64.0586 56.7891 63.3945C55.5 62.7305 54.5234 61.8711 53.8594 60.8164C53.1953 59.7617 52.8633 58.6484 52.8633 57.4766H56.4961C56.5482 58.4661 56.8346 59.2539 57.3555 59.8398C57.8763 60.4128 58.5143 60.8229 59.2695 61.0703C60.0247 61.3047 60.7734 61.4219 61.5156 61.4219C62.5052 61.4219 63.332 61.2917 63.9961 61.0312C64.6732 60.7708 65.1875 60.4128 65.5391 59.957C65.8906 59.5013 66.0664 58.9805 66.0664 58.3945Z" fill="black"/>
</svg>
