<svg width="100" height="100" viewBox="0 0 100 100" fill="none" xmlns="http://www.w3.org/2000/svg">
<rect x="5" y="5" width="90" height="90" rx="45" fill="#F3BA2F"/>
<circle cx="50" cy="50" r="42" fill="#F3BA2F"/>
<path d="M24.4922 35.5625H28.1445L37.4609 58.7461L46.7578 35.5625H50.4297L38.8672 64H36.0156L24.4922 35.5625ZM23.3008 35.5625H26.5234L27.0508 52.9062V64H23.3008V35.5625ZM48.3789 35.5625H51.6016V64H47.8516V52.9062L48.3789 35.5625ZM61.9922 35.5625V64H58.2227V35.5625H61.9922ZM79.1602 35.5625L67.3438 48.8242L60.7031 55.7188L60.0781 51.6953L65.0781 46.1875L74.6289 35.5625H79.1602ZM75.5273 64L65 50.1328L67.2461 47.1445L80.0195 64H75.5273Z" fill="black"/>
</svg>
