<svg width="100" height="100" viewBox="0 0 100 100" fill="none" xmlns="http://www.w3.org/2000/svg">
<rect x="5" y="5" width="90" height="90" rx="45" fill="#F3BA2F"/>
<circle cx="50" cy="50" r="42" fill="#F3BA2F"/>
<path d="M21.8076 41.2266H24.0903L29.9131 55.7163L35.7236 41.2266H38.0186L30.792 59H29.0098L21.8076 41.2266ZM21.063 41.2266H23.0771L23.4067 52.0664V59H21.063V41.2266ZM36.7368 41.2266H38.751V59H36.4072V52.0664L36.7368 41.2266ZM48.0283 59.2441C47.1087 59.2441 46.2746 59.0895 45.5259 58.7803C44.7853 58.4629 44.1465 58.0194 43.6094 57.4497C43.0804 56.88 42.6735 56.2046 42.3887 55.4233C42.1038 54.6421 41.9614 53.7876 41.9614 52.8599V52.3472C41.9614 51.2729 42.1201 50.3167 42.4375 49.4785C42.7549 48.6322 43.1862 47.916 43.7314 47.3301C44.2767 46.7441 44.8952 46.3006 45.5869 45.9995C46.2786 45.6984 46.9948 45.5479 47.7354 45.5479C48.6794 45.5479 49.4932 45.7106 50.1768 46.0361C50.8685 46.3617 51.4341 46.8174 51.8735 47.4033C52.313 47.9811 52.6385 48.6647 52.8501 49.4541C53.0617 50.2354 53.1675 51.0898 53.1675 52.0176V53.0308H43.3042V51.1875H50.9092V51.0166C50.8766 50.4307 50.7546 49.861 50.543 49.3076C50.3395 48.7542 50.014 48.2985 49.5664 47.9404C49.1188 47.5824 48.5085 47.4033 47.7354 47.4033C47.2227 47.4033 46.7507 47.5132 46.3193 47.7329C45.888 47.9445 45.5177 48.2619 45.2085 48.6851C44.8993 49.1082 44.6592 49.625 44.4883 50.2354C44.3174 50.8457 44.2319 51.5496 44.2319 52.3472V52.8599C44.2319 53.4865 44.3174 54.0765 44.4883 54.6299C44.6673 55.1751 44.9237 55.6553 45.2573 56.0703C45.5991 56.4854 46.0101 56.8109 46.4902 57.0469C46.9785 57.2829 47.5319 57.4009 48.1504 57.4009C48.9479 57.4009 49.6234 57.2381 50.1768 56.9126C50.7301 56.5871 51.2144 56.1517 51.6294 55.6064L52.9966 56.6929C52.7118 57.1242 52.3496 57.5352 51.9102 57.9258C51.4707 58.3164 50.9295 58.6338 50.2866 58.8779C49.6519 59.1221 48.8991 59.2441 48.0283 59.2441ZM57.3301 45.792L60.2231 50.6016L63.1528 45.792H65.8018L61.4805 52.3105L65.936 59H63.3237L60.272 54.0439L57.2202 59H54.5957L59.0391 52.3105L54.73 45.792H57.3301ZM74.7129 38.3457V42.0688H72.8818V38.3457H74.7129ZM74.4932 58.2798V61.5391H72.6743V58.2798H74.4932ZM76.9346 54.4224C76.9346 53.9341 76.8247 53.4946 76.605 53.104C76.3853 52.7134 76.0231 52.3553 75.5186 52.0298C75.014 51.7043 74.3385 51.4032 73.4922 51.1265C72.4668 50.8091 71.5798 50.4225 70.8311 49.9668C70.0905 49.5111 69.5168 48.9455 69.1099 48.27C68.7111 47.5946 68.5117 46.7767 68.5117 45.8164C68.5117 44.8154 68.7274 43.9528 69.1587 43.2285C69.59 42.5042 70.2004 41.9468 70.9897 41.5562C71.7791 41.1655 72.7069 40.9702 73.7729 40.9702C74.603 40.9702 75.3436 41.0964 75.9946 41.3486C76.6457 41.5928 77.195 41.959 77.6426 42.4473C78.0983 42.9355 78.4442 43.5337 78.6802 44.2417C78.9243 44.9497 79.0464 45.7676 79.0464 46.6953H76.8003C76.8003 46.1501 76.7352 45.6496 76.605 45.1938C76.4748 44.7381 76.2795 44.3434 76.019 44.0098C75.7586 43.668 75.4412 43.4076 75.0669 43.2285C74.6925 43.0413 74.2612 42.9478 73.7729 42.9478C73.0894 42.9478 72.5238 43.0658 72.0762 43.3018C71.6367 43.5378 71.3112 43.8714 71.0996 44.3027C70.888 44.7259 70.7822 45.2183 70.7822 45.7798C70.7822 46.3006 70.888 46.7563 71.0996 47.147C71.3112 47.5376 71.6693 47.8916 72.1738 48.209C72.6865 48.5182 73.3905 48.8234 74.2856 49.1245C75.3354 49.4582 76.2266 49.8529 76.959 50.3086C77.6914 50.7562 78.2489 51.3096 78.6313 51.9688C79.0138 52.6198 79.2051 53.4295 79.2051 54.3979C79.2051 55.4478 78.9691 56.3348 78.4971 57.0591C78.0251 57.7752 77.3618 58.3205 76.5073 58.6948C75.6528 59.0692 74.6519 59.2563 73.5044 59.2563C72.8127 59.2563 72.1291 59.1628 71.4536 58.9756C70.7782 58.7884 70.1678 58.4832 69.6226 58.0601C69.0773 57.6287 68.6419 57.0632 68.3164 56.3633C67.9909 55.6553 67.8281 54.7886 67.8281 53.7632H70.0986C70.0986 54.4549 70.1963 55.0286 70.3916 55.4844C70.5951 55.932 70.8636 56.29 71.1973 56.5586C71.5309 56.819 71.8971 57.0062 72.2959 57.1201C72.7028 57.2259 73.1056 57.2788 73.5044 57.2788C74.2368 57.2788 74.8553 57.1649 75.3599 56.937C75.8726 56.701 76.2632 56.3674 76.5317 55.936C76.8003 55.5047 76.9346 55.0002 76.9346 54.4224Z" fill="black"/>
</svg>
