<svg width="100" height="100" viewBox="0 0 100 100" fill="none" xmlns="http://www.w3.org/2000/svg">
<rect x="5" y="5" width="90" height="90" rx="45" fill="#F3BA2F"/>
<circle cx="50" cy="50" r="42" fill="#F3BA2F"/>
<path d="M23.5156 35.5625H32.9297C35.0651 35.5625 36.8685 35.888 38.3398 36.5391C39.8242 37.1901 40.9505 38.1536 41.7188 39.4297C42.5 40.6927 42.8906 42.2487 42.8906 44.0977C42.8906 45.3997 42.6237 46.5911 42.0898 47.6719C41.569 48.7396 40.8138 49.651 39.8242 50.4062C38.8477 51.1484 37.6758 51.7018 36.3086 52.0664L35.2539 52.4766H26.4062L26.3672 49.4102H33.0469C34.401 49.4102 35.5273 49.1758 36.4258 48.707C37.3242 48.2253 38.0013 47.5807 38.457 46.7734C38.9128 45.9661 39.1406 45.0742 39.1406 44.0977C39.1406 43.0039 38.9258 42.0469 38.4961 41.2266C38.0664 40.4062 37.3893 39.7747 36.4648 39.332C35.5534 38.8763 34.375 38.6484 32.9297 38.6484H27.2852V64H23.5156V35.5625ZM40.1367 64L33.2227 51.1094L37.1484 51.0898L44.1602 63.7656V64H40.1367ZM49.3555 35.5625H53.0078L62.3242 58.7461L71.6211 35.5625H75.293L63.7305 64H60.8789L49.3555 35.5625ZM48.1641 35.5625H51.3867L51.9141 52.9062V64H48.1641V35.5625ZM73.2422 35.5625H76.4648V64H72.7148V52.9062L73.2422 35.5625Z" fill="black"/>
</svg>
