<svg width="100" height="100" viewBox="0 0 100 100" fill="none" xmlns="http://www.w3.org/2000/svg">
<rect x="5" y="5" width="90" height="90" rx="45" fill="#F3BA2F"/>
<circle cx="50" cy="50" r="42" fill="#F3BA2F"/>
<path d="M50.1133 33.7188V65H45.9453L30.1973 40.873V65H26.0508V33.7188H30.1973L46.0098 57.9102V33.7188H50.1133ZM68.3105 28.6484V35.2012H65.0879V28.6484H68.3105ZM67.9238 63.7324V69.4688H64.7227V63.7324H67.9238ZM72.2207 56.9434C72.2207 56.084 72.0273 55.3105 71.6406 54.623C71.2539 53.9355 70.6165 53.3053 69.7285 52.7324C68.8405 52.1595 67.6517 51.6296 66.1621 51.1426C64.3574 50.584 62.7962 49.9036 61.4785 49.1016C60.1751 48.2995 59.1654 47.304 58.4492 46.1152C57.7474 44.9264 57.3965 43.487 57.3965 41.7969C57.3965 40.0352 57.776 38.5169 58.5352 37.2422C59.2943 35.9674 60.3685 34.9863 61.7578 34.2988C63.1471 33.6113 64.7799 33.2676 66.6562 33.2676C68.1172 33.2676 69.4206 33.4896 70.5664 33.9336C71.7122 34.3633 72.679 35.0078 73.4668 35.8672C74.2689 36.7266 74.8776 37.7793 75.293 39.0254C75.7227 40.2715 75.9375 41.7109 75.9375 43.3438H71.9844C71.9844 42.3841 71.8698 41.5033 71.6406 40.7012C71.4115 39.8991 71.0677 39.2044 70.6094 38.6172C70.151 38.0156 69.5924 37.5573 68.9336 37.2422C68.2747 36.9128 67.5156 36.748 66.6562 36.748C65.4531 36.748 64.4577 36.9557 63.6699 37.3711C62.8965 37.7865 62.3236 38.3737 61.9512 39.1328C61.5788 39.8776 61.3926 40.7441 61.3926 41.7324C61.3926 42.6491 61.5788 43.4512 61.9512 44.1387C62.3236 44.8262 62.9538 45.4492 63.8418 46.0078C64.7441 46.5521 65.9831 47.0892 67.5586 47.6191C69.4062 48.2064 70.9746 48.901 72.2637 49.7031C73.5527 50.4909 74.5339 51.4648 75.207 52.625C75.8802 53.7708 76.2168 55.196 76.2168 56.9004C76.2168 58.748 75.8014 60.3092 74.9707 61.584C74.14 62.8444 72.9727 63.804 71.4688 64.4629C69.9648 65.1217 68.2031 65.4512 66.1836 65.4512C64.9661 65.4512 63.763 65.2865 62.5742 64.957C61.3854 64.6276 60.3112 64.0905 59.3516 63.3457C58.3919 62.5866 57.6257 61.5911 57.0527 60.3594C56.4798 59.1133 56.1934 57.5879 56.1934 55.7832H60.1895C60.1895 57.0007 60.3613 58.0104 60.7051 58.8125C61.0632 59.6003 61.5358 60.2305 62.123 60.7031C62.7103 61.1615 63.3548 61.4909 64.0566 61.6914C64.7728 61.8776 65.4818 61.9707 66.1836 61.9707C67.4727 61.9707 68.5612 61.7702 69.4492 61.3691C70.3516 60.9538 71.0391 60.3665 71.5117 59.6074C71.9844 58.8483 72.2207 57.9603 72.2207 56.9434Z" fill="black"/>
</svg>
