<svg width="100" height="100" viewBox="0 0 100 100" fill="none" xmlns="http://www.w3.org/2000/svg">
<rect x="5" y="5" width="90" height="90" rx="45" fill="#F3BA2F"/>
<circle cx="50" cy="50" r="42" fill="#F3BA2F"/>
<path d="M45.8105 55.0527H49.9355C49.7207 57.0293 49.1549 58.7982 48.2383 60.3594C47.3216 61.9206 46.0254 63.1595 44.3496 64.0762C42.6738 64.9785 40.5827 65.4297 38.0762 65.4297C36.2428 65.4297 34.5742 65.0859 33.0703 64.3984C31.5807 63.7109 30.2988 62.737 29.2246 61.4766C28.1504 60.2018 27.3197 58.6764 26.7324 56.9004C26.1595 55.11 25.873 53.1191 25.873 50.9277V47.8125C25.873 45.6211 26.1595 43.6374 26.7324 41.8613C27.3197 40.071 28.1576 38.5384 29.2461 37.2637C30.349 35.9889 31.6738 35.0078 33.2207 34.3203C34.7676 33.6328 36.5078 33.2891 38.4414 33.2891C40.8047 33.2891 42.8027 33.7331 44.4355 34.6211C46.0684 35.5091 47.3359 36.7409 48.2383 38.3164C49.1549 39.8776 49.7207 41.6895 49.9355 43.752H45.8105C45.61 42.291 45.2376 41.0378 44.6934 39.9922C44.1491 38.9323 43.3757 38.1159 42.373 37.543C41.3704 36.9701 40.0599 36.6836 38.4414 36.6836C37.0521 36.6836 35.8275 36.9486 34.7676 37.4785C33.722 38.0085 32.8411 38.7604 32.125 39.7344C31.4232 40.7083 30.8932 41.8757 30.5352 43.2363C30.1771 44.597 29.998 46.1081 29.998 47.7695V50.9277C29.998 52.4603 30.1556 53.8997 30.4707 55.2461C30.8001 56.5924 31.2943 57.7741 31.9531 58.791C32.612 59.8079 33.4499 60.61 34.4668 61.1973C35.4837 61.7702 36.6868 62.0566 38.0762 62.0566C39.8379 62.0566 41.2415 61.7773 42.2871 61.2188C43.3327 60.6602 44.1204 59.8581 44.6504 58.8125C45.1947 57.7669 45.5814 56.5137 45.8105 55.0527ZM66.4355 28.6484V35.2012H63.2129V28.6484H66.4355ZM66.0488 63.7324V69.4688H62.8477V63.7324H66.0488ZM70.3457 56.9434C70.3457 56.084 70.1523 55.3105 69.7656 54.623C69.3789 53.9355 68.7415 53.3053 67.8535 52.7324C66.9655 52.1595 65.7767 51.6296 64.2871 51.1426C62.4824 50.584 60.9212 49.9036 59.6035 49.1016C58.3001 48.2995 57.2904 47.304 56.5742 46.1152C55.8724 44.9264 55.5215 43.487 55.5215 41.7969C55.5215 40.0352 55.901 38.5169 56.6602 37.2422C57.4193 35.9674 58.4935 34.9863 59.8828 34.2988C61.2721 33.6113 62.9049 33.2676 64.7812 33.2676C66.2422 33.2676 67.5456 33.4896 68.6914 33.9336C69.8372 34.3633 70.804 35.0078 71.5918 35.8672C72.3939 36.7266 73.0026 37.7793 73.418 39.0254C73.8477 40.2715 74.0625 41.7109 74.0625 43.3438H70.1094C70.1094 42.3841 69.9948 41.5033 69.7656 40.7012C69.5365 39.8991 69.1927 39.2044 68.7344 38.6172C68.276 38.0156 67.7174 37.5573 67.0586 37.2422C66.3997 36.9128 65.6406 36.748 64.7812 36.748C63.5781 36.748 62.5827 36.9557 61.7949 37.3711C61.0215 37.7865 60.4486 38.3737 60.0762 39.1328C59.7038 39.8776 59.5176 40.7441 59.5176 41.7324C59.5176 42.6491 59.7038 43.4512 60.0762 44.1387C60.4486 44.8262 61.0788 45.4492 61.9668 46.0078C62.8691 46.5521 64.1081 47.0892 65.6836 47.6191C67.5312 48.2064 69.0996 48.901 70.3887 49.7031C71.6777 50.4909 72.6589 51.4648 73.332 52.625C74.0052 53.7708 74.3418 55.196 74.3418 56.9004C74.3418 58.748 73.9264 60.3092 73.0957 61.584C72.265 62.8444 71.0977 63.804 69.5938 64.4629C68.0898 65.1217 66.3281 65.4512 64.3086 65.4512C63.0911 65.4512 61.888 65.2865 60.6992 64.957C59.5104 64.6276 58.4362 64.0905 57.4766 63.3457C56.5169 62.5866 55.7507 61.5911 55.1777 60.3594C54.6048 59.1133 54.3184 57.5879 54.3184 55.7832H58.3145C58.3145 57.0007 58.4863 58.0104 58.8301 58.8125C59.1882 59.6003 59.6608 60.2305 60.248 60.7031C60.8353 61.1615 61.4798 61.4909 62.1816 61.6914C62.8978 61.8776 63.6068 61.9707 64.3086 61.9707C65.5977 61.9707 66.6862 61.7702 67.5742 61.3691C68.4766 60.9538 69.1641 60.3665 69.6367 59.6074C70.1094 58.8483 70.3457 57.9603 70.3457 56.9434Z" fill="black"/>
</svg>
