<svg width="100" height="100" viewBox="0 0 100 100" fill="none" xmlns="http://www.w3.org/2000/svg">
<rect x="5" y="5" width="90" height="90" rx="45" fill="#F3BA2F"/>
<circle cx="50" cy="50" r="42" fill="#F3BA2F"/>
<path d="M39.4727 33V63H35.8398V33H39.4727ZM52.3828 41.8672L43.1641 51.7305L38.0078 57.082L37.7148 53.2344L41.4062 48.8203L47.9688 41.8672H52.3828ZM49.082 63L41.543 52.9219L43.418 49.6992L53.3398 63H49.082ZM59.7266 45.1875V63H56.1133V41.8672H59.6289L59.7266 45.1875ZM66.3281 41.75L66.3086 45.1094C66.0091 45.0443 65.7227 45.0052 65.4492 44.9922C65.1888 44.9661 64.8893 44.9531 64.5508 44.9531C63.7174 44.9531 62.9818 45.0833 62.3438 45.3438C61.7057 45.6042 61.1654 45.9688 60.7227 46.4375C60.2799 46.9062 59.9284 47.4661 59.668 48.1172C59.4206 48.7552 59.2578 49.4583 59.1797 50.2266L58.1641 50.8125C58.1641 49.5365 58.2878 48.3385 58.5352 47.2188C58.7956 46.099 59.1927 45.1094 59.7266 44.25C60.2604 43.3776 60.9375 42.7005 61.7578 42.2188C62.5911 41.724 63.5807 41.4766 64.7266 41.4766C64.987 41.4766 65.2865 41.5091 65.625 41.5742C65.9635 41.6263 66.1979 41.6849 66.3281 41.75Z" fill="black"/>
</svg>
