<svg width="100" height="100" viewBox="0 0 100 100" fill="none" xmlns="http://www.w3.org/2000/svg">
<rect x="5" y="5" width="90" height="90" rx="45" fill="#F3BA2F"/>
<circle cx="50" cy="50" r="42" fill="#F3BA2F"/>
<path d="M39.3994 37.8281V62H36.1787L24.0098 43.3564V62H20.8057V37.8281H24.0098L36.2285 56.5215V37.8281H39.3994ZM61.2969 59.3936V62H44.9277V59.3936H61.2969ZM60.7656 40.1523L45.6914 62H43.7158V59.6094L58.7734 37.8281H60.7656V40.1523ZM59.4043 37.8281V40.4512H43.9316V37.8281H59.4043ZM73.8477 33.9102V38.9736H71.3574V33.9102H73.8477ZM73.5488 61.0205V65.4531H71.0752V61.0205H73.5488ZM76.8691 55.7744C76.8691 55.1104 76.7197 54.5127 76.4209 53.9814C76.1221 53.4502 75.6296 52.9632 74.9434 52.5205C74.2572 52.0778 73.3385 51.6683 72.1875 51.292C70.793 50.8604 69.5866 50.3346 68.5684 49.7148C67.5612 49.0951 66.7809 48.3258 66.2275 47.4072C65.6852 46.4886 65.4141 45.3763 65.4141 44.0703C65.4141 42.709 65.7074 41.5358 66.2939 40.5508C66.8805 39.5658 67.7106 38.8076 68.7842 38.2764C69.8577 37.7451 71.1195 37.4795 72.5693 37.4795C73.6982 37.4795 74.7054 37.651 75.5908 37.9941C76.4762 38.3262 77.2233 38.8242 77.832 39.4883C78.4518 40.1523 78.9222 40.9658 79.2432 41.9287C79.5752 42.8916 79.7412 44.0039 79.7412 45.2656H76.6865C76.6865 44.5241 76.598 43.8434 76.4209 43.2236C76.2438 42.6038 75.9782 42.0671 75.624 41.6133C75.2699 41.1484 74.8382 40.7943 74.3291 40.5508C73.82 40.2962 73.2334 40.1689 72.5693 40.1689C71.6396 40.1689 70.8704 40.3294 70.2617 40.6504C69.6641 40.9714 69.2214 41.4251 68.9336 42.0117C68.6458 42.5872 68.502 43.2568 68.502 44.0205C68.502 44.7288 68.6458 45.3486 68.9336 45.8799C69.2214 46.4111 69.7083 46.8926 70.3945 47.3242C71.0918 47.7448 72.0492 48.1598 73.2666 48.5693C74.6943 49.0231 75.9062 49.5599 76.9023 50.1797C77.8984 50.7884 78.6566 51.541 79.1768 52.4375C79.6969 53.3229 79.957 54.4242 79.957 55.7412C79.957 57.1689 79.6361 58.3753 78.9941 59.3604C78.3522 60.3343 77.4502 61.0758 76.2881 61.585C75.126 62.0941 73.7646 62.3486 72.2041 62.3486C71.2633 62.3486 70.3337 62.2214 69.415 61.9668C68.4964 61.7122 67.6663 61.2972 66.9248 60.7217C66.1833 60.1351 65.5911 59.3659 65.1484 58.4141C64.7057 57.4512 64.4844 56.2725 64.4844 54.8779H67.5723C67.5723 55.8187 67.7051 56.599 67.9707 57.2188C68.2474 57.8275 68.6126 58.3145 69.0664 58.6797C69.5202 59.0339 70.0182 59.2884 70.5605 59.4434C71.1139 59.5872 71.6618 59.6592 72.2041 59.6592C73.2002 59.6592 74.0413 59.5042 74.7275 59.1943C75.4248 58.8734 75.9561 58.4196 76.3213 57.833C76.6865 57.2464 76.8691 56.5602 76.8691 55.7744Z" fill="black"/>
</svg>
