<svg width="100" height="100" viewBox="0 0 100 100" fill="none" xmlns="http://www.w3.org/2000/svg">
<rect x="5" y="5" width="90" height="90" rx="45" fill="#F3BA2F"/>
<circle cx="50" cy="50" r="42" fill="#F3BA2F"/>
<path d="M21.176 62.12L19.9 58.776C22.8627 57.8373 25.136 56.708 26.72 55.388C28.3333 54.0973 29.4333 52.748 30.02 51.34C30.636 49.932 30.944 48.5827 30.944 47.292C30.944 46.4707 30.856 45.6787 30.68 44.916C30.504 44.1533 30.196 43.288 29.756 42.32C29.316 41.352 28.7 40.1493 27.908 38.712L31.12 37.084C32.2347 38.9907 33.0267 40.7947 33.496 42.496C33.9947 44.1973 34.244 45.6933 34.244 46.984C34.244 48.832 33.936 50.504 33.32 52C32.7333 53.496 31.9413 54.816 30.944 55.96C29.976 57.1333 28.9053 58.1307 27.732 58.952C26.588 59.7733 25.4293 60.448 24.256 60.976C23.112 61.504 22.0853 61.8853 21.176 62.12ZM40.25 49.8945C40.25 49.2214 40.4577 48.6556 40.873 48.1973C41.3027 47.7246 41.9186 47.4883 42.7207 47.4883C43.5228 47.4883 44.1315 47.7246 44.5469 48.1973C44.9766 48.6556 45.1914 49.2214 45.1914 49.8945C45.1914 50.5534 44.9766 51.112 44.5469 51.5703C44.1315 52.0286 43.5228 52.2578 42.7207 52.2578C41.9186 52.2578 41.3027 52.0286 40.873 51.5703C40.4577 51.112 40.25 50.5534 40.25 49.8945ZM63.8498 69.336C62.2658 69.336 60.6231 69.1453 58.9218 68.764C57.2205 68.412 55.6365 67.7813 54.1698 66.872C52.7031 65.992 51.5005 64.7893 50.5618 63.264C49.6525 61.768 49.1978 59.876 49.1978 57.588C49.1978 55.476 49.6231 53.496 50.4738 51.648C51.3245 49.8 52.5271 48.128 54.0818 46.632C55.6658 45.136 57.5285 43.8747 59.6698 42.848C61.8111 41.8213 64.1725 41.088 66.7538 40.648L67.6778 44.08C65.5365 44.4613 63.5565 45.0333 61.7378 45.796C59.9191 46.5587 58.3351 47.4973 56.9858 48.612C55.6658 49.6973 54.6391 50.944 53.9058 52.352C53.1725 53.7893 52.8058 55.3587 52.8058 57.06C52.8058 58.4387 53.0405 59.6267 53.5098 60.624C53.9791 61.6213 54.5951 62.4427 55.3578 63.088C56.1498 63.7627 57.0298 64.2907 57.9978 64.672C58.9658 65.0533 59.9485 65.3173 60.9458 65.464C61.9725 65.64 62.9405 65.728 63.8498 65.728C65.4045 65.728 66.9885 65.5813 68.6018 65.288C70.2151 65.024 71.6818 64.6133 73.0018 64.056L74.1458 67.136C73.4418 67.488 72.5031 67.8253 71.3298 68.148C70.1858 68.5 68.9538 68.7787 67.6338 68.984C66.3138 69.2187 65.0525 69.336 63.8498 69.336ZM56.5898 46.016C55.4165 45.7227 54.3605 45.1947 53.4218 44.432C52.4831 43.6693 51.7351 42.76 51.1778 41.704C50.6498 40.648 50.3858 39.5333 50.3858 38.36C50.3858 36.512 50.8111 34.972 51.6618 33.74C52.5418 32.508 53.6565 31.584 55.0058 30.968C56.3845 30.352 57.8365 30.044 59.3618 30.044C60.0365 30.044 60.7551 30.1027 61.5178 30.22C62.2805 30.3373 63.0138 30.5133 63.7178 30.748L62.9698 34.136C62.3831 33.9893 61.7671 33.872 61.1218 33.784C60.4765 33.696 59.8898 33.652 59.3618 33.652C58.3058 33.652 57.3671 33.8427 56.5458 34.224C55.7245 34.6053 55.0791 35.1333 54.6098 35.808C54.1405 36.4533 53.9058 37.216 53.9058 38.096C53.9058 38.888 54.1258 39.6067 54.5658 40.252C55.0351 40.868 55.6218 41.4107 56.3258 41.88C57.0298 42.32 57.7485 42.6573 58.4818 42.892C59.2151 43.0973 59.8605 43.1853 60.4178 43.156L56.5898 46.016ZM74.1523 49.8945C74.1523 49.2214 74.36 48.6556 74.7754 48.1973C75.2051 47.7246 75.821 47.4883 76.623 47.4883C77.4251 47.4883 78.0339 47.7246 78.4492 48.1973C78.8789 48.6556 79.0938 49.2214 79.0938 49.8945C79.0938 50.5534 78.8789 51.112 78.4492 51.5703C78.0339 52.0286 77.4251 52.2578 76.623 52.2578C75.821 52.2578 75.2051 52.0286 74.7754 51.5703C74.36 51.112 74.1523 50.5534 74.1523 49.8945Z" fill="black"/>
</svg>
