<svg width="100" height="100" viewBox="0 0 100 100" fill="none" xmlns="http://www.w3.org/2000/svg">
<rect x="5" y="5" width="90" height="90" rx="45" fill="#F3BA2F"/>
<circle cx="50" cy="50" r="42" fill="#F3BA2F"/>
<path d="M36.1855 50.3691H28.2578L28.2148 47.0391H35.4121C36.6009 47.0391 37.6393 46.8385 38.5273 46.4375C39.4154 46.0365 40.1029 45.4635 40.5898 44.7188C41.0911 43.9596 41.3418 43.0573 41.3418 42.0117C41.3418 40.8659 41.1198 39.9349 40.6758 39.2188C40.2461 38.4883 39.5801 37.9583 38.6777 37.6289C37.7897 37.2852 36.6582 37.1133 35.2832 37.1133H29.1816V65H25.0352V33.7188H35.2832C36.8874 33.7188 38.3197 33.8835 39.5801 34.2129C40.8405 34.528 41.9076 35.0293 42.7812 35.7168C43.6693 36.39 44.3424 37.2493 44.8008 38.2949C45.2591 39.3405 45.4883 40.5938 45.4883 42.0547C45.4883 43.3438 45.1589 44.5111 44.5 45.5566C43.8411 46.5879 42.9245 47.4329 41.75 48.0918C40.5898 48.7507 39.2292 49.1732 37.668 49.3594L36.1855 50.3691ZM35.9922 65H26.625L28.9668 61.627H35.9922C37.3099 61.627 38.4271 61.3978 39.3438 60.9395C40.2747 60.4811 40.9837 59.8366 41.4707 59.0059C41.9577 58.1608 42.2012 57.1654 42.2012 56.0195C42.2012 54.8594 41.9935 53.8568 41.5781 53.0117C41.1628 52.1667 40.5111 51.515 39.623 51.0566C38.735 50.5983 37.5892 50.3691 36.1855 50.3691H30.2773L30.3203 47.0391H38.3984L39.2793 48.2422C40.7832 48.3711 42.0579 48.8008 43.1035 49.5312C44.1491 50.2474 44.944 51.1641 45.4883 52.2812C46.0469 53.3984 46.3262 54.6302 46.3262 55.9766C46.3262 57.9245 45.8965 59.5716 45.0371 60.918C44.1921 62.25 42.9961 63.2669 41.4492 63.9688C39.9023 64.6562 38.0833 65 35.9922 65ZM65.6836 33.7188L52.6426 67.6855H49.2266L62.2891 33.7188H65.6836ZM70.0879 62.8945C70.0879 62.2214 70.2956 61.6556 70.7109 61.1973C71.1406 60.7246 71.7565 60.4883 72.5586 60.4883C73.3607 60.4883 73.9694 60.7246 74.3848 61.1973C74.8145 61.6556 75.0293 62.2214 75.0293 62.8945C75.0293 63.5534 74.8145 64.112 74.3848 64.5703C73.9694 65.0286 73.3607 65.2578 72.5586 65.2578C71.7565 65.2578 71.1406 65.0286 70.7109 64.5703C70.2956 64.112 70.0879 63.5534 70.0879 62.8945Z" fill="black"/>
</svg>
