<svg width="100" height="100" viewBox="0 0 100 100" fill="none" xmlns="http://www.w3.org/2000/svg">
<rect x="5" y="5" width="90" height="90" rx="45" fill="#F3BA2F"/>
<circle cx="50" cy="50" r="42" fill="#F3BA2F"/>
<path d="M42.3516 57.0938C42.3516 56.3633 42.237 55.7188 42.0078 55.1602C41.793 54.5872 41.4062 54.0716 40.8477 53.6133C40.3034 53.1549 39.5443 52.7181 38.5703 52.3027C37.6107 51.8874 36.3932 51.4648 34.918 51.0352C33.3711 50.5768 31.9746 50.0684 30.7285 49.5098C29.4824 48.9368 28.4154 48.2852 27.5273 47.5547C26.6393 46.8242 25.959 45.9863 25.4863 45.041C25.0137 44.0957 24.7773 43.0143 24.7773 41.7969C24.7773 40.5794 25.028 39.4551 25.5293 38.4238C26.0306 37.3926 26.7467 36.4974 27.6777 35.7383C28.623 34.9648 29.7474 34.3633 31.0508 33.9336C32.3542 33.5039 33.8079 33.2891 35.4121 33.2891C37.7611 33.2891 39.752 33.7402 41.3848 34.6426C43.0319 35.5306 44.2852 36.6979 45.1445 38.1445C46.0039 39.5768 46.4336 41.1094 46.4336 42.7422H42.3086C42.3086 41.5677 42.0579 40.5293 41.5566 39.627C41.0553 38.7103 40.2962 37.9941 39.2793 37.4785C38.2624 36.9486 36.9733 36.6836 35.4121 36.6836C33.9368 36.6836 32.7194 36.9056 31.7598 37.3496C30.8001 37.7936 30.084 38.3952 29.6113 39.1543C29.153 39.9134 28.9238 40.7799 28.9238 41.7539C28.9238 42.4128 29.0599 43.0143 29.332 43.5586C29.6185 44.0885 30.0553 44.5827 30.6426 45.041C31.2441 45.4993 32.0033 45.9219 32.9199 46.3086C33.8509 46.6953 34.9609 47.0677 36.25 47.4258C38.026 47.9271 39.5586 48.4857 40.8477 49.1016C42.1367 49.7174 43.1966 50.4121 44.0273 51.1855C44.8724 51.9447 45.4954 52.8112 45.8965 53.7852C46.3118 54.7448 46.5195 55.8333 46.5195 57.0508C46.5195 58.3255 46.2617 59.4785 45.7461 60.5098C45.2305 61.541 44.4928 62.4219 43.5332 63.1523C42.5736 63.8828 41.4206 64.4486 40.0742 64.8496C38.7422 65.2363 37.2526 65.4297 35.6055 65.4297C34.1589 65.4297 32.7337 65.2292 31.3301 64.8281C29.9408 64.4271 28.6732 63.8255 27.5273 63.0234C26.3958 62.2214 25.4863 61.2331 24.7988 60.0586C24.1257 58.8698 23.7891 57.4948 23.7891 55.9336H27.9141C27.9141 57.0078 28.1217 57.9316 28.5371 58.7051C28.9525 59.4642 29.5182 60.0944 30.2344 60.5957C30.9648 61.097 31.7884 61.4694 32.7051 61.7129C33.6361 61.9421 34.6029 62.0566 35.6055 62.0566C37.0521 62.0566 38.2767 61.8561 39.2793 61.4551C40.2819 61.054 41.041 60.4811 41.5566 59.7363C42.0866 58.9915 42.3516 58.1107 42.3516 57.0938ZM65.0391 33.7188L51.998 67.6855H48.582L61.6445 33.7188H65.0391ZM69.4434 62.8945C69.4434 62.2214 69.651 61.6556 70.0664 61.1973C70.4961 60.7246 71.112 60.4883 71.9141 60.4883C72.7161 60.4883 73.3249 60.7246 73.7402 61.1973C74.1699 61.6556 74.3848 62.2214 74.3848 62.8945C74.3848 63.5534 74.1699 64.112 73.7402 64.5703C73.3249 65.0286 72.7161 65.2578 71.9141 65.2578C71.112 65.2578 70.4961 65.0286 70.0664 64.5703C69.651 64.112 69.4434 63.5534 69.4434 62.8945Z" fill="black"/>
</svg>
