<svg width="100" height="100" viewBox="0 0 100 100" fill="none" xmlns="http://www.w3.org/2000/svg">
<rect x="5" y="5" width="90" height="90" rx="45" fill="#F3BA2F"/>
<circle cx="50" cy="50" r="42" fill="#F3BA2F"/>
<path d="M71.0645 35.4629V39.916H28.9648V35.4629H71.0645ZM71.0645 42.6406V47.0938H28.9648V42.6406H71.0645ZM50.498 54.2715H39.1016V49.6719H50.498C52.7051 49.6719 54.4922 49.3203 55.8594 48.6172C57.2266 47.9141 58.2227 46.9375 58.8477 45.6875C59.4922 44.4375 59.8145 43.0117 59.8145 41.4102C59.8145 39.9453 59.4922 38.5684 58.8477 37.2793C58.2227 35.9902 57.2266 34.9551 55.8594 34.1738C54.4922 33.373 52.7051 32.9727 50.498 32.9727H40.4199V71H34.7656V28.3438H50.498C53.7207 28.3438 56.4453 28.9004 58.6719 30.0137C60.8984 31.127 62.5879 32.6699 63.7402 34.6426C64.8926 36.5957 65.4688 38.832 65.4688 41.3516C65.4688 44.0859 64.8926 46.4199 63.7402 48.3535C62.5879 50.2871 60.8984 51.7617 58.6719 52.7773C56.4453 53.7734 53.7207 54.2715 50.498 54.2715Z" fill="black"/>
</svg>
