<svg width="100" height="100" viewBox="0 0 100 100" fill="none" xmlns="http://www.w3.org/2000/svg">
<rect x="5" y="5" width="90" height="90" rx="45" fill="#F3BA2F"/>
<circle cx="50" cy="50" r="42" fill="#F3BA2F"/>
<path d="M52.568 69.56C48.424 69.56 44.9333 68.7387 42.096 67.096C39.2587 65.416 37.0933 63.0453 35.6 59.984C34.144 56.8853 33.416 53.2267 33.416 49.008C33.416 44.8267 34.2373 41.2053 35.88 38.144C37.5227 35.0827 39.8747 32.712 42.936 31.032C46.0347 29.3147 49.768 28.456 54.136 28.456C56.376 28.456 58.4853 28.6613 60.464 29.072C62.48 29.4827 64.3467 30.0613 66.064 30.808L64.16 35.176C62.7413 34.5413 61.136 34 59.344 33.552C57.5893 33.104 55.76 32.88 53.856 32.88C50.6827 32.88 47.9573 33.5333 45.68 34.84C43.4027 36.1467 41.6667 38.0133 40.472 40.44C39.2773 42.8293 38.68 45.6853 38.68 49.008C38.68 52.1813 39.184 55 40.192 57.464C41.2373 59.8907 42.8613 61.7947 45.064 63.176C47.2667 64.52 50.16 65.192 53.744 65.192C54.9387 65.192 55.984 65.1547 56.88 65.08C57.8133 64.968 58.6533 64.8373 59.4 64.688C60.184 64.5387 60.912 64.3893 61.584 64.24V52.368H52.792V47.888H66.624V67.488C64.4587 68.1973 62.2747 68.72 60.072 69.056C57.8693 69.392 55.368 69.56 52.568 69.56ZM50.888 73.48V26.496H54.472V73.48H50.888Z" fill="black"/>
</svg>
