<svg width="100" height="100" viewBox="0 0 100 100" fill="none" xmlns="http://www.w3.org/2000/svg">
<rect x="5" y="5" width="90" height="90" rx="45" fill="#F3BA2F"/>
<circle cx="50" cy="50" r="42" fill="#F3BA2F"/>
<path d="M21.164 65.43L19.975 62.314C22.7357 61.4393 24.854 60.387 26.33 59.157C27.8333 57.9543 28.8583 56.697 29.405 55.385C29.979 54.073 30.266 52.8157 30.266 51.613C30.266 50.8477 30.184 50.1097 30.02 49.399C29.856 48.6883 29.569 47.882 29.159 46.98C28.749 46.078 28.175 44.9573 27.437 43.618L30.43 42.101C31.4687 43.8777 32.2067 45.5587 32.644 47.144C33.1087 48.7293 33.341 50.1233 33.341 51.326C33.341 53.048 33.054 54.606 32.48 56C31.9333 57.394 31.1953 58.624 30.266 59.69C29.364 60.7833 28.3663 61.7127 27.273 62.478C26.207 63.2433 25.1273 63.872 24.034 64.364C22.968 64.856 22.0113 65.2113 21.164 65.43ZM38.9375 54.0381C38.9375 53.4108 39.131 52.8836 39.5181 52.4565C39.9185 52.0161 40.4924 51.7959 41.2397 51.7959C41.9871 51.7959 42.5544 52.0161 42.9414 52.4565C43.3418 52.8836 43.542 53.4108 43.542 54.0381C43.542 54.652 43.3418 55.1725 42.9414 55.5996C42.5544 56.0267 41.9871 56.2402 41.2397 56.2402C40.4924 56.2402 39.9185 56.0267 39.5181 55.5996C39.131 55.1725 38.9375 54.652 38.9375 54.0381ZM60.2312 63.708C58.5912 63.708 57.0469 63.5167 55.5982 63.134C54.1496 62.7787 52.8512 62.2047 51.7032 61.412C50.5826 60.6467 49.6942 59.649 49.0382 58.419C48.4096 57.189 48.0952 55.713 48.0952 53.991C48.0952 53.581 48.1362 53.007 48.2182 52.269C48.3276 51.5037 48.5462 50.588 48.8742 49.522C49.2022 48.456 49.7216 47.2807 50.4322 45.996L53.4252 47.39C53.0152 48.2373 52.6736 49.0163 52.4002 49.727C52.1269 50.4103 51.9219 51.0527 51.7852 51.654C51.6759 52.228 51.6212 52.802 51.6212 53.376C51.6212 54.6607 51.8672 55.7403 52.3592 56.615C52.8512 57.4897 53.5346 58.1867 54.4092 58.706C55.2839 59.2527 56.2952 59.649 57.4432 59.895C58.5912 60.141 59.8212 60.264 61.1332 60.264C62.7186 60.264 64.1536 60.1137 65.4382 59.813C66.7502 59.5123 67.8982 59.0887 68.8822 58.542C69.8662 58.0227 70.6862 57.4077 71.3422 56.697C71.9982 55.9863 72.4629 55.2073 72.7362 54.36C73.0096 53.54 73.2146 52.6517 73.3512 51.695C73.4879 50.711 73.5562 49.7407 73.5562 48.784C73.5562 47.636 73.4059 46.57 73.1052 45.586C72.8046 44.602 72.3809 43.8093 71.8342 43.208C71.2876 42.6067 70.6316 42.306 69.8662 42.306C69.2376 42.306 68.6636 42.552 68.1442 43.044C67.6522 43.5087 67.2559 44.11 66.9552 44.848C66.6819 45.586 66.5452 46.324 66.5452 47.062C66.5452 47.636 66.6546 48.128 66.8732 48.538C67.1192 48.948 67.5156 49.276 68.0622 49.522C68.6089 49.7407 69.3196 49.85 70.1942 49.85C70.9869 49.85 71.7796 49.768 72.5722 49.604C73.3922 49.44 74.0892 49.2213 74.6632 48.948L74.8272 51.818C74.1712 52.2827 73.3922 52.6107 72.4902 52.802C71.6156 52.9933 70.7272 53.089 69.8252 53.089C68.4312 53.089 67.2422 52.8977 66.2582 52.515C65.3016 52.1323 64.5636 51.5583 64.0442 50.793C63.5522 50.0277 63.3062 49.0573 63.3062 47.882C63.3062 46.8433 63.4702 45.8047 63.7982 44.766C64.1262 43.7 64.5909 42.7297 65.1922 41.855C65.7936 40.9803 66.5179 40.2833 67.3652 39.764C68.2126 39.2173 69.1556 38.944 70.1942 38.944C71.6702 38.944 72.8866 39.4223 73.8432 40.379C74.8272 41.3357 75.5516 42.593 76.0162 44.151C76.5082 45.6817 76.7542 47.308 76.7542 49.03C76.7542 50.3693 76.6312 51.7087 76.3852 53.048C76.1666 54.36 75.7702 55.5763 75.1962 56.697C74.5402 57.9817 73.7066 59.0613 72.6952 59.936C71.6839 60.838 70.5222 61.5623 69.2102 62.109C67.9256 62.683 66.5316 63.093 65.0282 63.339C63.5249 63.585 61.9259 63.708 60.2312 63.708ZM72.2852 34.721C71.7112 34.721 71.2192 34.5297 70.8092 34.147C70.4266 33.737 70.2352 33.2587 70.2352 32.712C70.2352 32.1653 70.4266 31.687 70.8092 31.277C71.2192 30.867 71.7112 30.662 72.2852 30.662C72.8319 30.662 73.2966 30.867 73.6792 31.277C74.0892 31.687 74.2942 32.1653 74.2942 32.712C74.2942 33.2587 74.0892 33.737 73.6792 34.147C73.2966 34.5297 72.8319 34.721 72.2852 34.721ZM66.6682 34.721C66.0942 34.721 65.6022 34.5297 65.1922 34.147C64.8096 33.737 64.6182 33.2587 64.6182 32.712C64.6182 32.1653 64.8096 31.687 65.1922 31.277C65.6022 30.867 66.0942 30.662 66.6682 30.662C67.2149 30.662 67.6796 30.867 68.0622 31.277C68.4722 31.687 68.6772 32.1653 68.6772 32.712C68.6772 33.2587 68.4722 33.737 68.0622 34.147C67.6796 34.5297 67.2149 34.721 66.6682 34.721Z" fill="black"/>
</svg>
