<svg width="100" height="100" viewBox="0 0 100 100" fill="none" xmlns="http://www.w3.org/2000/svg">
<rect x="5" y="5" width="90" height="90" rx="45" fill="#F3BA2F"/>
<circle cx="50" cy="50" r="42" fill="#F3BA2F"/>
<path d="M35.3477 32V65H31.3516V32H35.3477ZM51.375 65.4297C49.7565 65.4297 48.2884 65.1576 46.9707 64.6133C45.6673 64.0547 44.543 63.2741 43.5977 62.2715C42.6667 61.2689 41.9505 60.0801 41.4492 58.7051C40.9479 57.3301 40.6973 55.8262 40.6973 54.1934V53.291C40.6973 51.4004 40.9766 49.7174 41.5352 48.2422C42.0938 46.7526 42.8529 45.4922 43.8125 44.4609C44.7721 43.4297 45.8607 42.6491 47.0781 42.1191C48.2956 41.5892 49.556 41.3242 50.8594 41.3242C52.5208 41.3242 53.9531 41.6107 55.1562 42.1836C56.3737 42.7565 57.3691 43.5586 58.1426 44.5898C58.916 45.6068 59.4889 46.8099 59.8613 48.1992C60.2337 49.5742 60.4199 51.0781 60.4199 52.7109V54.4941H43.0605V51.25H56.4453V50.9492C56.388 49.918 56.1732 48.9154 55.8008 47.9414C55.4427 46.9674 54.8698 46.1654 54.082 45.5352C53.2943 44.9049 52.2201 44.5898 50.8594 44.5898C49.957 44.5898 49.1263 44.7832 48.3672 45.1699C47.6081 45.5423 46.9564 46.1009 46.4121 46.8457C45.8678 47.5905 45.4453 48.5 45.1445 49.5742C44.8438 50.6484 44.6934 51.8874 44.6934 53.291V54.1934C44.6934 55.2962 44.8438 56.3346 45.1445 57.3086C45.4596 58.2682 45.9108 59.1133 46.498 59.8438C47.0996 60.5742 47.8229 61.1471 48.668 61.5625C49.5273 61.9779 50.5013 62.1855 51.5898 62.1855C52.9935 62.1855 54.1823 61.8991 55.1562 61.3262C56.1302 60.7533 56.9824 59.987 57.7129 59.0273L60.1191 60.9395C59.6178 61.6986 58.9805 62.4219 58.207 63.1094C57.4336 63.7969 56.4811 64.3555 55.3496 64.7852C54.2324 65.2148 52.9076 65.4297 51.375 65.4297ZM69.3789 41.7539V65H65.3828V41.7539H69.3789ZM65.082 35.5879C65.082 34.9434 65.2754 34.3991 65.6621 33.9551C66.0632 33.5111 66.6504 33.2891 67.4238 33.2891C68.1829 33.2891 68.763 33.5111 69.1641 33.9551C69.5794 34.3991 69.7871 34.9434 69.7871 35.5879C69.7871 36.2038 69.5794 36.7337 69.1641 37.1777C68.763 37.6074 68.1829 37.8223 67.4238 37.8223C66.6504 37.8223 66.0632 37.6074 65.6621 37.1777C65.2754 36.7337 65.082 36.2038 65.082 35.5879Z" fill="black"/>
</svg>
