<svg width="100" height="100" viewBox="0 0 100 100" fill="none" xmlns="http://www.w3.org/2000/svg">
<rect x="5" y="5" width="90" height="90" rx="45" fill="#F3BA2F"/>
<circle cx="50" cy="50" r="42" fill="#F3BA2F"/>
<path d="M29.8965 62H24.5527L24.5879 59.2402H29.8965C31.7246 59.2402 33.248 58.8594 34.4668 58.0977C35.6855 57.3242 36.5996 56.2461 37.209 54.8633C37.8301 53.4688 38.1406 51.8398 38.1406 49.9766V48.4121C38.1406 46.9473 37.9648 45.6465 37.6133 44.5098C37.2617 43.3613 36.7461 42.3945 36.0664 41.6094C35.3867 40.8125 34.5547 40.209 33.5703 39.7988C32.5977 39.3887 31.4785 39.1836 30.2129 39.1836H24.4473V36.4062H30.2129C31.8887 36.4062 33.418 36.6875 34.8008 37.25C36.1836 37.8008 37.373 38.6035 38.3691 39.6582C39.377 40.7012 40.1504 41.9668 40.6895 43.4551C41.2285 44.9316 41.498 46.5957 41.498 48.4473V49.9766C41.498 51.8281 41.2285 53.498 40.6895 54.9863C40.1504 56.4629 39.3711 57.7227 38.3516 58.7656C37.3438 59.8086 36.125 60.6113 34.6953 61.1738C33.2773 61.7246 31.6777 62 29.8965 62ZM26.3633 36.4062V62H22.9707V36.4062H26.3633ZM50.2344 36.4062V62H46.8418V36.4062H50.2344ZM76.0918 36.4062V62H72.6816L59.7969 42.2598V62H56.4043V36.4062H59.7969L72.7344 56.1992V36.4062H76.0918Z" fill="black"/>
</svg>
