<svg width="100" height="100" viewBox="0 0 100 100" fill="none" xmlns="http://www.w3.org/2000/svg">
<rect x="5" y="5" width="90" height="90" rx="45" fill="#F3BA2F"/>
<circle cx="50" cy="50" r="42" fill="#F3BA2F"/>
<path d="M52.7344 54.2715H30.9082V49.6719H52.7344C54.8633 49.6719 56.6113 49.3301 57.9785 48.6465C59.3457 47.9629 60.3516 46.9961 60.9961 45.7461C61.6602 44.4961 61.9922 43.0215 61.9922 41.3223C61.9922 39.9355 61.6797 38.6074 61.0547 37.3379C60.4492 36.0684 59.4629 35.0234 58.0957 34.2031C56.748 33.3828 54.9609 32.9727 52.7344 32.9727H42.5977V71H36.9727V28.3438H52.7344C55.957 28.3438 58.6719 28.9004 60.8789 30.0137C63.0859 31.1074 64.7559 32.6309 65.8887 34.584C67.041 36.5176 67.6172 38.7441 67.6172 41.2637C67.6172 43.998 67.041 46.3418 65.8887 48.2949C64.7559 50.2285 63.0859 51.7129 60.8789 52.748C58.6719 53.7637 55.957 54.2715 52.7344 54.2715ZM52.3828 58.2852V62.9141H30.9082V58.2852H52.3828Z" fill="black"/>
</svg>
