<svg width="100" height="100" viewBox="0 0 100 100" fill="none" xmlns="http://www.w3.org/2000/svg">
<rect x="5" y="5" width="90" height="90" rx="45" fill="#F3BA2F"/>
<circle cx="50" cy="50" r="42" fill="#F3BA2F"/>
<path d="M30.3008 35.5625H39.7148C41.8503 35.5625 43.6536 35.888 45.125 36.5391C46.6094 37.1901 47.7357 38.1536 48.5039 39.4297C49.2852 40.6927 49.6758 42.2487 49.6758 44.0977C49.6758 45.3997 49.4089 46.5911 48.875 47.6719C48.3542 48.7396 47.599 49.651 46.6094 50.4062C45.6328 51.1484 44.4609 51.7018 43.0938 52.0664L42.0391 52.4766H33.1914L33.1523 49.4102H39.832C41.1862 49.4102 42.3125 49.1758 43.2109 48.707C44.1094 48.2253 44.7865 47.5807 45.2422 46.7734C45.6979 45.9661 45.9258 45.0742 45.9258 44.0977C45.9258 43.0039 45.7109 42.0469 45.2812 41.2266C44.8516 40.4062 44.1745 39.7747 43.25 39.332C42.3385 38.8763 41.1602 38.6484 39.7148 38.6484H34.0703V64H30.3008V35.5625ZM46.9219 64L40.0078 51.1094L43.9336 51.0898L50.9453 63.7656V64H46.9219ZM58.7188 35.5625V64H54.9492V35.5625H58.7188ZM70.6328 48.3555V51.4414H57.8984V48.3555H70.6328ZM72.5664 35.5625V38.6484H57.8984V35.5625H72.5664ZM64.4414 55.875V58.8438H52V55.875H64.4414Z" fill="black"/>
</svg>
