<svg width="100" height="100" viewBox="0 0 100 100" fill="none" xmlns="http://www.w3.org/2000/svg">
<rect x="5" y="5" width="90" height="90" rx="45" fill="#F3BA2F"/>
<circle cx="50" cy="50" r="42" fill="#F3BA2F"/>
<path d="M37.833 68.708C35.783 68.708 33.8697 68.38 32.093 67.724C30.3437 67.068 28.9223 66.084 27.829 64.772C26.763 63.46 26.23 61.8063 26.23 59.811C26.23 59.401 26.271 58.827 26.353 58.089C26.4623 57.3237 26.681 56.408 27.009 55.342C27.337 54.276 27.8563 53.1007 28.567 51.816L31.396 53.21C30.986 54.0573 30.6443 54.8363 30.371 55.547C30.0977 56.2303 29.8927 56.8727 29.756 57.474C29.6467 58.048 29.592 58.622 29.592 59.196C29.592 60.59 29.961 61.738 30.699 62.64C31.4643 63.5693 32.4757 64.2527 33.733 64.69C35.0177 65.1273 36.4253 65.346 37.956 65.346C40.4433 65.346 42.3977 64.854 43.819 63.87C45.2403 62.9133 46.238 61.5193 46.812 59.688C47.386 57.8293 47.6183 55.6017 47.509 53.005L46.73 31.726H50.133L50.789 52.513C50.8437 54.645 50.6797 56.6813 50.297 58.622C49.9143 60.5627 49.231 62.2847 48.247 63.788C47.263 65.3187 45.91 66.5213 44.188 67.396C42.4933 68.2707 40.375 68.708 37.833 68.708ZM62.884 68.667C62.2827 68.667 61.777 68.462 61.367 68.052C60.957 67.642 60.752 67.15 60.752 66.576C60.752 65.9747 60.957 65.4553 61.367 65.018C61.777 64.608 62.2827 64.403 62.884 64.403C63.458 64.403 63.95 64.608 64.36 65.018C64.77 65.4553 64.975 65.9747 64.975 66.576C64.975 67.15 64.77 67.642 64.36 68.052C63.95 68.462 63.458 68.667 62.884 68.667ZM68.173 68.667C67.5717 68.667 67.066 68.462 66.656 68.052C66.246 67.642 66.041 67.15 66.041 66.576C66.041 65.9747 66.246 65.4553 66.656 65.018C67.066 64.608 67.5717 64.403 68.173 64.403C68.747 64.403 69.239 64.608 69.649 65.018C70.059 65.4553 70.264 65.9747 70.264 66.576C70.264 67.15 70.059 67.642 69.649 68.052C69.239 68.462 68.747 68.667 68.173 68.667ZM39.227 56.121C37.833 56.121 36.7123 55.8613 35.865 55.342C35.045 54.7953 34.4437 54.0847 34.061 53.21C33.6783 52.3353 33.487 51.406 33.487 50.422C33.487 49.1647 33.8287 47.7297 34.512 46.117C35.1953 44.5043 36.3297 42.9053 37.915 41.32L40.334 43.165C39.4047 44.149 38.5847 45.256 37.874 46.486C37.1907 47.6887 36.849 48.8367 36.849 49.93C36.849 50.75 37.0813 51.3923 37.546 51.857C38.0107 52.3217 38.6803 52.554 39.555 52.554C40.2383 52.554 40.9217 52.4037 41.605 52.103C42.3157 51.775 43.1083 51.2693 43.983 50.586C44.8577 49.9027 45.8963 49.0007 47.099 47.88C48.3017 46.7593 49.764 45.4063 51.486 43.821C53.5633 41.9077 55.2717 40.3907 56.611 39.27C57.9503 38.122 59.112 37.302 60.096 36.81C61.1073 36.2907 62.1187 36.031 63.13 36.031C64.524 36.031 65.7677 36.4683 66.861 37.343C67.9817 38.1903 68.7333 39.5707 69.116 41.484L66.328 42.591C66.1093 41.9623 65.8497 41.4157 65.549 40.951C65.2757 40.4863 64.934 40.131 64.524 39.885C64.1413 39.639 63.663 39.516 63.089 39.516C62.515 39.516 61.9273 39.6527 61.326 39.926C60.7247 40.1993 60.0413 40.623 59.276 41.197C58.538 41.771 57.6633 42.5227 56.652 43.452C55.668 44.3813 54.479 45.4883 53.085 46.773C50.9803 48.741 49.2173 50.34 47.796 51.57C46.402 52.7727 45.213 53.7157 44.229 54.399C43.245 55.055 42.3703 55.506 41.605 55.752C40.8397 55.998 40.047 56.121 39.227 56.121ZM63.171 61.205C61.0937 61.205 59.4673 60.9863 58.292 60.549C57.1167 60.1117 56.283 59.3737 55.791 58.335C55.299 57.2963 55.0257 55.9023 54.971 54.153L54.151 31.726H57.513L58.333 52.841C58.3877 53.8523 58.4697 54.686 58.579 55.342C58.6883 55.9707 58.907 56.4763 59.235 56.859C59.563 57.2143 60.0687 57.474 60.752 57.638C61.4353 57.7747 62.3647 57.843 63.54 57.843C65.0707 57.843 66.2187 57.761 66.984 57.597C67.7767 57.4057 68.3097 57.064 68.583 56.572C68.8837 56.0527 69.034 55.301 69.034 54.317C69.034 53.2783 68.788 51.98 68.296 50.422C67.8313 48.8367 67.2983 47.265 66.697 45.707L70.018 44.477C70.3733 45.3517 70.7013 46.3493 71.002 47.47C71.33 48.5907 71.6033 49.6977 71.822 50.791C72.0407 51.8843 72.15 52.841 72.15 53.661C72.15 55.0277 71.9587 56.1893 71.576 57.146C71.2207 58.1027 70.674 58.8817 69.936 59.483C69.198 60.0843 68.2687 60.5217 67.148 60.795C66.0273 61.0683 64.7017 61.205 63.171 61.205Z" fill="black"/>
</svg>
