<svg width="100" height="100" viewBox="0 0 100 100" fill="none" xmlns="http://www.w3.org/2000/svg">
<rect x="5" y="5" width="90" height="90" rx="45" fill="#F3BA2F"/>
<circle cx="50" cy="50" r="42" fill="#F3BA2F"/>
<path d="M42.8428 55.6094C42.8428 55.1113 42.7646 54.6719 42.6084 54.291C42.4619 53.9004 42.1982 53.5488 41.8174 53.2363C41.4463 52.9238 40.9287 52.626 40.2646 52.3428C39.6104 52.0596 38.7803 51.7715 37.7744 51.4785C36.7197 51.166 35.7676 50.8193 34.918 50.4385C34.0684 50.0479 33.3408 49.6035 32.7354 49.1055C32.1299 48.6074 31.666 48.0361 31.3438 47.3916C31.0215 46.7471 30.8604 46.0098 30.8604 45.1797C30.8604 44.3496 31.0312 43.583 31.373 42.8799C31.7148 42.1768 32.2031 41.5664 32.8379 41.0488C33.4824 40.5215 34.249 40.1113 35.1377 39.8184C36.0264 39.5254 37.0176 39.3789 38.1113 39.3789C39.7129 39.3789 41.0703 39.6865 42.1836 40.3018C43.3066 40.9072 44.1611 41.7031 44.7471 42.6895C45.333 43.666 45.626 44.7109 45.626 45.8242H42.8135C42.8135 45.0234 42.6426 44.3154 42.3008 43.7002C41.959 43.0752 41.4414 42.5869 40.748 42.2354C40.0547 41.874 39.1758 41.6934 38.1113 41.6934C37.1055 41.6934 36.2754 41.8447 35.6211 42.1475C34.9668 42.4502 34.4785 42.8604 34.1562 43.3779C33.8438 43.8955 33.6875 44.4863 33.6875 45.1504C33.6875 45.5996 33.7803 46.0098 33.9658 46.3809C34.1611 46.7422 34.459 47.0791 34.8594 47.3916C35.2695 47.7041 35.7871 47.9922 36.4121 48.2559C37.0469 48.5195 37.8037 48.7734 38.6826 49.0176C39.8936 49.3594 40.9385 49.7402 41.8174 50.1602C42.6963 50.5801 43.4189 51.0537 43.9854 51.5811C44.5615 52.0986 44.9863 52.6895 45.2598 53.3535C45.543 54.0078 45.6846 54.75 45.6846 55.5801C45.6846 56.4492 45.5088 57.2354 45.1572 57.9385C44.8057 58.6416 44.3027 59.2422 43.6484 59.7402C42.9941 60.2383 42.208 60.624 41.29 60.8975C40.3818 61.1611 39.3662 61.293 38.2432 61.293C37.2568 61.293 36.2852 61.1562 35.3281 60.8828C34.3809 60.6094 33.5166 60.1992 32.7354 59.6523C31.9639 59.1055 31.3438 58.4316 30.875 57.6309C30.416 56.8203 30.1865 55.8828 30.1865 54.8184H32.999C32.999 55.5508 33.1406 56.1807 33.4238 56.708C33.707 57.2256 34.0928 57.6553 34.5811 57.9971C35.0791 58.3389 35.6406 58.5928 36.2656 58.7588C36.9004 58.915 37.5596 58.9932 38.2432 58.9932C39.2295 58.9932 40.0645 58.8564 40.748 58.583C41.4316 58.3096 41.9492 57.9189 42.3008 57.4111C42.6621 56.9033 42.8428 56.3027 42.8428 55.6094ZM51.8223 45.1504V61H49.0977V45.1504H51.8223ZM48.8926 40.9463C48.8926 40.5068 49.0244 40.1357 49.2881 39.833C49.5615 39.5303 49.9619 39.3789 50.4893 39.3789C51.0068 39.3789 51.4023 39.5303 51.6758 39.833C51.959 40.1357 52.1006 40.5068 52.1006 40.9463C52.1006 41.3662 51.959 41.7275 51.6758 42.0303C51.4023 42.3232 51.0068 42.4697 50.4893 42.4697C49.9619 42.4697 49.5615 42.3232 49.2881 42.0303C49.0244 41.7275 48.8926 41.3662 48.8926 40.9463ZM63.9805 36.2148V40.6826H61.7832V36.2148H63.9805ZM63.7168 60.1357V64.0469H61.5342V60.1357H63.7168ZM66.6465 55.5068C66.6465 54.9209 66.5146 54.3936 66.251 53.9248C65.9873 53.4561 65.5527 53.0264 64.9473 52.6357C64.3418 52.2451 63.5312 51.8838 62.5156 51.5518C61.2852 51.1709 60.2207 50.707 59.3223 50.1602C58.4336 49.6133 57.7451 48.9346 57.2568 48.124C56.7783 47.3135 56.5391 46.332 56.5391 45.1797C56.5391 43.9785 56.7979 42.9434 57.3154 42.0742C57.833 41.2051 58.5654 40.5361 59.5127 40.0674C60.46 39.5986 61.5732 39.3643 62.8525 39.3643C63.8486 39.3643 64.7373 39.5156 65.5186 39.8184C66.2998 40.1113 66.959 40.5508 67.4961 41.1367C68.043 41.7227 68.458 42.4404 68.7412 43.29C69.0342 44.1396 69.1807 45.1211 69.1807 46.2344H66.4854C66.4854 45.5801 66.4072 44.9795 66.251 44.4326C66.0947 43.8857 65.8604 43.4121 65.5479 43.0117C65.2354 42.6016 64.8545 42.2891 64.4053 42.0742C63.9561 41.8496 63.4385 41.7373 62.8525 41.7373C62.0322 41.7373 61.3535 41.8789 60.8164 42.1621C60.2891 42.4453 59.8984 42.8457 59.6445 43.3633C59.3906 43.8711 59.2637 44.4619 59.2637 45.1357C59.2637 45.7607 59.3906 46.3076 59.6445 46.7764C59.8984 47.2451 60.3281 47.6699 60.9336 48.0508C61.5488 48.4219 62.3936 48.7881 63.4678 49.1494C64.7275 49.5498 65.7969 50.0234 66.6758 50.5703C67.5547 51.1074 68.2236 51.7715 68.6826 52.5625C69.1416 53.3438 69.3711 54.3154 69.3711 55.4775C69.3711 56.7373 69.0879 57.8018 68.5215 58.6709C67.9551 59.5303 67.1592 60.1846 66.1338 60.6338C65.1084 61.083 63.9072 61.3076 62.5303 61.3076C61.7002 61.3076 60.8799 61.1953 60.0693 60.9707C59.2588 60.7461 58.5264 60.3799 57.8721 59.8721C57.2178 59.3545 56.6953 58.6758 56.3047 57.8359C55.9141 56.9863 55.7188 55.9463 55.7188 54.7158H58.4434C58.4434 55.5459 58.5605 56.2344 58.7949 56.7812C59.0391 57.3184 59.3613 57.748 59.7617 58.0703C60.1621 58.3828 60.6016 58.6074 61.0801 58.7441C61.5684 58.8711 62.0518 58.9346 62.5303 58.9346C63.4092 58.9346 64.1514 58.7979 64.7568 58.5244C65.3721 58.2412 65.8408 57.8408 66.1631 57.3232C66.4854 56.8057 66.6465 56.2002 66.6465 55.5068Z" fill="black"/>
</svg>
