<svg width="100" height="100" viewBox="0 0 100 100" fill="none" xmlns="http://www.w3.org/2000/svg">
<rect x="5" y="5" width="90" height="90" rx="45" fill="#F3BA2F"/>
<circle cx="50" cy="50" r="42" fill="#F3BA2F"/>
<path d="M44.7578 56.8125C44.7578 56.1484 44.6536 55.5625 44.4453 55.0547C44.25 54.5339 43.8984 54.0651 43.3906 53.6484C42.8958 53.2318 42.2057 52.8346 41.3203 52.457C40.4479 52.0794 39.3411 51.6953 38 51.3047C36.5938 50.888 35.3242 50.4258 34.1914 49.918C33.0586 49.3971 32.0885 48.8047 31.2812 48.1406C30.474 47.4766 29.8555 46.7148 29.4258 45.8555C28.9961 44.9961 28.7812 44.013 28.7812 42.9062C28.7812 41.7995 29.0091 40.7773 29.4648 39.8398C29.9206 38.9023 30.5716 38.0885 31.418 37.3984C32.2773 36.6953 33.2995 36.1484 34.4844 35.7578C35.6693 35.3672 36.9909 35.1719 38.4492 35.1719C40.5846 35.1719 42.3945 35.582 43.8789 36.4023C45.3763 37.2096 46.5156 38.2708 47.2969 39.5859C48.0781 40.888 48.4688 42.2812 48.4688 43.7656H44.7188C44.7188 42.6979 44.4909 41.7539 44.0352 40.9336C43.5794 40.1003 42.8893 39.4492 41.9648 38.9805C41.0404 38.4987 39.8685 38.2578 38.4492 38.2578C37.1081 38.2578 36.0013 38.4596 35.1289 38.8633C34.2565 39.2669 33.6055 39.8138 33.1758 40.5039C32.7591 41.194 32.5508 41.9818 32.5508 42.8672C32.5508 43.4661 32.6745 44.013 32.9219 44.5078C33.1823 44.9896 33.5794 45.4388 34.1133 45.8555C34.6602 46.2721 35.3503 46.6562 36.1836 47.0078C37.0299 47.3594 38.0391 47.6979 39.2109 48.0234C40.8255 48.4792 42.2188 48.987 43.3906 49.5469C44.5625 50.1068 45.526 50.7383 46.2812 51.4414C47.0495 52.1315 47.6159 52.9193 47.9805 53.8047C48.3581 54.6771 48.5469 55.6667 48.5469 56.7734C48.5469 57.9323 48.3125 58.9805 47.8438 59.918C47.375 60.8555 46.7044 61.6562 45.832 62.3203C44.9596 62.9844 43.9115 63.4987 42.6875 63.8633C41.4766 64.2148 40.1224 64.3906 38.625 64.3906C37.3099 64.3906 36.0143 64.2083 34.7383 63.8438C33.4753 63.4792 32.3229 62.9323 31.2812 62.2031C30.2526 61.474 29.4258 60.5755 28.8008 59.5078C28.1888 58.4271 27.8828 57.1771 27.8828 55.7578H31.6328C31.6328 56.7344 31.8216 57.5742 32.1992 58.2773C32.5768 58.9674 33.0911 59.5404 33.7422 59.9961C34.4062 60.4518 35.1549 60.7904 35.9883 61.0117C36.8346 61.2201 37.7135 61.3242 38.625 61.3242C39.9401 61.3242 41.0534 61.1419 41.9648 60.7773C42.8763 60.4128 43.5664 59.8919 44.0352 59.2148C44.5169 58.5378 44.7578 57.737 44.7578 56.8125ZM53.3516 35.5625H62.7656C64.901 35.5625 66.7044 35.888 68.1758 36.5391C69.6602 37.1901 70.7865 38.1536 71.5547 39.4297C72.3359 40.6927 72.7266 42.2487 72.7266 44.0977C72.7266 45.3997 72.4596 46.5911 71.9258 47.6719C71.4049 48.7396 70.6497 49.651 69.6602 50.4062C68.6836 51.1484 67.5117 51.7018 66.1445 52.0664L65.0898 52.4766H56.2422L56.2031 49.4102H62.8828C64.237 49.4102 65.3633 49.1758 66.2617 48.707C67.1602 48.2253 67.8372 47.5807 68.293 46.7734C68.7487 45.9661 68.9766 45.0742 68.9766 44.0977C68.9766 43.0039 68.7617 42.0469 68.332 41.2266C67.9023 40.4062 67.2253 39.7747 66.3008 39.332C65.3893 38.8763 64.2109 38.6484 62.7656 38.6484H57.1211V64H53.3516V35.5625ZM69.9727 64L63.0586 51.1094L66.9844 51.0898L73.9961 63.7656V64H69.9727Z" fill="black"/>
</svg>
