<svg width="100" height="100" viewBox="0 0 100 100" fill="none" xmlns="http://www.w3.org/2000/svg">
<rect x="5" y="5" width="90" height="90" rx="45" fill="#F3BA2F"/>
<circle cx="50" cy="50" r="42" fill="#F3BA2F"/>
<path d="M27.85 55.534C27.416 55.534 27.044 55.379 26.734 55.069C26.4447 54.7797 26.3 54.4283 26.3 54.015C26.3 53.6017 26.4447 53.24 26.734 52.93C27.044 52.62 27.416 52.465 27.85 52.465C28.2633 52.465 28.6147 52.62 28.904 52.93C29.214 53.24 29.369 53.6017 29.369 54.015C29.369 54.4283 29.214 54.7797 28.904 55.069C28.6147 55.379 28.2633 55.534 27.85 55.534ZM28.16 64.214C26.7133 64.214 25.3287 64.0487 24.006 63.718C22.704 63.3873 21.5467 62.8707 20.534 62.168C19.542 61.486 18.7567 60.618 18.178 59.564C17.5993 58.51 17.31 57.27 17.31 55.844C17.31 54.6453 17.4857 53.4983 17.837 52.403C18.1883 51.3283 18.6947 50.3157 19.356 49.365C20.038 48.3937 20.8647 47.505 21.836 46.699C22.8073 45.893 23.913 45.18 25.153 44.56C26.393 43.9193 27.7467 43.382 29.214 42.948L28.873 43.351C28.3357 43.1857 27.788 43.01 27.23 42.824C26.672 42.6173 26.0933 42.4313 25.494 42.266C24.8947 42.08 24.254 41.9353 23.572 41.832C22.89 41.7287 22.1563 41.677 21.371 41.677C20.751 41.677 20.2033 41.7287 19.728 41.832C19.2733 41.9353 18.8393 42.0387 18.426 42.142L17.992 39.848C18.5293 39.6207 19.1287 39.445 19.79 39.321C20.472 39.1763 21.154 39.104 21.836 39.104C22.7867 39.104 23.634 39.197 24.378 39.383C25.122 39.5483 25.8247 39.755 26.486 40.003C27.168 40.251 27.881 40.5093 28.625 40.778C29.369 41.026 30.1957 41.243 31.105 41.429C32.035 41.5943 33.1303 41.6873 34.391 41.708H34.67L34.732 44.25C33.74 44.25 32.686 44.3637 31.57 44.591C30.454 44.8183 29.338 45.149 28.222 45.583C27.1267 46.017 26.0727 46.5543 25.06 47.195C24.0473 47.8357 23.1483 48.5797 22.363 49.427C21.5983 50.2537 20.9887 51.1733 20.534 52.186C20.0793 53.2193 19.852 54.3353 19.852 55.534C19.852 56.6087 20.0793 57.5283 20.534 58.293C20.9887 59.0783 21.6087 59.719 22.394 60.215C23.2 60.711 24.1197 61.0727 25.153 61.3C26.207 61.5273 27.3127 61.641 28.47 61.641C29.4827 61.641 30.516 61.5273 31.57 61.3C32.6447 61.0933 33.6883 60.7937 34.701 60.401L35.569 62.509C34.3703 63.0877 33.1407 63.5113 31.88 63.78C30.6193 64.0693 29.3793 64.214 28.16 64.214ZM38.9785 50.5166C38.9785 50.0423 39.1248 49.6437 39.4175 49.3208C39.7202 48.9878 40.1541 48.8213 40.7192 48.8213C41.2843 48.8213 41.7132 48.9878 42.0059 49.3208C42.3086 49.6437 42.46 50.0423 42.46 50.5166C42.46 50.9808 42.3086 51.3743 42.0059 51.6973C41.7132 52.0202 41.2843 52.1816 40.7192 52.1816C40.1541 52.1816 39.7202 52.0202 39.4175 51.6973C39.1248 51.3743 38.9785 50.9808 38.9785 50.5166ZM54.6757 59.192C53.4977 59.192 52.3817 59.0267 51.3277 58.696C50.2737 58.386 49.3333 57.921 48.5067 57.301C47.7007 56.681 47.06 55.9267 46.5847 55.038C46.13 54.17 45.9027 53.1677 45.9027 52.031C45.9027 51.535 45.944 51.008 46.0267 50.45C46.13 49.8713 46.2747 49.2617 46.4607 48.621C46.6673 47.9597 46.9153 47.2673 47.2047 46.544L49.4367 47.412C49.23 47.9907 49.044 48.5383 48.8787 49.055C48.734 49.5717 48.6203 50.0573 48.5377 50.512C48.4757 50.9667 48.4447 51.4007 48.4447 51.814C48.4447 52.868 48.7237 53.7567 49.2817 54.48C49.8603 55.2033 50.625 55.7407 51.5757 56.092C52.547 56.464 53.6113 56.65 54.7687 56.65C56.174 56.65 57.352 56.4847 58.3027 56.154C59.2533 55.844 60.0077 55.4203 60.5657 54.883C61.1237 54.3663 61.5163 53.7877 61.7437 53.147C61.9917 52.5063 62.1157 51.8553 62.1157 51.194C62.1157 50.2847 62.0433 49.427 61.8987 48.621C61.7747 47.815 61.599 47.0297 61.3717 46.265C61.165 45.4797 60.9377 44.684 60.6897 43.878L63.2007 43.196C63.428 43.9813 63.6037 44.622 63.7277 45.118C63.8517 45.5933 63.9447 45.9757 64.0067 46.265C64.0893 46.5543 64.1617 46.8127 64.2237 47.04C64.451 47.8047 64.7093 48.373 64.9987 48.745C65.3087 49.0963 65.66 49.334 66.0527 49.458C66.466 49.5613 66.931 49.613 67.4477 49.613C67.861 49.613 68.2227 49.5613 68.5327 49.458C68.8633 49.3547 69.163 49.1067 69.4317 48.714C69.721 48.3213 69.969 47.691 70.1757 46.823C70.403 45.955 70.6097 44.7667 70.7957 43.258L73.1517 43.692C73.0897 44.064 73.0173 44.5187 72.9347 45.056C72.852 45.5933 72.7693 46.1307 72.6867 46.668C72.6247 47.1847 72.5937 47.6187 72.5937 47.97C72.5937 48.2593 72.6557 48.5383 72.7797 48.807C72.9243 49.055 73.193 49.2513 73.5857 49.396C73.999 49.5407 74.6087 49.613 75.4147 49.613C76.0553 49.613 76.603 49.5717 77.0577 49.489C77.533 49.3857 77.8947 49.148 78.1427 48.776C78.4113 48.3833 78.5457 47.7737 78.5457 46.947C78.5457 46.4303 78.463 45.8207 78.2977 45.118C78.1323 44.3947 77.9153 43.63 77.6467 42.824C77.378 42.018 77.0887 41.2223 76.7787 40.437L79.2897 39.507C79.5583 40.1683 79.8063 40.9227 80.0337 41.77C80.2817 42.6173 80.4883 43.4543 80.6537 44.281C80.819 45.1077 80.9017 45.831 80.9017 46.451C80.9017 47.505 80.757 48.3937 80.4677 49.117C80.199 49.8403 79.8167 50.4293 79.3207 50.884C78.8247 51.3387 78.2357 51.6693 77.5537 51.876C76.8923 52.062 76.169 52.155 75.3837 52.155C74.6603 52.155 74.03 52.093 73.4927 51.969C72.976 51.845 72.5317 51.659 72.1597 51.411C71.8083 51.1423 71.5293 50.8117 71.3227 50.419C71.1367 50.0057 71.0023 49.5303 70.9197 48.993H71.9737C71.643 49.737 71.271 50.3467 70.8577 50.822C70.4443 51.2767 69.9483 51.6177 69.3697 51.845C68.8117 52.0517 68.1193 52.155 67.2927 52.155C66.652 52.155 66.1043 52.0723 65.6497 51.907C65.195 51.721 64.8127 51.4937 64.5027 51.225C64.2133 50.9357 63.986 50.6153 63.8207 50.264C63.6553 49.892 63.5313 49.52 63.4487 49.148L64.7197 50.729C64.6163 51.721 64.389 52.713 64.0377 53.705C63.707 54.697 63.1697 55.6063 62.4257 56.433C61.7023 57.2803 60.7103 57.952 59.4497 58.448C58.189 58.944 56.5977 59.192 54.6757 59.192ZM84.6309 50.5166C84.6309 50.0423 84.7772 49.6437 85.0698 49.3208C85.3726 48.9878 85.8065 48.8213 86.3716 48.8213C86.9367 48.8213 87.3656 48.9878 87.6582 49.3208C87.9609 49.6437 88.1123 50.0423 88.1123 50.5166C88.1123 50.9808 87.9609 51.3743 87.6582 51.6973C87.3656 52.0202 86.9367 52.1816 86.3716 52.1816C85.8065 52.1816 85.3726 52.0202 85.0698 51.6973C84.7772 51.3743 84.6309 50.9808 84.6309 50.5166Z" fill="black"/>
</svg>
