<svg width="100" height="100" viewBox="0 0 100 100" fill="none" xmlns="http://www.w3.org/2000/svg">
<rect x="5" y="5" width="90" height="90" rx="45" fill="#F3BA2F"/>
<circle cx="50" cy="50" r="42" fill="#F3BA2F"/>
<path d="M39.4727 34V64H35.8398V34H39.4727ZM52.3828 42.8672L43.1641 52.7305L38.0078 58.082L37.7148 54.2344L41.4062 49.8203L47.9688 42.8672H52.3828ZM49.082 64L41.543 53.9219L43.418 50.6992L53.3398 64H49.082ZM59.7266 46.1875V64H56.1133V42.8672H59.6289L59.7266 46.1875ZM66.3281 42.75L66.3086 46.1094C66.0091 46.0443 65.7227 46.0052 65.4492 45.9922C65.1888 45.9661 64.8893 45.9531 64.5508 45.9531C63.7174 45.9531 62.9818 46.0833 62.3438 46.3438C61.7057 46.6042 61.1654 46.9688 60.7227 47.4375C60.2799 47.9062 59.9284 48.4661 59.668 49.1172C59.4206 49.7552 59.2578 50.4583 59.1797 51.2266L58.1641 51.8125C58.1641 50.5365 58.2878 49.3385 58.5352 48.2188C58.7956 47.099 59.1927 46.1094 59.7266 45.25C60.2604 44.3776 60.9375 43.7005 61.7578 43.2188C62.5911 42.724 63.5807 42.4766 64.7266 42.4766C64.987 42.4766 65.2865 42.5091 65.625 42.5742C65.9635 42.6263 66.1979 42.6849 66.3281 42.75Z" fill="black"/>
</svg>
