<svg width="100" height="100" viewBox="0 0 100 100" fill="none" xmlns="http://www.w3.org/2000/svg">
<rect x="5" y="5" width="90" height="90" rx="45" fill="#F3BA2F"/>
<circle cx="50" cy="50" r="42" fill="#F3BA2F"/>
<path d="M39.543 28.6484V35.2012H36.3203V28.6484H39.543ZM39.1562 63.7324V69.4688H35.9551V63.7324H39.1562ZM43.4531 56.9434C43.4531 56.084 43.2598 55.3105 42.873 54.623C42.4863 53.9355 41.849 53.3053 40.9609 52.7324C40.0729 52.1595 38.8841 51.6296 37.3945 51.1426C35.5898 50.584 34.0286 49.9036 32.7109 49.1016C31.4076 48.2995 30.3978 47.304 29.6816 46.1152C28.9798 44.9264 28.6289 43.487 28.6289 41.7969C28.6289 40.0352 29.0085 38.5169 29.7676 37.2422C30.5267 35.9674 31.6009 34.9863 32.9902 34.2988C34.3796 33.6113 36.0124 33.2676 37.8887 33.2676C39.3496 33.2676 40.653 33.4896 41.7988 33.9336C42.9447 34.3633 43.9115 35.0078 44.6992 35.8672C45.5013 36.7266 46.11 37.7793 46.5254 39.0254C46.9551 40.2715 47.1699 41.7109 47.1699 43.3438H43.2168C43.2168 42.3841 43.1022 41.5033 42.873 40.7012C42.6439 39.8991 42.3001 39.2044 41.8418 38.6172C41.3835 38.0156 40.8249 37.5573 40.166 37.2422C39.5072 36.9128 38.748 36.748 37.8887 36.748C36.6855 36.748 35.6901 36.9557 34.9023 37.3711C34.1289 37.7865 33.556 38.3737 33.1836 39.1328C32.8112 39.8776 32.625 40.7441 32.625 41.7324C32.625 42.6491 32.8112 43.4512 33.1836 44.1387C33.556 44.8262 34.1862 45.4492 35.0742 46.0078C35.9766 46.5521 37.2155 47.0892 38.791 47.6191C40.6387 48.2064 42.207 48.901 43.4961 49.7031C44.7852 50.4909 45.7663 51.4648 46.4395 52.625C47.1126 53.7708 47.4492 55.196 47.4492 56.9004C47.4492 58.748 47.0339 60.3092 46.2031 61.584C45.3724 62.8444 44.2051 63.804 42.7012 64.4629C41.1973 65.1217 39.4355 65.4512 37.416 65.4512C36.1986 65.4512 34.9954 65.2865 33.8066 64.957C32.6178 64.6276 31.5436 64.0905 30.584 63.3457C29.6243 62.5866 28.8581 61.5911 28.2852 60.3594C27.7122 59.1133 27.4258 57.5879 27.4258 55.7832H31.4219C31.4219 57.0007 31.5938 58.0104 31.9375 58.8125C32.2956 59.6003 32.7682 60.2305 33.3555 60.7031C33.9427 61.1615 34.5872 61.4909 35.2891 61.6914C36.0052 61.8776 36.7142 61.9707 37.416 61.9707C38.7051 61.9707 39.7936 61.7702 40.6816 61.3691C41.584 60.9538 42.2715 60.3665 42.7441 59.6074C43.2168 58.8483 43.4531 57.9603 43.4531 56.9434ZM70.1152 57.0938C70.1152 56.3633 70.0007 55.7188 69.7715 55.1602C69.5566 54.5872 69.1699 54.0716 68.6113 53.6133C68.0671 53.1549 67.3079 52.7181 66.334 52.3027C65.3743 51.8874 64.1569 51.4648 62.6816 51.0352C61.1348 50.5768 59.7383 50.0684 58.4922 49.5098C57.2461 48.9368 56.179 48.2852 55.291 47.5547C54.403 46.8242 53.7227 45.9863 53.25 45.041C52.7773 44.0957 52.541 43.0143 52.541 41.7969C52.541 40.5794 52.7917 39.4551 53.293 38.4238C53.7943 37.3926 54.5104 36.4974 55.4414 35.7383C56.3867 34.9648 57.5111 34.3633 58.8145 33.9336C60.1178 33.5039 61.5716 33.2891 63.1758 33.2891C65.5247 33.2891 67.5156 33.7402 69.1484 34.6426C70.7956 35.5306 72.0488 36.6979 72.9082 38.1445C73.7676 39.5768 74.1973 41.1094 74.1973 42.7422H70.0723C70.0723 41.5677 69.8216 40.5293 69.3203 39.627C68.819 38.7103 68.0599 37.9941 67.043 37.4785C66.026 36.9486 64.737 36.6836 63.1758 36.6836C61.7005 36.6836 60.4831 36.9056 59.5234 37.3496C58.5638 37.7936 57.8477 38.3952 57.375 39.1543C56.9167 39.9134 56.6875 40.7799 56.6875 41.7539C56.6875 42.4128 56.8236 43.0143 57.0957 43.5586C57.3822 44.0885 57.819 44.5827 58.4062 45.041C59.0078 45.4993 59.7669 45.9219 60.6836 46.3086C61.6146 46.6953 62.7246 47.0677 64.0137 47.4258C65.7897 47.9271 67.3223 48.4857 68.6113 49.1016C69.9004 49.7174 70.9603 50.4121 71.791 51.1855C72.6361 51.9447 73.2591 52.8112 73.6602 53.7852C74.0755 54.7448 74.2832 55.8333 74.2832 57.0508C74.2832 58.3255 74.0254 59.4785 73.5098 60.5098C72.9941 61.541 72.2565 62.4219 71.2969 63.1523C70.3372 63.8828 69.1842 64.4486 67.8379 64.8496C66.5059 65.2363 65.0163 65.4297 63.3691 65.4297C61.9225 65.4297 60.4974 65.2292 59.0938 64.8281C57.7044 64.4271 56.4368 63.8255 55.291 63.0234C54.1595 62.2214 53.25 61.2331 52.5625 60.0586C51.8893 58.8698 51.5527 57.4948 51.5527 55.9336H55.6777C55.6777 57.0078 55.8854 57.9316 56.3008 58.7051C56.7161 59.4642 57.2819 60.0944 57.998 60.5957C58.7285 61.097 59.5521 61.4694 60.4688 61.7129C61.3997 61.9421 62.3665 62.0566 63.3691 62.0566C64.8158 62.0566 66.0404 61.8561 67.043 61.4551C68.0456 61.054 68.8047 60.4811 69.3203 59.7363C69.8503 58.9915 70.1152 58.1107 70.1152 57.0938Z" fill="black"/>
</svg>
