<svg width="100" height="100" viewBox="0 0 100 100" fill="none" xmlns="http://www.w3.org/2000/svg">
<rect x="5" y="5" width="90" height="90" rx="45" fill="#F3BA2F"/>
<circle cx="50" cy="50" r="42" fill="#F3BA2F"/>
<path d="M49.6602 60.9336V64H35.4414V60.9336H49.6602ZM36.1836 35.5625V64H32.4141V35.5625H36.1836ZM62.1992 64.3906C60.7279 64.3906 59.3932 64.1432 58.1953 63.6484C57.0104 63.1406 55.9883 62.431 55.1289 61.5195C54.2826 60.6081 53.6315 59.5273 53.1758 58.2773C52.7201 57.0273 52.4922 55.6602 52.4922 54.1758V53.3555C52.4922 51.6367 52.7461 50.1068 53.2539 48.7656C53.7617 47.4115 54.4518 46.2656 55.3242 45.3281C56.1966 44.3906 57.1862 43.681 58.293 43.1992C59.3997 42.7174 60.5456 42.4766 61.7305 42.4766C63.2409 42.4766 64.543 42.737 65.6367 43.2578C66.7435 43.7786 67.6484 44.5078 68.3516 45.4453C69.0547 46.3698 69.5755 47.4635 69.9141 48.7266C70.2526 49.9766 70.4219 51.3438 70.4219 52.8281V54.4492H54.6406V51.5H66.8086V51.2266C66.7565 50.2891 66.5612 49.3776 66.2227 48.4922C65.8971 47.6068 65.3763 46.8776 64.6602 46.3047C63.944 45.7318 62.9674 45.4453 61.7305 45.4453C60.9102 45.4453 60.1549 45.6211 59.4648 45.9727C58.7747 46.3112 58.1823 46.819 57.6875 47.4961C57.1927 48.1732 56.8086 49 56.5352 49.9766C56.2617 50.9531 56.125 52.0794 56.125 53.3555V54.1758C56.125 55.1784 56.2617 56.1224 56.5352 57.0078C56.8216 57.8802 57.2318 58.6484 57.7656 59.3125C58.3125 59.9766 58.9701 60.4974 59.7383 60.875C60.5195 61.2526 61.4049 61.4414 62.3945 61.4414C63.6706 61.4414 64.7513 61.181 65.6367 60.6602C66.5221 60.1393 67.2969 59.4427 67.9609 58.5703L70.1484 60.3086C69.6927 60.9987 69.1133 61.6562 68.4102 62.2812C67.707 62.9062 66.8411 63.4141 65.8125 63.8047C64.7969 64.1953 63.5924 64.3906 62.1992 64.3906Z" fill="black"/>
</svg>
