<svg width="100" height="100" viewBox="0 0 100 100" fill="none" xmlns="http://www.w3.org/2000/svg">
<rect x="5" y="5" width="90" height="90" rx="45" fill="#F3BA2F"/>
<circle cx="50" cy="50" r="42" fill="#F3BA2F"/>
<path d="M25.9971 54.3281C25.9971 53.8965 25.9294 53.5156 25.7939 53.1855C25.667 52.847 25.4385 52.5423 25.1084 52.2715C24.7868 52.0007 24.3382 51.7425 23.7627 51.4971C23.1956 51.2516 22.4762 51.002 21.6045 50.748C20.6904 50.4772 19.8652 50.1768 19.1289 49.8467C18.3926 49.5081 17.762 49.123 17.2373 48.6914C16.7126 48.2598 16.3105 47.7646 16.0312 47.2061C15.752 46.6475 15.6123 46.0085 15.6123 45.2891C15.6123 44.5697 15.7604 43.9053 16.0566 43.2959C16.3529 42.6865 16.776 42.1576 17.3262 41.709C17.8848 41.252 18.5492 40.8965 19.3193 40.6426C20.0895 40.3887 20.9486 40.2617 21.8965 40.2617C23.2845 40.2617 24.4609 40.5283 25.4258 41.0615C26.3991 41.5863 27.1396 42.276 27.6475 43.1309C28.1553 43.9772 28.4092 44.8828 28.4092 45.8477H25.9717C25.9717 45.1536 25.8236 44.54 25.5273 44.0068C25.2311 43.4652 24.7826 43.042 24.1816 42.7373C23.5807 42.4242 22.819 42.2676 21.8965 42.2676C21.0247 42.2676 20.3053 42.3988 19.7383 42.6611C19.1712 42.9235 18.748 43.279 18.4688 43.7275C18.1979 44.1761 18.0625 44.6882 18.0625 45.2637C18.0625 45.653 18.1429 46.0085 18.3037 46.3301C18.473 46.6432 18.7311 46.9352 19.0781 47.2061C19.4336 47.4769 19.8822 47.7266 20.4238 47.9551C20.974 48.1836 21.6299 48.4036 22.3916 48.6152C23.4411 48.9115 24.3467 49.2415 25.1084 49.6055C25.8701 49.9694 26.4964 50.3799 26.9873 50.8369C27.4867 51.2855 27.8548 51.7975 28.0918 52.373C28.3372 52.9401 28.46 53.5833 28.46 54.3027C28.46 55.056 28.3076 55.7373 28.0029 56.3467C27.6982 56.9561 27.2624 57.4766 26.6953 57.9082C26.1283 58.3398 25.4469 58.6742 24.6514 58.9111C23.8643 59.1396 22.984 59.2539 22.0107 59.2539C21.1559 59.2539 20.3138 59.1354 19.4844 58.8984C18.6634 58.6615 17.9144 58.306 17.2373 57.832C16.5687 57.3581 16.0312 56.7741 15.625 56.0801C15.2272 55.3776 15.0283 54.5651 15.0283 53.6426H17.4658C17.4658 54.2773 17.5885 54.8232 17.834 55.2803C18.0794 55.7288 18.4137 56.1012 18.8369 56.3975C19.2686 56.6937 19.7552 56.9137 20.2969 57.0576C20.847 57.193 21.4183 57.2607 22.0107 57.2607C22.8656 57.2607 23.5892 57.1423 24.1816 56.9053C24.7741 56.6683 25.2227 56.3298 25.5273 55.8896C25.8405 55.4495 25.9971 54.929 25.9971 54.3281ZM33.5762 39.5V59H31.2275V39.5H33.5762ZM33.0176 51.6113L32.04 51.5732C32.0485 50.6338 32.1882 49.7663 32.459 48.9707C32.7298 48.1667 33.1107 47.4684 33.6016 46.876C34.0924 46.2835 34.6764 45.8265 35.3535 45.5049C36.0391 45.1748 36.7965 45.0098 37.626 45.0098C38.3031 45.0098 38.9124 45.1029 39.4541 45.2891C39.9958 45.4668 40.457 45.7546 40.8379 46.1523C41.2272 46.5501 41.5234 47.0664 41.7266 47.7012C41.9297 48.3275 42.0312 49.0934 42.0312 49.999V59H39.6699V49.9736C39.6699 49.2542 39.5641 48.6787 39.3525 48.2471C39.141 47.807 38.832 47.4896 38.4258 47.2949C38.0195 47.0918 37.5202 46.9902 36.9277 46.9902C36.3438 46.9902 35.8105 47.113 35.3281 47.3584C34.8542 47.6038 34.4437 47.9424 34.0967 48.374C33.7581 48.8057 33.4915 49.3008 33.2969 49.8594C33.1107 50.4095 33.0176 50.9935 33.0176 51.6113ZM45.5859 57.7559C45.5859 57.3581 45.7087 57.0238 45.9541 56.7529C46.208 56.4736 46.5719 56.334 47.0459 56.334C47.5199 56.334 47.8796 56.4736 48.125 56.7529C48.3789 57.0238 48.5059 57.3581 48.5059 57.7559C48.5059 58.1452 48.3789 58.4753 48.125 58.7461C47.8796 59.0169 47.5199 59.1523 47.0459 59.1523C46.5719 59.1523 46.208 59.0169 45.9541 58.7461C45.7087 58.4753 45.5859 58.1452 45.5859 57.7559ZM60.4014 55.3564C60.4014 55.0179 60.3252 54.7048 60.1729 54.417C60.029 54.1208 59.7285 53.8542 59.2715 53.6172C58.8229 53.3717 58.1458 53.1602 57.2402 52.9824C56.4785 52.8216 55.7887 52.6312 55.1709 52.4111C54.5615 52.1911 54.041 51.9245 53.6094 51.6113C53.1862 51.2982 52.8604 50.93 52.6318 50.5068C52.4033 50.0837 52.2891 49.5885 52.2891 49.0215C52.2891 48.4798 52.4076 47.9678 52.6445 47.4854C52.89 47.0029 53.2327 46.5755 53.6729 46.2031C54.1214 45.8307 54.6589 45.5387 55.2852 45.3271C55.9115 45.1156 56.6097 45.0098 57.3799 45.0098C58.4801 45.0098 59.4196 45.2044 60.1982 45.5938C60.9769 45.9831 61.5736 46.5036 61.9883 47.1553C62.403 47.7985 62.6104 48.5137 62.6104 49.3008H60.2617C60.2617 48.9199 60.1475 48.5518 59.9189 48.1963C59.6989 47.8324 59.373 47.5319 58.9414 47.2949C58.5182 47.0579 57.9977 46.9395 57.3799 46.9395C56.7282 46.9395 56.1992 47.041 55.793 47.2441C55.3952 47.4388 55.1032 47.6885 54.917 47.9932C54.7393 48.2979 54.6504 48.6195 54.6504 48.958C54.6504 49.2119 54.6927 49.4404 54.7773 49.6436C54.8704 49.8382 55.0312 50.0202 55.2598 50.1895C55.4883 50.3503 55.8099 50.5026 56.2246 50.6465C56.6393 50.7904 57.1683 50.9342 57.8115 51.0781C58.9372 51.332 59.8639 51.6367 60.5918 51.9922C61.3197 52.3477 61.8613 52.7835 62.2168 53.2998C62.5723 53.8161 62.75 54.4424 62.75 55.1787C62.75 55.7796 62.623 56.3298 62.3691 56.8291C62.1237 57.3285 61.764 57.7601 61.29 58.124C60.8245 58.4795 60.266 58.7588 59.6143 58.9619C58.971 59.1566 58.2474 59.2539 57.4434 59.2539C56.2331 59.2539 55.209 59.0381 54.3711 58.6064C53.5332 58.1748 52.8984 57.6162 52.4668 56.9307C52.0352 56.2451 51.8193 55.5215 51.8193 54.7598H54.1807C54.2145 55.403 54.4007 55.915 54.7393 56.2959C55.0778 56.6683 55.4925 56.9349 55.9834 57.0957C56.4743 57.248 56.9609 57.3242 57.4434 57.3242C58.0866 57.3242 58.624 57.2396 59.0557 57.0703C59.4958 56.901 59.8301 56.6683 60.0586 56.3721C60.2871 56.0758 60.4014 55.7373 60.4014 55.3564ZM65.2129 52.2842V51.9922C65.2129 51.002 65.3568 50.0837 65.6445 49.2373C65.9323 48.3825 66.347 47.6419 66.8887 47.0156C67.4303 46.3809 68.0863 45.89 68.8564 45.543C69.6266 45.1875 70.4899 45.0098 71.4463 45.0098C72.4111 45.0098 73.2786 45.1875 74.0488 45.543C74.8275 45.89 75.4876 46.3809 76.0293 47.0156C76.5794 47.6419 76.9984 48.3825 77.2861 49.2373C77.5739 50.0837 77.7178 51.002 77.7178 51.9922V52.2842C77.7178 53.2744 77.5739 54.1927 77.2861 55.0391C76.9984 55.8854 76.5794 56.626 76.0293 57.2607C75.4876 57.887 74.8317 58.3779 74.0615 58.7334C73.2998 59.0804 72.4365 59.2539 71.4717 59.2539C70.5068 59.2539 69.6393 59.0804 68.8691 58.7334C68.099 58.3779 67.4388 57.887 66.8887 57.2607C66.347 56.626 65.9323 55.8854 65.6445 55.0391C65.3568 54.1927 65.2129 53.2744 65.2129 52.2842ZM67.5615 51.9922V52.2842C67.5615 52.9697 67.6419 53.6172 67.8027 54.2266C67.9635 54.8275 68.2048 55.3607 68.5264 55.8262C68.8564 56.2917 69.2669 56.6598 69.7578 56.9307C70.2487 57.193 70.82 57.3242 71.4717 57.3242C72.1149 57.3242 72.6777 57.193 73.1602 56.9307C73.651 56.6598 74.0573 56.2917 74.3789 55.8262C74.7005 55.3607 74.9417 54.8275 75.1025 54.2266C75.2718 53.6172 75.3564 52.9697 75.3564 52.2842V51.9922C75.3564 51.3151 75.2718 50.6761 75.1025 50.0752C74.9417 49.4658 74.6963 48.9284 74.3662 48.4629C74.0446 47.9889 73.6383 47.6165 73.1475 47.3457C72.665 47.0749 72.098 46.9395 71.4463 46.9395C70.8031 46.9395 70.236 47.0749 69.7451 47.3457C69.2627 47.6165 68.8564 47.9889 68.5264 48.4629C68.2048 48.9284 67.9635 49.4658 67.8027 50.0752C67.6419 50.6761 67.5615 51.3151 67.5615 51.9922ZM80.7012 57.7559C80.7012 57.3581 80.8239 57.0238 81.0693 56.7529C81.3232 56.4736 81.6872 56.334 82.1611 56.334C82.6351 56.334 82.9948 56.4736 83.2402 56.7529C83.4941 57.0238 83.6211 57.3581 83.6211 57.7559C83.6211 58.1452 83.4941 58.4753 83.2402 58.7461C82.9948 59.0169 82.6351 59.1523 82.1611 59.1523C81.6872 59.1523 81.3232 59.0169 81.0693 58.7461C80.8239 58.4753 80.7012 58.1452 80.7012 57.7559Z" fill="black"/>
</svg>
