<svg width="100" height="100" viewBox="0 0 100 100" fill="none" xmlns="http://www.w3.org/2000/svg">
<rect x="5" y="5" width="90" height="90" rx="45" fill="#F3BA2F"/>
<circle cx="50" cy="50" r="42" fill="#F3BA2F"/>
<path d="M37.1406 64H31.2031L31.2422 60.9336H37.1406C39.1719 60.9336 40.8646 60.5104 42.2188 59.6641C43.5729 58.8047 44.5885 57.6068 45.2656 56.0703C45.9557 54.5208 46.3008 52.7109 46.3008 50.6406V48.9023C46.3008 47.2747 46.1055 45.8294 45.7148 44.5664C45.3242 43.2904 44.7513 42.2161 43.9961 41.3438C43.2409 40.4583 42.3164 39.7878 41.2227 39.332C40.1419 38.8763 38.8984 38.6484 37.4922 38.6484H31.0859V35.5625H37.4922C39.3542 35.5625 41.0534 35.875 42.5898 36.5C44.1263 37.112 45.4479 38.0039 46.5547 39.1758C47.6745 40.3346 48.5339 41.7409 49.1328 43.3945C49.7318 45.0352 50.0312 46.8841 50.0312 48.9414V50.6406C50.0312 52.6979 49.7318 54.5534 49.1328 56.207C48.5339 57.8477 47.668 59.2474 46.5352 60.4062C45.4154 61.5651 44.0612 62.457 42.4727 63.082C40.8971 63.694 39.1198 64 37.1406 64ZM33.2148 35.5625V64H29.4453V35.5625H33.2148ZM55.1289 34H58.7617V59.8984L58.4492 64H55.1289V34ZM73.0391 53.2578V53.668C73.0391 55.2044 72.8568 56.6302 72.4922 57.9453C72.1276 59.2474 71.5938 60.3802 70.8906 61.3438C70.1875 62.3073 69.3281 63.056 68.3125 63.5898C67.2969 64.1237 66.1315 64.3906 64.8164 64.3906C63.4753 64.3906 62.2969 64.1628 61.2812 63.707C60.2786 63.2383 59.4323 62.5677 58.7422 61.6953C58.0521 60.8229 57.4987 59.7682 57.082 58.5312C56.6784 57.2943 56.3984 55.901 56.2422 54.3516V52.5547C56.3984 50.9922 56.6784 49.5924 57.082 48.3555C57.4987 47.1185 58.0521 46.0638 58.7422 45.1914C59.4323 44.306 60.2786 43.6354 61.2812 43.1797C62.2839 42.7109 63.4492 42.4766 64.7773 42.4766C66.1055 42.4766 67.2839 42.737 68.3125 43.2578C69.3411 43.7656 70.2005 44.4948 70.8906 45.4453C71.5938 46.3958 72.1276 47.5352 72.4922 48.8633C72.8568 50.1784 73.0391 51.6432 73.0391 53.2578ZM69.4062 53.668V53.2578C69.4062 52.2031 69.3086 51.2135 69.1133 50.2891C68.918 49.3516 68.6055 48.5312 68.1758 47.8281C67.7461 47.112 67.1797 46.5521 66.4766 46.1484C65.7734 45.7318 64.9076 45.5234 63.8789 45.5234C62.9674 45.5234 62.1732 45.6797 61.4961 45.9922C60.832 46.3047 60.2656 46.7279 59.7969 47.2617C59.3281 47.7826 58.944 48.3815 58.6445 49.0586C58.3581 49.7227 58.1432 50.4128 58 51.1289V55.8359C58.2083 56.7474 58.5469 57.6263 59.0156 58.4727C59.4974 59.306 60.1354 59.9896 60.9297 60.5234C61.737 61.0573 62.7331 61.3242 63.918 61.3242C64.8945 61.3242 65.7279 61.1289 66.418 60.7383C67.1211 60.3346 67.6875 59.7812 68.1172 59.0781C68.5599 58.375 68.8854 57.5612 69.0938 56.6367C69.3021 55.7122 69.4062 54.7227 69.4062 53.668Z" fill="black"/>
</svg>
