<svg width="100" height="100" viewBox="0 0 100 100" fill="none" xmlns="http://www.w3.org/2000/svg">
<rect x="5" y="5" width="90" height="90" rx="45" fill="#F3BA2F"/>
<circle cx="50" cy="50" r="42" fill="#F3BA2F"/>
<path d="M48.5156 63H28.3398V59.9336H48.5156V63ZM41.3867 50.832H28.2617V47.7656H41.3867V50.832ZM34.9805 42.707L35.4102 55.1484C35.4232 56.3724 35.2474 57.5182 34.8828 58.5859C34.5182 59.6406 33.9714 60.4349 33.2422 60.9688L29.8438 59.9336C30.2995 59.8164 30.6576 59.4909 30.918 58.957C31.1914 58.4102 31.3802 57.7852 31.4844 57.082C31.6016 56.3789 31.6602 55.7409 31.6602 55.168L31.2305 42.707C31.2305 40.9102 31.6081 39.3802 32.3633 38.1172C33.1185 36.8411 34.1471 35.8646 35.4492 35.1875C36.7643 34.5104 38.2487 34.1719 39.9023 34.1719C41.6081 34.1719 43.0599 34.4909 44.2578 35.1289C45.4557 35.7669 46.3737 36.6589 47.0117 37.8047C47.6497 38.9375 47.9688 40.2591 47.9688 41.7695H44.2188C44.2188 40.6758 43.9974 39.7969 43.5547 39.1328C43.125 38.4688 42.5586 37.987 41.8555 37.6875C41.1523 37.388 40.3971 37.2383 39.5898 37.2383C38.7305 37.2383 37.9492 37.4531 37.2461 37.8828C36.556 38.2995 36.0026 38.918 35.5859 39.7383C35.1823 40.5456 34.9805 41.5352 34.9805 42.707ZM68.2227 55.8125C68.2227 55.1484 68.1185 54.5625 67.9102 54.0547C67.7148 53.5339 67.3633 53.0651 66.8555 52.6484C66.3607 52.2318 65.6706 51.8346 64.7852 51.457C63.9128 51.0794 62.806 50.6953 61.4648 50.3047C60.0586 49.888 58.7891 49.4258 57.6562 48.918C56.5234 48.3971 55.5534 47.8047 54.7461 47.1406C53.9388 46.4766 53.3203 45.7148 52.8906 44.8555C52.4609 43.9961 52.2461 43.013 52.2461 41.9062C52.2461 40.7995 52.474 39.7773 52.9297 38.8398C53.3854 37.9023 54.0365 37.0885 54.8828 36.3984C55.7422 35.6953 56.7643 35.1484 57.9492 34.7578C59.1341 34.3672 60.4557 34.1719 61.9141 34.1719C64.0495 34.1719 65.8594 34.582 67.3438 35.4023C68.8411 36.2096 69.9805 37.2708 70.7617 38.5859C71.543 39.888 71.9336 41.2812 71.9336 42.7656H68.1836C68.1836 41.6979 67.9557 40.7539 67.5 39.9336C67.0443 39.1003 66.3542 38.4492 65.4297 37.9805C64.5052 37.4987 63.3333 37.2578 61.9141 37.2578C60.5729 37.2578 59.4661 37.4596 58.5938 37.8633C57.7214 38.2669 57.0703 38.8138 56.6406 39.5039C56.224 40.194 56.0156 40.9818 56.0156 41.8672C56.0156 42.4661 56.1393 43.013 56.3867 43.5078C56.6471 43.9896 57.0443 44.4388 57.5781 44.8555C58.125 45.2721 58.8151 45.6562 59.6484 46.0078C60.4948 46.3594 61.5039 46.6979 62.6758 47.0234C64.2904 47.4792 65.6836 47.987 66.8555 48.5469C68.0273 49.1068 68.9909 49.7383 69.7461 50.4414C70.5143 51.1315 71.0807 51.9193 71.4453 52.8047C71.8229 53.6771 72.0117 54.6667 72.0117 55.7734C72.0117 56.9323 71.7773 57.9805 71.3086 58.918C70.8398 59.8555 70.1693 60.6562 69.2969 61.3203C68.4245 61.9844 67.3763 62.4987 66.1523 62.8633C64.9414 63.2148 63.5872 63.3906 62.0898 63.3906C60.7747 63.3906 59.4792 63.2083 58.2031 62.8438C56.9401 62.4792 55.7878 61.9323 54.7461 61.2031C53.7174 60.474 52.8906 59.5755 52.2656 58.5078C51.6536 57.4271 51.3477 56.1771 51.3477 54.7578H55.0977C55.0977 55.7344 55.2865 56.5742 55.6641 57.2773C56.0417 57.9674 56.556 58.5404 57.207 58.9961C57.8711 59.4518 58.6198 59.7904 59.4531 60.0117C60.2995 60.2201 61.1784 60.3242 62.0898 60.3242C63.4049 60.3242 64.5182 60.1419 65.4297 59.7773C66.3411 59.4128 67.0312 58.8919 67.5 58.2148C67.9818 57.5378 68.2227 56.737 68.2227 55.8125Z" fill="black"/>
</svg>
