<svg width="100" height="100" viewBox="0 0 100 100" fill="none" xmlns="http://www.w3.org/2000/svg">
<rect x="5" y="5" width="90" height="90" rx="45" fill="#F3BA2F"/>
<circle cx="50" cy="50" r="42" fill="#F3BA2F"/>
<path d="M51.7772 26C51.7772 28.2588 51.7772 30.5176 51.7772 32.7843C52.1025 32.8157 52.4121 32.8392 52.7216 32.8706C54.7056 33.0745 56.65 33.4353 58.4833 34.2588C59.4912 34.7059 60.4118 35.2941 61.1895 36.0784C62.1419 37.0431 62.745 38.1961 63.0148 39.5137C63.2926 40.8784 63.2926 42.2431 62.9434 43.5922C62.5228 45.2235 61.5387 46.4549 60.1261 47.3647C59.2769 47.9137 58.3404 48.2588 57.3801 48.5569C57.0468 48.6588 56.7135 48.7451 56.3802 48.8471C56.3325 48.8627 56.3008 48.902 56.2611 48.9333C56.3008 48.9569 56.3405 48.9961 56.3881 49.0039C57.2928 49.1922 58.1817 49.4275 59.0467 49.749C60.3007 50.2196 61.4752 50.8314 62.4752 51.7255C63.7529 52.8706 64.5307 54.2902 64.8402 55.9608C65.0068 56.8627 65.0465 57.7725 64.9433 58.6902C64.8243 59.6941 64.5069 60.6275 64.0307 61.5137C62.9196 63.5608 61.2133 64.9255 59.0467 65.7569C57.9277 66.1882 56.769 66.4471 55.5786 66.6039C54.3802 66.7686 53.1739 66.8078 51.9676 66.8C51.9121 66.8 51.8486 66.8 51.7851 66.8C51.7851 69.2078 51.7851 71.6 51.7851 74C50.6423 74 49.5153 74 48.3646 74C48.3646 71.6078 48.3646 69.2078 48.3646 66.8C43.9044 66.8 39.4602 66.8 35.0079 66.8C35.0079 66.4549 35.0079 66.1176 35.0079 65.7647C35.0873 65.7647 35.1667 65.7647 35.2381 65.7647C36.119 65.749 36.992 65.702 37.8491 65.4824C38.23 65.3804 38.5951 65.2392 38.9205 65.0118C39.3808 64.698 39.6189 64.251 39.7697 63.7333C39.976 62.9961 40.0316 62.251 40.0474 61.4902C40.0474 61.3333 40.0474 61.1765 40.0474 61.0196C40.0474 53.498 40.0474 45.9765 40.0474 38.4549C40.0474 37.7333 40.0157 37.0118 39.8649 36.298C39.7697 35.8667 39.6348 35.4588 39.4125 35.0745C39.1983 34.7137 38.9046 34.4549 38.5157 34.298C37.992 34.0784 37.4444 33.9529 36.8809 33.8902C36.2857 33.8196 35.6905 33.7725 35.0952 33.7176C35.0635 33.7176 35.0397 33.7098 35 33.7098C35 33.3882 35 33.0745 35 32.7451C39.4443 32.7451 43.8886 32.7451 48.3487 32.7451C48.3487 32.6824 48.3487 32.6275 48.3487 32.5725C48.3487 30.4392 48.3487 28.298 48.3487 26.1647C48.3487 26.1098 48.3487 26.0549 48.3567 26.0078C49.5074 26 50.6423 26 51.7772 26ZM51.7851 64.7922C51.9914 64.7686 52.1819 64.7451 52.3724 64.7137C53.3327 64.5804 54.2691 64.3529 55.1659 63.9686C57.0309 63.1686 58.269 61.8196 58.7928 59.8588C59.0864 58.7451 59.142 57.6078 59.0071 56.4706C58.9039 55.5765 58.634 54.7294 58.1658 53.9529C57.5309 52.8941 56.6103 52.1333 55.5231 51.5529C54.539 51.0275 53.4834 50.698 52.3882 50.4863C52.1898 50.4471 51.9914 50.4078 51.7851 50.3765C51.7851 55.1922 51.7851 59.9843 51.7851 64.7922ZM51.7851 34.9569C51.7851 39.302 51.7851 43.6392 51.7851 47.9843C51.8327 47.9843 51.8724 47.9922 51.9121 47.9843C52.8724 47.8745 53.8009 47.6706 54.6898 47.2706C55.7849 46.7765 56.6579 46.0314 57.2055 44.9569C57.5706 44.2431 57.7531 43.4824 57.8246 42.6902C57.9277 41.5451 57.8484 40.4157 57.515 39.3098C57.2055 38.298 56.6579 37.4275 55.8484 36.7294C55.2215 36.1882 54.5072 35.8039 53.7453 35.5059C53.1104 35.2549 52.4597 35.0824 51.7851 34.9569ZM48.3567 64.9176C48.3567 59.9373 48.3567 54.9882 48.3567 50.0392C47.3726 50.0392 46.3885 50.0392 45.3964 50.0392C45.3964 50.0941 45.3964 50.1412 45.3964 50.1961C45.3964 54.3686 45.3964 58.5412 45.3964 62.7137C45.3964 62.9176 45.4123 63.1216 45.4361 63.3176C45.5314 63.9373 45.825 64.4157 46.4282 64.651C46.6504 64.7373 46.8885 64.7922 47.1265 64.8235C47.5392 64.8706 47.944 64.8863 48.3567 64.9176ZM48.3567 34.651C48.3408 34.6431 48.3249 34.6353 48.317 34.6353C47.6741 34.6353 47.0313 34.6275 46.3885 34.651C45.9758 34.6667 45.6901 34.8941 45.5393 35.2784C45.4203 35.5608 45.4044 35.8667 45.4044 36.1647C45.4044 40.0627 45.4044 43.9608 45.4044 47.8588C45.4044 47.9059 45.4123 47.9451 45.4123 47.9843C46.4043 47.9843 47.3884 47.9843 48.3646 47.9843C48.3567 43.5373 48.3567 39.0902 48.3567 34.651Z" fill="black"/>
</svg>
