<svg width="100" height="100" viewBox="0 0 100 100" fill="none" xmlns="http://www.w3.org/2000/svg">
<rect x="5" y="5" width="90" height="90" rx="45" fill="#F3BA2F"/>
<circle cx="50" cy="50" r="42" fill="#F3BA2F"/>
<path d="M38.457 56.8125C38.457 56.1484 38.3529 55.5625 38.1445 55.0547C37.9492 54.5339 37.5977 54.0651 37.0898 53.6484C36.5951 53.2318 35.9049 52.8346 35.0195 52.457C34.1471 52.0794 33.0404 51.6953 31.6992 51.3047C30.293 50.888 29.0234 50.4258 27.8906 49.918C26.7578 49.3971 25.7878 48.8047 24.9805 48.1406C24.1732 47.4766 23.5547 46.7148 23.125 45.8555C22.6953 44.9961 22.4805 44.013 22.4805 42.9062C22.4805 41.7995 22.7083 40.7773 23.1641 39.8398C23.6198 38.9023 24.2708 38.0885 25.1172 37.3984C25.9766 36.6953 26.9987 36.1484 28.1836 35.7578C29.3685 35.3672 30.6901 35.1719 32.1484 35.1719C34.2839 35.1719 36.0938 35.582 37.5781 36.4023C39.0755 37.2096 40.2148 38.2708 40.9961 39.5859C41.7773 40.888 42.168 42.2812 42.168 43.7656H38.418C38.418 42.6979 38.1901 41.7539 37.7344 40.9336C37.2786 40.1003 36.5885 39.4492 35.6641 38.9805C34.7396 38.4987 33.5677 38.2578 32.1484 38.2578C30.8073 38.2578 29.7005 38.4596 28.8281 38.8633C27.9557 39.2669 27.3047 39.8138 26.875 40.5039C26.4583 41.194 26.25 41.9818 26.25 42.8672C26.25 43.4661 26.3737 44.013 26.6211 44.5078C26.8815 44.9896 27.2786 45.4388 27.8125 45.8555C28.3594 46.2721 29.0495 46.6562 29.8828 47.0078C30.7292 47.3594 31.7383 47.6979 32.9102 48.0234C34.5247 48.4792 35.918 48.987 37.0898 49.5469C38.2617 50.1068 39.2253 50.7383 39.9805 51.4414C40.7487 52.1315 41.3151 52.9193 41.6797 53.8047C42.0573 54.6771 42.2461 55.6667 42.2461 56.7734C42.2461 57.9323 42.0117 58.9805 41.543 59.918C41.0742 60.8555 40.4036 61.6562 39.5312 62.3203C38.6589 62.9844 37.6107 63.4987 36.3867 63.8633C35.1758 64.2148 33.8216 64.3906 32.3242 64.3906C31.0091 64.3906 29.7135 64.2083 28.4375 63.8438C27.1745 63.4792 26.0221 62.9323 24.9805 62.2031C23.9518 61.474 23.125 60.5755 22.5 59.5078C21.888 58.4271 21.582 57.1771 21.582 55.7578H25.332C25.332 56.7344 25.5208 57.5742 25.8984 58.2773C26.276 58.9674 26.7904 59.5404 27.4414 59.9961C28.1055 60.4518 28.8542 60.7904 29.6875 61.0117C30.5339 61.2201 31.4128 61.3242 32.3242 61.3242C33.6393 61.3242 34.7526 61.1419 35.6641 60.7773C36.5755 60.4128 37.2656 59.8919 37.7344 59.2148C38.2161 58.5378 38.457 57.737 38.457 56.8125ZM48.2422 35.5625H51.8945L61.2109 58.7461L70.5078 35.5625H74.1797L62.6172 64H59.7656L48.2422 35.5625ZM47.0508 35.5625H50.2734L50.8008 52.9062V64H47.0508V35.5625ZM72.1289 35.5625H75.3516V64H71.6016V52.9062L72.1289 35.5625Z" fill="black"/>
</svg>
