<svg width="100" height="100" viewBox="0 0 100 100" fill="none" xmlns="http://www.w3.org/2000/svg">
<g clip-path="url(#clip0_13_742)">
<rect x="5" y="5" width="90" height="90" rx="45" fill="#F3BA2F"/>
<circle cx="50" cy="50" r="42" fill="#F3BA2F"/>
<path d="M73.1797 66H65.9531V58.6562C65.9531 55.9219 65.7318 53.4479 65.2891 51.2344C64.8464 48.9948 64.1823 47.0417 63.2969 45.375C62.4375 43.6823 61.3698 42.263 60.0938 41.1172C58.8438 39.9714 57.3984 39.112 55.7578 38.5391C54.1432 37.9661 52.3464 37.6797 50.3672 37.6797C48.0234 37.6797 45.901 38.1354 44 39.0469C42.099 39.9323 40.4714 41.2604 39.1172 43.0312C37.763 44.8021 36.7214 46.9896 35.9922 49.5938C35.263 52.1979 34.8984 55.2188 34.8984 58.6562V66H27.6328V58.7344C27.6328 54.4635 28.1797 50.6354 29.2734 47.25C30.3932 43.8646 31.9557 40.987 33.9609 38.6172C35.9922 36.2474 38.388 34.4375 41.1484 33.1875C43.9349 31.9375 47.0078 31.3125 50.3672 31.3125C53.1276 31.3125 55.6797 31.7161 58.0234 32.5234C60.3932 33.3307 62.5026 34.5156 64.3516 36.0781C66.2266 37.6146 67.8151 39.5026 69.1172 41.7422C70.4453 43.9557 71.4479 46.4948 72.125 49.3594C72.8281 52.1979 73.1797 55.3229 73.1797 58.7344V66ZM54 23.7344V66H46.7344V23.7344H54Z" fill="black"/>
</g>
<defs>
<clipPath id="clip0_13_742">
<rect width="100" height="100" fill="white"/>
</clipPath>
</defs>
</svg>
