<svg width="100" height="100" viewBox="0 0 100 100" fill="none" xmlns="http://www.w3.org/2000/svg">
<rect x="5" y="5" width="90" height="90" rx="45" fill="#F3BA2F"/>
<circle cx="50" cy="50" r="42" fill="#F3BA2F"/>
<path d="M16.6049 56.155L18.2449 53.326C18.7916 53.6813 19.5569 54.023 20.5409 54.351C21.5249 54.679 22.6729 54.843 23.9849 54.843C25.3516 54.843 26.4313 54.7063 27.2239 54.433C28.0439 54.1597 28.6316 53.7633 28.9869 53.244C29.3696 52.6973 29.5609 52.0687 29.5609 51.358C29.5609 50.8113 29.4379 50.1417 29.1919 49.349C28.9733 48.529 28.4813 47.4357 27.7159 46.069C26.9506 44.675 25.7753 42.8573 24.1899 40.616L27.0189 38.771C28.4676 40.7663 29.6156 42.5703 30.4629 44.183C31.3376 45.7957 31.9526 47.217 32.3079 48.447C32.6906 49.6497 32.8819 50.6883 32.8819 51.563C32.8819 52.6563 32.6086 53.7223 32.0619 54.761C31.5153 55.7723 30.5996 56.606 29.3149 57.262C28.0303 57.918 26.2536 58.246 23.9849 58.246C23.0009 58.246 22.0443 58.164 21.1149 58C20.2129 57.836 19.3793 57.6037 18.6139 57.303C17.8486 56.975 17.1789 56.5923 16.6049 56.155ZM37.5918 56.0381C37.5918 55.4108 37.7853 54.8836 38.1724 54.4565C38.5728 54.0161 39.1466 53.7959 39.894 53.7959C40.6414 53.7959 41.2087 54.0161 41.5957 54.4565C41.9961 54.8836 42.1963 55.4108 42.1963 56.0381C42.1963 56.652 41.9961 57.1725 41.5957 57.5996C41.2087 58.0267 40.6414 58.2402 39.894 58.2402C39.1466 58.2402 38.5728 58.0267 38.1724 57.5996C37.7853 57.1725 37.5918 56.652 37.5918 56.0381ZM61.5095 58.861L62.5755 55.499C65.7735 55.499 68.5205 55.417 70.8165 55.253C73.1399 55.089 75.0395 54.8293 76.5155 54.474C78.0189 54.0913 79.1259 53.5857 79.8365 52.957C80.5745 52.301 80.9435 51.5083 80.9435 50.579C80.9435 49.5403 80.7522 48.3377 80.3695 46.971C79.9869 45.6043 79.4949 44.142 78.8935 42.584L82.0505 41.477C82.4059 42.3517 82.7339 43.2947 83.0345 44.306C83.3625 45.29 83.6359 46.274 83.8545 47.258C84.0732 48.2147 84.1825 49.103 84.1825 49.923C84.1825 51.5357 83.8135 52.916 83.0755 54.064C82.3375 55.1847 81.1075 56.1003 79.3855 56.811C77.6635 57.5217 75.3402 58.041 72.4155 58.369C69.5182 58.697 65.8829 58.861 61.5095 58.861ZM61.5095 58.861C59.0769 58.861 56.9312 58.697 55.0725 58.369C53.2412 58.0683 51.7105 57.59 50.4805 56.934C49.2505 56.278 48.3212 55.4307 47.6925 54.392C47.0639 53.326 46.7495 52.0413 46.7495 50.538C46.7495 49.8547 46.8042 49.1577 46.9135 48.447C47.0229 47.709 47.1595 46.971 47.3235 46.233C47.5149 45.495 47.7062 44.7843 47.8975 44.101L50.9725 44.88C50.8632 45.29 50.7402 45.782 50.6035 46.356C50.4669 46.9027 50.3439 47.463 50.2345 48.037C50.1525 48.611 50.1115 49.1303 50.1115 49.595C50.1115 51.0163 50.4669 52.1643 51.1775 53.039C51.9155 53.8863 53.1865 54.515 54.9905 54.925C56.7945 55.3077 59.3229 55.499 62.5755 55.499L63.3955 57.549L61.5095 58.861ZM68.3565 41.559C67.7825 41.559 67.2905 41.3677 66.8805 40.985C66.4979 40.575 66.3065 40.0967 66.3065 39.55C66.3065 39.0033 66.4979 38.525 66.8805 38.115C67.2905 37.705 67.7825 37.5 68.3565 37.5C68.9032 37.5 69.3679 37.705 69.7505 38.115C70.1605 38.525 70.3655 39.0033 70.3655 39.55C70.3655 40.0967 70.1605 40.575 69.7505 40.985C69.3679 41.3677 68.9032 41.559 68.3565 41.559ZM62.7395 41.559C62.1655 41.559 61.6735 41.3677 61.2635 40.985C60.8809 40.575 60.6895 40.0967 60.6895 39.55C60.6895 39.0033 60.8809 38.525 61.2635 38.115C61.6735 37.705 62.1655 37.5 62.7395 37.5C63.2862 37.5 63.7509 37.705 64.1335 38.115C64.5435 38.525 64.7485 39.0033 64.7485 39.55C64.7485 40.0967 64.5435 40.575 64.1335 40.985C63.7509 41.3677 63.2862 41.559 62.7395 41.559Z" fill="black"/>
</svg>
