<svg width="100" height="100" viewBox="0 0 100 100" fill="none" xmlns="http://www.w3.org/2000/svg">
<rect x="5" y="5" width="90" height="90" rx="45" fill="#F3BA2F"/>
<circle cx="50" cy="50" r="42" fill="#F3BA2F"/>
<path d="M39.6875 33.7188V65H35.6055V33.7188H39.6875ZM49.7422 33.7188V37.1133H25.5723V33.7188H49.7422ZM65.2324 28.6484V35.2012H62.0098V28.6484H65.2324ZM64.8457 63.7324V69.4688H61.6445V63.7324H64.8457ZM69.1426 56.9434C69.1426 56.084 68.9492 55.3105 68.5625 54.623C68.1758 53.9355 67.5384 53.3053 66.6504 52.7324C65.7624 52.1595 64.5736 51.6296 63.084 51.1426C61.2793 50.584 59.7181 49.9036 58.4004 49.1016C57.097 48.2995 56.0872 47.304 55.3711 46.1152C54.6693 44.9264 54.3184 43.487 54.3184 41.7969C54.3184 40.0352 54.6979 38.5169 55.457 37.2422C56.2161 35.9674 57.2904 34.9863 58.6797 34.2988C60.069 33.6113 61.7018 33.2676 63.5781 33.2676C65.0391 33.2676 66.3424 33.4896 67.4883 33.9336C68.6341 34.3633 69.6009 35.0078 70.3887 35.8672C71.1908 36.7266 71.7995 37.7793 72.2148 39.0254C72.6445 40.2715 72.8594 41.7109 72.8594 43.3438H68.9062C68.9062 42.3841 68.7917 41.5033 68.5625 40.7012C68.3333 39.8991 67.9896 39.2044 67.5312 38.6172C67.0729 38.0156 66.5143 37.5573 65.8555 37.2422C65.1966 36.9128 64.4375 36.748 63.5781 36.748C62.375 36.748 61.3796 36.9557 60.5918 37.3711C59.8184 37.7865 59.2454 38.3737 58.873 39.1328C58.5007 39.8776 58.3145 40.7441 58.3145 41.7324C58.3145 42.6491 58.5007 43.4512 58.873 44.1387C59.2454 44.8262 59.8757 45.4492 60.7637 46.0078C61.666 46.5521 62.9049 47.0892 64.4805 47.6191C66.3281 48.2064 67.8965 48.901 69.1855 49.7031C70.4746 50.4909 71.4557 51.4648 72.1289 52.625C72.8021 53.7708 73.1387 55.196 73.1387 56.9004C73.1387 58.748 72.7233 60.3092 71.8926 61.584C71.0618 62.8444 69.8945 63.804 68.3906 64.4629C66.8867 65.1217 65.125 65.4512 63.1055 65.4512C61.888 65.4512 60.6849 65.2865 59.4961 64.957C58.3073 64.6276 57.2331 64.0905 56.2734 63.3457C55.3138 62.5866 54.5475 61.5911 53.9746 60.3594C53.4017 59.1133 53.1152 57.5879 53.1152 55.7832H57.1113C57.1113 57.0007 57.2832 58.0104 57.627 58.8125C57.985 59.6003 58.4577 60.2305 59.0449 60.7031C59.6322 61.1615 60.2767 61.4909 60.9785 61.6914C61.6947 61.8776 62.4036 61.9707 63.1055 61.9707C64.3945 61.9707 65.4831 61.7702 66.3711 61.3691C67.2734 60.9538 67.9609 60.3665 68.4336 59.6074C68.9062 58.8483 69.1426 57.9603 69.1426 56.9434Z" fill="black"/>
</svg>
