<svg width="100" height="100" viewBox="0 0 100 100" fill="none" xmlns="http://www.w3.org/2000/svg">
<rect x="5" y="5" width="90" height="90" rx="45" fill="#F3BA2F"/>
<circle cx="50" cy="50" r="42" fill="#F3BA2F"/>
<path d="M47.041 28.3438V71H41.416V28.3438H47.041ZM58.4961 48.4121H64.0918V50.9902C64.0918 54.1738 63.6816 57.0352 62.8613 59.5742C62.0605 62.1133 60.9082 64.2812 59.4043 66.0781C57.9004 67.8555 56.0938 69.2129 53.9844 70.1504C51.875 71.0879 49.5215 71.5566 46.9238 71.5566C46.0059 71.5566 45.0879 71.498 44.1699 71.3809C43.2715 71.2832 42.3535 71.1562 41.416 71L46.9238 66.752C48.7988 66.752 50.4492 66.4199 51.875 65.7559C53.3203 65.0723 54.5312 64.0664 55.5078 62.7383C56.4844 61.4102 57.2266 59.7695 57.7344 57.8164C58.2422 55.8438 58.4961 53.5684 58.4961 50.9902V48.4121ZM54.3945 32.4746V37.6895L34.2676 46.8887V41.6738L54.3945 32.4746ZM54.3945 42.2012V47.3867L34.2676 56.5859V51.4004L54.3945 42.2012Z" fill="black"/>
</svg>
