<svg width="100" height="100" viewBox="0 0 100 100" fill="none" xmlns="http://www.w3.org/2000/svg">
<rect x="5" y="5" width="90" height="90" rx="45" fill="#F3BA2F"/>
<circle cx="50" cy="50" r="42" fill="#F3BA2F"/>
<path d="M34.4014 38.6719V60H31.6182V38.6719H34.4014ZM41.2568 38.6719V40.9863H24.7773V38.6719H41.2568ZM52.5361 38.6719V60H49.7529V38.6719H52.5361ZM59.3916 38.6719V40.9863H42.9121V38.6719H59.3916ZM69.9531 35.2148V39.6826H67.7559V35.2148H69.9531ZM69.6895 59.1357V63.0469H67.5068V59.1357H69.6895ZM72.6191 54.5068C72.6191 53.9209 72.4873 53.3936 72.2236 52.9248C71.96 52.4561 71.5254 52.0264 70.9199 51.6357C70.3145 51.2451 69.5039 50.8838 68.4883 50.5518C67.2578 50.1709 66.1934 49.707 65.2949 49.1602C64.4062 48.6133 63.7178 47.9346 63.2295 47.124C62.751 46.3135 62.5117 45.332 62.5117 44.1797C62.5117 42.9785 62.7705 41.9434 63.2881 41.0742C63.8057 40.2051 64.5381 39.5361 65.4854 39.0674C66.4326 38.5986 67.5459 38.3643 68.8252 38.3643C69.8213 38.3643 70.71 38.5156 71.4912 38.8184C72.2725 39.1113 72.9316 39.5508 73.4688 40.1367C74.0156 40.7227 74.4307 41.4404 74.7139 42.29C75.0068 43.1396 75.1533 44.1211 75.1533 45.2344H72.458C72.458 44.5801 72.3799 43.9795 72.2236 43.4326C72.0674 42.8857 71.833 42.4121 71.5205 42.0117C71.208 41.6016 70.8271 41.2891 70.3779 41.0742C69.9287 40.8496 69.4111 40.7373 68.8252 40.7373C68.0049 40.7373 67.3262 40.8789 66.7891 41.1621C66.2617 41.4453 65.8711 41.8457 65.6172 42.3633C65.3633 42.8711 65.2363 43.4619 65.2363 44.1357C65.2363 44.7607 65.3633 45.3076 65.6172 45.7764C65.8711 46.2451 66.3008 46.6699 66.9062 47.0508C67.5215 47.4219 68.3662 47.7881 69.4404 48.1494C70.7002 48.5498 71.7695 49.0234 72.6484 49.5703C73.5273 50.1074 74.1963 50.7715 74.6553 51.5625C75.1143 52.3438 75.3438 53.3154 75.3438 54.4775C75.3438 55.7373 75.0605 56.8018 74.4941 57.6709C73.9277 58.5303 73.1318 59.1846 72.1064 59.6338C71.0811 60.083 69.8799 60.3076 68.5029 60.3076C67.6729 60.3076 66.8525 60.1953 66.042 59.9707C65.2314 59.7461 64.499 59.3799 63.8447 58.8721C63.1904 58.3545 62.668 57.6758 62.2773 56.8359C61.8867 55.9863 61.6914 54.9463 61.6914 53.7158H64.416C64.416 54.5459 64.5332 55.2344 64.7676 55.7812C65.0117 56.3184 65.334 56.748 65.7344 57.0703C66.1348 57.3828 66.5742 57.6074 67.0527 57.7441C67.541 57.8711 68.0244 57.9346 68.5029 57.9346C69.3818 57.9346 70.124 57.7979 70.7295 57.5244C71.3447 57.2412 71.8135 56.8408 72.1357 56.3232C72.458 55.8057 72.6191 55.2002 72.6191 54.5068Z" fill="black"/>
</svg>
