<svg width="100" height="100" viewBox="0 0 100 100" fill="none" xmlns="http://www.w3.org/2000/svg">
<rect x="5" y="5" width="90" height="90" rx="45" fill="#F3BA2F"/>
<circle cx="50" cy="50" r="42" fill="#F3BA2F"/>
<path d="M41.0059 38.6719V60H38.1641L27.4268 43.5498V60H24.5996V38.6719H27.4268L38.208 55.166V38.6719H41.0059ZM53.457 38.6719V60H50.6738V38.6719H53.457ZM60.3125 38.6719V40.9863H43.833V38.6719H60.3125ZM70.874 35.2148V39.6826H68.6768V35.2148H70.874ZM70.6104 59.1357V63.0469H68.4277V59.1357H70.6104ZM73.54 54.5068C73.54 53.9209 73.4082 53.3936 73.1445 52.9248C72.8809 52.4561 72.4463 52.0264 71.8408 51.6357C71.2354 51.2451 70.4248 50.8838 69.4092 50.5518C68.1787 50.1709 67.1143 49.707 66.2158 49.1602C65.3271 48.6133 64.6387 47.9346 64.1504 47.124C63.6719 46.3135 63.4326 45.332 63.4326 44.1797C63.4326 42.9785 63.6914 41.9434 64.209 41.0742C64.7266 40.2051 65.459 39.5361 66.4062 39.0674C67.3535 38.5986 68.4668 38.3643 69.7461 38.3643C70.7422 38.3643 71.6309 38.5156 72.4121 38.8184C73.1934 39.1113 73.8525 39.5508 74.3896 40.1367C74.9365 40.7227 75.3516 41.4404 75.6348 42.29C75.9277 43.1396 76.0742 44.1211 76.0742 45.2344H73.3789C73.3789 44.5801 73.3008 43.9795 73.1445 43.4326C72.9883 42.8857 72.7539 42.4121 72.4414 42.0117C72.1289 41.6016 71.748 41.2891 71.2988 41.0742C70.8496 40.8496 70.332 40.7373 69.7461 40.7373C68.9258 40.7373 68.2471 40.8789 67.71 41.1621C67.1826 41.4453 66.792 41.8457 66.5381 42.3633C66.2842 42.8711 66.1572 43.4619 66.1572 44.1357C66.1572 44.7607 66.2842 45.3076 66.5381 45.7764C66.792 46.2451 67.2217 46.6699 67.8271 47.0508C68.4424 47.4219 69.2871 47.7881 70.3613 48.1494C71.6211 48.5498 72.6904 49.0234 73.5693 49.5703C74.4482 50.1074 75.1172 50.7715 75.5762 51.5625C76.0352 52.3438 76.2646 53.3154 76.2646 54.4775C76.2646 55.7373 75.9814 56.8018 75.415 57.6709C74.8486 58.5303 74.0527 59.1846 73.0273 59.6338C72.002 60.083 70.8008 60.3076 69.4238 60.3076C68.5938 60.3076 67.7734 60.1953 66.9629 59.9707C66.1523 59.7461 65.4199 59.3799 64.7656 58.8721C64.1113 58.3545 63.5889 57.6758 63.1982 56.8359C62.8076 55.9863 62.6123 54.9463 62.6123 53.7158H65.3369C65.3369 54.5459 65.4541 55.2344 65.6885 55.7812C65.9326 56.3184 66.2549 56.748 66.6553 57.0703C67.0557 57.3828 67.4951 57.6074 67.9736 57.7441C68.4619 57.8711 68.9453 57.9346 69.4238 57.9346C70.3027 57.9346 71.0449 57.7979 71.6504 57.5244C72.2656 57.2412 72.7344 56.8408 73.0566 56.3232C73.3789 55.8057 73.54 55.2002 73.54 54.5068Z" fill="black"/>
</svg>
