<svg width="100" height="100" viewBox="0 0 100 100" fill="none" xmlns="http://www.w3.org/2000/svg">
<rect x="5" y="5" width="90" height="90" rx="45" fill="#F3BA2F"/>
<circle cx="50" cy="50" r="42" fill="#F3BA2F"/>
<path d="M34.8555 39.6719V61H32.0723V39.6719H34.8555ZM41.7109 39.6719V41.9863H25.2314V39.6719H41.7109ZM56.0078 55.6094C56.0078 55.1113 55.9297 54.6719 55.7734 54.291C55.627 53.9004 55.3633 53.5488 54.9824 53.2363C54.6113 52.9238 54.0938 52.626 53.4297 52.3428C52.7754 52.0596 51.9453 51.7715 50.9395 51.4785C49.8848 51.166 48.9326 50.8193 48.083 50.4385C47.2334 50.0479 46.5059 49.6035 45.9004 49.1055C45.2949 48.6074 44.8311 48.0361 44.5088 47.3916C44.1865 46.7471 44.0254 46.0098 44.0254 45.1797C44.0254 44.3496 44.1963 43.583 44.5381 42.8799C44.8799 42.1768 45.3682 41.5664 46.0029 41.0488C46.6475 40.5215 47.4141 40.1113 48.3027 39.8184C49.1914 39.5254 50.1826 39.3789 51.2764 39.3789C52.8779 39.3789 54.2354 39.6865 55.3486 40.3018C56.4717 40.9072 57.3262 41.7031 57.9121 42.6895C58.498 43.666 58.791 44.7109 58.791 45.8242H55.9785C55.9785 45.0234 55.8076 44.3154 55.4658 43.7002C55.124 43.0752 54.6064 42.5869 53.9131 42.2354C53.2197 41.874 52.3408 41.6934 51.2764 41.6934C50.2705 41.6934 49.4404 41.8447 48.7861 42.1475C48.1318 42.4502 47.6436 42.8604 47.3213 43.3779C47.0088 43.8955 46.8525 44.4863 46.8525 45.1504C46.8525 45.5996 46.9453 46.0098 47.1309 46.3809C47.3262 46.7422 47.624 47.0791 48.0244 47.3916C48.4346 47.7041 48.9521 47.9922 49.5771 48.2559C50.2119 48.5195 50.9688 48.7734 51.8477 49.0176C53.0586 49.3594 54.1035 49.7402 54.9824 50.1602C55.8613 50.5801 56.584 51.0537 57.1504 51.5811C57.7266 52.0986 58.1514 52.6895 58.4248 53.3535C58.708 54.0078 58.8496 54.75 58.8496 55.5801C58.8496 56.4492 58.6738 57.2354 58.3223 57.9385C57.9707 58.6416 57.4678 59.2422 56.8135 59.7402C56.1592 60.2383 55.373 60.624 54.4551 60.8975C53.5469 61.1611 52.5312 61.293 51.4082 61.293C50.4219 61.293 49.4502 61.1562 48.4932 60.8828C47.5459 60.6094 46.6816 60.1992 45.9004 59.6523C45.1289 59.1055 44.5088 58.4316 44.04 57.6309C43.5811 56.8203 43.3516 55.8828 43.3516 54.8184H46.1641C46.1641 55.5508 46.3057 56.1807 46.5889 56.708C46.8721 57.2256 47.2578 57.6553 47.7461 57.9971C48.2441 58.3389 48.8057 58.5928 49.4307 58.7588C50.0654 58.915 50.7246 58.9932 51.4082 58.9932C52.3945 58.9932 53.2295 58.8564 53.9131 58.583C54.5967 58.3096 55.1143 57.9189 55.4658 57.4111C55.8271 56.9033 56.0078 56.3027 56.0078 55.6094ZM64.7529 38.5V61H62.043V38.5H64.7529ZM64.1084 52.4746L62.9805 52.4307C62.9902 51.3467 63.1514 50.3457 63.4639 49.4277C63.7764 48.5 64.2158 47.6943 64.7822 47.0107C65.3486 46.3271 66.0225 45.7998 66.8037 45.4287C67.5947 45.0479 68.4688 44.8574 69.4258 44.8574C70.207 44.8574 70.9102 44.9648 71.5352 45.1797C72.1602 45.3848 72.6924 45.7168 73.1318 46.1758C73.5811 46.6348 73.9229 47.2305 74.1572 47.9629C74.3916 48.6855 74.5088 49.5693 74.5088 50.6143V61H71.7842V50.585C71.7842 49.7549 71.6621 49.0908 71.418 48.5928C71.1738 48.085 70.8174 47.7188 70.3486 47.4941C69.8799 47.2598 69.3037 47.1426 68.6201 47.1426C67.9463 47.1426 67.3311 47.2842 66.7744 47.5674C66.2275 47.8506 65.7539 48.2412 65.3535 48.7393C64.9629 49.2373 64.6553 49.8086 64.4307 50.4531C64.2158 51.0879 64.1084 51.7617 64.1084 52.4746Z" fill="black"/>
</svg>
