<svg width="100" height="100" viewBox="0 0 100 100" fill="none" xmlns="http://www.w3.org/2000/svg">
<rect x="5" y="5" width="90" height="90" rx="45" fill="#F3BA2F"/>
<circle cx="50" cy="50" r="42" fill="#F3BA2F"/>
<path d="M51.4352 71.6C48.3152 71.6 45.6752 71.18 43.5152 70.34C41.3552 69.5 39.6952 68.26 38.5352 66.62C37.4152 64.94 36.8552 62.82 36.8552 60.26C36.8552 59.5 36.9152 58.78 37.0352 58.1C37.1552 57.38 37.3152 56.72 37.5152 56.12H34.6952V52.28H39.7352C40.5352 51.48 41.5952 50.76 42.9152 50.12C44.2752 49.44 45.6752 48.84 47.1152 48.32C48.5952 47.8 49.8952 47.36 51.0152 47C52.1352 46.6 52.8552 46.32 53.1752 46.16H34.6952V42.32H57.6152C57.9352 41.76 58.1552 41.18 58.2752 40.58C58.4352 39.98 58.5152 39.22 58.5152 38.3C58.5152 37.06 58.2352 36 57.6752 35.12C57.1152 34.2 56.2552 33.5 55.0952 33.02C53.9352 32.54 52.4352 32.3 50.5952 32.3C49.2752 32.3 47.9952 32.42 46.7552 32.66C45.5552 32.9 44.4152 33.22 43.3352 33.62C42.2952 33.98 41.3152 34.38 40.3952 34.82L38.8952 30.08C40.4152 29.36 42.2752 28.76 44.4752 28.28C46.6752 27.8 48.8152 27.56 50.8952 27.56C53.6152 27.56 55.9352 27.94 57.8552 28.7C59.8152 29.42 61.3152 30.52 62.3552 32C63.4352 33.48 63.9752 35.36 63.9752 37.64C63.9752 38.48 63.9152 39.32 63.7952 40.16C63.6752 40.96 63.4552 41.68 63.1352 42.32H66.4352V46.16H61.2152C60.5752 46.8 59.5752 47.46 58.2152 48.14C56.8552 48.78 55.4352 49.38 53.9552 49.94C52.4752 50.5 51.1352 50.98 49.9352 51.38C48.7352 51.78 47.9552 52.08 47.5952 52.28H66.4352V56.12H43.0952C42.7752 56.72 42.5552 57.28 42.4352 57.8C42.3152 58.32 42.2552 59.04 42.2552 59.96C42.2552 61.52 42.6152 62.82 43.3352 63.86C44.0552 64.86 45.1352 65.62 46.5752 66.14C48.0152 66.66 49.7952 66.92 51.9152 66.92C54.1952 66.92 56.3952 66.64 58.5152 66.08C60.6752 65.48 62.4752 64.86 63.9152 64.22V69.08C62.5552 69.72 60.7352 70.3 58.4552 70.82C56.1752 71.34 53.8352 71.6 51.4352 71.6Z" fill="black"/>
</svg>
