<svg width="100" height="100" viewBox="0 0 100 100" fill="none" xmlns="http://www.w3.org/2000/svg">
<rect x="5" y="5" width="90" height="90" rx="45" fill="#F3BA2F"/>
<circle cx="50" cy="50" r="42" fill="#F3BA2F"/>
<path d="M37.7832 39.6719H40.5957V54.1006C40.5957 55.7021 40.2393 57.0352 39.5264 58.0996C38.8135 59.1641 37.8662 59.9648 36.6846 60.502C35.5127 61.0293 34.2383 61.293 32.8613 61.293C31.416 61.293 30.1074 61.0293 28.9355 60.502C27.7734 59.9648 26.8506 59.1641 26.167 58.0996C25.4932 57.0352 25.1562 55.7021 25.1562 54.1006V39.6719H27.9541V54.1006C27.9541 55.2139 28.1592 56.1318 28.5693 56.8545C28.9795 57.5771 29.5508 58.1143 30.2832 58.4658C31.0254 58.8174 31.8848 58.9932 32.8613 58.9932C33.8477 58.9932 34.707 58.8174 35.4395 58.4658C36.1816 58.1143 36.7578 57.5771 37.168 56.8545C37.5781 56.1318 37.7832 55.2139 37.7832 54.1006V39.6719ZM56.4014 55.6094C56.4014 55.1113 56.3232 54.6719 56.167 54.291C56.0205 53.9004 55.7568 53.5488 55.376 53.2363C55.0049 52.9238 54.4873 52.626 53.8232 52.3428C53.1689 52.0596 52.3389 51.7715 51.333 51.4785C50.2783 51.166 49.3262 50.8193 48.4766 50.4385C47.627 50.0479 46.8994 49.6035 46.2939 49.1055C45.6885 48.6074 45.2246 48.0361 44.9023 47.3916C44.5801 46.7471 44.4189 46.0098 44.4189 45.1797C44.4189 44.3496 44.5898 43.583 44.9316 42.8799C45.2734 42.1768 45.7617 41.5664 46.3965 41.0488C47.041 40.5215 47.8076 40.1113 48.6963 39.8184C49.585 39.5254 50.5762 39.3789 51.6699 39.3789C53.2715 39.3789 54.6289 39.6865 55.7422 40.3018C56.8652 40.9072 57.7197 41.7031 58.3057 42.6895C58.8916 43.666 59.1846 44.7109 59.1846 45.8242H56.3721C56.3721 45.0234 56.2012 44.3154 55.8594 43.7002C55.5176 43.0752 55 42.5869 54.3066 42.2354C53.6133 41.874 52.7344 41.6934 51.6699 41.6934C50.6641 41.6934 49.834 41.8447 49.1797 42.1475C48.5254 42.4502 48.0371 42.8604 47.7148 43.3779C47.4023 43.8955 47.2461 44.4863 47.2461 45.1504C47.2461 45.5996 47.3389 46.0098 47.5244 46.3809C47.7197 46.7422 48.0176 47.0791 48.418 47.3916C48.8281 47.7041 49.3457 47.9922 49.9707 48.2559C50.6055 48.5195 51.3623 48.7734 52.2412 49.0176C53.4521 49.3594 54.4971 49.7402 55.376 50.1602C56.2549 50.5801 56.9775 51.0537 57.5439 51.5811C58.1201 52.0986 58.5449 52.6895 58.8184 53.3535C59.1016 54.0078 59.2432 54.75 59.2432 55.5801C59.2432 56.4492 59.0674 57.2354 58.7158 57.9385C58.3643 58.6416 57.8613 59.2422 57.207 59.7402C56.5527 60.2383 55.7666 60.624 54.8486 60.8975C53.9404 61.1611 52.9248 61.293 51.8018 61.293C50.8154 61.293 49.8438 61.1562 48.8867 60.8828C47.9395 60.6094 47.0752 60.1992 46.2939 59.6523C45.5225 59.1055 44.9023 58.4316 44.4336 57.6309C43.9746 56.8203 43.7451 55.8828 43.7451 54.8184H46.5576C46.5576 55.5508 46.6992 56.1807 46.9824 56.708C47.2656 57.2256 47.6514 57.6553 48.1396 57.9971C48.6377 58.3389 49.1992 58.5928 49.8242 58.7588C50.459 58.915 51.1182 58.9932 51.8018 58.9932C52.7881 58.9932 53.623 58.8564 54.3066 58.583C54.9902 58.3096 55.5078 57.9189 55.8594 57.4111C56.2207 56.9033 56.4014 56.3027 56.4014 55.6094ZM65.1465 38.5V61H62.4365V38.5H65.1465ZM64.502 52.4746L63.374 52.4307C63.3838 51.3467 63.5449 50.3457 63.8574 49.4277C64.1699 48.5 64.6094 47.6943 65.1758 47.0107C65.7422 46.3271 66.416 45.7998 67.1973 45.4287C67.9883 45.0479 68.8623 44.8574 69.8193 44.8574C70.6006 44.8574 71.3037 44.9648 71.9287 45.1797C72.5537 45.3848 73.0859 45.7168 73.5254 46.1758C73.9746 46.6348 74.3164 47.2305 74.5508 47.9629C74.7852 48.6855 74.9023 49.5693 74.9023 50.6143V61H72.1777V50.585C72.1777 49.7549 72.0557 49.0908 71.8115 48.5928C71.5674 48.085 71.2109 47.7188 70.7422 47.4941C70.2734 47.2598 69.6973 47.1426 69.0137 47.1426C68.3398 47.1426 67.7246 47.2842 67.168 47.5674C66.6211 47.8506 66.1475 48.2412 65.7471 48.7393C65.3564 49.2373 65.0488 49.8086 64.8242 50.4531C64.6094 51.0879 64.502 51.7617 64.502 52.4746Z" fill="black"/>
</svg>
