<svg width="100" height="100" viewBox="0 0 100 100" fill="none" xmlns="http://www.w3.org/2000/svg">
<rect x="5" y="5" width="90" height="90" rx="45" fill="#F3BA2F"/>
<circle cx="50" cy="50" r="42" fill="#F3BA2F"/>
<path d="M37.8398 28.6484V35.2012H34.6172V28.6484H37.8398ZM37.4531 63.7324V69.4688H34.252V63.7324H37.4531ZM41.75 56.9434C41.75 56.084 41.5566 55.3105 41.1699 54.623C40.7832 53.9355 40.1458 53.3053 39.2578 52.7324C38.3698 52.1595 37.181 51.6296 35.6914 51.1426C33.8867 50.584 32.3255 49.9036 31.0078 49.1016C29.7044 48.2995 28.6947 47.304 27.9785 46.1152C27.2767 44.9264 26.9258 43.487 26.9258 41.7969C26.9258 40.0352 27.3053 38.5169 28.0645 37.2422C28.8236 35.9674 29.8978 34.9863 31.2871 34.2988C32.6764 33.6113 34.3092 33.2676 36.1855 33.2676C37.6465 33.2676 38.9499 33.4896 40.0957 33.9336C41.2415 34.3633 42.2083 35.0078 42.9961 35.8672C43.7982 36.7266 44.4069 37.7793 44.8223 39.0254C45.252 40.2715 45.4668 41.7109 45.4668 43.3438H41.5137C41.5137 42.3841 41.3991 41.5033 41.1699 40.7012C40.9408 39.8991 40.597 39.2044 40.1387 38.6172C39.6803 38.0156 39.1217 37.5573 38.4629 37.2422C37.804 36.9128 37.0449 36.748 36.1855 36.748C34.9824 36.748 33.987 36.9557 33.1992 37.3711C32.4258 37.7865 31.8529 38.3737 31.4805 39.1328C31.1081 39.8776 30.9219 40.7441 30.9219 41.7324C30.9219 42.6491 31.1081 43.4512 31.4805 44.1387C31.8529 44.8262 32.4831 45.4492 33.3711 46.0078C34.2734 46.5521 35.5124 47.0892 37.0879 47.6191C38.9355 48.2064 40.5039 48.901 41.793 49.7031C43.082 50.4909 44.0632 51.4648 44.7363 52.625C45.4095 53.7708 45.7461 55.196 45.7461 56.9004C45.7461 58.748 45.3307 60.3092 44.5 61.584C43.6693 62.8444 42.502 63.804 40.998 64.4629C39.4941 65.1217 37.7324 65.4512 35.7129 65.4512C34.4954 65.4512 33.2923 65.2865 32.1035 64.957C30.9147 64.6276 29.8405 64.0905 28.8809 63.3457C27.9212 62.5866 27.1549 61.5911 26.582 60.3594C26.0091 59.1133 25.7227 57.5879 25.7227 55.7832H29.7188C29.7188 57.0007 29.8906 58.0104 30.2344 58.8125C30.5924 59.6003 31.0651 60.2305 31.6523 60.7031C32.2396 61.1615 32.8841 61.4909 33.5859 61.6914C34.3021 61.8776 35.0111 61.9707 35.7129 61.9707C37.002 61.9707 38.0905 61.7702 38.9785 61.3691C39.8809 60.9538 40.5684 60.3665 41.041 59.6074C41.5137 58.8483 41.75 57.9603 41.75 56.9434ZM69.6367 33.7188H73.7617V54.8809C73.7617 57.2298 73.2389 59.1849 72.1934 60.7461C71.1478 62.3073 69.7585 63.4818 68.0254 64.2695C66.3066 65.043 64.4375 65.4297 62.418 65.4297C60.2982 65.4297 58.3789 65.043 56.6602 64.2695C54.9557 63.4818 53.6022 62.3073 52.5996 60.7461C51.6113 59.1849 51.1172 57.2298 51.1172 54.8809V33.7188H55.2207V54.8809C55.2207 56.5137 55.5215 57.86 56.123 58.9199C56.7246 59.9798 57.5625 60.7676 58.6367 61.2832C59.7253 61.7988 60.9857 62.0566 62.418 62.0566C63.8646 62.0566 65.125 61.7988 66.1992 61.2832C67.2878 60.7676 68.1328 59.9798 68.7344 58.9199C69.3359 57.86 69.6367 56.5137 69.6367 54.8809V33.7188Z" fill="black"/>
</svg>
