<svg width="100" height="100" viewBox="0 0 100 100" fill="none" xmlns="http://www.w3.org/2000/svg">
<rect x="5" y="5" width="90" height="90" rx="45" fill="#F3BA2F"/>
<circle cx="50" cy="50" r="42" fill="#F3BA2F"/>
<path d="M30.2939 56.7959C30.2939 56.4053 30.2061 56.0439 30.0303 55.7119C29.8643 55.3701 29.5176 55.0625 28.9902 54.7891C28.4727 54.5059 27.6914 54.2617 26.6465 54.0566C25.7676 53.8711 24.9717 53.6514 24.2588 53.3975C23.5557 53.1436 22.9551 52.8359 22.457 52.4746C21.9688 52.1133 21.5928 51.6885 21.3291 51.2002C21.0654 50.7119 20.9336 50.1406 20.9336 49.4863C20.9336 48.8613 21.0703 48.2705 21.3438 47.7139C21.627 47.1572 22.0225 46.6641 22.5303 46.2344C23.0479 45.8047 23.668 45.4678 24.3906 45.2236C25.1133 44.9795 25.9189 44.8574 26.8076 44.8574C28.0771 44.8574 29.1611 45.082 30.0596 45.5312C30.958 45.9805 31.6465 46.5811 32.125 47.333C32.6035 48.0752 32.8428 48.9004 32.8428 49.8086H30.1328C30.1328 49.3691 30.001 48.9443 29.7373 48.5342C29.4834 48.1143 29.1074 47.7676 28.6094 47.4941C28.1211 47.2207 27.5205 47.084 26.8076 47.084C26.0557 47.084 25.4453 47.2012 24.9766 47.4355C24.5176 47.6602 24.1807 47.9482 23.9658 48.2998C23.7607 48.6514 23.6582 49.0225 23.6582 49.4131C23.6582 49.7061 23.707 49.9697 23.8047 50.2041C23.9121 50.4287 24.0977 50.6387 24.3613 50.834C24.625 51.0195 24.9961 51.1953 25.4746 51.3613C25.9531 51.5273 26.5635 51.6934 27.3057 51.8594C28.6045 52.1523 29.6738 52.5039 30.5137 52.9141C31.3535 53.3242 31.9785 53.8271 32.3887 54.4229C32.7988 55.0186 33.0039 55.7412 33.0039 56.5908C33.0039 57.2842 32.8574 57.9189 32.5645 58.4951C32.2812 59.0713 31.8662 59.5693 31.3193 59.9893C30.7822 60.3994 30.1377 60.7217 29.3857 60.9561C28.6436 61.1807 27.8086 61.293 26.8809 61.293C25.4844 61.293 24.3027 61.0439 23.3359 60.5459C22.3691 60.0479 21.6367 59.4033 21.1387 58.6123C20.6406 57.8213 20.3916 56.9863 20.3916 56.1074H23.1162C23.1553 56.8496 23.3701 57.4404 23.7607 57.8799C24.1514 58.3096 24.6299 58.6172 25.1963 58.8027C25.7627 58.9785 26.3242 59.0664 26.8809 59.0664C27.623 59.0664 28.2432 58.9688 28.7412 58.7734C29.249 58.5781 29.6348 58.3096 29.8984 57.9678C30.1621 57.626 30.2939 57.2354 30.2939 56.7959ZM35.8457 53.251V52.9141C35.8457 51.7715 36.0117 50.7119 36.3438 49.7354C36.6758 48.749 37.1543 47.8945 37.7793 47.1719C38.4043 46.4395 39.1611 45.873 40.0498 45.4727C40.9385 45.0625 41.9346 44.8574 43.0381 44.8574C44.1514 44.8574 45.1523 45.0625 46.041 45.4727C46.9395 45.873 47.7012 46.4395 48.3262 47.1719C48.9609 47.8945 49.4443 48.749 49.7764 49.7354C50.1084 50.7119 50.2744 51.7715 50.2744 52.9141V53.251C50.2744 54.3936 50.1084 55.4531 49.7764 56.4297C49.4443 57.4062 48.9609 58.2607 48.3262 58.9932C47.7012 59.7158 46.9443 60.2822 46.0557 60.6924C45.1768 61.0928 44.1807 61.293 43.0674 61.293C41.9541 61.293 40.9531 61.0928 40.0645 60.6924C39.1758 60.2822 38.4141 59.7158 37.7793 58.9932C37.1543 58.2607 36.6758 57.4062 36.3438 56.4297C36.0117 55.4531 35.8457 54.3936 35.8457 53.251ZM38.5557 52.9141V53.251C38.5557 54.042 38.6484 54.7891 38.834 55.4922C39.0195 56.1855 39.2979 56.8008 39.6689 57.3379C40.0498 57.875 40.5234 58.2998 41.0898 58.6123C41.6562 58.915 42.3154 59.0664 43.0674 59.0664C43.8096 59.0664 44.459 58.915 45.0156 58.6123C45.582 58.2998 46.0508 57.875 46.4219 57.3379C46.793 56.8008 47.0713 56.1855 47.2568 55.4922C47.4521 54.7891 47.5498 54.042 47.5498 53.251V52.9141C47.5498 52.1328 47.4521 51.3955 47.2568 50.7021C47.0713 49.999 46.7881 49.3789 46.4072 48.8418C46.0361 48.2949 45.5674 47.8652 45.001 47.5527C44.4443 47.2402 43.79 47.084 43.0381 47.084C42.2959 47.084 41.6416 47.2402 41.0752 47.5527C40.5186 47.8652 40.0498 48.2949 39.6689 48.8418C39.2979 49.3789 39.0195 49.999 38.834 50.7021C38.6484 51.3955 38.5557 52.1328 38.5557 52.9141ZM53.3359 38.5V40.1113L53.0283 45.502H51.1387L51.1533 40.3604V38.5H53.3359ZM59.3271 48.2998V61H56.6025V45.1504H59.1807L59.3271 48.2998ZM58.7705 52.4746L57.5107 52.4307C57.5205 51.3467 57.6621 50.3457 57.9355 49.4277C58.209 48.5 58.6143 47.6943 59.1514 47.0107C59.6885 46.3271 60.3574 45.7998 61.1582 45.4287C61.959 45.0479 62.8867 44.8574 63.9414 44.8574C64.6836 44.8574 65.3672 44.9648 65.9922 45.1797C66.6172 45.3848 67.1592 45.7119 67.6182 46.1611C68.0771 46.6104 68.4336 47.1865 68.6875 47.8896C68.9414 48.5928 69.0684 49.4424 69.0684 50.4385V61H66.3584V50.5703C66.3584 49.7402 66.2168 49.0762 65.9336 48.5781C65.6602 48.0801 65.2695 47.7188 64.7617 47.4941C64.2539 47.2598 63.6582 47.1426 62.9746 47.1426C62.1738 47.1426 61.5049 47.2842 60.9678 47.5674C60.4307 47.8506 60.001 48.2412 59.6787 48.7393C59.3564 49.2373 59.1221 49.8086 58.9756 50.4531C58.8389 51.0879 58.7705 51.7617 58.7705 52.4746ZM69.0391 50.9805L67.2227 51.5371C67.2324 50.668 67.374 49.833 67.6475 49.0322C67.9307 48.2314 68.3359 47.5186 68.8633 46.8936C69.4004 46.2686 70.0596 45.7754 70.8408 45.4141C71.6221 45.043 72.5156 44.8574 73.5215 44.8574C74.3711 44.8574 75.123 44.9697 75.7773 45.1943C76.4414 45.4189 76.998 45.7656 77.4473 46.2344C77.9062 46.6934 78.2529 47.2842 78.4873 48.0068C78.7217 48.7295 78.8389 49.5889 78.8389 50.585V61H76.1143V50.5557C76.1143 49.667 75.9727 48.9785 75.6895 48.4902C75.416 47.9922 75.0254 47.6455 74.5176 47.4502C74.0195 47.2451 73.4238 47.1426 72.7305 47.1426C72.1348 47.1426 71.6074 47.2451 71.1484 47.4502C70.6895 47.6553 70.3037 47.9385 69.9912 48.2998C69.6787 48.6514 69.4395 49.0566 69.2734 49.5156C69.1172 49.9746 69.0391 50.4629 69.0391 50.9805Z" fill="black"/>
</svg>
