<svg width="100" height="100" viewBox="0 0 100 100" fill="none" xmlns="http://www.w3.org/2000/svg">
<rect x="5" y="5" width="90" height="90" rx="45" fill="#F3BA2F"/>
<circle cx="50" cy="50" r="42" fill="#F3BA2F"/>
<path d="M40.6445 50.6992H33.4375L33.3984 47.6719H39.9414C41.0221 47.6719 41.9661 47.4896 42.7734 47.125C43.5807 46.7604 44.2057 46.2396 44.6484 45.5625C45.1042 44.8724 45.332 44.0521 45.332 43.1016C45.332 42.0599 45.1302 41.2135 44.7266 40.5625C44.3359 39.8984 43.7305 39.4167 42.9102 39.1172C42.1029 38.8047 41.0742 38.6484 39.8242 38.6484H34.2773V64H30.5078V35.5625H39.8242C41.2826 35.5625 42.5846 35.7122 43.7305 36.0117C44.8763 36.2982 45.8464 36.7539 46.6406 37.3789C47.4479 37.9909 48.0599 38.7721 48.4766 39.7227C48.8932 40.6732 49.1016 41.8125 49.1016 43.1406C49.1016 44.3125 48.8021 45.3737 48.2031 46.3242C47.6042 47.2617 46.7708 48.0299 45.7031 48.6289C44.6484 49.2279 43.4115 49.612 41.9922 49.7812L40.6445 50.6992ZM40.4688 64H31.9531L34.082 60.9336H40.4688C41.6667 60.9336 42.6823 60.7253 43.5156 60.3086C44.362 59.8919 45.0065 59.306 45.4492 58.5508C45.8919 57.7826 46.1133 56.8776 46.1133 55.8359C46.1133 54.7812 45.9245 53.8698 45.5469 53.1016C45.1693 52.3333 44.5768 51.7409 43.7695 51.3242C42.9622 50.9076 41.9206 50.6992 40.6445 50.6992H35.2734L35.3125 47.6719H42.6562L43.457 48.7656C44.8242 48.8828 45.9831 49.2734 46.9336 49.9375C47.8841 50.5885 48.6068 51.4219 49.1016 52.4375C49.6094 53.4531 49.8633 54.5729 49.8633 55.7969C49.8633 57.5677 49.4727 59.0651 48.6914 60.2891C47.9232 61.5 46.8359 62.4245 45.4297 63.0625C44.0234 63.6875 42.3698 64 40.4688 64ZM67.1875 58.3945C67.1875 57.8737 67.0703 57.3919 66.8359 56.9492C66.6146 56.4935 66.1523 56.0833 65.4492 55.7188C64.7591 55.3411 63.7174 55.0156 62.3242 54.7422C61.1523 54.4948 60.0911 54.2018 59.1406 53.8633C58.2031 53.5247 57.4023 53.1146 56.7383 52.6328C56.0872 52.151 55.5859 51.5846 55.2344 50.9336C54.8828 50.2826 54.707 49.5208 54.707 48.6484C54.707 47.8151 54.8893 47.0273 55.2539 46.2852C55.6315 45.543 56.1589 44.8854 56.8359 44.3125C57.526 43.7396 58.3529 43.2904 59.3164 42.9648C60.2799 42.6393 61.3542 42.4766 62.5391 42.4766C64.2318 42.4766 65.6771 42.776 66.875 43.375C68.0729 43.974 68.9909 44.7747 69.6289 45.7773C70.2669 46.7669 70.5859 47.8672 70.5859 49.0781H66.9727C66.9727 48.4922 66.7969 47.9258 66.4453 47.3789C66.1068 46.819 65.6055 46.3568 64.9414 45.9922C64.2904 45.6276 63.4896 45.4453 62.5391 45.4453C61.5365 45.4453 60.7227 45.6016 60.0977 45.9141C59.4857 46.2135 59.0365 46.5977 58.75 47.0664C58.4766 47.5352 58.3398 48.0299 58.3398 48.5508C58.3398 48.9414 58.4049 49.293 58.5352 49.6055C58.6784 49.9049 58.9258 50.1849 59.2773 50.4453C59.6289 50.6927 60.1237 50.9271 60.7617 51.1484C61.3997 51.3698 62.2135 51.5911 63.2031 51.8125C64.9349 52.2031 66.3607 52.6719 67.4805 53.2188C68.6003 53.7656 69.4336 54.4362 69.9805 55.2305C70.5273 56.0247 70.8008 56.9883 70.8008 58.1211C70.8008 59.0456 70.6055 59.8919 70.2148 60.6602C69.8372 61.4284 69.2839 62.0924 68.5547 62.6523C67.8385 63.1992 66.9792 63.6289 65.9766 63.9414C64.987 64.2409 63.8737 64.3906 62.6367 64.3906C60.7747 64.3906 59.1992 64.0586 57.9102 63.3945C56.6211 62.7305 55.6445 61.8711 54.9805 60.8164C54.3164 59.7617 53.9844 58.6484 53.9844 57.4766H57.6172C57.6693 58.4661 57.9557 59.2539 58.4766 59.8398C58.9974 60.4128 59.6354 60.8229 60.3906 61.0703C61.1458 61.3047 61.8945 61.4219 62.6367 61.4219C63.6263 61.4219 64.4531 61.2917 65.1172 61.0312C65.7943 60.7708 66.3086 60.4128 66.6602 59.957C67.0117 59.5013 67.1875 58.9805 67.1875 58.3945Z" fill="black"/>
</svg>
