<svg width="100" height="100" viewBox="0 0 100 100" fill="none" xmlns="http://www.w3.org/2000/svg">
<rect x="5" y="5" width="90" height="90" rx="45" fill="#F3BA2F"/>
<circle cx="50" cy="50" r="42" fill="#F3BA2F"/>
<path d="M56.1113 61.8477V23H61.5605V68H56.5801L56.1113 61.8477ZM34.7832 52.502V51.8867C34.7832 49.4648 35.0762 47.2676 35.6621 45.2949C36.2676 43.3027 37.1172 41.5938 38.2109 40.168C39.3242 38.7422 40.6426 37.6484 42.166 36.8867C43.709 36.1055 45.4277 35.7148 47.3223 35.7148C49.3145 35.7148 51.0527 36.0664 52.5371 36.7695C54.041 37.4531 55.3105 38.459 56.3457 39.7871C57.4004 41.0957 58.2305 42.6777 58.8359 44.5332C59.4414 46.3887 59.8613 48.4883 60.0957 50.832V53.5273C59.8809 55.8516 59.4609 57.9414 58.8359 59.7969C58.2305 61.6523 57.4004 63.2344 56.3457 64.543C55.3105 65.8516 54.041 66.8574 52.5371 67.5605C51.0332 68.2441 49.2754 68.5859 47.2637 68.5859C45.4082 68.5859 43.709 68.1855 42.166 67.3848C40.6426 66.584 39.3242 65.4609 38.2109 64.0156C37.1172 62.5703 36.2676 60.8711 35.6621 58.918C35.0762 56.9453 34.7832 54.8066 34.7832 52.502ZM40.2324 51.8867V52.502C40.2324 54.084 40.3887 55.5684 40.7012 56.9551C41.0332 58.3418 41.541 59.5625 42.2246 60.6172C42.9082 61.6719 43.7773 62.502 44.832 63.1074C45.8867 63.6934 47.1465 63.9863 48.6113 63.9863C50.4082 63.9863 51.8828 63.6055 53.0352 62.8438C54.207 62.082 55.1445 61.0762 55.8477 59.8262C56.5508 58.5762 57.0977 57.2188 57.4883 55.7539V48.6934C57.2539 47.6191 56.9121 46.584 56.4629 45.5879C56.0332 44.5723 55.4668 43.6738 54.7637 42.8926C54.0801 42.0918 53.2305 41.457 52.2148 40.9883C51.2188 40.5195 50.0371 40.2852 48.6699 40.2852C47.1855 40.2852 45.9062 40.5977 44.832 41.2227C43.7773 41.8281 42.9082 42.668 42.2246 43.7422C41.541 44.7969 41.0332 46.0273 40.7012 47.4336C40.3887 48.8203 40.2324 50.3047 40.2324 51.8867ZM67.0684 27.4238V31.877H48.4062V27.4238H67.0684ZM63.6406 72.5996V77.0527H36.7754V72.5996H63.6406Z" fill="black"/>
</svg>
