<svg width="90" height="90" viewBox="0 0 90 90" fill="none" xmlns="http://www.w3.org/2000/svg">
<circle cx="45" cy="45" r="42" fill="#F3BA2F"/>
<path d="M22.0859 49.5547L26.3193 34.6719H28.3701L27.1836 40.458L22.6279 56H20.5918L22.0859 49.5547ZM17.7061 34.6719L21.0752 49.2617L22.0859 56H20.0645L14.8936 34.6719H17.7061ZM33.8486 49.2471L37.1445 34.6719H39.9717L34.8154 56H32.7939L33.8486 49.2471ZM28.6777 34.6719L32.7939 49.5547L34.2881 56H32.252L27.8574 40.458L26.6562 34.6719H28.6777ZM54.4736 50.6094C54.4736 50.1113 54.3955 49.6719 54.2393 49.291C54.0928 48.9004 53.8291 48.5488 53.4482 48.2363C53.0771 47.9238 52.5596 47.626 51.8955 47.3428C51.2412 47.0596 50.4111 46.7715 49.4053 46.4785C48.3506 46.166 47.3984 45.8193 46.5488 45.4385C45.6992 45.0479 44.9717 44.6035 44.3662 44.1055C43.7607 43.6074 43.2969 43.0361 42.9746 42.3916C42.6523 41.7471 42.4912 41.0098 42.4912 40.1797C42.4912 39.3496 42.6621 38.583 43.0039 37.8799C43.3457 37.1768 43.834 36.5664 44.4688 36.0488C45.1133 35.5215 45.8799 35.1113 46.7686 34.8184C47.6572 34.5254 48.6484 34.3789 49.7422 34.3789C51.3438 34.3789 52.7012 34.6865 53.8145 35.3018C54.9375 35.9072 55.792 36.7031 56.3779 37.6895C56.9639 38.666 57.2568 39.7109 57.2568 40.8242H54.4443C54.4443 40.0234 54.2734 39.3154 53.9316 38.7002C53.5898 38.0752 53.0723 37.5869 52.3789 37.2354C51.6855 36.874 50.8066 36.6934 49.7422 36.6934C48.7363 36.6934 47.9062 36.8447 47.252 37.1475C46.5977 37.4502 46.1094 37.8604 45.7871 38.3779C45.4746 38.8955 45.3184 39.4863 45.3184 40.1504C45.3184 40.5996 45.4111 41.0098 45.5967 41.3809C45.792 41.7422 46.0898 42.0791 46.4902 42.3916C46.9004 42.7041 47.418 42.9922 48.043 43.2559C48.6777 43.5195 49.4346 43.7734 50.3135 44.0176C51.5244 44.3594 52.5693 44.7402 53.4482 45.1602C54.3271 45.5801 55.0498 46.0537 55.6162 46.5811C56.1924 47.0986 56.6172 47.6895 56.8906 48.3535C57.1738 49.0078 57.3154 49.75 57.3154 50.5801C57.3154 51.4492 57.1396 52.2354 56.7881 52.9385C56.4365 53.6416 55.9336 54.2422 55.2793 54.7402C54.625 55.2383 53.8389 55.624 52.9209 55.8975C52.0127 56.1611 50.9971 56.293 49.874 56.293C48.8877 56.293 47.916 56.1562 46.959 55.8828C46.0117 55.6094 45.1475 55.1992 44.3662 54.6523C43.5947 54.1055 42.9746 53.4316 42.5059 52.6309C42.0469 51.8203 41.8174 50.8828 41.8174 49.8184H44.6299C44.6299 50.5508 44.7715 51.1807 45.0547 51.708C45.3379 52.2256 45.7236 52.6553 46.2119 52.9971C46.71 53.3389 47.2715 53.5928 47.8965 53.7588C48.5312 53.915 49.1904 53.9932 49.874 53.9932C50.8604 53.9932 51.6953 53.8564 52.3789 53.583C53.0625 53.3096 53.5801 52.9189 53.9316 52.4111C54.293 51.9033 54.4736 51.3027 54.4736 50.6094ZM68.3164 31.2148V35.6826H66.1191V31.2148H68.3164ZM68.0527 55.1357V59.0469H65.8701V55.1357H68.0527ZM70.9824 50.5068C70.9824 49.9209 70.8506 49.3936 70.5869 48.9248C70.3232 48.4561 69.8887 48.0264 69.2832 47.6357C68.6777 47.2451 67.8672 46.8838 66.8516 46.5518C65.6211 46.1709 64.5566 45.707 63.6582 45.1602C62.7695 44.6133 62.0811 43.9346 61.5928 43.124C61.1143 42.3135 60.875 41.332 60.875 40.1797C60.875 38.9785 61.1338 37.9434 61.6514 37.0742C62.1689 36.2051 62.9014 35.5361 63.8486 35.0674C64.7959 34.5986 65.9092 34.3643 67.1885 34.3643C68.1846 34.3643 69.0732 34.5156 69.8545 34.8184C70.6357 35.1113 71.2949 35.5508 71.832 36.1367C72.3789 36.7227 72.7939 37.4404 73.0771 38.29C73.3701 39.1396 73.5166 40.1211 73.5166 41.2344H70.8213C70.8213 40.5801 70.7432 39.9795 70.5869 39.4326C70.4307 38.8857 70.1963 38.4121 69.8838 38.0117C69.5713 37.6016 69.1904 37.2891 68.7412 37.0742C68.292 36.8496 67.7744 36.7373 67.1885 36.7373C66.3682 36.7373 65.6895 36.8789 65.1523 37.1621C64.625 37.4453 64.2344 37.8457 63.9805 38.3633C63.7266 38.8711 63.5996 39.4619 63.5996 40.1357C63.5996 40.7607 63.7266 41.3076 63.9805 41.7764C64.2344 42.2451 64.6641 42.6699 65.2695 43.0508C65.8848 43.4219 66.7295 43.7881 67.8037 44.1494C69.0635 44.5498 70.1328 45.0234 71.0117 45.5703C71.8906 46.1074 72.5596 46.7715 73.0186 47.5625C73.4775 48.3438 73.707 49.3154 73.707 50.4775C73.707 51.7373 73.4238 52.8018 72.8574 53.6709C72.291 54.5303 71.4951 55.1846 70.4697 55.6338C69.4443 56.083 68.2432 56.3076 66.8662 56.3076C66.0361 56.3076 65.2158 56.1953 64.4053 55.9707C63.5947 55.7461 62.8623 55.3799 62.208 54.8721C61.5537 54.3545 61.0312 53.6758 60.6406 52.8359C60.25 51.9863 60.0547 50.9463 60.0547 49.7158H62.7793C62.7793 50.5459 62.8965 51.2344 63.1309 51.7812C63.375 52.3184 63.6973 52.748 64.0977 53.0703C64.498 53.3828 64.9375 53.6074 65.416 53.7441C65.9043 53.8711 66.3877 53.9346 66.8662 53.9346C67.7451 53.9346 68.4873 53.7979 69.0928 53.5244C69.708 53.2412 70.1768 52.8408 70.499 52.3232C70.8213 51.8057 70.9824 51.2002 70.9824 50.5068Z" fill="black"/>
</svg>
