<svg width="100" height="100" viewBox="0 0 100 100" fill="none" xmlns="http://www.w3.org/2000/svg">
<rect x="5" y="5" width="90" height="90" rx="45" fill="#F3BA2F"/>
<circle cx="50" cy="50" r="42" fill="#F3BA2F"/>
<path d="M25.8418 41.2266V59H23.4858V41.2266H25.8418ZM33.2881 49.2222V51.1509H25.3291V49.2222H33.2881ZM34.4966 41.2266V43.1553H25.3291V41.2266H34.4966ZM48.0342 53.3481H50.3779C50.2559 54.4712 49.9344 55.4762 49.4136 56.3633C48.8927 57.2503 48.1562 57.9543 47.2041 58.4751C46.252 58.9878 45.0638 59.2441 43.6396 59.2441C42.598 59.2441 41.6499 59.0488 40.7954 58.6582C39.9491 58.2676 39.2207 57.7142 38.6104 56.998C38 56.2738 37.528 55.4071 37.1943 54.3979C36.8688 53.3807 36.7061 52.2495 36.7061 51.0044V49.2344C36.7061 47.9893 36.8688 46.8621 37.1943 45.853C37.528 44.8358 38.0041 43.965 38.6226 43.2407C39.2492 42.5164 40.002 41.959 40.8809 41.5684C41.7598 41.1777 42.7485 40.9824 43.8472 40.9824C45.1899 40.9824 46.3252 41.2347 47.2529 41.7393C48.1807 42.2438 48.9009 42.9437 49.4136 43.8389C49.9344 44.7259 50.2559 45.7554 50.3779 46.9272H48.0342C47.9202 46.0972 47.7087 45.3851 47.3994 44.791C47.0902 44.1888 46.6507 43.7249 46.0811 43.3994C45.5114 43.0739 44.7668 42.9111 43.8472 42.9111C43.0578 42.9111 42.362 43.0617 41.7598 43.3628C41.1657 43.6639 40.6652 44.0911 40.2583 44.6445C39.8595 45.1979 39.5584 45.8612 39.355 46.6343C39.1515 47.4074 39.0498 48.266 39.0498 49.21V51.0044C39.0498 51.8752 39.1393 52.693 39.3184 53.458C39.5055 54.223 39.7863 54.8944 40.1606 55.4722C40.535 56.05 41.0111 56.5057 41.5889 56.8394C42.1667 57.1649 42.8503 57.3276 43.6396 57.3276C44.6406 57.3276 45.4382 57.1689 46.0322 56.8516C46.6263 56.5342 47.0739 56.0785 47.375 55.4844C47.6842 54.8903 47.904 54.1782 48.0342 53.3481ZM55.9443 41.2266V59H53.5884V41.2266H55.9443ZM63.3906 49.2222V51.1509H55.4316V49.2222H63.3906ZM64.5991 41.2266V43.1553H55.4316V41.2266H64.5991ZM71.9111 42.8013L66.0273 59H63.6226L70.3975 41.2266H71.9478L71.9111 42.8013ZM76.8428 59L70.9468 42.8013L70.9102 41.2266H72.4604L79.2598 59H76.8428ZM76.5376 52.4204V54.3491H66.5522V52.4204H76.5376Z" fill="black"/>
</svg>
