<svg width="100" height="100" viewBox="0 0 100 100" fill="none" xmlns="http://www.w3.org/2000/svg">
<rect x="5" y="5" width="90" height="90" rx="45" fill="#F3BA2F"/>
<circle cx="50" cy="50" r="42" fill="#F3BA2F"/>
<path d="M39.292 58.7002V61H27.998V58.7002H39.292ZM28.5693 39.6719V61H25.7422V39.6719H28.5693ZM37.7979 48.8418V51.1416H27.998V48.8418H37.7979ZM39.1455 39.6719V41.9863H27.998V39.6719H39.1455ZM55.6689 54.2178H58.4814C58.335 55.5654 57.9492 56.7715 57.3242 57.8359C56.6992 58.9004 55.8154 59.7451 54.6729 60.3701C53.5303 60.9854 52.1045 61.293 50.3955 61.293C49.1455 61.293 48.0078 61.0586 46.9824 60.5898C45.9668 60.1211 45.0928 59.457 44.3604 58.5977C43.6279 57.7285 43.0615 56.6885 42.6611 55.4775C42.2705 54.2568 42.0752 52.8994 42.0752 51.4053V49.2812C42.0752 47.7871 42.2705 46.4346 42.6611 45.2236C43.0615 44.0029 43.6328 42.958 44.375 42.0889C45.127 41.2197 46.0303 40.5508 47.085 40.082C48.1396 39.6133 49.3262 39.3789 50.6445 39.3789C52.2559 39.3789 53.6182 39.6816 54.7314 40.2871C55.8447 40.8926 56.709 41.7324 57.3242 42.8066C57.9492 43.8711 58.335 45.1064 58.4814 46.5127H55.6689C55.5322 45.5166 55.2783 44.6621 54.9072 43.9492C54.5361 43.2266 54.0088 42.6699 53.3252 42.2793C52.6416 41.8887 51.748 41.6934 50.6445 41.6934C49.6973 41.6934 48.8623 41.874 48.1396 42.2354C47.4268 42.5967 46.8262 43.1094 46.3379 43.7734C45.8594 44.4375 45.498 45.2334 45.2539 46.1611C45.0098 47.0889 44.8877 48.1191 44.8877 49.252V51.4053C44.8877 52.4502 44.9951 53.4316 45.21 54.3496C45.4346 55.2676 45.7715 56.0732 46.2207 56.7666C46.6699 57.46 47.2412 58.0068 47.9346 58.4072C48.6279 58.7979 49.4482 58.9932 50.3955 58.9932C51.5967 58.9932 52.5537 58.8027 53.2666 58.4219C53.9795 58.041 54.5166 57.4941 54.8779 56.7812C55.249 56.0684 55.5127 55.2139 55.6689 54.2178ZM69.7314 36.2148V40.6826H67.5342V36.2148H69.7314ZM69.4678 60.1357V64.0469H67.2852V60.1357H69.4678ZM72.3975 55.5068C72.3975 54.9209 72.2656 54.3936 72.002 53.9248C71.7383 53.4561 71.3037 53.0264 70.6982 52.6357C70.0928 52.2451 69.2822 51.8838 68.2666 51.5518C67.0361 51.1709 65.9717 50.707 65.0732 50.1602C64.1846 49.6133 63.4961 48.9346 63.0078 48.124C62.5293 47.3135 62.29 46.332 62.29 45.1797C62.29 43.9785 62.5488 42.9434 63.0664 42.0742C63.584 41.2051 64.3164 40.5361 65.2637 40.0674C66.2109 39.5986 67.3242 39.3643 68.6035 39.3643C69.5996 39.3643 70.4883 39.5156 71.2695 39.8184C72.0508 40.1113 72.71 40.5508 73.2471 41.1367C73.7939 41.7227 74.209 42.4404 74.4922 43.29C74.7852 44.1396 74.9316 45.1211 74.9316 46.2344H72.2363C72.2363 45.5801 72.1582 44.9795 72.002 44.4326C71.8457 43.8857 71.6113 43.4121 71.2988 43.0117C70.9863 42.6016 70.6055 42.2891 70.1562 42.0742C69.707 41.8496 69.1895 41.7373 68.6035 41.7373C67.7832 41.7373 67.1045 41.8789 66.5674 42.1621C66.04 42.4453 65.6494 42.8457 65.3955 43.3633C65.1416 43.8711 65.0146 44.4619 65.0146 45.1357C65.0146 45.7607 65.1416 46.3076 65.3955 46.7764C65.6494 47.2451 66.0791 47.6699 66.6846 48.0508C67.2998 48.4219 68.1445 48.7881 69.2188 49.1494C70.4785 49.5498 71.5479 50.0234 72.4268 50.5703C73.3057 51.1074 73.9746 51.7715 74.4336 52.5625C74.8926 53.3438 75.1221 54.3154 75.1221 55.4775C75.1221 56.7373 74.8389 57.8018 74.2725 58.6709C73.7061 59.5303 72.9102 60.1846 71.8848 60.6338C70.8594 61.083 69.6582 61.3076 68.2812 61.3076C67.4512 61.3076 66.6309 61.1953 65.8203 60.9707C65.0098 60.7461 64.2773 60.3799 63.623 59.8721C62.9688 59.3545 62.4463 58.6758 62.0557 57.8359C61.665 56.9863 61.4697 55.9463 61.4697 54.7158H64.1943C64.1943 55.5459 64.3115 56.2344 64.5459 56.7812C64.79 57.3184 65.1123 57.748 65.5127 58.0703C65.9131 58.3828 66.3525 58.6074 66.8311 58.7441C67.3193 58.8711 67.8027 58.9346 68.2812 58.9346C69.1602 58.9346 69.9023 58.7979 70.5078 58.5244C71.123 58.2412 71.5918 57.8408 71.9141 57.3232C72.2363 56.8057 72.3975 56.2002 72.3975 55.5068Z" fill="black"/>
</svg>
