<svg width="100" height="100" viewBox="0 0 100 100" fill="none" xmlns="http://www.w3.org/2000/svg">
<rect x="5" y="5" width="90" height="90" rx="45" fill="#F3BA2F"/>
<circle cx="50" cy="50" r="42" fill="#F3BA2F"/>
<path d="M38.75 53.2178H41.5625C41.416 54.5654 41.0303 55.7715 40.4053 56.8359C39.7803 57.9004 38.8965 58.7451 37.7539 59.3701C36.6113 59.9854 35.1855 60.293 33.4766 60.293C32.2266 60.293 31.0889 60.0586 30.0635 59.5898C29.0479 59.1211 28.1738 58.457 27.4414 57.5977C26.709 56.7285 26.1426 55.6885 25.7422 54.4775C25.3516 53.2568 25.1562 51.8994 25.1562 50.4053V48.2812C25.1562 46.7871 25.3516 45.4346 25.7422 44.2236C26.1426 43.0029 26.7139 41.958 27.4561 41.0889C28.208 40.2197 29.1113 39.5508 30.166 39.082C31.2207 38.6133 32.4072 38.3789 33.7256 38.3789C35.3369 38.3789 36.6992 38.6816 37.8125 39.2871C38.9258 39.8926 39.79 40.7324 40.4053 41.8066C41.0303 42.8711 41.416 44.1064 41.5625 45.5127H38.75C38.6133 44.5166 38.3594 43.6621 37.9883 42.9492C37.6172 42.2266 37.0898 41.6699 36.4062 41.2793C35.7227 40.8887 34.8291 40.6934 33.7256 40.6934C32.7783 40.6934 31.9434 40.874 31.2207 41.2354C30.5078 41.5967 29.9072 42.1094 29.4189 42.7734C28.9404 43.4375 28.5791 44.2334 28.335 45.1611C28.0908 46.0889 27.9688 47.1191 27.9688 48.252V50.4053C27.9688 51.4502 28.0762 52.4316 28.291 53.3496C28.5156 54.2676 28.8525 55.0732 29.3018 55.7666C29.751 56.46 30.3223 57.0068 31.0156 57.4072C31.709 57.7979 32.5293 57.9932 33.4766 57.9932C34.6777 57.9932 35.6348 57.8027 36.3477 57.4219C37.0605 57.041 37.5977 56.4941 37.959 55.7812C38.3301 55.0684 38.5938 54.2139 38.75 53.2178ZM48.2422 38.6719V60H45.415V38.6719H48.2422ZM57.1777 48.2666V50.5811H47.627V48.2666H57.1777ZM58.6279 38.6719V40.9863H47.627V38.6719H58.6279ZM67.4023 40.5615L60.3418 60H57.4561L65.5859 38.6719H67.4463L67.4023 40.5615ZM73.3203 60L66.2451 40.5615L66.2012 38.6719H68.0615L76.2207 60H73.3203ZM72.9541 52.1045V54.4189H60.9717V52.1045H72.9541Z" fill="black"/>
</svg>
