<svg width="100" height="100" viewBox="0 0 100 100" fill="none" xmlns="http://www.w3.org/2000/svg">
<rect x="5" y="5" width="90" height="90" rx="45" fill="#F3BA2F"/>
<circle cx="50" cy="50" r="42" fill="#F3BA2F"/>
<path d="M37.833 67.708C35.783 67.708 33.8697 67.38 32.093 66.724C30.3437 66.068 28.9223 65.084 27.829 63.772C26.763 62.46 26.23 60.8063 26.23 58.811C26.23 58.401 26.271 57.827 26.353 57.089C26.4623 56.3237 26.681 55.408 27.009 54.342C27.337 53.276 27.8563 52.1007 28.567 50.816L31.396 52.21C30.986 53.0573 30.6443 53.8363 30.371 54.547C30.0977 55.2303 29.8927 55.8727 29.756 56.474C29.6467 57.048 29.592 57.622 29.592 58.196C29.592 59.59 29.961 60.738 30.699 61.64C31.4643 62.5693 32.4757 63.2527 33.733 63.69C35.0177 64.1273 36.4253 64.346 37.956 64.346C40.4433 64.346 42.3977 63.854 43.819 62.87C45.2403 61.9133 46.238 60.5193 46.812 58.688C47.386 56.8293 47.6183 54.6017 47.509 52.005L46.73 30.726H50.133L50.789 51.513C50.8437 53.645 50.6797 55.6813 50.297 57.622C49.9143 59.5627 49.231 61.2847 48.247 62.788C47.263 64.3187 45.91 65.5213 44.188 66.396C42.4933 67.2707 40.375 67.708 37.833 67.708ZM62.884 67.667C62.2827 67.667 61.777 67.462 61.367 67.052C60.957 66.642 60.752 66.15 60.752 65.576C60.752 64.9747 60.957 64.4553 61.367 64.018C61.777 63.608 62.2827 63.403 62.884 63.403C63.458 63.403 63.95 63.608 64.36 64.018C64.77 64.4553 64.975 64.9747 64.975 65.576C64.975 66.15 64.77 66.642 64.36 67.052C63.95 67.462 63.458 67.667 62.884 67.667ZM68.173 67.667C67.5717 67.667 67.066 67.462 66.656 67.052C66.246 66.642 66.041 66.15 66.041 65.576C66.041 64.9747 66.246 64.4553 66.656 64.018C67.066 63.608 67.5717 63.403 68.173 63.403C68.747 63.403 69.239 63.608 69.649 64.018C70.059 64.4553 70.264 64.9747 70.264 65.576C70.264 66.15 70.059 66.642 69.649 67.052C69.239 67.462 68.747 67.667 68.173 67.667ZM39.227 55.121C37.833 55.121 36.7123 54.8613 35.865 54.342C35.045 53.7953 34.4437 53.0847 34.061 52.21C33.6783 51.3353 33.487 50.406 33.487 49.422C33.487 48.1647 33.8287 46.7297 34.512 45.117C35.1953 43.5043 36.3297 41.9053 37.915 40.32L40.334 42.165C39.4047 43.149 38.5847 44.256 37.874 45.486C37.1907 46.6887 36.849 47.8367 36.849 48.93C36.849 49.75 37.0813 50.3923 37.546 50.857C38.0107 51.3217 38.6803 51.554 39.555 51.554C40.2383 51.554 40.9217 51.4037 41.605 51.103C42.3157 50.775 43.1083 50.2693 43.983 49.586C44.8577 48.9027 45.8963 48.0007 47.099 46.88C48.3017 45.7593 49.764 44.4063 51.486 42.821C53.5633 40.9077 55.2717 39.3907 56.611 38.27C57.9503 37.122 59.112 36.302 60.096 35.81C61.1073 35.2907 62.1187 35.031 63.13 35.031C64.524 35.031 65.7677 35.4683 66.861 36.343C67.9817 37.1903 68.7333 38.5707 69.116 40.484L66.328 41.591C66.1093 40.9623 65.8497 40.4157 65.549 39.951C65.2757 39.4863 64.934 39.131 64.524 38.885C64.1413 38.639 63.663 38.516 63.089 38.516C62.515 38.516 61.9273 38.6527 61.326 38.926C60.7247 39.1993 60.0413 39.623 59.276 40.197C58.538 40.771 57.6633 41.5227 56.652 42.452C55.668 43.3813 54.479 44.4883 53.085 45.773C50.9803 47.741 49.2173 49.34 47.796 50.57C46.402 51.7727 45.213 52.7157 44.229 53.399C43.245 54.055 42.3703 54.506 41.605 54.752C40.8397 54.998 40.047 55.121 39.227 55.121ZM63.171 60.205C61.0937 60.205 59.4673 59.9863 58.292 59.549C57.1167 59.1117 56.283 58.3737 55.791 57.335C55.299 56.2963 55.0257 54.9023 54.971 53.153L54.151 30.726H57.513L58.333 51.841C58.3877 52.8523 58.4697 53.686 58.579 54.342C58.6883 54.9707 58.907 55.4763 59.235 55.859C59.563 56.2143 60.0687 56.474 60.752 56.638C61.4353 56.7747 62.3647 56.843 63.54 56.843C65.0707 56.843 66.2187 56.761 66.984 56.597C67.7767 56.4057 68.3097 56.064 68.583 55.572C68.8837 55.0527 69.034 54.301 69.034 53.317C69.034 52.2783 68.788 50.98 68.296 49.422C67.8313 47.8367 67.2983 46.265 66.697 44.707L70.018 43.477C70.3733 44.3517 70.7013 45.3493 71.002 46.47C71.33 47.5907 71.6033 48.6977 71.822 49.791C72.0407 50.8843 72.15 51.841 72.15 52.661C72.15 54.0277 71.9587 55.1893 71.576 56.146C71.2207 57.1027 70.674 57.8817 69.936 58.483C69.198 59.0843 68.2687 59.5217 67.148 59.795C66.0273 60.0683 64.7017 60.205 63.171 60.205Z" fill="black"/>
</svg>
