<svg width="100" height="100" viewBox="0 0 100 100" fill="none" xmlns="http://www.w3.org/2000/svg">
<rect x="5" y="5" width="90" height="90" rx="45" fill="#F3BA2F"/>
<circle cx="50" cy="50" r="42" fill="#F3BA2F"/>
<path d="M37.8672 29.1875H51.0469C54.0365 29.1875 56.5612 29.6432 58.6211 30.5547C60.6992 31.4661 62.276 32.8151 63.3516 34.6016C64.4453 36.3698 64.9922 38.5482 64.9922 41.1367C64.9922 42.9596 64.6185 44.6276 63.8711 46.1406C63.1419 47.6354 62.0846 48.9115 60.6992 49.9688C59.332 51.0078 57.6914 51.7826 55.7773 52.293L54.3008 52.8672H41.9141L41.8594 48.5742H51.2109C53.1068 48.5742 54.6836 48.2461 55.9414 47.5898C57.1992 46.9154 58.1471 46.013 58.7852 44.8828C59.4232 43.7526 59.7422 42.5039 59.7422 41.1367C59.7422 39.6055 59.4414 38.2656 58.8398 37.1172C58.2383 35.9688 57.2904 35.0846 55.9961 34.4648C54.7201 33.8268 53.0703 33.5078 51.0469 33.5078H43.1445V69H37.8672V29.1875ZM61.1367 69L51.457 50.9531L56.9531 50.9258L66.7695 68.6719V69H61.1367Z" fill="black"/>
</svg>
