<svg width="100" height="100" viewBox="0 0 100 100" fill="none" xmlns="http://www.w3.org/2000/svg">
<rect x="5" y="5" width="90" height="90" rx="45" fill="#F3BA2F"/>
<circle cx="50" cy="50" r="42" fill="#F3BA2F"/>
<path d="M47.832 60.9336V64H28.5742V60.9336H47.832ZM47.207 38.2969L29.4727 64H27.1484V61.1875L44.8633 35.5625H47.207V38.2969ZM45.6055 35.5625V38.6484H27.4023V35.5625H45.6055ZM56.5039 35.5625V64H52.7344V35.5625H56.5039ZM73.6719 35.5625L61.8555 48.8242L55.2148 55.7188L54.5898 51.6953L59.5898 46.1875L69.1406 35.5625H73.6719ZM70.0391 64L59.5117 50.1328L61.7578 47.1445L74.5312 64H70.0391Z" fill="black"/>
</svg>
