<svg width="100" height="100" viewBox="0 0 100 100" fill="none" xmlns="http://www.w3.org/2000/svg">
<rect x="5" y="5" width="90" height="90" rx="45" fill="#F3BA2F"/>
<circle cx="50" cy="50" r="42" fill="#F3BA2F"/>
<path d="M48.6211 61.627V65H27.4375V61.627H48.6211ZM47.9336 36.7266L28.4258 65H25.8691V61.9062L45.3555 33.7188H47.9336V36.7266ZM46.1719 33.7188V37.1133H26.1484V33.7188H46.1719ZM64.8633 28.6484V35.2012H61.6406V28.6484H64.8633ZM64.4766 63.7324V69.4688H61.2754V63.7324H64.4766ZM68.7734 56.9434C68.7734 56.084 68.5801 55.3105 68.1934 54.623C67.8066 53.9355 67.1693 53.3053 66.2812 52.7324C65.3932 52.1595 64.2044 51.6296 62.7148 51.1426C60.9102 50.584 59.349 49.9036 58.0312 49.1016C56.7279 48.2995 55.7181 47.304 55.002 46.1152C54.3001 44.9264 53.9492 43.487 53.9492 41.7969C53.9492 40.0352 54.3288 38.5169 55.0879 37.2422C55.847 35.9674 56.9212 34.9863 58.3105 34.2988C59.6999 33.6113 61.3327 33.2676 63.209 33.2676C64.6699 33.2676 65.9733 33.4896 67.1191 33.9336C68.265 34.3633 69.2318 35.0078 70.0195 35.8672C70.8216 36.7266 71.4303 37.7793 71.8457 39.0254C72.2754 40.2715 72.4902 41.7109 72.4902 43.3438H68.5371C68.5371 42.3841 68.4225 41.5033 68.1934 40.7012C67.9642 39.8991 67.6204 39.2044 67.1621 38.6172C66.7038 38.0156 66.1452 37.5573 65.4863 37.2422C64.8275 36.9128 64.0684 36.748 63.209 36.748C62.0059 36.748 61.0104 36.9557 60.2227 37.3711C59.4492 37.7865 58.8763 38.3737 58.5039 39.1328C58.1315 39.8776 57.9453 40.7441 57.9453 41.7324C57.9453 42.6491 58.1315 43.4512 58.5039 44.1387C58.8763 44.8262 59.5065 45.4492 60.3945 46.0078C61.2969 46.5521 62.5358 47.0892 64.1113 47.6191C65.959 48.2064 67.5273 48.901 68.8164 49.7031C70.1055 50.4909 71.0866 51.4648 71.7598 52.625C72.4329 53.7708 72.7695 55.196 72.7695 56.9004C72.7695 58.748 72.3542 60.3092 71.5234 61.584C70.6927 62.8444 69.5254 63.804 68.0215 64.4629C66.5176 65.1217 64.7559 65.4512 62.7363 65.4512C61.5189 65.4512 60.3158 65.2865 59.127 64.957C57.9382 64.6276 56.8639 64.0905 55.9043 63.3457C54.9447 62.5866 54.1784 61.5911 53.6055 60.3594C53.0326 59.1133 52.7461 57.5879 52.7461 55.7832H56.7422C56.7422 57.0007 56.9141 58.0104 57.2578 58.8125C57.6159 59.6003 58.0885 60.2305 58.6758 60.7031C59.263 61.1615 59.9076 61.4909 60.6094 61.6914C61.3255 61.8776 62.0345 61.9707 62.7363 61.9707C64.0254 61.9707 65.1139 61.7702 66.002 61.3691C66.9043 60.9538 67.5918 60.3665 68.0645 59.6074C68.5371 58.8483 68.7734 57.9603 68.7734 56.9434Z" fill="black"/>
</svg>
